<?xml version="1.0" encoding="UTF-8" standalone="no"?>
<svg
   xmlns:dc="http://purl.org/dc/elements/1.1/"
   xmlns:cc="http://creativecommons.org/ns#"
   xmlns:rdf="http://www.w3.org/1999/02/22-rdf-syntax-ns#"
   xmlns:svg="http://www.w3.org/2000/svg"
   xmlns="http://www.w3.org/2000/svg"
   xmlns:sodipodi="http://sodipodi.sourceforge.net/DTD/sodipodi-0.dtd"
   xmlns:inkscape="http://www.inkscape.org/namespaces/inkscape"
   inkscape:version="1.0beta1 (32d4812, 2019-09-19)"
   height="100"
   width="100"
   sodipodi:docname="icon_117098.svg"
   id="svg16"
   xml:space="preserve"
   enable-background="new 0 0 100 100"
   viewBox="0 0 100 100"
   y="0px"
   x="0px"
   version="1.1">
  <metadata
     id="metadata22">
    <rdf:RDF>
      <cc:Work
         rdf:about="">
        <dc:format>image/svg+xml</dc:format>
        <dc:type
           rdf:resource="http://purl.org/dc/dcmitype/StillImage" />
        <dc:title></dc:title>
      </cc:Work>
    </rdf:RDF>
  </metadata>
  <defs
     id="defs20" />
  <sodipodi:namedview
     inkscape:current-layer="svg16"
     inkscape:window-maximized="0"
     inkscape:window-y="23"
     inkscape:window-x="0"
     inkscape:cy="75.293687"
     inkscape:cx="60.166025"
     inkscape:zoom="3.2708834"
     showgrid="false"
     id="namedview18"
     inkscape:window-height="907"
     inkscape:window-width="1661"
     inkscape:pageshadow="2"
     inkscape:pageopacity="0"
     guidetolerance="10"
     gridtolerance="10"
     objecttolerance="10"
     borderopacity="1"
     inkscape:document-rotation="0"
     bordercolor="#666666"
     pagecolor="#ffffff" />
  <path
     inkscape:connector-curvature="0"
     id="path10"
     d="m 50,56.7 c -1.7,0 -3.2,0.3 -4.4,0.8 0.6,-0.9 1.9,-2.3 3.5,-2.7 l 0.9,-7.2 0.9,7.2 c 1.6,0.4 3,1.8 3.5,2.7 C 53.2,57 51.7,56.7 50,56.7 Z M 61.3,73.5 C 58.8,74 54.7,74.3 50,74.3 45.4,74.3 41.3,74 38.7,73.5 38.8,74.4 43.8,76 50,76 c 6.2,0 11.2,-1.6 11.3,-2.5 z m 13.4,-1.8 c -5.5,0 -10,-4.5 -10,-10 0,-5.5 4.5,-10 10,-10 5.5,0 10,4.5 10,10 0,5.5 -4.5,10 -10,10 z m 8.5,-10 c 0,-4.7 -3.8,-8.5 -8.5,-8.5 -4.7,0 -8.5,3.8 -8.5,8.5 0,4.7 3.8,8.5 8.5,8.5 4.7,0 8.5,-3.8 8.5,-8.5 z m 9.2,12.4 C 89,79.2 83.6,81.5 80.4,79.3 80.1,79.1 79.8,78.8 79.6,78.5 72,86.2 61.6,91 50,91 38.4,91 28,86.2 20.5,78.5 20.2,78.8 20,79.1 19.7,79.3 16.5,81.5 11.1,79.2 7.7,74.1 4.3,69 4.2,63.1 7.4,60.9 8.2,60.3 9.2,60.1 10.3,60.1 9.4,56.9 9,53.5 9,50 9,27.4 27.4,9 50,9 c 22.6,0 41,18.4 41,41 0,3.5 -0.4,6.9 -1.3,10.1 1.1,0 2.1,0.3 2.9,0.8 3.3,2.2 3.2,8.1 -0.2,13.2 z m -73.6,2.5 c -0.7,-0.8 -1.3,-1.6 -1.9,-2.5 -0.6,0.6 -1.3,1.1 -2.3,1.1 0.4,0 1,-0.7 1.3,-1.3 -1.6,0.2 -3,-0.4 -3.2,-1.5 -0.2,-0.9 0.4,-1.9 1.4,-2.6 -0.4,-0.3 -1,-0.7 -1.6,-0.9 l -0.4,2.6 -0.5,-2.9 c -0.9,-0.2 -1.8,-0.2 -2.2,0.2 1.3,-1.3 2.7,-1.3 3.7,-1.1 -0.8,-1.7 -1.5,-3.4 -2.1,-5.2 -0.8,0 -1.5,0.2 -2.1,0.6 -2.6,1.7 -2.5,6.2 0.1,10 2.6,3.9 6.7,5.6 9.2,3.9 0.2,-0.1 0.4,-0.2 0.6,-0.4 z M 13.9,72 c 0.2,0.7 1.1,1.1 2.2,0.9 -0.5,-0.8 -1,-1.6 -1.5,-2.4 -0.6,0.5 -0.9,1 -0.7,1.5 z m 67.7,0.8 C 81.8,72.5 82,72.3 82.1,72 82.6,71.3 83,70.6 83.5,69.8 83.7,69.5 83.8,69.3 84,69 v 0 c 1.1,-2 2,-4 2.8,-6.1 0.3,-0.8 0.5,-1.6 0.8,-2.5 C 88.5,57.1 89,53.6 89,50 89,28.5 71.5,11 50,11 28.5,11 11,28.5 11,50 c 0,3.6 0.5,7.1 1.4,10.5 0.2,0.8 0.5,1.6 0.8,2.5 0.8,2.1 1.7,4.2 2.8,6.1 v 0 c 0.2,0.3 0.3,0.5 0.5,0.8 0.4,0.7 0.9,1.5 1.4,2.2 0.2,0.3 0.4,0.5 0.5,0.8 0.5,0.6 0.9,1.2 1.4,1.8 0.6,0.7 1.2,1.3 1.8,2 7.1,7.6 17.2,12.3 28.4,12.3 11.2,0 21.3,-4.7 28.4,-12.3 0.6,-0.6 1.2,-1.3 1.8,-2 0.5,-0.6 1,-1.2 1.4,-1.9 z m 3.9,-2.2 c -0.5,0.8 -1,1.6 -1.5,2.4 1.1,0.2 2,-0.2 2.2,-0.9 C 86.3,71.5 86,71 85.5,70.6 Z m 5.7,-7.5 c -0.6,-0.4 -1.4,-0.6 -2.1,-0.6 -0.6,1.8 -1.3,3.5 -2.1,5.2 1,-0.2 2.4,-0.2 3.7,1.1 -0.4,-0.4 -1.3,-0.4 -2.2,-0.2 L 88,71.5 87.6,68.9 c -0.6,0.3 -1.2,0.6 -1.6,0.9 1.1,0.7 1.7,1.7 1.4,2.6 -0.3,1.1 -1.7,1.7 -3.2,1.5 0.3,0.6 0.9,1.3 1.3,1.3 -0.9,0 -1.6,-0.5 -2.3,-1.1 -0.6,0.8 -1.3,1.7 -1.9,2.5 0.2,0.2 0.4,0.4 0.6,0.5 2.5,1.7 6.6,-0.1 9.2,-3.9 2.5,-3.9 2.6,-8.4 0.1,-10.1 z M 56,76.8 c -1.3,0.2 -3.5,0.4 -6,0.4 -2.5,0 -4.6,-0.2 -6,-0.4 0,0.4 1.9,1 4.3,1.2 -1,0.5 -1.8,1.2 -1.8,1.4 0.8,-0.1 2,-0.2 3.4,-0.2 1.4,0 2.7,0.1 3.4,0.2 0,-0.2 -0.7,-0.9 -1.8,-1.4 2.6,-0.2 4.4,-0.9 4.5,-1.2 z M 69,41.2 c -2.2,0 -4,1.8 -4,4 v 3.5 H 81.3 C 83.4,48.7 85,47 85,45 v 0 c 0,-2.1 -1.7,-3.7 -3.7,-3.7 H 69 Z M 47,34.5 c 1.6,1.8 4.4,1.8 6,0 4.1,-4.8 10.2,-7.8 17,-7.8 4.7,0 9.1,1.5 12.7,4 C 76.1,19.5 63.9,12 50,12 36.1,12 23.9,19.5 17.3,30.7 c 3.6,-2.5 8,-4 12.7,-4 6.8,0.1 12.9,3.1 17,7.8 z m 13.2,26.8 c -1.7,2.1 -5.6,3.5 -10.2,3.5 -4.6,0 -8.4,-1.4 -10.2,-3.5 0.3,2.8 4.7,6.1 10.2,6.1 5.5,0 9.9,-3.3 10.2,-6.1 z M 63,68.5 H 53 c -1.1,0 -2,0.9 -2,2 v 1 h 12 l 2,2 v -2 -1 c 0,-1.1 -0.9,-2 -2,-2 z m 15.3,-6.7 c 0,0.3 0.1,0.5 0.1,0.8 0,2.8 -2.2,5 -5,5 -2.8,0 -5,-2.2 -5,-5 0,-2.8 2.2,-5 5,-5 1.1,0 2.2,0.4 3,1 -0.2,0 -0.4,-0.1 -0.6,-0.1 -1.4,0 -2.6,1.2 -2.6,2.6 0,1.4 1.2,2.6 2.6,2.6 1.2,0 2.2,-0.8 2.5,-1.9 z m -4.9,2.3 c 0,-0.9 -0.7,-1.6 -1.6,-1.6 -0.9,0 -1.6,0.7 -1.6,1.6 0,0.9 0.7,1.6 1.6,1.6 0.9,0 1.6,-0.7 1.6,-1.6 z M 50,81 c -5,0 -9.4,4.1 -12.5,2.6 0.1,3 5.6,4.3 12.5,4.3 6.9,0 12.5,-1.4 12.5,-4.3 C 59.4,85.1 55,81 50,81 Z M 49,70.5 c 0,-1.1 -0.9,-2 -2,-2 H 37 c -1.1,0 -2,0.9 -2,2 v 1 2 l 2,-2 H 49 Z M 31.6,62.6 c 0,2.8 -2.2,5 -5,5 -2.8,0 -5,-2.2 -5,-5 0,-2.8 2.2,-5 5,-5 1.1,0 2.2,0.4 3,1 -0.2,0 -0.4,-0.1 -0.6,-0.1 -1.4,0 -2.6,1.2 -2.6,2.6 0,1.4 1.2,2.6 2.6,2.6 1.2,0 2.2,-0.8 2.5,-2 0.1,0.3 0.1,0.6 0.1,0.9 z m -5,1.5 c 0,-0.9 -0.7,-1.6 -1.6,-1.6 -0.9,0 -1.6,0.7 -1.6,1.6 0,0.9 0.7,1.6 1.6,1.6 0.9,0 1.6,-0.7 1.6,-1.6 z M 18.7,48.7 H 35 v -3.5 c 0,-2.2 -1.8,-4 -4,-4 H 18.7 c -2.1,0 -3.7,1.7 -3.7,3.7 v 0 c 0,2.1 1.7,3.8 3.7,3.8 z m 16.6,13 c 0,5.5 -4.5,10 -10,10 -5.5,0 -10,-4.5 -10,-10 0,-5.5 4.5,-10 10,-10 5.5,0 10,4.4 10,10 z m -1.5,0 c 0,-4.7 -3.8,-8.5 -8.5,-8.5 -4.7,0 -8.5,3.8 -8.5,8.5 0,4.7 3.8,8.5 8.5,8.5 4.7,0 8.5,-3.8 8.5,-8.5 z" />
</svg>
