<?xml version="1.0" encoding="UTF-8" standalone="no"?>
<svg
   xmlns:dc="http://purl.org/dc/elements/1.1/"
   xmlns:cc="http://creativecommons.org/ns#"
   xmlns:rdf="http://www.w3.org/1999/02/22-rdf-syntax-ns#"
   xmlns:svg="http://www.w3.org/2000/svg"
   xmlns="http://www.w3.org/2000/svg"
   xmlns:sodipodi="http://sodipodi.sourceforge.net/DTD/sodipodi-0.dtd"
   xmlns:inkscape="http://www.inkscape.org/namespaces/inkscape"
   height="100"
   width="100"
   inkscape:version="1.0beta1 (32d4812, 2019-09-19)"
   sodipodi:docname="icon_957376.svg"
   id="svg30"
   xml:space="preserve"
   viewBox="0 0 100 100"
   y="0px"
   x="0px"
   version="1.1">
  <metadata
     id="metadata36">
    <rdf:RDF>
      <cc:Work
         rdf:about="">
        <dc:format>image/svg+xml</dc:format>
        <dc:type
           rdf:resource="http://purl.org/dc/dcmitype/StillImage" />
        <dc:title></dc:title>
      </cc:Work>
    </rdf:RDF>
  </metadata>
  <defs
     id="defs34" />
  <sodipodi:namedview
     inkscape:current-layer="svg30"
     inkscape:window-maximized="0"
     inkscape:window-y="23"
     inkscape:window-x="0"
     inkscape:cy="63.570158"
     inkscape:cx="50.223931"
     inkscape:zoom="2.8795186"
     showgrid="false"
     id="namedview32"
     inkscape:window-height="907"
     inkscape:window-width="1600"
     inkscape:pageshadow="2"
     inkscape:pageopacity="0"
     guidetolerance="10"
     gridtolerance="10"
     objecttolerance="10"
     borderopacity="1"
     inkscape:document-rotation="0"
     bordercolor="#666666"
     pagecolor="#ffffff" />
  <g
     id="g24">
    <path
       inkscape:connector-curvature="0"
       id="path10"
       d="m 78.1,40.7 c -1.5,0 -2.9,0.2 -4.2,0.6 -4.6,-7.4 -12.5,-12.5 -21.7,-13.2 1.8,-2.7 4.9,-4.4 8.4,-4.4 0.8,0 1.5,-0.7 1.5,-1.5 0,-0.8 -0.7,-1.5 -1.5,-1.5 -4.2,0 -7.9,2 -10.3,5.1 -1.4,-3.1 -3.9,-5.5 -7,-6.7 -0.8,-0.3 -1.6,0.1 -2,0.8 -0.3,0.8 0.1,1.6 0.8,2 2.5,1 4.5,3 5.5,5.4 0.1,0.3 0.2,0.5 0.3,0.8 -9.2,0.7 -17.2,5.8 -21.8,13.2 -1.3,-0.4 -2.7,-0.6 -4.2,-0.6 -8.5,0 -15.4,6.9 -15.4,15.4 0,8.5 6.9,15.4 15.4,15.4 1.5,0 2.9,-0.2 4.2,-0.6 5,8 13.8,13.3 23.9,13.3 10.1,0 18.9,-5.3 23.9,-13.3 1.3,0.4 2.7,0.6 4.2,0.6 8.5,0 15.4,-6.9 15.4,-15.4 0,-8.5 -6.9,-15.4 -15.4,-15.4 z M 18.1,67 c -4,0 -7.3,-5 -7.3,-11.2 0,-6.2 3.3,-11.2 7.3,-11.2 3.2,0 5.9,3.1 6.9,7.5 0.3,1.1 -4,-1.3 -4,0 0,1 4.3,5.7 4.2,6.6 -0.9,4.8 -3.7,8.3 -7.1,8.3 z m 49.1,-1.5 c 0.6,1.1 0.9,2.4 0.9,3.6 0,6.4 -8.1,11.6 -18.2,11.6 -10,0 -18.2,-5.2 -18.2,-11.6 0,-1.3 0.3,-2.5 0.9,-3.6 -4.4,-2.4 -7.3,-7.1 -7.3,-12.5 0,-7.9 6.4,-14.2 14.2,-14.2 4.1,0 7.7,1.7 10.3,4.4 2.6,-2.7 6.3,-4.4 10.3,-4.4 7.9,0 14.2,6.4 14.2,14.2 0.3,5.4 -2.7,10.1 -7.1,12.5 z M 82.4,67 c -3.4,0 -6.2,-3.5 -7,-8.2 -0.2,-0.9 4.2,-5.6 4.2,-6.6 0,-1.3 -4.3,1.2 -4,0 1,-4.4 3.7,-7.5 6.9,-7.5 4,0 7.3,5 7.3,11.2 C 89.7,62 86.4,67 82.4,67 Z" />
    <ellipse
       id="ellipse12"
       ry="2"
       rx="4.0999999"
       cy="57.799999"
       cx="50" />
    <path
       inkscape:connector-curvature="0"
       id="path14"
       d="m 37.8,48.4 c -2.8,0 -5.2,2.3 -5.2,5.2 0,2.9 2.3,5.2 5.2,5.2 2.8,0 5.2,-2.3 5.2,-5.2 0,-2.9 -2.3,-5.2 -5.2,-5.2 z m -2.2,5.2 c -0.8,0 -1.5,-0.7 -1.5,-1.5 0,-0.8 0.7,-1.5 1.5,-1.5 0.8,0 1.5,0.7 1.5,1.5 0.1,0.8 -0.6,1.5 -1.5,1.5 z" />
    <path
       inkscape:connector-curvature="0"
       id="path16"
       d="m 62.2,47.8 c -2.8,0 -5.2,2.3 -5.2,5.2 0,2.8 2.3,5.2 5.2,5.2 2.8,0 5.2,-2.3 5.2,-5.2 -0.1,-2.9 -2.4,-5.2 -5.2,-5.2 z m -2.3,5.1 c -0.8,0 -1.5,-0.7 -1.5,-1.5 0,-0.8 0.7,-1.5 1.5,-1.5 0.8,0 1.5,0.7 1.5,1.5 0.1,0.8 -0.6,1.5 -1.5,1.5 z" />
    <path
       inkscape:connector-curvature="0"
       id="path18"
       d="m 37.1,45.2 c 2.2,-0.3 3.9,0 4,-0.8 0.1,-0.8 -2,-2 -4.3,-1.1 -2.3,0.8 -3.5,2.8 -3.4,3 -0.1,0.3 1.4,-0.9 3.7,-1.1 z" />
    <path
       inkscape:connector-curvature="0"
       id="path20"
       d="m 62.3,45.2 c 2.2,0.2 3.8,1.4 3.8,1.1 0,-0.2 -1.1,-2.2 -3.4,-3 -2.3,-0.9 -4.4,0.3 -4.3,1.1 0,0.8 1.7,0.5 3.9,0.8 z" />
    <circle
       id="circle22"
       r="5"
       cy="70"
       cx="50" />
  </g>
</svg>
