<?xml version="1.0" encoding="UTF-8" standalone="no"?>
<svg
   xmlns:dc="http://purl.org/dc/elements/1.1/"
   xmlns:cc="http://creativecommons.org/ns#"
   xmlns:rdf="http://www.w3.org/1999/02/22-rdf-syntax-ns#"
   xmlns:svg="http://www.w3.org/2000/svg"
   xmlns="http://www.w3.org/2000/svg"
   xmlns:sodipodi="http://sodipodi.sourceforge.net/DTD/sodipodi-0.dtd"
   xmlns:inkscape="http://www.inkscape.org/namespaces/inkscape"
   version="1.1"
   id="Layer_1"
   x="0px"
   y="0px"
   width="100px"
   height="100px"
   viewBox="0 0 100 100"
   enable-background="new 0 0 100 100"
   xml:space="preserve"
   inkscape:version="0.48.4 r9939"
   sodipodi:docname="icon_1811.svg"><metadata
     id="metadata11"><rdf:RDF><cc:Work
         rdf:about=""><dc:format>image/svg+xml</dc:format><dc:type
           rdf:resource="http://purl.org/dc/dcmitype/StillImage" /></cc:Work></rdf:RDF></metadata><defs
     id="defs9" /><sodipodi:namedview
     pagecolor="#ffffff"
     bordercolor="#666666"
     borderopacity="1"
     objecttolerance="10"
     gridtolerance="10"
     guidetolerance="10"
     inkscape:pageopacity="0"
     inkscape:pageshadow="2"
     inkscape:window-width="1920"
     inkscape:window-height="1056"
     id="namedview7"
     showgrid="false"
     inkscape:zoom="2.36"
     inkscape:cx="-0.42372881"
     inkscape:cy="50"
     inkscape:window-x="0"
     inkscape:window-y="24"
     inkscape:window-maximized="1"
     inkscape:current-layer="Layer_1" /><g
     id="g3"
     style="fill:#333333"
     transform="matrix(0.91354792,0,0,0.91354792,4.6734064,4.3230608)"><path
       d="m 8.409,54.117 c 0.884,-1.494 1.668,-2.801 2.266,-3.769 3.28,-5.307 4.351,-9.384 4.351,-9.384 l 1.416,-12.14 C 17.237,13.107 28.598,1.374 49.673,0.741 70.747,1.375 81.995,13.108 82.79,28.825 l 1.415,12.14 c 0,0 1.071,4.077 4.352,9.384 0.596,0.968 1.38,2.274 2.266,3.769 H 86.76 86.126 C 82.989,49.367 79.124,41.911 72.223,41.911 H 49.467 26.713 c -6.903,0 -10.767,7.456 -13.903,12.207 H 12.175 8.409 l 0,-0.001 z M 84.22,54.111 h -6.021 c -1.722,17.406 -3.979,33.699 6.189,38.393 -7.589,0.693 -12.756,0.303 -16.646,-0.562 -0.104,0.506 -0.216,1.012 -0.338,1.525 -0.471,1.979 -1.062,3.902 -1.748,5.744 l -8.424,0.047 c 0.313,-0.619 0.614,-1.25 0.902,-1.898 3.246,-7.293 3.933,-14.539 2.421,-19.83 l -0.01,-0.035 -0.01,-0.037 c -0.443,-1.572 -1.466,-2.812 -3.512,-2.939 -3.005,-0.186 -5.284,-0.201 -7.552,-0.193 -2.075,0.008 -4.134,0.023 -6.883,0.193 -2.045,0.127 -3.068,1.367 -3.506,2.924 l -0.009,0.031 -0.009,0.031 c -1.518,5.314 -0.833,12.562 2.414,19.855 0.288,0.648 0.589,1.279 0.904,1.898 l -8.425,-0.047 c -0.687,-1.842 -1.276,-3.766 -1.748,-5.744 -0.134,-0.562 -0.257,-1.123 -0.368,-1.678 -3.959,0.971 -9.272,1.449 -17.288,0.715 10.168,-4.693 7.913,-20.986 6.192,-38.393 h -6.031 c 2.648,-4.26 6.364,-10.435 11.806,-10.577 -0.104,1.446 -0.324,2.785 -0.63,4.036 l -0.011,0.038 c -0.475,1.755 -0.743,3.759 -0.743,5.882 0,3.939 4.852,6.369 4.882,10.23 0.013,1.738 -0.394,8.723 1.129,15.895 0.458,-4.094 1.884,-7.428 5.04,-9.125 0,0 3.066,-2.434 13.619,-2.699 10.552,0.266 13.619,2.699 13.619,2.699 2.643,1.422 4.07,3.988 4.734,7.189 1.086,-6.457 0.75,-12.377 0.763,-13.959 0.029,-3.861 4.883,-6.291 4.883,-10.23 0,-2.123 -0.269,-4.126 -0.743,-5.882 L 73.049,47.57 c -0.304,-1.251 -0.524,-2.59 -0.629,-4.036 5.438,0.15 9.153,6.319 11.8,10.577 l 0,0 z m -34.852,-9.03 c -2.402,0 -2.408,2.304 -2.408,2.304 -0.06,2.625 -1.894,4.682 -1.979,4.781 0,0 -1.332,1.705 -2.96,3.105 -1.612,1.389 -4.105,3.043 -6.83,3.043 -3.834,0 -5.765,-2.258 -6.708,-4.148 -1.021,-2.049 -1.142,-5.459 -1.142,-5.459 -0.106,-2.867 1.347,-4.375 3.199,-5.175 h 18.929 18.729 c 1.852,0.801 3.304,2.308 3.198,5.175 0,0 -0.122,3.41 -1.142,5.459 -0.942,1.891 -2.876,4.148 -6.709,4.148 -2.725,0 -5.218,-1.654 -6.829,-3.043 -1.63,-1.4 -2.961,-3.105 -2.961,-3.105 -0.085,-0.1 -1.921,-2.156 -1.979,-4.781 -0.002,0 -0.006,-2.304 -2.408,-2.304 l 0,0 z"
       id="path5"
       style="fill:#333333"
       inkscape:connector-curvature="0" /></g></svg>