<?xml version="1.0" encoding="UTF-8" standalone="no"?>
<svg
   xmlns:dc="http://purl.org/dc/elements/1.1/"
   xmlns:cc="http://creativecommons.org/ns#"
   xmlns:rdf="http://www.w3.org/1999/02/22-rdf-syntax-ns#"
   xmlns:svg="http://www.w3.org/2000/svg"
   xmlns="http://www.w3.org/2000/svg"
   xmlns:sodipodi="http://sodipodi.sourceforge.net/DTD/sodipodi-0.dtd"
   xmlns:inkscape="http://www.inkscape.org/namespaces/inkscape"
   height="90"
   width="90"
   inkscape:version="1.0beta1 (32d4812, 2019-09-19)"
   sodipodi:docname="icon_105244.svg"
   id="svg26"
   xml:space="preserve"
   enable-background="new 0 0 90 90"
   viewBox="0 0 90 90"
   y="0px"
   x="0px"
   version="1.1">
  <metadata
     id="metadata32">
    <rdf:RDF>
      <cc:Work
         rdf:about="">
        <dc:format>image/svg+xml</dc:format>
        <dc:type
           rdf:resource="http://purl.org/dc/dcmitype/StillImage" />
        <dc:title></dc:title>
      </cc:Work>
    </rdf:RDF>
  </metadata>
  <defs
     id="defs30" />
  <sodipodi:namedview
     inkscape:current-layer="svg26"
     inkscape:window-maximized="0"
     inkscape:window-y="23"
     inkscape:window-x="0"
     inkscape:cy="70.142309"
     inkscape:cx="65.588342"
     inkscape:zoom="3.7237844"
     showgrid="false"
     id="namedview28"
     inkscape:window-height="907"
     inkscape:window-width="1600"
     inkscape:pageshadow="2"
     inkscape:pageopacity="0"
     guidetolerance="10"
     gridtolerance="10"
     objecttolerance="10"
     borderopacity="1"
     inkscape:document-rotation="0"
     bordercolor="#666666"
     pagecolor="#ffffff" />
  <g
     id="g20">
    <path
       inkscape:connector-curvature="0"
       id="path10"
       d="m 40.413,58.053 c 0.381,0.273 1.238,0.559 1.238,0.559 l 2.262,0.096 c -0.369,-0.189 -1.596,-0.846 -2.357,-0.941 -0.762,-0.095 -1.524,0.01 -1.143,0.286 z"
       clip-rule="evenodd"
       fill-rule="evenodd" />
    <path
       inkscape:connector-curvature="0"
       id="path12"
       d="m 51.291,65.555 c -0.725,-0.145 -2.783,-0.539 -4.146,-0.539 -1.364,0 -1.812,0.49 -2.294,0.459 -0.751,-0.049 -0.781,-0.383 -2.144,-0.383 -1.363,0 -1.883,0.242 -2.946,0.385 -1.414,0.191 -2.562,0.076 -2.562,0.076 0,0 0.846,0.607 1.187,0.994 0.573,0.652 1.53,1.531 2.142,1.988 0.555,0.416 2.485,1.264 4.704,1.148 2,-0.104 3.016,-0.748 3.405,-0.994 0.387,-0.248 2.482,-1.471 2.869,-1.76 0.389,-0.291 0.949,-0.748 1.148,-0.844 0.199,-0.098 1.596,-0.342 0.727,-0.342 -0.869,0 -1.365,-0.044 -2.09,-0.188 z"
       clip-rule="evenodd"
       fill-rule="evenodd" />
    <path
       inkscape:connector-curvature="0"
       id="path14"
       d="m 80.504,58.494 c -1.785,-1.055 -5.236,-4.484 -4.699,-4.053 1.262,1.012 7.145,1.723 7.145,1.723 0,0 -2.867,-1.521 -3.762,-2.256 -2.316,-1.904 -3.809,-3.062 -6.033,-5.928 -1.736,-2.234 -1.975,-7.259 -1.707,-9.191 0.27,-1.932 1.391,-9.866 0.395,-14.183 C 71.156,21.63 69.33,13.98 61.35,10.195 59.278,9.213 52.405,6.683 44.558,6.952 c -3.917,0.134 -11.55,2.7 -14.875,5.069 -4.101,2.922 -7.541,5.886 -9.622,10.942 -2.125,5.163 -1.272,14.439 -0.735,18.893 0.537,4.452 -0.34,11.165 -1.063,14.761 -0.723,3.596 -2.605,6.201 -6.066,7.863 -3.461,1.664 -6.099,2.201 -6.099,2.201 0,0 2.437,3.848 4.638,4.654 2.201,0.806 4.553,1.578 6.821,2.135 4.585,1.125 5.125,7.459 6.251,7.996 1.019,0.486 12.543,-1.604 9.554,-6.713 1.226,1.26 2.961,3.02 3.521,3.477 1.481,1.213 3.575,2.547 5.551,2.959 1.798,0.373 4.114,0.813 5.973,0.479 8.219,-1.48 13.48,-4.09 16.844,-5.23 3.688,-1.25 8.346,-3.601 10.625,-6.743 2.527,-3.488 -2.57,-7.64 -2.188,-7.864 1.541,-0.904 6.105,4.553 4.055,1.525 -0.672,-0.992 -3.594,-8.08 -2.789,-6.953 1.321,1.853 6.296,2.533 5.55,2.091 z M 66.559,55.891 c -0.311,4.803 -1.211,7.219 -3.254,10.65 -2.178,3.652 -4.977,6.031 -5.361,7.066 -0.604,0.721 -2.148,2.547 -2.715,3.09 -0.711,0.682 -1.838,1.686 -3.227,2.43 -1.693,0.91 -3.514,1.381 -4.703,1.482 -1.188,0.102 -3.331,0.053 -4.971,-0.316 -1.425,-0.32 -3.83,-1.551 -5.024,-2.326 -0.809,-0.525 -2.379,-2.324 -4.491,-3.986 -0.25,-0.303 -0.547,-0.615 -0.901,-0.936 -4.71,-4.289 -6.764,-10.65 -7.41,-15.812 1.022,1.031 2.215,2.197 2.824,2.654 1.248,0.938 2.769,1.502 3.592,1.605 1.163,0.146 2.749,-0.135 2.749,-0.135 0,0 -2.467,-0.107 -4.144,-1.078 -1.457,-0.844 -2.515,-2.264 -3.292,-3.293 -1.107,-1.465 -1.924,-3.318 -1.863,-5.545 0.249,-2.002 0.594,-4.797 1.229,-6.254 0.723,-1.664 2.076,-3.674 3.74,-4.748 1.664,-1.075 8.723,-3.689 12.431,-5.844 4.597,-2.672 5.892,-4.488 7.083,-6.399 2.049,-3.293 2.672,-4.67 3.531,-6.066 0.855,-1.395 2.975,-0.476 3.396,1.76 0.648,3.434 -0.254,6.756 2.137,10.566 0.496,0.791 1.236,1.738 2.021,2.667 -2.006,0.476 -4.404,0.877 -5.68,1.269 -1.631,0.501 -5.475,1.589 -6.438,2.886 -0.963,1.297 -1.833,2.373 -1.965,4.392 -0.087,1.333 -0.003,2.7 0,4.43 0.002,0.963 0.334,2.799 0.668,3.762 0.334,0.963 1.193,2.957 0.205,3.564 -0.686,0.42 -1.04,0.828 -1.04,0.828 l 0.166,0.834 c 0,0 0.477,-0.799 1.463,-0.963 0.982,-0.162 2.018,-0.186 1.705,0.068 -0.498,0.402 -0.561,0.498 -0.561,0.498 0,0 1.93,-0.633 2.326,-1.639 0.396,-1.006 0.344,-1.639 -0.291,-3.516 -0.633,-1.877 -1.865,-3.693 -2.193,-5.076 -0.385,-1.619 -0.617,-2.657 -0.518,-3.755 0.1,-1.098 0.301,-1.898 1.498,-2.996 1.199,-1.099 4.494,-2.297 5.994,-2.597 1.197,-0.24 3.457,-0.69 5.49,-1.065 0.346,0.36 0.701,0.698 1.062,0.996 1.529,1.261 5.025,3.666 5.037,7.56 0.007,1.081 -0.061,5.528 -0.305,9.288 z"
       clip-rule="evenodd"
       fill-rule="evenodd" />
    <path
       inkscape:connector-curvature="0"
       id="path16"
       d="m 57.002,41.811 c -0.27,-0.048 -0.545,-0.072 -0.82,-0.072 -1.787,0 -3.287,0.99 -4.184,1.582 l -0.158,0.105 c -0.635,0.498 -1.699,1.383 -1.717,1.727 -0.002,0.066 0.021,0.128 0.066,0.172 0.223,0.211 0.379,0.325 0.576,0.325 0.115,0 0.225,-0.04 0.363,-0.09 0.146,-0.053 0.344,-0.125 0.643,-0.185 0.131,-0.026 0.27,-0.039 0.422,-0.039 0.35,0 0.73,0.068 1.133,0.14 0.482,0.086 1.029,0.184 1.629,0.184 0.1,0 0.199,-0.003 0.301,-0.009 l 0.066,-0.004 c 1.277,-0.069 2.121,-0.116 3.148,-0.506 1.053,-0.399 1.973,-1.585 2.012,-1.636 l 0.09,-0.118 -0.111,-0.098 C 60.41,43.244 59.207,42.201 57.002,41.811 Z m -2.973,3.458 c -0.221,-0.032 -0.436,-0.07 -0.646,-0.107 -0.418,-0.074 -0.812,-0.145 -1.189,-0.145 -0.174,0 -0.332,0.015 -0.484,0.045 -0.322,0.064 -0.533,0.141 -0.688,0.197 -0.113,0.041 -0.195,0.07 -0.256,0.07 -0.061,0 -0.135,-0.033 -0.311,-0.193 0.123,-0.232 0.889,-0.917 1.57,-1.452 l 0.148,-0.098 c 0.348,-0.23 0.793,-0.522 1.309,-0.79 -0.012,0.021 -0.025,0.042 -0.037,0.065 -0.043,0.111 -0.076,0.227 -0.102,0.345 l 1.535,0.542 -1.438,0.692 c 0.146,0.377 0.314,0.622 0.589,0.829 z m 4.33,-0.427 c -0.436,0.165 -0.84,0.266 -1.264,0.333 0.41,-0.43 0.648,-1.022 0.607,-1.663 -0.037,-0.584 -0.303,-1.034 -0.701,-1.377 1.695,0.312 2.781,1.037 3.129,1.297 -0.259,0.308 -0.991,1.115 -1.771,1.41 z"
       clip-rule="evenodd"
       fill-rule="evenodd" />
    <path
       inkscape:connector-curvature="0"
       id="path18"
       d="m 38.167,46.273 c 0.139,0.049 0.248,0.088 0.363,0.088 v 0 c 0.197,0 0.355,-0.113 0.576,-0.324 0.05,-0.047 0.073,-0.113 0.065,-0.183 -0.033,-0.306 -0.93,-0.906 -1.672,-1.353 -0.129,-0.084 -0.271,-0.184 -0.424,-0.292 -0.863,-0.606 -2.167,-1.523 -3.773,-1.523 -0.25,0 -0.501,0.022 -0.75,0.066 -2.187,0.388 -4.398,1.609 -4.42,1.622 l -0.195,0.108 0.167,0.149 c 0.056,0.051 1.39,1.24 2.429,1.635 0.851,0.322 1.913,0.514 2.839,0.514 0.267,0 0.52,-0.016 0.752,-0.047 0.596,-0.08 1.134,-0.238 1.608,-0.379 0.54,-0.16 1.007,-0.299 1.445,-0.299 0.123,0 0.236,0.012 0.347,0.033 0.299,0.06 0.498,0.133 0.643,0.185 z m -5.75,0.123 c -0.615,-0.078 -1.237,-0.227 -1.772,-0.429 -0.772,-0.293 -1.761,-1.09 -2.155,-1.423 0.526,-0.272 2.001,-0.99 3.56,-1.362 -0.185,0.215 -0.331,0.466 -0.422,0.743 l 1.462,0.717 -1.509,0.52 c 0.127,0.502 0.428,0.936 0.836,1.234 z m 3.224,-0.347 c -0.109,0.031 -0.22,0.062 -0.332,0.096 0.354,-0.369 0.583,-0.859 0.612,-1.409 0.02,-0.365 -0.053,-0.712 -0.193,-1.023 0.435,0.245 0.824,0.518 1.164,0.757 0.157,0.11 0.302,0.211 0.438,0.301 0.639,0.386 1.354,0.888 1.502,1.086 -0.168,0.155 -0.243,0.188 -0.303,0.188 -0.059,0 -0.141,-0.029 -0.254,-0.072 -0.155,-0.056 -0.367,-0.133 -0.689,-0.197 -0.131,-0.025 -0.265,-0.039 -0.41,-0.039 -0.483,0 -0.994,0.151 -1.535,0.312 z"
       clip-rule="evenodd"
       fill-rule="evenodd" />
  </g>
</svg>
