<?xml version="1.0" encoding="UTF-8" standalone="no"?>
<svg
   xmlns:dc="http://purl.org/dc/elements/1.1/"
   xmlns:cc="http://creativecommons.org/ns#"
   xmlns:rdf="http://www.w3.org/1999/02/22-rdf-syntax-ns#"
   xmlns:svg="http://www.w3.org/2000/svg"
   xmlns="http://www.w3.org/2000/svg"
   xmlns:sodipodi="http://sodipodi.sourceforge.net/DTD/sodipodi-0.dtd"
   xmlns:inkscape="http://www.inkscape.org/namespaces/inkscape"
   version="1.0"
   id="Layer_1"
   x="0px"
   y="0px"
   width="100px"
   height="100px"
   viewBox="0 0 100 100"
   enable-background="new 0 0 100 100"
   xml:space="preserve"
   inkscape:version="0.48.4 r9939"
   sodipodi:docname="icon_40879.svg"><metadata
     id="metadata9"><rdf:RDF><cc:Work
         rdf:about=""><dc:format>image/svg+xml</dc:format><dc:type
           rdf:resource="http://purl.org/dc/dcmitype/StillImage" /></cc:Work></rdf:RDF></metadata><defs
     id="defs7" /><sodipodi:namedview
     pagecolor="#ffffff"
     bordercolor="#666666"
     borderopacity="1"
     objecttolerance="10"
     gridtolerance="10"
     guidetolerance="10"
     inkscape:pageopacity="0"
     inkscape:pageshadow="2"
     inkscape:window-width="1920"
     inkscape:window-height="1056"
     id="namedview5"
     showgrid="false"
     inkscape:zoom="2.36"
     inkscape:cx="-0.42372881"
     inkscape:cy="50"
     inkscape:window-x="0"
     inkscape:window-y="24"
     inkscape:window-maximized="1"
     inkscape:current-layer="Layer_1" /><path
     d="m 42.489522,73.663403 c 0,-1.028899 -3.343383,-0.51445 -8.486801,-3.343383 -5.142345,-2.828934 -9.772388,-9.001252 -10.800213,-17.744741 -1.028898,-8.743489 2.828934,-15.944705 2.828934,-15.944705 0,0 -4.628969,-2.056723 -8.22904,-11.057974 -3.600071,-9.001251 4.371208,-16.9725294 4.371208,-16.9725294 0,0 2.057797,5.6578674 4.372281,9.2579384 2.314485,3.600071 8.74349,5.143419 12.601322,6.686766 3.857833,1.543348 19.544776,0.51445 22.634694,0.256688 3.089917,-0.256688 4.624673,-3.085622 8.996955,-7.456829 4.372281,-4.372282 1.800035,-12.3446342 1.800035,-12.3446342 0,0 6.429005,4.1155941 9.772388,12.6013212 3.343383,8.486802 -5.143419,17.743667 -5.143419,17.743667 0,0 3.085622,10.801286 2.828934,21.344811 -0.256687,10.543525 -10.286837,15.944705 -11.873145,16.459154 -1.586308,0.51445 -6.128283,1.285587 -5.614907,2.828934 0.514449,1.543348 7.457903,15.943631 5.143418,18.001429 -2.314485,2.057797 -25.432481,0.681994 -27.259367,-1.285587 -3.344457,-3.601144 2.056723,-18.002502 2.056723,-19.030326 z M 36.573893,51.670965 C 42.74621,56.556622 46.602968,48.58427 46.602968,48.58427 L 31.430474,41.384128 c 0,0.0011 -1.027824,5.40118 5.143419,10.286837 z m 33.946133,-4.349727 c 3.085622,-4.094114 0,-8.250521 0,-8.250521 l -13.372459,8.250521 c 6.943454,5.163824 10.286837,4.09304 13.372459,0 z"
     id="path3"
     style="fill:#333333"
     inkscape:connector-curvature="0" /></svg>