<?xml version="1.0" encoding="UTF-8" standalone="no"?>
<svg
   xmlns:dc="http://purl.org/dc/elements/1.1/"
   xmlns:cc="http://creativecommons.org/ns#"
   xmlns:rdf="http://www.w3.org/1999/02/22-rdf-syntax-ns#"
   xmlns:svg="http://www.w3.org/2000/svg"
   xmlns="http://www.w3.org/2000/svg"
   xmlns:sodipodi="http://sodipodi.sourceforge.net/DTD/sodipodi-0.dtd"
   xmlns:inkscape="http://www.inkscape.org/namespaces/inkscape"
   inkscape:version="1.0beta1 (32d4812, 2019-09-19)"
   sodipodi:docname="icon_156365.svg"
   id="svg16"
   xml:space="preserve"
   enable-background="new 0 0 100 100"
   viewBox="0 0 100 100"
   y="0px"
   x="0px"
   version="1.1"
   fill="#000000"
   width="100px"
   height="100px">
  <metadata
     id="metadata22">
    <rdf:RDF>
      <cc:Work
         rdf:about="">
        <dc:format>image/svg+xml</dc:format>
        <dc:type
           rdf:resource="http://purl.org/dc/dcmitype/StillImage" />
        <dc:title></dc:title>
      </cc:Work>
    </rdf:RDF>
  </metadata>
  <defs
     id="defs20" />
  <sodipodi:namedview
     inkscape:current-layer="svg16"
     inkscape:window-maximized="0"
     inkscape:window-y="23"
     inkscape:window-x="0"
     inkscape:cy="114.26649"
     inkscape:cx="84.100964"
     inkscape:zoom="2.8499817"
     showgrid="false"
     id="namedview18"
     inkscape:window-height="907"
     inkscape:window-width="1600"
     inkscape:pageshadow="2"
     inkscape:pageopacity="0"
     guidetolerance="10"
     gridtolerance="10"
     objecttolerance="10"
     borderopacity="1"
     inkscape:document-rotation="0"
     bordercolor="#666666"
     pagecolor="#ffffff" />
  <g
     id="g14">
    <path
       id="path10"
       d="M36.03,85.42c-2.34-0.379-4.111-1.574-5.316-3.439   c-0.613-0.947-1.325-1.057-2.27-1.141c-1.994-0.182-4.133-0.084-5.935-0.799c-3.031-1.203-5.05-3.725-6.555-6.607   c-1.814-3.48-2.687-7.227-3.468-11.053c-1.574-7.707-1.865-15.476-1.477-23.273c0.178-3.578,0.833-7.132,2.622-10.377   c1.71-3.101,5.282-4.148,9.187-2.538c0.752,0.31,1.537,0.588,2.216,1.022c1.22,0.778,2.133,0.443,3.06-0.512   c1.983-2.042,3.937-4.125,6.045-6.031c3.368-3.046,7.187-5.09,11.828-5.76c3.898-0.565,7.672-0.416,11.426,0.501   c3.818,0.933,6.989,3.144,9.866,5.727c1.974,1.771,3.794,3.713,5.647,5.613c0.745,0.765,1.464,0.815,2.456,0.446   c1.825-0.678,3.685-1.375,5.592-1.702c3.042-0.522,4.919,1.477,6.258,3.767c1.516,2.593,2.163,5.521,2.272,8.556   c0.109,2.978,0.519,5.958,0.436,8.926c-0.158,5.667-0.896,11.279-1.948,16.867c-0.768,4.068-2.002,7.902-4.113,11.436   c-2.109,3.525-5.22,5.557-9.388,5.816c-0.047,0.002-0.097,0.006-0.145,0c-2.378-0.35-4.293,0.287-5.731,2.361   c-0.865,1.25-2.151,2.027-3.746,1.98c0.903-2.396,2.024-4.74,2.664-7.211c0.975-3.76,1.855-7.576,2.337-11.426   c0.528-4.238,0.592-8.539,0.77-12.814c0.029-0.648-0.252-1.457-0.673-1.95c-3.544-4.141-7.082-8.292-10.782-12.292   c-1.451-1.568-3.158-3.026-5.012-4.069c-3.496-1.966-7.393-1.205-10.681,2.014c-2.477,2.423-4.705,5.103-7.028,7.682   c-1.873,2.079-3.753,4.151-5.562,6.283c-0.467,0.552-0.96,1.317-0.961,1.985c-0.013,8.846,0.675,17.605,3.609,26.039   C34.222,81.434,35.151,83.338,36.03,85.42z"
       clip-rule="evenodd"
       fill-rule="evenodd" />
    <path
       id="path12"
       d="M54.554,75.563c-1.333,2.744-7.429,2.369-8.764,0.037   C48.322,74.238,51.662,74.229,54.554,75.563z"
       clip-rule="evenodd"
       fill-rule="evenodd" />
  </g>
</svg>
