<?xml version="1.0" encoding="UTF-8" standalone="no"?>
<svg
   xmlns:dc="http://purl.org/dc/elements/1.1/"
   xmlns:cc="http://creativecommons.org/ns#"
   xmlns:rdf="http://www.w3.org/1999/02/22-rdf-syntax-ns#"
   xmlns:svg="http://www.w3.org/2000/svg"
   xmlns="http://www.w3.org/2000/svg"
   xmlns:sodipodi="http://sodipodi.sourceforge.net/DTD/sodipodi-0.dtd"
   xmlns:inkscape="http://www.inkscape.org/namespaces/inkscape"
   version="1.1"
   id="Layer_1"
   x="0px"
   y="0px"
   width="100px"
   height="100px"
   viewBox="0 0 100 100"
   enable-background="new 0 0 100 100"
   xml:space="preserve"
   inkscape:version="0.48.4 r9939"
   sodipodi:docname="icon_14845.svg"><metadata
     id="metadata5781"><rdf:RDF><cc:Work
         rdf:about=""><dc:format>image/svg+xml</dc:format><dc:type
           rdf:resource="http://purl.org/dc/dcmitype/StillImage" /></cc:Work></rdf:RDF></metadata><defs
     id="defs5779" /><sodipodi:namedview
     pagecolor="#ffffff"
     bordercolor="#666666"
     borderopacity="1"
     objecttolerance="10"
     gridtolerance="10"
     guidetolerance="10"
     inkscape:pageopacity="0"
     inkscape:pageshadow="2"
     inkscape:window-width="1920"
     inkscape:window-height="1056"
     id="namedview5777"
     showgrid="false"
     inkscape:zoom="2.36"
     inkscape:cx="-0.42372881"
     inkscape:cy="50"
     inkscape:window-x="0"
     inkscape:window-y="24"
     inkscape:window-maximized="1"
     inkscape:current-layer="Layer_1" /><path
     d="m 51.647919,73.159218 c 2.19499,-0.768336 2.20491,-0.477054 2.241884,-0.297595 0.114529,0.552806 -2.053407,0.720541 -2.644088,1.436573 -0.347195,0.42475 -0.278658,1.015431 -1.252606,1.022646 -0.973948,-0.0072 -0.904509,-0.597896 -1.252605,-1.022646 -0.589779,-0.716032 -2.758617,-0.882865 -2.644088,-1.436573 0.03697,-0.179459 0.0487,-0.469839 2.242785,0.297595 0.310221,0.612325 0.836874,0.563628 1.653006,0.561824 0.818838,0.0018 1.345491,0.0505 1.655712,-0.561824 z m -1.647595,5.369339 c -0.352605,-0.429258 -1.231864,-0.808016 -3.152706,-0.52485 -0.882865,0.131664 -1.738677,0.457215 -2.399699,0.816133 -1.254409,0.683567 -0.65471,-0.468938 -1.049699,-0.468938 -0.394089,0 -0.931564,0.674549 -0.931564,1.188577 0,0.820641 0.529359,1.067735 0.92976,0.906313 0.608717,-0.247095 0.208317,-0.652906 0.873848,-0.86483 1.716132,-0.351703 3.64509,-0.547395 5.683166,-0.547395 2.121944,0 4.12485,0.213728 5.891483,0.592485 0.502305,0.217335 0.188477,0.587976 0.757515,0.81974 0.401303,0.161422 0.929759,-0.08567 0.929759,-0.906313 0,-0.514028 -0.537474,-1.188577 -0.931563,-1.188577 -0.389579,0 0.192084,1.124549 -1.003707,0.494188 l -0.04599,-0.02525 c -0.66012,-0.358918 -1.516834,-0.685371 -2.398798,-0.816133 -1.921743,-0.283166 -2.801002,0.09649 -3.151803,0.52485 z M 47.747618,63.922044 c 0,0 -0.373346,-2.161623 -1.916332,-3.761423 -0.410321,0.101904 -1.051503,0.109118 -1.916333,0.21012 -0.26513,0.02976 -0.519439,0.0478 -0.765631,0.05321 0.551002,-0.130762 0.959519,-0.623146 0.959519,-1.213828 0,-0.09649 -0.01172,-0.192084 -0.03247,-0.282264 -0.562726,-0.235371 -1.276052,-0.438277 -2.15982,-0.531163 -0.186673,0.219139 -0.3003,0.504109 -0.3003,0.813427 0,0.553708 0.361623,1.023547 0.863026,1.185872 -1.23998,-0.12986 -2.226553,-0.707014 -3.171644,-1.949699 l 0.05952,-0.0072 c -2.840681,-0.266032 -3.113026,-1.346393 -3.1004,-1.790982 -0.101904,0.954108 -0.180361,5.117736 6.290982,5.17996 4.466633,0.04329 5.189879,2.093988 5.189879,2.093988 z m 15.975451,-7.273948 c 0.01082,0.444589 -0.260621,1.52495 -3.101302,1.790982 l 0.05952,0.0072 c -0.944189,1.242685 -1.930762,1.820741 -3.170742,1.949699 0.500501,-0.163226 0.861223,-0.632164 0.861223,-1.185872 0,-0.31022 -0.112726,-0.594288 -0.301203,-0.813427 -0.882866,0.09289 -1.594389,0.295792 -2.158016,0.531163 -0.02074,0.09108 -0.03156,0.185771 -0.03156,0.282264 0,0.58978 0.408517,1.083066 0.957715,1.213828 -0.244388,-0.0054 -0.502304,-0.02254 -0.766533,-0.05321 -0.864829,-0.101002 -1.506012,-0.108216 -1.916332,-0.21012 -1.542986,1.598898 -1.916333,3.761423 -1.916333,3.761423 0,0 0.724148,-2.0498 5.190782,-2.093086 6.472244,-0.06313 6.395591,-4.226754 6.292785,-5.180862 z M 83.196616,12.961122 c -0.133467,3.202305 -0.6502,6.101603 -2.840681,9.551904 -2.41503,3.804709 -5.53978,7.337074 -9.230862,9.804409 9.328257,4.56493 6.3,13.720942 5.514529,16.322645 -0.762926,2.527756 -2.389779,4.51984 -3.993186,5.968136 0.537475,1.266133 0.07575,2.488978 -0.737675,4.278157 l 0.01623,0.227254 -0.0992,-0.04599 c -0.162325,0.352605 -0.33457,0.726854 -0.514028,1.127255 -0.299399,0.662825 -0.533868,1.239078 -0.722345,1.743186 0.449098,0.658317 0.842284,1.31483 1.171443,1.957816 0.508617,0.571743 0.96493,1.146192 1.361723,1.722445 l -0.297595,0.673647 c -0.258818,-0.313828 -0.533868,-0.62495 -0.820641,-0.937876 l -0.109118,0.134369 c -0.0983,-0.191182 -0.202906,-0.384168 -0.312025,-0.578958 -0.471643,-0.486974 -0.981162,-0.966733 -1.522244,-1.441984 0.502305,0.697996 0.938778,1.393287 1.308517,2.078657 0.517635,0.532065 0.991984,1.071343 1.414028,1.611523 l 0,0 c 0.211022,0.272345 0.412124,0.541984 0.596994,0.80982 l -0.295792,0.676353 c -0.391382,-0.472545 -0.81523,-0.94509 -1.271543,-1.412225 l -0.158717,0.198397 c -0.0478,-0.09198 -0.09469,-0.181262 -0.142485,-0.272345 l 0,0 c -0.09018,-0.167735 -0.183066,-0.334569 -0.280461,-0.504108 -0.454509,-0.433767 -0.936974,-0.865731 -1.444689,-1.290481 0.434669,0.601503 0.822445,1.202104 1.158817,1.793688 l 0,0 c 0.02796,0.0496 0.05501,0.09649 0.08116,0.144288 1.03527,0.988377 1.914529,2.005611 2.613426,3.019239 l -0.295791,0.673647 c -0.467134,-0.562725 -0.981162,-1.125451 -1.539379,-1.68006 0.695291,0.732264 1.303106,1.477154 1.816233,2.218437 l -0.207415,0.470741 c 0.172244,0.224549 0.334569,0.445491 0.487876,0.669138 l -0.297596,0.673648 c -0.46533,-0.562726 -0.979358,-1.125451 -1.539378,-1.681864 0.697094,0.734068 1.306713,1.47986 1.818036,2.220241 l -0.297596,0.67545 c -0.968537,-1.174148 -2.148998,-2.339278 -3.51523,-3.438577 l -0.03697,-0.05591 c -0.227254,-0.183967 -0.458116,-0.369739 -0.695291,-0.551903 0.01804,0.199298 0.03156,0.395891 0.02976,0.591583 0.140681,0.195691 0.27505,0.390481 0.403106,0.584369 1.81984,1.446493 3.306012,3.001202 4.371944,4.546893 l -0.295791,0.675451 c -1.01453,-1.23006 -2.25992,-2.448397 -3.697395,-3.611723 l -0.06673,0.105511 c -0.08116,-0.11814 -0.160522,-0.235375 -0.243488,-0.353511 -0.438276,-0.342686 -0.892785,-0.682666 -1.363527,-1.015431 l -0.04058,0.121743 c 0.42475,0.518538 0.815231,1.034369 1.166032,1.546594 2.014629,1.541182 3.653207,3.218537 4.801203,4.882364 l -0.297596,0.675451 c -1.058717,-1.284168 -2.369038,-2.556613 -3.888577,-3.764128 l -0.123547,0.190281 c -0.142485,-0.209219 -0.288577,-0.419339 -0.441884,-0.630361 -0.325551,-0.247094 -0.661924,-0.490581 -1.003707,-0.732265 1.530361,3.370942 2.302305,6.598497 2.287876,9.225451 l -0.665531,0.291283 c -0.246193,-2.751403 -1.167836,-5.961824 -2.742385,-9.283167 -0.127154,0.303908 -0.260621,0.606914 -0.399499,0.910822 1.747695,3.61984 2.627856,7.112525 2.613427,9.91984 l -0.663728,0.289479 c -0.23988,-2.646794 -1.102906,-5.722846 -2.571944,-8.913427 -0.140681,0.281363 -0.283166,0.56002 -0.432865,0.836874 1.655711,3.514328 2.490781,6.89519 2.474549,9.62495 l -0.663728,0.291282 c -0.207415,-2.298697 -0.885571,-4.92024 -2.021843,-7.658116 0.04238,0.690781 0.05591,1.365331 0.04419,2.02004 0.972144,2.622445 1.458216,5.093387 1.447395,7.185571 l -0.667335,0.29489 c -0.08657,-0.975752 -0.260621,-2.01012 -0.515832,-3.083267 v 0.203808 l -0.663727,0.289479 c -0.02074,-0.235371 -0.0478,-0.474349 -0.07936,-0.717836 -0.130761,0.570842 -0.283166,1.11012 -0.463527,1.620541 0.009,0.218237 0.01443,0.43467 0.01262,0.646593 l -0.663727,0.289479 -0.03156,-0.315631 -0.300301,0.01533 c 0.07214,-0.247996 0.140682,-0.503207 0.20471,-0.763828 -0.08116,-0.560922 -0.190281,-1.13988 -0.321944,-1.732365 -0.08116,0.572646 -0.18487,1.121844 -0.308417,1.647596 0.15511,0.948697 0.230862,1.854108 0.227254,2.696392 l -0.663727,0.290381 c -0.03517,-0.367936 -0.07936,-0.74489 -0.137074,-1.128156 l -0.07936,0.202906 -0.502304,0.02705 c 0.130761,0.859419 0.192084,1.678256 0.188476,2.447495 l -0.665531,0.290381 c -0.07755,-0.866634 -0.221843,-1.777455 -0.432865,-2.725251 -0.125351,0.42475 -0.26964,0.829659 -0.426553,1.21473 l -0.757515,0.04058 c 0.293988,-1.001002 0.512224,-2.100301 0.646593,-3.281664 l -0.01443,-0.0523 c -0.195692,1.378857 -0.519439,2.629659 -0.963126,3.712725 l -0.449099,0.02345 c -0.09379,0.280461 -0.193887,0.549198 -0.299398,0.808918 l -0.757515,0.04148 c 0.366132,-1.252605 0.61503,-2.657615 0.731362,-4.17986 -0.167735,1.716132 -0.53026,3.258217 -1.062324,4.558617 l -0.759319,0.04058 c 0.447295,-1.521343 0.718738,-3.270842 0.789078,-5.178157 -0.23988,0.15511 -0.477054,0.295792 -0.713326,0.421143 -0.07936,2.286072 -0.478858,4.32505 -1.155211,5.970841 l -0.759319,0.04148 c 0.475251,-1.612425 0.752105,-3.48006 0.7999,-5.522645 -0.238076,0.405812 -0.486072,0.797194 -0.739479,1.172345 -0.110922,2.121042 -0.505912,4.014829 -1.138076,5.561422 L 53.701326,95 c 0.358918,-1.216533 0.602405,-2.578257 0.724148,-4.050902 -0.748497,0.886473 -1.541182,1.647595 -2.356413,2.261724 l -0.741282,-0.296694 c 1.136272,-1.052405 2.213927,-2.365431 3.180661,-3.891282 v -0.396794 c -0.232665,0.06854 -0.475251,0.131663 -0.724148,0.192084 -0.991984,1.614229 -2.122846,2.980461 -3.318638,4.030161 -0.153306,0.209218 -0.308416,0.414829 -0.46533,0.613226 -0.156914,-0.198397 -0.312926,-0.403106 -0.466233,-0.613226 -1.197595,-1.0497 -2.327555,-2.415932 -3.319539,-4.030161 -0.249799,-0.05952 -0.490581,-0.123547 -0.72505,-0.192084 v 0.396794 c 0.968537,1.525851 2.046192,2.838877 3.180661,3.891282 l -0.74038,0.296694 C 47.115454,92.596693 46.321867,91.836473 45.57337,90.949098 45.695113,92.421743 45.9386,93.784369 46.296616,95 l -0.759318,-0.04238 c -0.633066,-1.546593 -1.025351,-3.440381 -1.137175,-5.561423 -0.254308,-0.37515 -0.501402,-0.766533 -0.74038,-1.172344 0.0496,2.042585 0.323747,3.91022 0.798998,5.522645 l -0.758417,-0.04148 c -0.67996,-1.66022 -1.082165,-3.717234 -1.157916,-6.027655 -0.234469,-0.128056 -0.472545,-0.272345 -0.713327,-0.431964 0.06673,1.933467 0.338177,3.704609 0.790882,5.24489 l -0.758417,-0.04058 c -0.532064,-1.299499 -0.893687,-2.841583 -1.062324,-4.558617 0.116332,1.522245 0.363426,2.927255 0.732264,4.17986 l -0.757515,-0.04149 C 40.666656,91.769739 40.567458,91.5001 40.474572,91.220541 l -0.450902,-0.02345 c -0.441883,-1.083066 -0.767434,-2.333868 -0.961322,-3.712725 l -0.01533,0.0523 c 0.135271,1.181363 0.353507,2.27976 0.647495,3.281664 l -0.757515,-0.04058 c -0.156914,-0.385071 -0.300301,-0.78998 -0.426553,-1.21473 -0.211022,0.948697 -0.356212,1.859519 -0.433768,2.725251 L 37.41295,91.99789 c -0.0054,-0.769239 0.05772,-1.588076 0.187575,-2.447495 l -0.501403,-0.02705 -0.08026,-0.202906 c -0.05772,0.383266 -0.103708,0.76022 -0.136173,1.128156 L 36.21806,90.158214 c -0.0036,-0.843186 0.07214,-1.747695 0.227255,-2.696392 -0.124449,-0.525752 -0.226353,-1.07495 -0.307515,-1.647596 -0.133467,0.592485 -0.240782,1.171443 -0.322846,1.732365 0.06313,0.260621 0.131663,0.51493 0.205611,0.763828 l -0.3003,-0.01533 -0.03156,0.315631 -0.664629,-0.289479 c -9.02e-4,-0.211022 0.0036,-0.428356 0.01172,-0.646593 -0.178557,-0.509519 -0.333668,-1.049699 -0.463527,-1.620541 -0.03066,0.243487 -0.05591,0.482465 -0.07846,0.717836 l -0.662826,-0.289479 v -0.203808 c -0.256112,1.073147 -0.429258,2.107515 -0.516733,3.083267 L 32.64962,89.07064 c -0.0099,-2.091282 0.475251,-4.563126 1.446493,-7.185571 -0.01082,-0.655611 0.0027,-1.33016 0.04419,-2.02004 -1.136273,2.737876 -1.813527,5.359419 -2.020942,7.658116 l -0.663728,-0.291282 c -0.01533,-2.733367 0.820642,-6.117836 2.47996,-9.638477 -0.148797,-0.274149 -0.293086,-0.551904 -0.434669,-0.830561 -1.471744,3.193286 -2.336573,6.272044 -2.574649,8.921543 l -0.66463,-0.289479 c -0.01443,-2.807315 0.866634,-6.3 2.613427,-9.91984 -0.137976,-0.302104 -0.272344,-0.604208 -0.402204,-0.907214 -1.572746,3.321342 -2.493487,6.52996 -2.740581,9.279559 l -0.665531,-0.291283 c -0.01443,-2.626954 0.756613,-5.854509 2.288777,-9.225451 -0.342685,0.241684 -0.676353,0.484269 -1.003707,0.732265 -0.153307,0.211022 -0.301203,0.421142 -0.443688,0.630361 l -0.123547,-0.190281 c -1.519539,1.207515 -2.829859,2.47996 -3.888577,3.764128 l -0.298497,-0.675451 c 1.148898,-1.663827 2.786573,-3.341182 4.802104,-4.882364 0.348097,-0.506814 0.73497,-1.019038 1.157014,-1.532165 l -0.04148,-0.128056 c -0.466232,0.330962 -0.917134,0.666433 -1.352705,1.007315 -0.08297,0.118136 -0.164128,0.235371 -0.243487,0.353507 l -0.06764,-0.105511 c -1.437475,1.163326 -2.682866,2.381663 -3.697395,3.611723 L 25.857235,76.24068 c 1.065931,-1.545691 2.553006,-3.1004 4.371042,-4.546893 0.129859,-0.19479 0.264228,-0.38958 0.404008,-0.584369 -9.02e-4,-0.195692 0.01262,-0.393187 0.03066,-0.591583 -0.23717,0.182165 -0.468934,0.367937 -0.695287,0.551904 l -0.03787,0.05591 c -1.367135,1.100201 -2.546694,2.265331 -3.514329,3.438577 l -0.297595,-0.67545 c 0.511322,-0.740381 1.120942,-1.485271 1.817134,-2.220241 -0.559118,0.556413 -1.074048,1.119138 -1.54028,1.681864 l -0.296694,-0.673647 c 0.153307,-0.223648 0.315631,-0.44459 0.486974,-0.669139 l -0.207415,-0.470741 c 0.512225,-0.741283 1.12004,-1.486173 1.816233,-2.218437 -0.559119,0.554609 -1.072245,1.117335 -1.538477,1.68006 l -0.2976,-0.673645 c 0.698897,-1.013628 1.579058,-2.030862 2.614328,-3.019239 0.02705,-0.04779 0.05411,-0.09469 0.08116,-0.142485 l 9.01e-4,-0.0018 c 0.336373,-0.591584 0.723247,-1.192185 1.157916,-1.793688 -0.506813,0.42475 -0.988377,0.855812 -1.442886,1.290481 -0.09649,0.169539 -0.19028,0.336373 -0.280461,0.504108 l 0,0 c -0.0496,0.09108 -0.09559,0.180361 -0.143386,0.272345 l -0.157816,-0.198397 c -0.457214,0.468036 -0.881964,0.93968 -1.272445,1.412225 l -0.296693,-0.676353 c 0.186673,-0.268737 0.385972,-0.538377 0.596994,-0.80982 l 0,0 c 0.423847,-0.54018 0.897294,-1.079458 1.416733,-1.611523 0.368838,-0.682665 0.804409,-1.377054 1.304008,-2.074148 -0.537475,0.46984 -1.046994,0.950501 -1.518637,1.437475 -0.109118,0.19479 -0.212826,0.387776 -0.311122,0.578958 l -0.11002,-0.134369 c -0.288577,0.312926 -0.560922,0.624048 -0.820642,0.937876 l -0.297595,-0.673647 c 0.395892,-0.577155 0.852205,-1.150702 1.360822,-1.722445 0.33006,-0.642986 0.722345,-1.298597 1.172345,-1.957816 -0.189379,-0.502304 -0.423848,-1.076753 -0.724149,-1.743186 -0.181262,-0.400401 -0.354409,-0.77465 -0.514028,-1.125451 l -0.09739,0.04419 0.01623,-0.225451 C 27.27848,57.101703 26.815855,55.878858 27.352428,54.611824 25.750825,53.164429 24.123069,51.172345 23.361045,48.644589 22.575574,46.042886 19.546416,36.886874 28.874672,32.321944 25.184492,29.854609 22.059743,26.322244 19.643811,22.517535 17.454232,19.067234 16.937498,16.167034 16.803129,12.965631 16.665153,9.731764 17.256737,5 17.256737,5 h 1.590781 c 0,0 0.927956,2.021844 8.476052,8.276754 4.178958,3.462024 5.36483,3.691983 9.030662,6.734669 1.949699,1.617836 5.033867,5.705711 7.086372,8.567134 -0.101002,-2.183266 0.460822,-5.100601 6.576854,-5.100601 6.066433,0 6.668838,2.869539 6.576854,5.047395 2.05521,-2.858718 5.111423,-6.906914 7.0503,-8.51483 3.66493,-3.043587 4.850802,-3.272645 9.028858,-6.734669 C 80.22337,7.021844 81.151326,5 81.151326,5 h 1.592585 c 0,0 0.591583,4.731764 0.452705,7.961122 z M 30.104733,56.676954 c -0.457215,-0.284068 -0.995592,-0.647495 -1.569139,-1.08487 -0.02345,0.248898 0.01263,0.53477 0.116333,0.903607 0.113627,0.404008 0.289479,0.835071 0.499599,1.316634 0.183066,0.415731 0.390481,0.864829 0.615932,1.354509 0.08657,-0.817034 0.211924,-1.647596 0.337275,-2.48988 z m 3.499899,-25.986373 c 1.567335,-0.36523 3.342986,-0.64028 5.345892,-0.809819 -2.467335,-0.423848 -5.771543,-0.950501 -8.210922,-1.185872 -1.47535,-0.142485 -2.762224,-0.268738 -3.923747,-0.397696 -0.569038,-0.437374 -1.135371,-0.909018 -1.697195,-1.42034 1.291383,0.05591 2.744189,0.15511 4.242986,0.298497 4.618137,0.440982 9.276854,1.623246 11.627856,2.575551 0.317435,-0.01443 0.638477,-0.02615 0.965832,-0.03607 -3.403407,-1.575451 -9.510421,-4.218638 -14.23497,-5.037475 -2.297796,-0.398597 -4.022946,-0.71964 -5.304409,-0.971243 -0.252505,-0.360721 -0.501403,-0.734068 -0.745792,-1.118236 -0.837775,-1.321143 -1.446493,-2.745992 -1.884769,-4.184369 l 0.196593,0.0514 c 0,0 1.234569,0.47525 6.266633,2.47004 4.18978,1.66022 9.337275,4.490982 10.946994,5.393687 l -0.78006,-0.72505 -1.092084,-0.859419 -2.730661,-1.719739 c 0,0 -1.70982,-1.852305 -3.988678,-3.800201 -2.278857,-1.946994 -8.90531,-5.345891 -8.90531,-5.345891 l -0.66463,-2.946193 c 0,0 2.041684,1.046092 5.412626,3.563026 2.747795,2.052505 13.329559,10.708918 17.348898,14.015832 l 0.250701,0.169539 C 41.27357,27.371943 39.716155,25.037173 37.469763,22.993686 34.449622,20.248596 30.601626,16.826252 26.915053,13.772744 19.175775,7.360921 18.627478,6.193987 18.627478,6.193987 l -0.712425,0.04689 c 0,0 -1.569138,9.291282 2.638678,15.919539 2.970541,4.679459 6.592184,7.608517 9.993787,9.44008 0.28497,-0.106413 0.578056,-0.209218 0.881964,-0.307515 -1.115531,-0.544689 -1.892886,-0.933367 -1.892886,-0.933367 l 4.068036,0.330962 z m 2.236473,-5.629058 -0.314729,-0.198397 0.36523,0.244389 -0.0505,-0.04599 z m 0.144289,55.919038 -0.118136,-0.177655 c -0.246193,0.697094 -0.461724,1.384268 -0.643888,2.05521 0.01894,0.732265 0.06764,1.442886 0.144288,2.12465 0.143387,-0.725051 0.330962,-1.473548 0.561824,-2.240081 -0.0018,-0.573547 0.01623,-1.161523 0.05591,-1.762124 z m 1.609719,2.183267 c -0.165932,-0.206513 -0.330962,-0.417535 -0.49509,-0.633968 l -0.03968,0.114529 c -0.01714,0.708817 -0.009,1.400501 0.02345,2.073246 0.150601,-0.510421 0.321042,-1.029859 0.511322,-1.553807 z m 0.436473,4.279058 c -0.08657,-0.539279 -0.152405,-1.102004 -0.196593,-1.682766 -0.17495,0.578056 -0.328256,1.145291 -0.458116,1.702605 0.08838,0.523047 0.196593,1.02986 0.319238,1.515031 0.09018,-0.502305 0.202906,-1.013628 0.335471,-1.53487 z m 24.591283,0.01894 c -0.130762,-0.557315 -0.283167,-1.124549 -0.458116,-1.702606 -0.04419,0.581664 -0.110922,1.144389 -0.197495,1.682766 0.133467,0.521242 0.246192,1.033467 0.336372,1.533968 0.123547,-0.484269 0.229058,-0.991082 0.319239,-1.514128 z m 0.316533,-4.817435 -0.02435,-0.06583 c -0.162324,0.213728 -0.327355,0.427455 -0.491483,0.633968 0.181263,0.506814 0.345391,1.01002 0.491483,1.50511 0.03337,-0.673647 0.04238,-1.364429 0.02435,-2.073246 z m 1.836974,0.213727 C 64.596917,82.1998 64.384993,81.522545 64.146015,80.838978 l -0.128958,0.192084 c 0.03517,0.582565 0.05501,1.154309 0.05321,1.711623 0.232665,0.767435 0.419338,1.515932 0.561823,2.240081 0.07575,-0.681764 0.125351,-1.392385 0.144289,-2.12465 z m 1.89018,-31.308817 c 0.174048,-8.429161 -3.51523,-15.247698 -10.187675,-17.868339 -0.329158,5.043787 -1.666533,1.758517 -6.461423,1.772946 -4.79489,-0.01443 -6.131363,3.269038 -6.460521,-1.767535 -6.668838,2.624248 -10.353607,9.44008 -10.178657,17.862926 0.156913,7.634669 -2.448397,9.693487 0.194789,13.298897 0.134369,0.16503 0.281363,0.328257 0.44008,0.486974 0.438277,0.437375 0.871143,1.096594 1.347295,1.822545 l 0,0 c 1.801804,2.747796 4.218637,6.431664 9.85491,2.573748 0.624048,-0.428357 1.11012,-0.901804 1.827054,-0.808016 0.293988,0.03066 0.514028,0.126252 0.682665,0.269639 -0.08567,-0.507715 -0.266032,-1.198497 -0.270541,-2.035371 l 0,0 c -0.0027,-0.6502 0.101002,-1.387875 0.440982,-2.198597 0.728657,-1.734168 0.960421,-4.276352 0.518537,-5.104208 -0.03247,-0.06493 -0.109118,-0.202906 -0.109118,-0.202906 -1.031663,-1.935271 -3.609018,-2.238277 -5.961824,-2.605311 -4.95,-0.769238 -6.311723,-3.557615 -6.302705,-6.410921 -0.851303,3.208617 -1.542986,7.917835 -0.89008,10.236372 0.523046,1.858618 1.12996,1.36984 1.71523,-0.269639 0.431964,0.457214 1.002806,0.877455 1.749499,1.205711 -0.937876,2.225652 -3.202304,6.761724 -4.326854,1.837876 -1.029859,-4.509018 0.319239,-11.246393 2.525051,-17.119839 0.214629,-0.625852 0.447294,-1.190381 0.656513,-1.658417 0.387775,-0.863928 0.691683,-1.385171 0.691683,-1.385171 0,0 -3.689279,8.112626 3.105812,9.993788 2.992184,0.828757 4.851703,1.962325 5.994288,3.201403 -0.991984,-1.535772 -2.646793,-3.557616 -5.512725,-6.031263 -7.139579,-6.163827 0.291282,-15.499298 0.291282,-15.499298 0,0 -3.177956,6.029459 0.656513,13.940982 1.071343,2.21032 2.367235,3.080561 4.697495,5.761623 0.690782,0.779158 0.868437,1.905511 0.868437,1.905511 l 0.482465,2.603507 0.03246,0.128056 c 0.312024,1.2499 0.150601,2.69008 0.03517,3.741583 -0.184869,1.677355 -0.263326,2.946192 -0.287675,3.930962 l 0,0 c -0.03878,1.52495 0.05501,2.370842 0.09289,3.003006 0.01353,0.237174 0.101904,1.17505 -0.183968,1.17505 -0.28497,0 -0.643888,-0.41483 -1.358116,-0.566333 -0.09108,-0.01894 -0.175852,-0.02976 -0.256113,-0.03607 -0.288577,-0.01172 -0.581663,0.05231 -0.838677,0.270541 -0.165932,0.147896 -0.278657,0.330061 -0.370641,0.482465 -0.851303,1.632265 -1.352706,3.091383 -5.025752,2.710822 -1.777455,-0.18487 -3.255511,-1.535772 -4.309719,-2.879459 1.134469,4.931062 1.751302,10.732365 5.891483,13.981563 4.003106,1.957816 9.108216,-1.875751 5.829258,-3.184268 -0.643887,-0.225451 -0.720541,-0.542886 -0.722344,-0.711523 -0.0018,-0.426553 1.684569,-0.519439 2.761322,-0.525752 1.077656,0.0063 2.763127,0.0992 2.759519,0.525752 0,0.188477 -0.09649,0.56002 -0.963126,0.785471 -2.95521,1.386072 2.176954,5.112324 6.125952,3.046292 4.111323,-3.29519 4.697495,-9.142485 5.845491,-14.073547 -1.058718,1.395992 -2.583667,2.84519 -4.427856,3.036373 -3.673948,0.380561 -4.176252,-1.078557 -5.026653,-2.710822 -0.312024,-0.602405 -0.753908,-0.764729 -1.186774,-0.753006 -0.08477,0.0045 -0.172244,0.01804 -0.266032,0.03607 -0.71513,0.151503 -1.075851,0.566333 -1.35992,0.566333 -0.284969,0 -0.197495,-0.937876 -0.183066,-1.17505 0.03697,-0.632164 0.130762,-1.476253 0.09379,-3.003006 -0.02435,-0.985672 -0.105511,-2.253607 -0.288577,-3.930962 -0.114529,-1.051503 -0.276854,-2.492585 0.03517,-3.741583 l 0.03697,-0.144289 0.478858,-2.586373 c 0,0 0.175851,-1.126352 0.868437,-1.905511 2.332064,-2.681964 3.626152,-3.551302 4.697495,-5.761623 3.834469,-7.911523 0.657414,-13.940982 0.657414,-13.940982 0,0 7.430862,9.335471 0.290381,15.499299 -2.862324,2.470942 -4.518036,4.49008 -5.509118,6.029459 1.141683,-1.237275 3.003006,-2.371744 5.988878,-3.198698 6.796894,-1.881162 3.106713,-9.993787 3.106713,-9.993787 0,0 0.336373,0.577154 0.741283,1.496092 L 62.520063,44.8498 c 2.587275,6.227855 4.318738,13.854408 3.187876,18.800801 -1.123647,4.923848 -3.387174,0.387776 -4.325952,-1.837876 0.748497,-0.328256 1.317535,-0.748497 1.750401,-1.205711 0.582565,1.638577 1.192184,2.127355 1.71523,0.269639 0.658317,-2.345591 -0.05591,-7.13507 -0.918036,-10.341883 0.04239,2.887575 -1.291383,5.738176 -6.305411,6.517334 -2.351002,0.366132 -4.93016,0.67004 -5.96002,2.605311 0,0 -0.07755,0.137074 -0.109118,0.202906 -0.441884,0.827855 -0.209218,3.37004 0.519439,5.104208 0.338176,0.810722 0.443687,1.549299 0.44008,2.198597 l 0,0 c 0,0.0018 0,0.0018 0,0.0018 -0.0036,0.831463 -0.183066,1.517735 -0.269639,2.022745 0.165932,-0.137074 0.385972,-0.22996 0.670942,-0.258817 0.71513,-0.09379 1.204809,0.380561 1.827956,0.808016 5.636272,3.857014 8.053106,0.173146 9.85491,-2.573748 l 0,0 c 0.47525,-0.726853 0.909018,-1.38517 1.345491,-1.822545 0.587975,-0.588878 1.010921,-1.23006 1.315731,-1.849599 1.215631,-2.888477 -0.730461,-5.31523 -0.593387,-11.941683 z m 3.269038,5.102404 c 0.123547,0.821543 0.246193,1.632265 0.332766,2.430361 0.209218,-0.457214 0.40491,-0.878357 0.576252,-1.270641 0.211022,-0.481563 0.387776,-0.912625 0.502305,-1.316633 0.101904,-0.368838 0.138878,-0.652906 0.114529,-0.903608 -0.553707,0.425652 -1.076754,0.779159 -1.525852,1.060521 z M 82.087398,6.240884 81.375875,6.193994 c 0,0 -0.549199,1.166934 -8.288477,7.578757 -3.68477,3.053508 -7.533667,6.475852 -10.555611,9.220942 -2.245491,2.043487 -3.802906,4.378257 -4.575752,5.676854 l 0.2498,-0.169539 c 4.021142,-3.30692 14.601102,-11.963333 17.350701,-14.015838 3.369138,-2.516934 5.412625,-3.563026 5.412625,-3.563026 l -0.663727,2.946193 c 0,0 -6.628257,3.399799 -8.907114,5.345891 -2.278858,1.947896 -3.987776,3.800201 -3.987776,3.800201 l -2.731563,1.719739 -1.092084,0.859419 -0.78006,0.72505 c 1.607916,-0.902705 6.756312,-3.733467 10.946994,-5.393687 5.032064,-1.99479 6.266633,-2.47004 6.266633,-2.47004 l 0.195691,-0.0514 c -0.438276,1.438377 -1.046092,2.863226 -1.886573,4.184369 -0.243487,0.384168 -0.491483,0.757515 -0.743086,1.118236 -1.282365,0.251603 -3.008417,0.572646 -5.305311,0.971243 -4.72545,0.818837 -10.832464,3.462024 -14.234969,5.037475 0.325551,0.009 0.648396,0.02074 0.964929,0.03607 2.351002,-0.952305 7.00972,-2.134569 11.628758,-2.575551 1.498797,-0.143387 2.949799,-0.242585 4.241182,-0.298497 -0.56002,0.510421 -1.127254,0.982966 -1.696292,1.42034 -1.160622,0.128958 -2.448397,0.255211 -3.922846,0.397696 -2.441182,0.236272 -5.745391,0.762926 -8.212725,1.185872 2.006513,0.169539 3.779458,0.444589 5.347695,0.809819 l 4.070741,-0.330962 c 0,0 -0.776453,0.389579 -1.893787,0.933367 0.303006,0.0983 0.596994,0.201102 0.881062,0.307515 3.402505,-1.832465 7.024148,-4.760621 9.995591,-9.44008 4.206012,-6.628257 2.636874,-15.919539 2.636874,-15.919539 z m -17.615832,18.622244 -0.313827,0.198397 -0.0514,0.04689 0.36523,-0.245291 z"
     id="path5775"
     style="fill:#333333"
     inkscape:connector-curvature="0" /></svg>