<?xml version="1.0" encoding="UTF-8" standalone="no"?>
<svg
   xmlns:dc="http://purl.org/dc/elements/1.1/"
   xmlns:cc="http://creativecommons.org/ns#"
   xmlns:rdf="http://www.w3.org/1999/02/22-rdf-syntax-ns#"
   xmlns:svg="http://www.w3.org/2000/svg"
   xmlns="http://www.w3.org/2000/svg"
   xmlns:sodipodi="http://sodipodi.sourceforge.net/DTD/sodipodi-0.dtd"
   xmlns:inkscape="http://www.inkscape.org/namespaces/inkscape"
   version="1.1"
   id="Layer_1"
   x="0px"
   y="0px"
   width="100px"
   height="100px"
   viewBox="0 0 100 100"
   enable-background="new 0 0 100 100"
   xml:space="preserve"
   inkscape:version="0.48.4 r9939"
   sodipodi:docname="icon_30941.svg"><metadata
     id="metadata6748"><rdf:RDF><cc:Work
         rdf:about=""><dc:format>image/svg+xml</dc:format><dc:type
           rdf:resource="http://purl.org/dc/dcmitype/StillImage" /></cc:Work></rdf:RDF></metadata><defs
     id="defs6746" /><sodipodi:namedview
     pagecolor="#ffffff"
     bordercolor="#666666"
     borderopacity="1"
     objecttolerance="10"
     gridtolerance="10"
     guidetolerance="10"
     inkscape:pageopacity="0"
     inkscape:pageshadow="2"
     inkscape:window-width="1920"
     inkscape:window-height="1056"
     id="namedview6744"
     showgrid="false"
     inkscape:zoom="2.36"
     inkscape:cx="-0.42372881"
     inkscape:cy="50"
     inkscape:window-x="0"
     inkscape:window-y="24"
     inkscape:window-maximized="1"
     inkscape:current-layer="Layer_1" /><g
     id="g6750"
     transform="matrix(0.91180315,0,0,0.91180315,4.2435402,4.0886671)"><path
       style="fill:#333333"
       id="path6738"
       d="m 55.269,79.652 c -5.12,0 -9.376,-0.623 -9.418,-0.629 -0.793,-0.119 -1.532,0.43 -1.65,1.223 -0.118,0.793 0.429,1.531 1.222,1.648 0.182,0.027 4.501,0.662 9.847,0.662 0.803,0 1.452,-0.648 1.452,-1.451 0,-0.803 -0.651,-1.453 -1.453,-1.453 z"
       inkscape:connector-curvature="0" /><polygon
       style="fill:#333333"
       id="polygon6740"
       points="52.821,26.811 50.336,19.689 50.273,19.689 47.725,26.811 " /><path
       style="fill:#333333"
       id="path6742"
       d="m 93.247,1 c -1.549,0.084 -1.807,6.079 -1.807,6.079 0,0 -0.259,-1.373 -1.204,-1.421 -1.55,-0.078 -1.205,6.394 -1.205,6.394 0,0 -0.425,-1.736 -1.206,-1.736 -2.064,0 -1.831,5.715 -1.893,5.554 v 3.957 C 84.319,16.186 81.556,12.784 77.762,9.87 72.084,5.509 64.798,2.905 58.272,2.905 H 42.58 c -4.643,0 -9.669,1.324 -14.229,3.655 -0.156,0.038 -0.251,0.063 -0.281,0.071 -0.25,0.067 -0.479,0.199 -0.662,0.385 -0.025,0.025 -0.06,0.061 -0.094,0.095 -1.475,0.818 -2.896,1.739 -4.225,2.76 -4.206,3.231 -7.148,7.062 -8.656,11.156 v -5.156 c -0.062,0.161 0.172,-5.554 -1.893,-5.554 -0.78,0 -1.206,1.736 -1.206,1.736 0,0 0.345,-6.472 -1.205,-6.394 C 9.184,5.706 8.925,7.079 8.925,7.079 8.925,7.079 8.667,1.084 7.118,1 4.425,0.855 4.026,31.321 13.267,36.185 v 11.601 c -0.206,4.64 -0.25,9.349 0,13.589 v 1.172 c 0,0.18 0.02,0.354 0.056,0.521 0.28,20.248 16.84,36.637 37.156,36.637 20.49,0 37.159,-16.67 37.159,-37.158 0,-0.174 -0.019,-0.344 -0.054,-0.506 V 35.899 C 96.323,30.239 95.892,0.858 93.247,1 z m -45.9,13.048 h 5.947 l 8.402,20.34 h -6.105 l -1.384,-3.647 h -7.835 l -1.417,3.647 h -6.01 l 8.402,-20.34 z M 22.32,47.524 c -0.114,-0.371 -0.074,-0.772 0.11,-1.114 1.858,-3.452 8.254,-5.784 8.977,-6.039 0.59,-0.207 1.246,-0.014 1.629,0.478 2.742,3.525 13.089,12.36 13.193,12.45 0.414,0.354 0.581,0.889 0.482,1.389 -0.042,0.422 -0.268,0.822 -0.65,1.072 l -5.614,3.668 c -0.297,0.195 -0.655,0.273 -1.005,0.223 -0.011,-0.002 -0.021,-0.002 -0.031,-0.004 L 27.882,57.698 c -0.23,-0.039 -0.447,-0.133 -0.633,-0.273 -2.346,-1.771 -4.518,-8.558 -4.929,-9.901 z m 28.159,47.355 c -9.821,0 -18.627,-4.406 -24.562,-11.34 0.084,-0.107 0.16,-0.219 0.213,-0.348 l 3.757,-8.982 20.529,-11.83 20.529,11.83 3.758,8.982 c 0.064,0.156 0.162,0.295 0.277,0.42 -5.934,6.893 -14.714,11.268 -24.501,11.268 z M 77.814,47.524 c -0.412,1.343 -2.584,8.13 -4.93,9.9 -0.185,0.141 -0.402,0.234 -0.632,0.273 l -11.53,1.949 c -0.01,0.002 -0.02,0.002 -0.029,0.004 -0.351,0.051 -0.709,-0.027 -1.007,-0.223 l -5.613,-3.668 c -0.383,-0.25 -0.608,-0.65 -0.65,-1.072 -0.099,-0.5 0.068,-1.035 0.481,-1.389 0.105,-0.09 10.452,-8.925 13.194,-12.45 0.383,-0.492 1.039,-0.685 1.628,-0.478 0.724,0.255 7.119,2.587 8.978,6.039 0.185,0.342 0.224,0.744 0.11,1.115 z"
       inkscape:connector-curvature="0" /></g></svg>