<?xml version="1.0" encoding="UTF-8" standalone="no"?>
<svg
   xmlns:dc="http://purl.org/dc/elements/1.1/"
   xmlns:cc="http://creativecommons.org/ns#"
   xmlns:rdf="http://www.w3.org/1999/02/22-rdf-syntax-ns#"
   xmlns:svg="http://www.w3.org/2000/svg"
   xmlns="http://www.w3.org/2000/svg"
   xmlns:sodipodi="http://sodipodi.sourceforge.net/DTD/sodipodi-0.dtd"
   xmlns:inkscape="http://www.inkscape.org/namespaces/inkscape"
   inkscape:version="1.0beta1 (32d4812, 2019-09-19)"
   height="100"
   width="100"
   sodipodi:docname="icon_432273.svg"
   id="svg16"
   xml:space="preserve"
   enable-background="new 0 0 100 100"
   viewBox="0 0 100 100"
   y="0px"
   x="0px"
   version="1.1">
  <metadata
     id="metadata22">
    <rdf:RDF>
      <cc:Work
         rdf:about="">
        <dc:format>image/svg+xml</dc:format>
        <dc:type
           rdf:resource="http://purl.org/dc/dcmitype/StillImage" />
        <dc:title></dc:title>
      </cc:Work>
    </rdf:RDF>
  </metadata>
  <defs
     id="defs20" />
  <sodipodi:namedview
     inkscape:current-layer="svg16"
     inkscape:window-maximized="0"
     inkscape:window-y="23"
     inkscape:window-x="0"
     inkscape:cy="81.269204"
     inkscape:cx="157.53567"
     inkscape:zoom="2.9347725"
     showgrid="false"
     id="namedview18"
     inkscape:window-height="907"
     inkscape:window-width="1600"
     inkscape:pageshadow="2"
     inkscape:pageopacity="0"
     guidetolerance="10"
     gridtolerance="10"
     objecttolerance="10"
     borderopacity="1"
     inkscape:document-rotation="0"
     bordercolor="#666666"
     pagecolor="#ffffff" />
  <path
     inkscape:connector-curvature="0"
     id="path10"
     d="m 31.363,70.016 c 0.064,0.222 0.009,0.463 -0.15,0.631 -0.125,0.134 -0.298,0.205 -0.474,0.205 -0.05,0 -0.099,-0.006 -0.148,-0.018 -0.135,-0.031 -0.592,-0.164 -0.836,-0.568 -0.138,-0.229 -0.176,-0.504 -0.104,-0.771 0.015,-0.054 0.035,-0.104 0.062,-0.15 -0.054,-0.112 -0.11,-0.225 -0.172,-0.336 -0.319,-0.592 -0.713,-1.131 -1.14,-1.563 -0.254,-0.256 -0.252,-0.668 0.005,-0.922 0.256,-0.252 0.67,-0.25 0.922,0.006 0.513,0.52 0.983,1.162 1.36,1.858 0.285,0.53 0.514,1.077 0.675,1.628 z M 74.03,66.527 c -0.513,0.52 -0.982,1.162 -1.358,1.858 -0.286,0.531 -0.515,1.078 -0.677,1.63 -0.065,0.221 -0.008,0.463 0.149,0.631 0.125,0.133 0.297,0.205 0.476,0.205 0.049,0 0.099,-0.007 0.146,-0.019 0.135,-0.031 0.594,-0.164 0.836,-0.567 0.14,-0.23 0.176,-0.505 0.105,-0.771 -0.014,-0.053 -0.035,-0.104 -0.061,-0.15 0.054,-0.111 0.109,-0.225 0.17,-0.336 0.319,-0.592 0.715,-1.131 1.142,-1.564 0.253,-0.256 0.251,-0.668 -0.006,-0.922 -0.255,-0.252 -0.669,-0.251 -0.922,0.005 z M 52.754,60.873 c -0.3,-0.816 -1.523,-0.365 -1.223,0.449 l 0.75,2.041 c 0.301,0.813 1.523,0.363 1.224,-0.451 z m -2.961,1.205 -0.475,1.023 c -0.367,0.786 0.814,1.336 1.183,0.549 l 0.476,-1.023 C 51.34,61.84 50.158,61.291 49.793,62.078 Z m 17.936,-2.139 c -3.024,-2.525 -8.617,-1.758 -11.748,0.313 -0.052,0.035 -0.102,0.068 -0.148,0.104 -0.021,-0.023 -0.523,0.442 -1.073,0.194 -0.55,-0.245 -0.864,-0.387 -0.77,0.654 0.096,1.045 0.934,1.84 2.245,1.481 l 0.217,-0.061 c 4.038,-1.029 8.286,-3.041 10.217,-1.428 1.569,1.316 2.631,0.054 1.06,-1.257 z m -19.5,0.614 c -0.551,0.248 -1.056,-0.219 -1.076,-0.195 -0.047,-0.034 -0.096,-0.067 -0.147,-0.104 -3.131,-2.072 -8.723,-2.84 -11.748,-0.314 -1.571,1.312 -0.51,2.572 1.062,1.263 1.932,-1.613 6.18,0.397 10.218,1.428 l 0.215,0.062 c 1.313,0.356 2.149,-0.438 2.246,-1.482 0.092,-1.045 -0.224,-0.904 -0.77,-0.658 z m 12.5,1.472 c -1.887,0 -3.588,0.781 -4.74,2.028 -0.59,0.64 0.369,1.523 0.958,0.886 0.479,-0.521 1.089,-0.943 1.78,-1.224 -0.18,0.289 -0.283,0.632 -0.283,0.998 0,1.047 0.849,1.896 1.896,1.896 1.05,0 1.898,-0.85 1.898,-1.896 0,-0.5 -0.193,-0.953 -0.511,-1.293 1.414,0.269 2.59,1.088 3.282,2.191 0.462,0.735 1.566,0.043 1.104,-0.691 -1.092,-1.742 -3.093,-2.895 -5.384,-2.895 z m -18.472,0 c -2.292,0 -4.294,1.151 -5.386,2.896 -0.462,0.734 0.643,1.429 1.104,0.691 0.691,-1.104 1.869,-1.925 3.28,-2.191 -0.315,0.34 -0.509,0.793 -0.509,1.293 0,1.047 0.852,1.896 1.896,1.896 1.049,0 1.898,-0.85 1.898,-1.896 0,-0.366 -0.104,-0.709 -0.284,-0.998 0.693,0.279 1.3,0.703 1.78,1.224 0.59,0.639 1.548,-0.246 0.958,-0.886 -1.149,-1.247 -2.849,-2.029 -4.737,-2.029 z m 1.503,5.225 -2.462,-0.219 c -0.873,-0.072 -0.991,1.236 -0.112,1.316 l 2.461,0.217 c 0.873,0.077 0.989,-1.232 0.113,-1.314 z m 18.347,-0.219 -2.463,0.219 c -0.875,0.08 -0.761,1.391 0.116,1.314 l 2.464,-0.217 c 0.874,-0.079 0.76,-1.388 -0.117,-1.316 z m 14.856,-3.668 c 1.358,1.262 1.105,4.281 -0.693,8.283 -1.154,2.565 -2.705,3.807 -4.989,3.959 -0.211,1.104 -0.788,4.162 -1.644,8.963 -0.769,4.328 -2.438,5.229 -4.551,6.367 -0.827,0.444 -1.766,0.95 -2.758,1.75 -0.855,0.69 -1.98,1.211 -3.178,1.604 -1.831,2.965 -7.435,2.732 -7.435,2.732 0,0 -5.562,0.231 -7.416,-2.701 -1.23,-0.396 -2.392,-0.926 -3.271,-1.635 -0.992,-0.8 -1.93,-1.306 -2.758,-1.75 -2.112,-1.14 -3.782,-2.039 -4.551,-6.367 -0.854,-4.801 -1.433,-7.857 -1.644,-8.963 -2.283,-0.152 -3.835,-1.394 -4.989,-3.959 -1.8,-4.002 -2.053,-7.021 -0.693,-8.283 0.42,-0.391 1.326,-0.883 2.916,-0.248 -3.526,-4.744 -5.455,-10.488 -5.455,-16.451 0,-8.382 3.763,-15.906 9.694,-20.989 L 33.17,23.386 c -0.309,-1.882 0.971,-3.667 2.854,-3.979 0.619,-0.213 1.289,-1.904 0.918,-4.158 -0.299,-1.812 -1.117,-3.057 -1.797,-3.486 L 35.108,11.738 C 34.962,11.637 34.828,11.551 34.707,11.472 34.006,11.015 33.067,10.406 33.228,9.078 33.701,5.256 35.002,4.669 38.083,4.162 39,4.011 39.757,3.898 40.453,3.94 c 1.861,0.113 2.757,1.257 3.755,3.329 0.58,1.204 -0.141,2.119 -0.617,2.725 -0.095,0.118 -0.196,0.249 -0.307,0.395 l -0.029,0.038 c -0.508,0.627 -0.884,2.068 -0.585,3.88 0.389,2.359 1.62,3.607 2.2,3.642 l 0.03,10e-4 c 0.244,-0.043 0.503,-0.056 0.759,-0.04 0.987,0.06 1.88,0.547 2.479,1.283 1.164,-0.148 2.351,-0.225 3.553,-0.225 15.35,0 27.837,12.426 27.837,27.697 0,5.962 -1.914,11.69 -5.433,16.431 1.561,-0.606 2.451,-0.117 2.868,0.267 z m -42.502,-40.188 0.716,4.35 0.99,5.56 c 0.19,-0.223 0.401,-0.441 0.636,-0.656 l -0.721,-4.664 c -0.016,-0.129 0.104,-0.235 0.232,-0.257 0.134,-0.021 0.281,0.054 0.302,0.177 l 0.757,4.258 c 0.213,-0.169 0.439,-0.333 0.677,-0.494 l -0.604,-3.908 c -0.015,-0.13 0.104,-0.235 0.234,-0.258 0.133,-0.021 0.28,0.055 0.301,0.178 l 0.644,3.619 c 0.226,-0.139 0.462,-0.272 0.706,-0.403 l -0.52,-3.36 c -0.016,-0.129 0.103,-0.234 0.233,-0.257 0.13,-0.023 0.28,0.054 0.301,0.178 l 0.558,3.146 c 0.236,-0.116 0.479,-0.229 0.729,-0.34 l -0.456,-2.951 c -0.016,-0.129 0.102,-0.236 0.233,-0.257 0.134,-0.021 0.28,0.054 0.301,0.178 l 0.495,2.79 c 0.243,-0.098 0.49,-0.192 0.744,-0.283 L 41.54,26.869 c -0.017,-0.129 0.103,-0.235 0.233,-0.257 0.133,-0.021 0.279,0.054 0.301,0.178 l 0.449,2.532 c 0.248,-0.083 0.502,-0.162 0.758,-0.238 l -0.377,-2.439 c -0.017,-0.129 0.102,-0.234 0.231,-0.256 0.136,-0.022 0.281,0.053 0.302,0.176 l 0.42,2.355 c 0.252,-0.068 0.509,-0.134 0.768,-0.196 L 44.27,26.42 c -0.017,-0.129 0.103,-0.234 0.232,-0.256 0.133,-0.022 0.28,0.053 0.302,0.177 l 0.399,2.249 c 0.255,-0.055 0.515,-0.107 0.775,-0.158 l -0.346,-2.235 c -0.016,-0.129 0.102,-0.236 0.232,-0.257 0.134,-0.021 0.281,0.054 0.301,0.177 l 0.392,2.212 c 0.261,-0.045 0.521,-0.086 0.784,-0.123 l -0.345,-2.233 c -0.017,-0.13 0.102,-0.235 0.233,-0.257 0.133,-0.022 0.278,0.052 0.302,0.177 l 0.396,2.235 c 0.178,-0.021 0.354,-0.043 0.533,-0.062 0.083,-0.008 0.166,-0.015 0.248,-0.023 -0.294,-1.896 -0.512,-3.301 -0.514,-3.303 l -0.611,-3.719 c -0.194,-1.173 -1.311,-1.974 -2.482,-1.78 l -0.082,0.013 C 43.445,19.364 41.84,17.299 41.382,14.525 41.048,12.494 41.419,10.628 42.239,9.613 42.885,8.75 43.307,8.416 43.032,7.841 41.678,5.03 40.987,5.009 38.296,5.453 c -2.693,0.443 -3.391,0.691 -3.773,3.788 -0.076,0.633 0.433,0.814 1.319,1.425 1.104,0.697 2.054,2.346 2.388,4.376 0.457,2.776 -0.402,5.246 -1.93,5.646 l -0.061,0.01 c -1.171,0.189 -1.969,1.305 -1.778,2.477 z m 25.832,58.964 -8.576,0.096 -8.576,-0.096 c 0.639,2.715 1.69,8.527 3.5,8.754 3.424,0.429 2.943,-0.518 2.877,-4.797 -1.189,-0.389 -1.903,-1.115 -1.903,-2.045 0,-0.049 0.06,-0.188 0.235,-0.121 l 0.162,0.068 c 1.129,0.467 2.497,0.592 3.693,0.592 1.195,0 2.564,-0.125 3.693,-0.592 L 55.56,83.93 c 0.176,-0.065 0.234,0.072 0.234,0.121 0,0.924 -0.705,1.646 -1.879,2.037 -0.064,4.285 -0.55,5.232 2.876,4.805 1.811,-0.227 2.863,-6.039 3.502,-8.754 z M 76.075,64.318 c -0.515,-0.478 -1.534,-0.037 -2.097,0.268 -0.916,0.498 -1.463,1.227 -1.819,1.775 -0.084,0.141 -0.163,0.266 -0.236,0.377 l -0.024,0.039 c -0.006,0.008 -0.011,0.014 -0.016,0.02 -0.523,0.785 -0.751,0.842 -1.04,0.842 v 0 c -0.22,-0.002 -0.424,-0.1 -0.56,-0.274 -0.23,-0.298 -0.225,-0.689 0.027,-1.681 0.949,-3.731 0.976,-6.352 0.08,-7.785 L 70.13,57.49 c -1.262,-1.998 -2.26,-3.578 -1.146,-6.107 0.955,-2.168 0.688,-4.703 0.685,-4.729 -10e-4,-0.016 0.002,-0.029 0.002,-0.044 -0.327,-3.74 -8.431,-6.857 -17.994,-6.857 -9.546,0 -17.638,3.105 -17.991,6.837 0,0.022 0.006,0.044 0.002,0.065 -0.002,0.023 -0.271,2.56 0.685,4.728 1.112,2.529 0.115,4.109 -1.146,6.107 l -0.26,0.409 c -0.896,1.435 -0.869,4.052 0.08,7.785 0.252,0.99 0.258,1.383 0.026,1.681 -0.136,0.176 -0.339,0.274 -0.56,0.274 -0.34,0 -0.594,-0.076 -1.352,-1.334 -0.358,-0.543 -0.896,-1.238 -1.782,-1.719 -0.562,-0.305 -1.581,-0.744 -2.096,-0.268 -0.7,0.649 -0.688,3.053 0.993,6.793 1.269,2.815 2.813,3.207 4.299,3.207 0.002,0 0.004,0.002 0.006,0 0.173,0 0.339,0.067 0.462,0.19 l 0.047,0.05 c 0.093,0.09 0.155,0.207 0.181,0.336 0.006,0.032 0.646,3.328 1.733,9.444 0.659,3.709 1.943,4.4 3.888,5.447 0.877,0.473 1.87,1.008 2.957,1.885 0.525,0.424 1.186,0.777 1.908,1.07 -0.435,-2.47 -1.005,-6.359 -1.956,-12.084 -0.463,-2.787 5.642,-3.369 8.526,-3.488 -0.309,-0.215 -0.422,-0.516 -1.385,-0.887 -0.594,-0.232 -1.205,-0.382 -1.695,-0.535 L 46.15,75.47 c -0.711,-0.166 -1.562,-0.741 -1.562,-1.772 0,-0.547 0.135,-0.914 0.321,-1.146 l 0.034,-0.053 c 0.088,-0.133 0.186,-0.258 0.303,-0.377 0.616,-0.627 1.559,0.295 0.945,0.92 -0.061,0.061 -0.104,0.117 -0.143,0.17 -0.103,0.15 -0.144,0.305 -0.144,0.486 0,0.168 0.155,0.4 0.561,0.49 l 1.14,0.291 c 0.871,0.272 1.812,0.487 2.613,0.942 0.433,0.146 1.017,0.242 1.523,0.242 0.488,0 1.023,-0.09 1.438,-0.229 0.81,-0.461 1.762,-0.678 2.645,-0.957 l 1.142,-0.291 c 0.402,-0.09 0.56,-0.321 0.56,-0.489 0,-0.259 -0.107,-0.479 -0.282,-0.656 -0.617,-0.631 0.33,-1.547 0.942,-0.92 0.412,0.424 0.657,0.979 0.657,1.576 0,1.041 -0.868,1.608 -1.584,1.772 l -1.073,0.273 c -0.94,0.293 -2.351,0.568 -3.004,1.367 -0.019,0.02 -0.043,0.037 -0.064,0.055 2.79,0.107 8.984,0.666 8.515,3.492 -0.946,5.699 -1.515,9.58 -1.948,12.051 0.69,-0.287 1.32,-0.631 1.827,-1.037 1.087,-0.877 2.08,-1.412 2.956,-1.885 1.944,-1.047 3.229,-1.738 3.889,-5.447 1.088,-6.117 1.729,-9.412 1.733,-9.445 0.025,-0.129 0.088,-0.244 0.181,-0.336 l 0.047,-0.049 c 0.123,-0.123 0.289,-0.191 0.463,-0.191 0.002,0 0.004,0 0.005,0 1.483,0 3.03,-0.391 4.298,-3.207 1.678,-3.739 1.691,-6.141 0.991,-6.792 z M 36.994,42.363 c 0.053,0.083 0.178,0.121 0.308,0.081 v -0.001 c 10e-4,0 0.002,-10e-4 0.002,-10e-4 -0.105,-0.025 -0.207,-0.052 -0.31,-0.079 z"
     fill="#000000" />
</svg>
