<?xml version="1.0" encoding="UTF-8" standalone="no"?>
<svg
   xmlns:dc="http://purl.org/dc/elements/1.1/"
   xmlns:cc="http://creativecommons.org/ns#"
   xmlns:rdf="http://www.w3.org/1999/02/22-rdf-syntax-ns#"
   xmlns:svg="http://www.w3.org/2000/svg"
   xmlns="http://www.w3.org/2000/svg"
   xmlns:sodipodi="http://sodipodi.sourceforge.net/DTD/sodipodi-0.dtd"
   xmlns:inkscape="http://www.inkscape.org/namespaces/inkscape"
   version="1.1"
   x="0px"
   y="0px"
   width="100px"
   height="100px"
   viewBox="0 0 100 100"
   enable-background="new 0 0 100 100"
   xml:space="preserve"
   id="svg4073"
   inkscape:version="0.48.4 r9939"
   sodipodi:docname="icon_14248.svg"><metadata
     id="metadata4091"><rdf:RDF><cc:Work
         rdf:about=""><dc:format>image/svg+xml</dc:format><dc:type
           rdf:resource="http://purl.org/dc/dcmitype/StillImage" /></cc:Work></rdf:RDF></metadata><defs
     id="defs4089" /><sodipodi:namedview
     pagecolor="#ffffff"
     bordercolor="#666666"
     borderopacity="1"
     objecttolerance="10"
     gridtolerance="10"
     guidetolerance="10"
     inkscape:pageopacity="0"
     inkscape:pageshadow="2"
     inkscape:window-width="1920"
     inkscape:window-height="1056"
     id="namedview4087"
     showgrid="false"
     inkscape:zoom="2.36"
     inkscape:cx="-0.42372881"
     inkscape:cy="50"
     inkscape:window-x="0"
     inkscape:window-y="24"
     inkscape:window-maximized="1"
     inkscape:current-layer="svg4073" /><g
     id="Captions"
     style="fill:#333333"
     transform="matrix(0.90347839,0,0,0.90347839,0.34663737,9.6521608)" /><g
     id="Your_Icon"
     style="fill:#333333"
     transform="matrix(0.90347839,0,0,0.90347839,4.8263059,4.6521609)"><circle
       cx="63.460999"
       cy="51.923"
       r="5.6259999"
       id="circle4077"
       style="fill:#333333"
       sodipodi:cx="63.460999"
       sodipodi:cy="51.923"
       sodipodi:rx="5.6259999"
       sodipodi:ry="5.6259999"
       d="m 69.086998,51.923 c 0,3.107154 -2.518846,5.626 -5.625999,5.626 -3.107154,0 -5.626,-2.518846 -5.626,-5.626 0,-3.107154 2.518846,-5.626 5.626,-5.626 3.107153,0 5.625999,2.518846 5.625999,5.626 z" /><circle
       cx="36.539001"
       cy="51.923"
       r="5.6259999"
       id="circle4079"
       style="fill:#333333"
       sodipodi:cx="36.539001"
       sodipodi:cy="51.923"
       sodipodi:rx="5.6259999"
       sodipodi:ry="5.6259999"
       d="m 42.165001,51.923 c 0,3.107154 -2.518846,5.626 -5.626,5.626 -3.107153,0 -5.625999,-2.518846 -5.625999,-5.626 0,-3.107154 2.518846,-5.626 5.625999,-5.626 3.107154,0 5.626,2.518846 5.626,5.626 z" /><path
       d="m 53.719,42.285 c 0,0 11.14,-5.979 14.851,-15.467 0.624,1.029 0.188,12.793 -4.95,14.641 -5.154,1.859 -9.488,0.62 -9.901,0.826 z"
       id="path4081"
       style="fill:#333333"
       inkscape:connector-curvature="0" /><path
       d="m 46.281,42.285 c 0,0 -11.14,-5.979 -14.851,-15.467 -0.624,1.029 -0.188,12.793 4.95,14.641 5.154,1.859 9.488,0.62 9.901,0.826 z"
       id="path4083"
       style="fill:#333333"
       inkscape:connector-curvature="0" /><path
       d="M 89.104,50.323 C 79.387,39.46 90.013,32.437 78.846,16.406 72.284,6.986 62.213,3.438 59.026,2.514 55.957,1.142 52.873,0.385 50,0.385 47.004,0.385 43.796,1.178 40.619,2.62 37.093,3.692 27.488,7.313 21.154,16.407 9.987,32.437 20.613,39.46 10.896,50.323 -1.03,63.649 3.365,84.615 11.857,87.342 c 8.409,2.695 16.612,-0.053 21.87,-2.519 3.261,2.604 6.756,4.448 9.844,5.586 C 46.079,94.771 50,100 50,100 c 0,0 3.912,-5.218 6.421,-9.576 3.113,-1.154 6.587,-3.029 9.816,-5.616 5.257,2.47 13.478,5.235 21.905,2.534 8.493,-2.727 12.887,-23.693 0.962,-37.019 z M 66.098,16.304 c 3.72,4.192 9.726,13.176 8.159,26.245 -0.118,0.983 0.19,1.969 0.848,2.709 0.018,0.02 0.039,0.033 0.057,0.052 -0.325,4.55 -1.112,10.354 -1.996,15.142 -1.312,0.427 -2.293,1.605 -2.389,3.052 -0.314,4.771 -2.11,8.687 -4.63,11.809 C 64.911,70.845 62,65.781 54,65.411 v 5.473 c 0,0 7.3,0.703 10.948,5.813 -3.068,3.273 -6.833,5.521 -9.896,6.82 -2.771,-2.121 -5.033,-6.595 -5.033,-6.595 0,0 -2.239,4.449 -5,6.578 C 41.974,82.188 38.181,79.921 35.112,76.622 38.779,71.582 46,70.884 46,70.884 v -5.473 c -8,0.367 -10.859,5.352 -12.115,9.793 -2.494,-3.117 -4.328,-7.019 -4.703,-11.761 -0.088,-1.109 -0.675,-2.06 -1.549,-2.628 -0.933,-5.178 -1.679,-11.537 -2.17,-16.503 0.237,-0.557 0.351,-1.166 0.273,-1.78 -1.637,-13.1 4.258,-22.007 7.915,-26.15 5.534,-6.269 12.198,-9.075 16.348,-9.075 4.854,10e-4 11.324,3.616 16.099,8.997 z"
       id="path4085"
       style="fill:#333333"
       inkscape:connector-curvature="0" /></g></svg>