<?xml version="1.0" encoding="UTF-8" standalone="no"?>
<svg
   xmlns:dc="http://purl.org/dc/elements/1.1/"
   xmlns:cc="http://creativecommons.org/ns#"
   xmlns:rdf="http://www.w3.org/1999/02/22-rdf-syntax-ns#"
   xmlns:svg="http://www.w3.org/2000/svg"
   xmlns="http://www.w3.org/2000/svg"
   xmlns:sodipodi="http://sodipodi.sourceforge.net/DTD/sodipodi-0.dtd"
   xmlns:inkscape="http://www.inkscape.org/namespaces/inkscape"
   version="1.0"
   id="Layer_1"
   x="0px"
   y="0px"
   width="100px"
   height="100px"
   viewBox="0 0 100 100"
   enable-background="new 0 0 100 100"
   xml:space="preserve"
   inkscape:version="0.48.4 r9939"
   sodipodi:docname="icon_2343.svg"><metadata
     id="metadata3121"><rdf:RDF><cc:Work
         rdf:about=""><dc:format>image/svg+xml</dc:format><dc:type
           rdf:resource="http://purl.org/dc/dcmitype/StillImage" /></cc:Work></rdf:RDF></metadata><defs
     id="defs3119" /><sodipodi:namedview
     pagecolor="#ffffff"
     bordercolor="#666666"
     borderopacity="1"
     objecttolerance="10"
     gridtolerance="10"
     guidetolerance="10"
     inkscape:pageopacity="0"
     inkscape:pageshadow="2"
     inkscape:window-width="1920"
     inkscape:window-height="1056"
     id="namedview3117"
     showgrid="false"
     inkscape:zoom="2.36"
     inkscape:cx="-0.42372881"
     inkscape:cy="50"
     inkscape:window-x="0"
     inkscape:window-y="24"
     inkscape:window-maximized="1"
     inkscape:current-layer="Layer_1" /><g
     id="g3113"
     style="fill:#333333"
     transform="matrix(0.89977506,0,0,0.89977506,5.3437139,5.0224942)"><path
       d="m 1.682,42.914 c 0,-23.715 21.467,-42.939 47.948,-42.939 26.483,0 47.949,19.224 47.949,42.939 0,17.298 -11.422,32.207 -27.884,39.009 C 67.764,88.198 57.017,97.055 53.149,100 h -3.282 -3.33 c 0,0 -4.169,-3.177 -8.147,-6.974 C 35.006,89.792 31.216,85.65 30.051,82.12 13.331,75.413 1.682,60.383 1.682,42.914 l 0,0 z m 37.423,15.662 c -0.806,-1.001 -1.677,-1.584 -2.535,-1.893 -1.848,0.418 -3.616,0.675 -5.274,0.778 -0.887,0.056 -1.724,0.065 -2.526,0.035 0.117,2.655 0.251,5.658 0.354,7.867 -0.985,-4.213 -2.96,-7.375 -4.46,-7.104 -1.528,0.276 -1.984,4.014 -1.019,8.347 0.965,4.331 2.986,7.618 4.515,7.344 0.75,-0.135 1.242,-1.104 1.434,-2.567 0.316,2.474 0.791,5.646 1.196,9.188 0.762,6.67 16.107,18.356 16.107,18.356 h 2.969 2.921 c 0,0 15.345,-11.687 16.107,-18.356 0.404,-3.542 0.88,-6.715 1.196,-9.188 0.19,1.463 0.684,2.433 1.434,2.567 1.527,0.274 3.549,-3.013 4.515,-7.344 0.966,-4.333 0.51,-8.07 -1.019,-8.347 -1.5,-0.271 -3.476,2.892 -4.46,7.104 -0.337,-4.454 -0.215,-7.691 0.061,-9.994 l -0.208,-0.07 C 65.469,53.6 61.083,49.553 58.341,44.694 54.156,49.045 47.949,53.027 41.02,55.41 c -0.84,0.289 -1.669,0.546 -2.486,0.774 10.073,5.512 8.142,11.788 0.571,2.392 l 0,0 z m 22.249,7.238 c 0,-0.402 -0.325,-0.725 -0.725,-0.725 -0.4,0 -0.726,0.322 -0.726,0.725 0,0.397 0.326,0.723 0.726,0.723 0.4,0 0.725,-0.325 0.725,-0.723 l 0,0 z m 0.958,2.992 c 1.571,-1.025 2.243,-2.945 2.83,-4.22 -1.644,-0.148 -2.719,-0.276 -4.03,-0.141 0.606,0.426 1.002,1.128 1.002,1.924 0,1.296 -1.05,2.345 -2.344,2.345 -1.296,0 -2.346,-1.049 -2.346,-2.345 0,-0.354 0.079,-0.69 0.218,-0.99 -1.39,0.704 -2.775,1.847 -3.372,2.921 0.95,-2.604 1.729,-4.165 4.979,-5.306 3.736,-1.313 5.218,0.195 8.597,-1.471 10e-4,0 -1.828,5.937 -5.534,7.283 l 0,0 z M 39.828,65.814 c 0,0.397 0.324,0.723 0.724,0.723 0.4,0 0.724,-0.325 0.724,-0.723 0,-0.402 -0.324,-0.725 -0.724,-0.725 -0.4,0.001 -0.724,0.323 -0.724,0.725 l 0,0 z m -2.855,2.992 c -3.705,-1.346 -5.534,-7.282 -5.534,-7.282 3.377,1.666 4.859,0.157 8.597,1.471 3.248,1.141 4.028,2.701 4.978,5.306 -0.596,-1.074 -1.982,-2.217 -3.372,-2.921 0.14,0.3 0.218,0.637 0.218,0.99 0,1.296 -1.05,2.345 -2.345,2.345 -1.295,0 -2.345,-1.049 -2.345,-2.345 0,-0.796 0.396,-1.498 1.003,-1.924 -1.311,-0.136 -2.387,-0.008 -4.031,0.141 0.587,1.273 1.259,3.193 2.831,4.219 l 0,0 z M 60.18,58.576 c -7.643,9.483 -9.536,3.001 0.857,-2.546 4.433,-2.364 6.986,1.455 6.986,1.455 0,0 -4.482,-3.083 -7.843,1.091 l 0,0 z M 52.104,90.21 c 0.066,0.174 0.268,0.259 0.447,0.191 l 0.237,-0.092 c 0.18,-0.067 0.271,-0.265 0.202,-0.439 -0.069,-0.174 -0.27,-0.259 -0.449,-0.191 l -0.238,0.092 c -0.179,0.067 -0.27,0.264 -0.199,0.439 l 0,0 z m 1.017,-0.43 c 0.049,0.161 0.221,0.251 0.382,0.201 0.162,-0.048 0.252,-0.217 0.202,-0.378 -0.05,-0.159 -0.222,-0.251 -0.383,-0.201 -0.161,0.05 -0.252,0.219 -0.201,0.378 l 0,0 z m -3.647,-1.841 h 0.238 c 1.789,0 3.479,-1.039 2.095,-1.039 h -2.213 -2.211 c -1.387,0 0.304,1.039 2.091,1.039 l 0,0 z m 0.207,-2.778 c 0.55,-0.894 2.243,-1.652 5.95,-0.51 1.667,0.512 2.857,-0.123 2.822,-0.085 -0.421,0.364 -2.39,1.839 -2.39,1.839 l -0.013,0.501 c 0,2.42 -2.827,4.381 -6.37,4.395 -3.543,-0.014 -6.408,-1.975 -6.408,-4.395 l -0.013,-0.501 c 0,0 -1.967,-1.475 -2.39,-1.839 -0.035,-0.038 1.156,0.597 2.823,0.085 3.708,-1.142 5.439,-0.383 5.989,0.51 l 0,0 z"
       id="path3115"
       style="fill:#333333"
       inkscape:connector-curvature="0" /></g></svg>