<?xml version="1.0" encoding="UTF-8" standalone="no"?>
<svg
   xmlns:dc="http://purl.org/dc/elements/1.1/"
   xmlns:cc="http://creativecommons.org/ns#"
   xmlns:rdf="http://www.w3.org/1999/02/22-rdf-syntax-ns#"
   xmlns:svg="http://www.w3.org/2000/svg"
   xmlns="http://www.w3.org/2000/svg"
   xmlns:sodipodi="http://sodipodi.sourceforge.net/DTD/sodipodi-0.dtd"
   xmlns:inkscape="http://www.inkscape.org/namespaces/inkscape"
   version="1.1"
   id="Your_Icon"
   x="0px"
   y="0px"
   width="100px"
   height="100px"
   viewBox="0 0 100 100"
   enable-background="new 0 0 100 100"
   xml:space="preserve"
   inkscape:version="0.48.4 r9939"
   sodipodi:docname="icon_21661.svg"><metadata
     id="metadata6426"><rdf:RDF><cc:Work
         rdf:about=""><dc:format>image/svg+xml</dc:format><dc:type
           rdf:resource="http://purl.org/dc/dcmitype/StillImage" /></cc:Work></rdf:RDF></metadata><defs
     id="defs6424" /><sodipodi:namedview
     pagecolor="#ffffff"
     bordercolor="#666666"
     borderopacity="1"
     objecttolerance="10"
     gridtolerance="10"
     guidetolerance="10"
     inkscape:pageopacity="0"
     inkscape:pageshadow="2"
     inkscape:window-width="1920"
     inkscape:window-height="1056"
     id="namedview6422"
     showgrid="false"
     inkscape:zoom="2.36"
     inkscape:cx="-0.42372881"
     inkscape:cy="50"
     inkscape:window-x="0"
     inkscape:window-y="24"
     inkscape:window-maximized="1"
     inkscape:current-layer="Your_Icon" /><path
     d="m 79.752937,76.477718 c -0.04848,-0.01119 -4.961776,-1.120642 -10.080179,-3.358195 -4.15812,-1.816148 -9.213127,-4.722171 -10.887563,-8.592206 0.724407,-0.52769 1.41059,-1.129965 2.053888,-1.801231 0.05221,-0.05407 0.102555,-0.110013 0.153832,-0.166884 C 72.016595,58.179191 79.81074,47.415626 79.81074,34.832183 79.81074,18.35633 66.456274,5 49.981353,5 33.505501,5 20.150103,18.355398 20.150103,34.832183 c 0,12.583443 7.793212,23.347008 18.817825,27.727019 0.05221,0.05687 0.103487,0.114675 0.15663,0.170613 0.692709,0.722544 1.434831,1.362111 2.219839,1.918703 -1.722916,3.801976 -6.702405,6.662315 -10.806451,8.457952 -5.117472,2.242215 -10.057804,3.36006 -10.107216,3.370315 L 20.3347,77.456647 V 95 h 29.758531 c 0,0 -1.048853,-0.604139 -2.653366,-1.726646 -4.316614,-3.018832 -12.65523,-9.787432 -15.419541,-18.61831 4.532911,-2.07067 9.144136,-5.026105 11.050718,-8.953944 2.088383,1.082417 4.419168,1.642737 6.910311,1.642737 2.562931,0 4.955249,-0.592951 7.089316,-1.735968 1.875816,3.973522 6.525266,6.959724 11.093604,9.047175 C 65.400895,83.485922 57.061346,90.254522 52.745664,93.273354 51.142084,94.395861 50.093232,95 50.093232,95 H 79.849897 V 77.45758 l -0.09696,-0.979862 z M 52.97781,38.989372 c -0.861458,-0.163155 -1.763938,-0.249861 -2.682267,-0.249861 -1.012493,0 -1.999814,0.10442 -2.938654,0.303003 -4.301697,-1.527131 -9.782771,-0.909939 -11.221331,0.206041 -0.291814,0.226552 -0.544471,0.460563 -0.761701,0.703897 1.162596,-8.987507 5.755175,-15.661011 14.607496,-15.661011 8.760955,0 13.350737,6.540183 14.571136,15.389708 C 64.398657,39.534775 64.232706,39.389334 64.050905,39.248555 62.629125,38.145627 57.256199,37.5303 52.97781,38.989372 z m -8.513891,25.162222 c 9.32e-4,0 0.0037,0 0.0047,0.0019 -0.242401,-0.114675 -0.480141,-0.236808 -0.715084,-0.364535 0.0047,-0.02051 0.01119,-0.04102 0.01585,-0.06153 l -0.2135,-0.04848 c -1.059109,-0.604139 -2.025918,-1.362111 -2.895767,-2.253403 -0.0019,-0.0028 -0.0037,-0.0056 -0.0056,-0.0084 -0.218162,-0.22189 -0.428865,-0.452172 -0.634906,-0.691777 -0.0084,-0.01026 -0.01585,-0.01958 -0.02331,-0.02797 -0.199515,-0.234011 -0.392504,-0.47548 -0.580831,-0.723476 -0.01305,-0.01678 -0.02424,-0.03356 -0.03822,-0.05128 -0.181802,-0.243334 -0.358941,-0.492262 -0.529555,-0.749581 -0.01678,-0.02424 -0.03356,-0.05034 -0.04941,-0.07552 -0.08111,-0.121201 -0.160358,-0.245199 -0.239605,-0.369196 -0.0019,-0.0047 -0.0056,-0.01026 -0.0093,-0.01585 -0.07925,-0.127727 -0.157561,-0.256386 -0.234011,-0.387842 -0.01958,-0.03263 -0.03916,-0.0662 -0.0578,-0.09883 -0.0634,-0.110013 -0.127727,-0.220958 -0.188328,-0.332836 -0.01399,-0.02424 -0.02704,-0.04848 -0.04009,-0.07179 -0.07086,-0.128659 -0.137983,-0.257318 -0.206974,-0.388775 -0.02144,-0.04102 -0.04382,-0.08298 -0.0634,-0.125862 -0.05221,-0.10069 -0.101623,-0.202312 -0.151968,-0.304867 -0.01958,-0.03916 -0.03916,-0.07831 -0.0578,-0.118404 -0.0606,-0.127727 -0.122133,-0.257318 -0.180869,-0.387842 -0.02238,-0.05035 -0.04475,-0.10069 -0.06806,-0.1529 -0.04102,-0.09137 -0.08204,-0.184598 -0.122133,-0.279694 -0.02144,-0.05314 -0.04475,-0.104419 -0.06806,-0.158493 -0.05314,-0.12866 -0.104419,-0.256387 -0.156629,-0.386911 -0.02331,-0.05967 -0.04662,-0.120268 -0.06899,-0.179004 -0.0345,-0.08577 -0.06713,-0.172478 -0.09789,-0.257319 -0.02424,-0.06526 -0.04941,-0.131456 -0.07272,-0.194853 -0.04568,-0.127727 -0.09137,-0.256387 -0.136118,-0.385978 -0.02238,-0.06899 -0.04662,-0.13705 -0.06899,-0.207906 -0.02611,-0.07925 -0.05221,-0.157561 -0.07738,-0.236808 -0.02424,-0.07458 -0.04848,-0.151967 -0.07272,-0.226552 -0.0289,-0.09323 -0.0578,-0.188328 -0.08484,-0.282492 -0.03356,-0.110945 -0.06619,-0.223755 -0.09789,-0.336565 -0.02051,-0.07272 -0.04102,-0.144509 -0.06153,-0.219094 -0.02238,-0.08298 -0.04475,-0.167816 -0.06806,-0.252657 -0.01958,-0.07365 -0.03636,-0.147305 -0.05687,-0.220958 -0.0345,-0.14078 -0.06992,-0.283424 -0.102555,-0.424203 -0.01585,-0.06806 -0.03263,-0.135186 -0.04755,-0.202312 -0.02144,-0.09323 -0.04102,-0.183666 -0.06153,-0.275033 -0.01492,-0.06433 -0.02797,-0.130524 -0.04102,-0.195786 -0.01771,-0.07738 -0.03263,-0.154764 -0.04848,-0.234011 l -1.790043,0.17714 c -0.04382,0.0047 -0.08764,0.0047 -0.131456,0.0037 -0.02331,-0.0019 -0.04941,-0.0028 -0.07365,-0.0056 -0.02611,-0.0019 -0.05221,-0.0065 -0.07738,-0.0093 -0.02517,-0.0047 -0.05035,-0.01119 -0.07365,-0.01771 -0.02517,-0.0056 -0.05128,-0.01212 -0.07645,-0.02051 -0.02424,-0.0065 -0.04848,-0.01585 -0.07272,-0.02517 -0.02424,-0.0093 -0.04848,-0.01958 -0.07272,-0.03077 -0.02331,-0.01119 -0.04755,-0.02238 -0.06992,-0.03636 -0.02424,-0.01212 -0.04848,-0.0261 -0.07179,-0.04195 -0.02238,-0.01305 -0.04568,-0.02797 -0.06713,-0.04475 -0.02238,-0.01585 -0.04661,-0.03263 -0.06899,-0.05035 -0.02144,-0.01771 -0.04195,-0.03449 -0.0634,-0.05407 -0.02144,-0.01865 -0.04382,-0.03916 -0.06526,-0.05874 -0.02051,-0.02051 -0.04195,-0.04009 -0.06153,-0.06153 -0.02051,-0.02144 -0.04102,-0.04475 -0.06153,-0.06806 -0.01958,-0.02238 -0.03916,-0.04475 -0.0578,-0.06899 -0.01958,-0.02331 -0.03823,-0.05035 -0.0578,-0.07738 -0.01865,-0.02331 -0.03543,-0.04848 -0.05314,-0.07365 -0.01865,-0.02704 -0.03636,-0.05687 -0.05407,-0.08577 -0.01678,-0.02704 -0.03263,-0.05408 -0.04848,-0.08018 -0.01771,-0.0317 -0.03356,-0.06247 -0.04941,-0.0951 -0.01585,-0.0289 -0.0289,-0.05687 -0.04289,-0.08484 -0.01678,-0.03356 -0.02983,-0.06899 -0.04475,-0.104419 -0.01305,-0.02797 -0.02517,-0.05687 -0.03823,-0.08671 -0.01305,-0.03822 -0.02611,-0.07645 -0.03916,-0.114675 -0.01026,-0.02797 -0.02051,-0.0578 -0.0289,-0.08857 -0.01398,-0.04102 -0.02424,-0.08484 -0.03543,-0.126795 -0.0075,-0.02797 -0.01771,-0.05687 -0.02238,-0.08484 -0.01305,-0.04941 -0.02051,-0.09789 -0.02983,-0.148238 -0.0056,-0.02424 -0.01119,-0.04848 -0.01585,-0.07365 -0.01212,-0.07458 -0.02238,-0.151967 -0.02983,-0.229349 l -0.438188,-4.402387 c -0.126794,-1.268879 0.45497,-2.364348 1.299646,-2.449189 l 1.30524,-0.129591 c -0.09416,0.522095 -0.135186,1.103859 -0.135186,1.767667 0,2.275778 0.982659,7.214246 5.792467,7.214246 4.808876,0 8.404811,-6.453478 8.687302,-6.89353 0.197651,-0.303934 0.875443,-2.086519 0.505314,-3.523215 0.372926,-0.03543 0.754242,-0.05314 1.141153,-0.05314 0.250792,0 0.497855,0.0084 0.743986,0.02238 -0.388775,1.443222 0.297408,3.24725 0.495059,3.553981 0.285288,0.440052 3.878426,6.89353 8.687302,6.89353 4.809808,0 5.793399,-4.938468 5.793399,-7.214246 0,-0.658214 -0.04102,-1.235316 -0.133321,-1.751818 l 1.149543,0.113742 c 0.846541,0.08484 1.426441,1.18031 1.301511,2.449189 l -0.43912,4.402387 c -0.0075,0.07738 -0.01585,0.154764 -0.02983,0.229349 -0.0047,0.02611 -0.01026,0.05128 -0.01585,0.07738 -0.0093,0.04848 -0.01771,0.09696 -0.02983,0.144509 -0.0065,0.02797 -0.01585,0.0578 -0.02238,0.08857 -0.01026,0.04102 -0.02051,0.08298 -0.0345,0.123065 -0.0093,0.03077 -0.01958,0.05967 -0.02983,0.09043 -0.01212,0.03729 -0.02517,0.07645 -0.04009,0.11281 -0.01026,0.02983 -0.02238,0.0578 -0.03636,0.08671 -0.01398,0.03543 -0.02983,0.07086 -0.04568,0.104419 -0.01212,0.02797 -0.02797,0.05594 -0.04195,0.08391 -0.01585,0.03263 -0.03356,0.0634 -0.04941,0.09603 -0.01585,0.0261 -0.03077,0.05314 -0.04755,0.07831 -0.01958,0.0289 -0.03636,0.05967 -0.05594,0.08764 -0.01585,0.02517 -0.03543,0.05035 -0.05128,0.07365 -0.01958,0.02704 -0.03822,0.05407 -0.05874,0.07925 -0.01958,0.02238 -0.03822,0.04475 -0.0578,0.06619 -0.02051,0.02424 -0.04009,0.04755 -0.0606,0.06992 -0.02051,0.02051 -0.04009,0.04009 -0.0606,0.05874 -0.02051,0.02144 -0.04382,0.04289 -0.06619,0.06246 -0.02051,0.01771 -0.04195,0.03449 -0.06433,0.05221 -0.02238,0.01771 -0.04568,0.0345 -0.06806,0.05221 -0.02237,0.01492 -0.04568,0.0289 -0.06619,0.04289 -0.02424,0.01585 -0.04941,0.02983 -0.07365,0.04289 -0.02144,0.01305 -0.04475,0.02424 -0.06713,0.03543 -0.02424,0.01119 -0.05128,0.02144 -0.07552,0.03077 -0.02424,0.01026 -0.04755,0.01958 -0.07179,0.02517 -0.02424,0.0093 -0.05035,0.01585 -0.07645,0.02051 -0.02424,0.0065 -0.04941,0.01305 -0.07179,0.01678 -0.02797,0.0037 -0.05314,0.0084 -0.07832,0.01026 -0.02424,0.0028 -0.04941,0.0037 -0.07552,0.0056 -0.04382,9.33e-4 -0.08764,9.33e-4 -0.131456,-0.0037 l -1.8292,-0.181801 c -0.01212,-9.32e-4 -0.02238,-0.0047 -0.03263,-0.0056 l 0,0 h -0.0019 c -0.01305,0.06526 -0.02797,0.132389 -0.04102,0.197651 -0.01771,0.08111 -0.03449,0.162222 -0.05221,0.243333 -0.01865,0.08391 -0.03729,0.168749 -0.05687,0.252658 -0.01865,0.08018 -0.03729,0.16129 -0.05594,0.241469 -0.0289,0.120268 -0.0578,0.238672 -0.08764,0.358008 -0.02237,0.0895 -0.04568,0.179937 -0.06992,0.268507 -0.02051,0.07925 -0.04102,0.157561 -0.06247,0.234943 -0.02144,0.08391 -0.04568,0.16502 -0.06806,0.247996 -0.02611,0.09043 -0.05221,0.180868 -0.07832,0.271303 -0.03263,0.111878 -0.06619,0.224688 -0.101622,0.336565 -0.02144,0.06992 -0.04568,0.139847 -0.06619,0.210703 -0.02704,0.08764 -0.0578,0.173411 -0.08577,0.259184 -0.02051,0.0634 -0.04195,0.127727 -0.0634,0.190192 -0.04475,0.134253 -0.0923,0.263844 -0.138914,0.395301 -0.02144,0.05967 -0.04568,0.121201 -0.06806,0.182733 -0.03263,0.0923 -0.06806,0.182734 -0.102555,0.274101 -0.02051,0.05594 -0.04382,0.110945 -0.06433,0.166884 -0.05221,0.132388 -0.105352,0.263845 -0.161291,0.394369 -0.02051,0.05128 -0.04382,0.09976 -0.06433,0.151967 -0.04196,0.09696 -0.08391,0.192989 -0.125863,0.289949 -0.02237,0.04755 -0.04289,0.09696 -0.06433,0.144509 -0.05967,0.132389 -0.120269,0.262913 -0.183666,0.392504 -0.01771,0.03729 -0.03636,0.07552 -0.05501,0.111878 -0.05128,0.104419 -0.102554,0.210703 -0.154764,0.31419 -0.02051,0.04009 -0.04195,0.07925 -0.06153,0.119336 -0.06713,0.132389 -0.137982,0.262913 -0.20977,0.392504 -0.01212,0.02144 -0.02424,0.04475 -0.03636,0.0662 -0.06247,0.114674 -0.127727,0.228416 -0.192056,0.339362 -0.01958,0.03263 -0.03729,0.06433 -0.05687,0.09603 -0.07645,0.132389 -0.155697,0.26198 -0.235876,0.39064 -0.0019,0.0047 -0.0056,0.0093 -0.0084,0.01492 -0.07925,0.12493 -0.157561,0.24986 -0.240537,0.371061 -0.01585,0.02424 -0.03077,0.04941 -0.04755,0.07365 -0.171546,0.255454 -0.348685,0.507178 -0.530486,0.752377 -0.01305,0.01771 -0.02517,0.03356 -0.03823,0.04941 -0.187395,0.248927 -0.381317,0.490397 -0.5799,0.724408 -0.0084,0.01026 -0.01678,0.01865 -0.02517,0.0289 -0.205109,0.23774 -0.415812,0.469887 -0.633041,0.691777 -0.0019,0.0037 -0.0056,0.0065 -0.0093,0.01026 -1.113183,1.141152 -2.38486,2.065075 -3.809435,2.727951 9.32e-4,0 0.0037,-0.0019 0.0047,-0.0019 -1.641805,0.764497 -3.482193,1.182174 -5.51557,1.182174 -2.033376,-0.0019 -3.877493,-0.419541 -5.518366,-1.184039 z"
     id="path6420"
     style="fill:#333333"
     inkscape:connector-curvature="0" /></svg>