<?xml version="1.0" encoding="UTF-8" standalone="no"?>
<svg
   xmlns:dc="http://purl.org/dc/elements/1.1/"
   xmlns:cc="http://creativecommons.org/ns#"
   xmlns:rdf="http://www.w3.org/1999/02/22-rdf-syntax-ns#"
   xmlns:svg="http://www.w3.org/2000/svg"
   xmlns="http://www.w3.org/2000/svg"
   xmlns:sodipodi="http://sodipodi.sourceforge.net/DTD/sodipodi-0.dtd"
   xmlns:inkscape="http://www.inkscape.org/namespaces/inkscape"
   version="1.1"
   id="Layer_1"
   x="0px"
   y="0px"
   width="100px"
   height="100px"
   viewBox="0 0 100 100"
   enable-background="new 0 0 100 100"
   xml:space="preserve"
   inkscape:version="0.48.4 r9939"
   sodipodi:docname="icon_30946.svg"><metadata
     id="metadata6847"><rdf:RDF><cc:Work
         rdf:about=""><dc:format>image/svg+xml</dc:format><dc:type
           rdf:resource="http://purl.org/dc/dcmitype/StillImage" /></cc:Work></rdf:RDF></metadata><defs
     id="defs6845" /><sodipodi:namedview
     pagecolor="#ffffff"
     bordercolor="#666666"
     borderopacity="1"
     objecttolerance="10"
     gridtolerance="10"
     guidetolerance="10"
     inkscape:pageopacity="0"
     inkscape:pageshadow="2"
     inkscape:window-width="1920"
     inkscape:window-height="1056"
     id="namedview6843"
     showgrid="false"
     inkscape:zoom="2.36"
     inkscape:cx="-0.42372881"
     inkscape:cy="50"
     inkscape:window-x="0"
     inkscape:window-y="24"
     inkscape:window-maximized="1"
     inkscape:current-layer="Layer_1" /><g
     id="g6849"
     transform="matrix(0.93291737,0,0,0.93291737,4.6889062,3.7280293)"><path
       style="fill:#333333"
       id="path6825"
       d="m 89.163,17.164 c -0.336,-0.21 -0.679,-0.374 -1.014,-0.524 1.007,-0.841 1.938,-1.808 1.637,-3.09 -0.103,-0.438 -0.407,-0.801 -0.821,-0.977 -0.413,-0.176 -0.887,-0.144 -1.273,0.086 l -0.415,0.25 c -0.545,0.33 -1.052,0.636 -1.59,0.878 -0.093,-0.565 -0.279,-1.118 -0.577,-1.58 -0.288,-0.445 -0.801,-0.691 -1.328,-0.637 -0.242,0.025 -0.47,0.111 -0.663,0.246 -0.023,0 -0.047,0 -0.067,-0.001 -0.065,0 -0.134,-10e-4 -0.206,-10e-4 C 77.656,7.247 70.891,5.242 63.742,3.124 62.263,2.686 60.734,2.233 59.22,1.756 58.769,1.613 58.276,1.707 57.908,2.006 57.547,2.298 57.353,2.75 57.389,3.213 51.559,1.892 44.926,1.209 39.303,1.393 38.652,1.414 38.097,1.877 37.965,2.515 37.896,2.85 37.95,3.187 38.104,3.472 36.973,3.595 35.781,3.708 34.548,3.826 28.58,4.393 21.815,5.038 17.208,7.21 c -0.583,0.275 -0.906,0.911 -0.783,1.545 0.063,0.328 0.238,0.611 0.481,0.814 -1.65,0.521 -3.261,1.243 -4.887,2.183 -0.529,0.305 -0.801,0.916 -0.675,1.513 0.053,0.248 0.171,0.468 0.333,0.648 -3.09,0.937 -4.059,1.887 -4.32,2.943 -0.145,0.587 -0.158,1.722 1.38,2.725 1.841,1.201 3.11,5.576 3.91,10.618 v 31.537 c 0,0.174 0.019,0.343 0.055,0.506 0.271,19.673 16.359,35.593 36.096,35.593 19.905,0 36.099,-16.193 36.099,-36.099 0,-0.169 -0.018,-0.333 -0.052,-0.492 V 32.46 c 1.02,-4.674 2.294,-10.394 4.648,-13.194 0.263,-0.312 0.377,-0.723 0.313,-1.126 -0.064,-0.403 -0.298,-0.76 -0.643,-0.976 z M 48.798,93.146 c -17.32,0 -31.411,-14.09 -31.411,-31.41 0,-0.168 -0.018,-0.332 -0.051,-0.49 V 40.998 L 20.27,30.98 c 0.004,0.006 0.009,0.013 0.014,0.019 0.497,0.652 1.01,1.327 1.712,1.908 0.547,0.453 1.347,0.428 1.865,-0.058 1.33,-1.248 2.859,-2.63 4.633,-3.776 0.374,0.785 0.789,1.509 1.196,2.218 0.682,1.188 1.325,2.311 1.729,3.634 0.12,0.392 0.403,0.711 0.777,0.877 0.374,0.166 0.802,0.161 1.171,-0.013 2.518,-1.183 4.692,-2.695 6.795,-4.157 1.683,-1.17 3.284,-2.283 5.042,-3.239 0.224,0.198 0.374,0.375 0.544,0.577 0.36,0.426 0.809,0.957 1.857,1.621 0.391,0.248 0.879,0.287 1.305,0.107 0.427,-0.181 0.737,-0.56 0.831,-1.013 0.047,-0.229 0.117,-0.466 0.2,-0.701 0.367,0.696 0.757,1.354 1.141,2.003 0.727,1.225 1.412,2.382 1.9,3.713 0.137,0.374 0.425,0.672 0.794,0.822 0.37,0.149 0.785,0.136 1.144,-0.037 2.136,-1.032 4.019,-2.303 5.84,-3.532 1.586,-1.07 3.097,-2.089 4.752,-2.958 0.541,0.471 1.042,1.019 1.563,1.591 1.026,1.124 2.088,2.286 3.636,3.087 0.589,0.304 1.312,0.158 1.735,-0.355 1.343,-1.626 2.924,-2.999 4.432,-4.168 l 3.277,6.089 v 26.497 c 0,0.163 0.017,0.322 0.049,0.476 -0.254,17.1 -14.245,30.934 -31.406,30.934 z"
       inkscape:connector-curvature="0" /><path
       style="fill:#333333"
       id="path6827"
       d="m 54.411,53.042 c -0.264,0 -0.531,-0.074 -0.769,-0.229 -0.652,-0.425 -0.837,-1.299 -0.412,-1.952 0.223,-0.343 5.598,-8.41 16.531,-8.986 0.76,-0.031 1.441,0.556 1.482,1.334 0.041,0.778 -0.557,1.442 -1.335,1.483 -9.516,0.5 -14.268,7.635 -14.314,7.708 -0.27,0.416 -0.722,0.642 -1.183,0.642 l 0,0 z"
       inkscape:connector-curvature="0" /><path
       style="fill:#333333"
       id="path6829"
       d="m 49.253,54.231 c -0.029,0 -0.057,0 -0.086,-0.001 -0.779,-0.032 -1.383,-0.689 -1.351,-1.468 0.029,-0.698 0.561,-1.257 1.231,-1.342 0.343,-0.261 0.976,-1.183 1.291,-1.641 0.257,-0.375 0.5,-0.729 0.729,-1.007 0.445,-0.542 1.223,-0.675 1.822,-0.311 0.557,0.338 0.936,0.76 1.27,1.133 0.329,0.367 0.546,0.598 0.825,0.722 0.713,0.315 1.034,1.148 0.719,1.861 -0.315,0.712 -1.146,1.034 -1.861,0.719 -0.653,-0.289 -1.111,-0.699 -1.478,-1.085 -0.848,1.213 -1.817,2.42 -3.111,2.42 l 0,0 z"
       inkscape:connector-curvature="0" /><path
       style="fill:#333333"
       id="path6831"
       d="m 44.039,53.042 c -0.46,0 -0.912,-0.225 -1.182,-0.639 -0.07,-0.105 -4.878,-7.213 -14.316,-7.709 -0.778,-0.042 -1.375,-0.705 -1.335,-1.483 0.041,-0.778 0.707,-1.365 1.483,-1.334 10.934,0.576 16.308,8.643 16.531,8.986 0.425,0.653 0.24,1.527 -0.413,1.952 -0.238,0.153 -0.505,0.227 -0.768,0.227 l 0,0 z"
       inkscape:connector-curvature="0" /><path
       style="fill:#333333"
       id="path6833"
       d="m 49.196,54.231 c -1.294,0 -2.262,-1.207 -3.11,-2.42 -0.367,0.386 -0.825,0.796 -1.478,1.085 -0.713,0.315 -1.546,-0.006 -1.861,-0.719 -0.315,-0.713 0.006,-1.545 0.719,-1.861 0.28,-0.124 0.496,-0.355 0.825,-0.722 0.334,-0.372 0.713,-0.794 1.27,-1.132 0.6,-0.363 1.377,-0.231 1.822,0.311 0.229,0.278 0.472,0.632 0.729,1.007 0.314,0.458 0.948,1.38 1.29,1.641 0.671,0.085 1.203,0.644 1.232,1.342 0.032,0.778 -0.573,1.436 -1.351,1.468 -0.029,0 -0.058,0 -0.087,0 l 0,0 z"
       inkscape:connector-curvature="0" /><path
       style="fill:#333333"
       id="path6835"
       d="m 60.827,51.656 c -1.58,0 -2.9,-1.277 -3.458,-2.464 -0.042,-0.088 -0.068,-0.184 -0.079,-0.28 -0.029,-0.265 0.059,-0.557 0.244,-0.747 0.115,-0.119 2.894,-2.917 7.991,-3.784 0.394,-0.065 0.783,0.136 0.954,0.499 l 0.613,1.304 c 0.347,0.738 0.386,1.566 0.109,2.334 -0.276,0.767 -0.835,1.38 -1.573,1.727 -0.035,0.017 -0.072,0.031 -0.109,0.043 l -4.088,1.298 c -0.039,0.013 -0.079,0.022 -0.119,0.029 -0.159,0.028 -0.323,0.041 -0.485,0.041 l 0,0 z"
       inkscape:connector-curvature="0" /><path
       style="fill:#333333"
       id="path6837"
       d="m 37.622,51.656 c -0.162,0 -0.326,-0.014 -0.485,-0.041 -0.041,-0.007 -0.081,-0.017 -0.12,-0.029 L 32.929,50.288 C 32.892,50.276 32.855,50.262 32.82,50.245 32.082,49.898 31.524,49.285 31.247,48.518 30.97,47.75 31.009,46.922 31.356,46.184 L 31.97,44.88 c 0.17,-0.362 0.561,-0.564 0.954,-0.499 5.097,0.867 7.875,3.665 7.991,3.784 0.186,0.19 0.273,0.482 0.244,0.747 -0.011,0.097 -0.038,0.192 -0.08,0.28 -0.557,1.187 -1.876,2.464 -3.457,2.464 l 0,0 z"
       inkscape:connector-curvature="0" /><path
       style="fill:#333333"
       id="path6839"
       d="m 70.156,70.435 c -6.258,-3.957 -13.493,-6.048 -20.925,-6.048 -7.435,0 -14.67,2.093 -20.927,6.049 -2.736,1.73 -3.554,5.362 -1.825,8.098 1.081,1.71 2.938,2.731 4.965,2.731 1.108,0 2.192,-0.312 3.132,-0.909 4.377,-2.768 9.446,-4.23 14.654,-4.23 5.208,0 10.275,1.462 14.65,4.229 0.941,0.594 2.024,0.91 3.133,0.91 l 0,0 c 2.027,0 3.883,-1.023 4.965,-2.733 1.731,-2.738 0.913,-6.37 -1.822,-8.097 z m -10.529,1.364 c 0,1.042 -0.183,2.066 -0.539,3.029 -1.791,-0.613 -3.64,-1.062 -5.523,-1.331 0.364,-1.042 0.554,-2.146 0.554,-3.268 0,-0.893 -0.12,-1.771 -0.353,-2.621 1.789,0.223 3.555,0.58 5.284,1.064 0.379,0.993 0.577,2.05 0.577,3.127 z m -26.121,1.99 c 0,-1.092 0.206,-2.162 0.593,-3.165 1.42,-0.651 2.879,-1.209 4.368,-1.671 -0.273,0.916 -0.416,1.874 -0.416,2.846 0,1.133 0.192,2.246 0.564,3.299 -1.525,0.567 -3.005,1.262 -4.428,2.072 -0.443,-1.066 -0.681,-2.21 -0.681,-3.381 z m 5.721,-1.99 c 0,-1.121 0.217,-2.219 0.628,-3.245 1.719,-0.46 3.472,-0.793 5.249,-0.995 -0.242,0.865 -0.366,1.762 -0.366,2.671 0,1.104 0.183,2.189 0.535,3.221 -1.889,0.245 -3.745,0.666 -5.546,1.257 -0.329,-0.929 -0.5,-1.911 -0.5,-2.909 z m -7.782,6.532 c -1.015,0 -1.944,-0.511 -2.486,-1.365 -0.865,-1.368 -0.455,-3.185 0.912,-4.048 0.901,-0.569 1.826,-1.093 2.768,-1.576 -0.203,0.794 -0.307,1.616 -0.307,2.449 0,1.383 0.289,2.739 0.836,3.989 -0.054,0.033 -0.107,0.063 -0.161,0.098 -0.469,0.295 -1.009,0.453 -1.562,0.453 z m 15.029,-5.013 c -0.369,-0.981 -0.563,-2.024 -0.563,-3.088 0,-0.957 0.16,-1.898 0.461,-2.793 0.948,-0.074 1.903,-0.117 2.86,-0.117 1.094,0 2.181,0.056 3.265,0.152 0.293,0.883 0.449,1.812 0.449,2.758 0,1.075 -0.199,2.132 -0.577,3.121 -1.036,-0.106 -2.083,-0.163 -3.137,-0.163 -0.925,10e-4 -1.845,0.047 -2.758,0.13 z m 13.716,1.913 c 0.403,-1.093 0.611,-2.252 0.611,-3.433 0,-0.925 -0.129,-1.836 -0.378,-2.713 1.506,0.488 2.981,1.078 4.414,1.765 0.334,0.937 0.509,1.929 0.509,2.938 0,1.237 -0.26,2.448 -0.755,3.562 -1.411,-0.827 -2.885,-1.533 -4.401,-2.119 z m 9.31,1.732 c -0.541,0.854 -1.47,1.366 -2.484,1.366 -0.494,0 -0.979,-0.128 -1.413,-0.367 0.603,-1.302 0.919,-2.722 0.919,-4.173 0,-0.753 -0.086,-1.497 -0.252,-2.221 0.787,0.419 1.561,0.866 2.318,1.346 1.368,0.865 1.776,2.681 0.912,4.049 z"
       inkscape:connector-curvature="0" /><path
       style="fill:#333333"
       id="path6841"
       d="m 47.14,88.584 c -0.779,0 -1.411,-0.632 -1.411,-1.411 0,-0.779 0.632,-1.41 1.411,-1.41 4.986,0 9.109,-0.605 9.15,-0.611 0.771,-0.115 1.488,0.416 1.603,1.187 0.115,0.771 -0.416,1.488 -1.187,1.604 -0.177,0.025 -4.373,0.641 -9.566,0.641 l 0,0 z"
       inkscape:connector-curvature="0" /></g></svg>