<?xml version="1.0" encoding="UTF-8" standalone="no"?>
<svg
   xmlns:dc="http://purl.org/dc/elements/1.1/"
   xmlns:cc="http://creativecommons.org/ns#"
   xmlns:rdf="http://www.w3.org/1999/02/22-rdf-syntax-ns#"
   xmlns:svg="http://www.w3.org/2000/svg"
   xmlns="http://www.w3.org/2000/svg"
   xmlns:sodipodi="http://sodipodi.sourceforge.net/DTD/sodipodi-0.dtd"
   xmlns:inkscape="http://www.inkscape.org/namespaces/inkscape"
   version="1.1"
   x="0px"
   y="0px"
   width="100px"
   height="100px"
   viewBox="0 0 100 100"
   enable-background="new 0 0 100 100"
   xml:space="preserve"
   id="svg5957"
   inkscape:version="0.48.4 r9939"
   sodipodi:docname="icon_15625.svg"><metadata
     id="metadata6085"><rdf:RDF><cc:Work
         rdf:about=""><dc:format>image/svg+xml</dc:format><dc:type
           rdf:resource="http://purl.org/dc/dcmitype/StillImage" /></cc:Work></rdf:RDF></metadata><defs
     id="defs6083" /><sodipodi:namedview
     pagecolor="#ffffff"
     bordercolor="#666666"
     borderopacity="1"
     objecttolerance="10"
     gridtolerance="10"
     guidetolerance="10"
     inkscape:pageopacity="0"
     inkscape:pageshadow="2"
     inkscape:window-width="1920"
     inkscape:window-height="1056"
     id="namedview6081"
     showgrid="false"
     inkscape:zoom="2.36"
     inkscape:cx="-0.42372881"
     inkscape:cy="50"
     inkscape:window-x="0"
     inkscape:window-y="24"
     inkscape:window-maximized="1"
     inkscape:current-layer="svg5957" /><g
     id="g6095"
     transform="matrix(0.97712293,0,0,0.97712293,1.7882295,2.8207167)"><path
       style="fill:#333333"
       d="m 29,38 c 0,0 -2,-14 18,-10 0,0 2,2 -2,3 0,0 -9,-3 -12,2 0,0 -1,6 -4,5 z"
       id="path6069"
       inkscape:connector-curvature="0" /><path
       style="fill:#333333"
       d="m 55,30 c 0,0 -5,-2 1,-5 0,0 10,-6 12,1 0,0 -3,-3 -13,4 z"
       id="path6071"
       inkscape:connector-curvature="0" /><path
       style="fill:#333333"
       d="m 87.945,77.268 c -0.116,-0.03 -0.229,-0.037 -0.343,-0.055 -0.028,-0.186 -0.14,-0.353 -0.345,-0.383 -0.023,-0.004 -0.045,-0.012 -0.067,-0.015 0.215,-0.29 0.092,-0.818 -0.378,-0.815 -2.798,0.016 -5.711,-0.971 -7.982,-2.598 0.022,-0.145 0.018,-0.302 -0.054,-0.48 -0.148,-0.297 -0.224,-0.614 -0.254,-0.944 0.099,-0.036 0.198,-0.068 0.294,-0.109 0.035,0.005 0.07,0.008 0.105,0.014 0.723,0.113 1.365,0.309 2.011,0.644 1.307,0.68 3.698,1.918 4.842,0.316 1.082,-1.514 -0.062,-3.833 -0.392,-5.441 -0.256,-1.245 -1.058,-2.02 -2.065,-2.442 0.674,-1.144 0.329,-3.05 -0.257,-4.286 0.158,-0.219 0.238,-0.498 0.153,-0.812 -0.22,-0.814 -0.67,-1.393 -1.25,-1.869 -0.281,-0.548 -0.518,-1.133 -0.753,-1.698 0.187,-0.019 0.368,-0.075 0.521,-0.167 1.274,0.117 2.547,0.27 3.83,0.25 0.466,-0.007 0.622,-0.526 0.354,-0.854 -0.72,-0.879 -1.703,-1.491 -2.432,-2.352 0.089,-0.011 0.177,-0.02 0.266,-0.03 1.182,-0.141 2.264,-0.618 3.438,-0.765 0.152,-0.02 0.267,-0.094 0.347,-0.192 0.605,-0.001 0.594,-0.956 -0.034,-0.995 -2.011,-0.125 -3.928,-1.03 -5.655,-2.054 0.146,-0.233 0.221,-0.499 0.222,-0.771 0.075,0.021 0.157,0.027 0.254,-0.006 0.222,-0.076 0.427,-0.184 0.63,-0.29 0.315,0.13 0.646,0.146 0.995,0.04 0.299,-0.091 0.388,-0.364 0.332,-0.602 0.103,0 0.201,0.001 0.285,-0.006 0.37,-0.029 0.521,-0.375 0.462,-0.653 0.12,-0.059 0.233,-0.129 0.358,-0.177 0.433,-0.167 0.411,-0.718 0.138,-0.921 0.007,-0.008 0.015,-0.013 0.021,-0.021 0.143,-0.173 0.144,-0.372 0.073,-0.537 0.05,-0.025 0.092,-0.062 0.144,-0.084 0.585,-0.247 0.328,-1.215 -0.266,-0.965 -0.652,0.275 -1.123,0.724 -1.648,1.187 -0.707,0.623 -1.746,0.829 -2.656,0.921 -0.258,0.025 -0.406,0.206 -0.456,0.406 -0.604,-0.383 -1.222,-0.765 -1.862,-1.068 0.185,-0.117 0.354,-0.284 0.488,-0.519 0.363,-0.63 0.691,-1.309 1.141,-1.884 0.386,-0.493 0.716,-0.913 0.905,-1.521 0.463,-1.492 -0.952,-2.641 -2.316,-2.577 0.012,-0.097 -0.003,-0.201 -0.062,-0.309 -0.212,-0.391 -0.469,-0.75 -0.728,-1.107 0.134,-0.145 0.2,-0.356 0.103,-0.58 -0.281,-0.642 -0.731,-1.195 -1.198,-1.713 -0.005,-0.096 -0.008,-0.191 -0.015,-0.285 -0.028,-0.365 -0.215,-0.619 -0.459,-0.775 0.153,-0.229 0.226,-0.525 0.173,-0.834 -0.133,-0.785 -0.375,-1.545 -0.436,-2.342 -0.062,-0.841 0.2,-1.718 0.235,-2.56 0.031,-0.744 -0.205,-1.209 -0.571,-1.567 0.128,-0.262 0.14,-0.58 -0.048,-0.896 -0.4,-0.676 -0.75,-1.265 -0.983,-2.018 -0.091,-0.292 -0.216,-0.546 -0.359,-0.784 0.017,-0.095 0.05,-0.178 0.05,-0.283 0,-0.776 -0.564,-1.641 -0.866,-2.329 -0.413,-0.945 -0.889,-1.851 -1.509,-2.678 -0.334,-0.445 -0.763,-0.807 -1.244,-1.081 0.076,-0.289 0.024,-0.605 -0.275,-0.873 C 69.82,15.111 68.401,14.74 67.134,14.087 66.639,13.831 66.164,13.522 65.683,13.23 65.777,12.923 65.742,12.572 65.491,12.262 64.268,10.752 62.695,9.516 61.429,8.012 60.243,6.604 59.108,5.099 57.383,4.356 57.23,4.291 57.084,4.27 56.94,4.268 56.513,4.068 56.071,3.916 55.616,3.83 55.51,3.561 55.304,3.334 54.984,3.256 54.023,3.02 53.062,2.574 52.062,2.532 50.5,2.467 48.962,2.594 47.421,2.256 47.034,2.171 46.728,2.306 46.509,2.527 46.484,2.528 46.457,2.53 46.431,2.531 46.271,2.366 46.048,2.252 45.749,2.252 41.857,2.254 37.335,2.635 33.679,4.023 32.17,4.595 31.434,6.415 30.288,7.412 c -1.463,1.271 -2.13,2.59 -2.678,4.385 -0.109,0.077 -0.217,0.156 -0.318,0.248 -0.018,0.016 -0.021,0.035 -0.038,0.051 -2.39,1.652 -3.852,4.205 -4.25,7.086 -0.098,0.708 -0.167,1.699 -0.123,2.702 -0.004,0.002 -0.008,0.003 -0.012,0.005 -1.379,0.883 -3.795,2.705 -3.459,4.535 0.043,0.235 0.264,0.469 0.545,0.694 -0.36,0.833 -0.844,1.568 -1.146,2.409 -0.744,-0.066 -1.524,0.672 -0.985,1.448 0.047,0.067 0.155,0.186 0.256,0.309 -0.245,0.272 -0.521,0.515 -0.609,0.931 -0.176,0.823 -0.27,1.667 -0.41,2.498 -0.012,0.068 -0.019,0.126 -0.029,0.191 -0.168,-0.023 -0.338,0.042 -0.432,0.252 -0.377,0.839 -0.673,1.695 -0.662,2.627 10e-4,0.065 0.018,0.133 0.046,0.196 -0.548,0.673 -0.741,1.691 -0.796,2.522 -0.042,0.645 0.958,0.64 1,0 0.04,-0.606 0.164,-1.503 0.604,-1.959 0.125,-0.13 0.153,-0.277 0.13,-0.414 0.238,-0.12 0.453,-0.293 0.631,-0.504 0.083,0.108 0.17,0.218 0.272,0.334 0.199,0.226 0.428,0.311 0.651,0.313 -0.006,0.071 0.007,0.15 0.005,0.224 -0.368,0.322 -0.611,0.803 -0.605,1.443 0.015,1.565 0.092,3.086 -0.271,4.622 -0.358,1.518 -0.948,2.982 -1.408,4.472 -0.141,0.455 -0.122,0.862 0.003,1.208 -0.392,0.232 -0.701,0.625 -0.762,1.198 -0.063,0.601 0.043,1.626 0.142,2.702 -0.647,0.479 -0.981,1.329 -0.758,2.142 0.069,0.252 0.188,0.478 0.34,0.674 -0.012,0.057 -0.028,0.109 -0.036,0.17 -0.492,4.031 -6.545,8.742 -4.216,12.981 0.591,1.075 2.052,1.177 3.107,1.074 0.643,-0.062 1.272,-0.244 1.897,-0.398 0.807,-0.198 -1.324,2.796 -2.06,3.842 -0.057,-0.006 -0.107,-0.023 -0.168,-0.02 -0.236,0.014 -0.448,0.108 -0.66,0.205 -0.17,0.077 -0.239,0.137 -0.337,0.071 -0.439,-0.299 -0.9,0.269 -0.684,0.684 0.156,0.3 0.516,0.51 0.78,0.699 0.355,0.256 0.732,0.5 1.144,0.656 0.105,0.04 0.195,0.034 0.277,0.011 0.073,0.039 0.15,0.071 0.229,0.099 0.34,0.794 1.063,1.408 2.189,1.408 0.643,0 1.062,-0.198 1.447,-0.516 0.074,0.032 0.169,0.061 0.27,0.086 0.127,0.145 0.241,0.267 0.327,0.343 0.005,0.073 0.073,0.304 0.099,0.777 0.106,2.019 0.355,3.96 0.295,5.997 -0.015,0.497 0.102,0.908 0.293,1.252 -0.224,2.299 0.514,4.641 0.948,6.896 0.269,1.396 2.063,1.315 2.741,0.358 3.395,-4.792 6.161,-10.678 10.088,-15.167 0.824,1.833 2.288,3.295 4.263,4.638 1.789,1.217 3.462,1.943 5.165,2.46 0.807,0.938 2.016,1.562 3.627,1.562 0.062,0 0.119,-0.007 0.18,-0.009 0.536,0.2 1.139,0.321 1.82,0.321 0.33,0 0.639,-0.032 0.935,-0.082 0.354,0.08 0.725,0.138 1.128,0.145 1.506,0.025 2.922,-0.011 4.363,-0.121 0.513,0.188 1.06,0.305 1.637,0.309 1.747,0.011 3.317,-0.288 4.856,-0.71 0.303,0.052 0.618,0.085 0.956,0.085 1.542,0 2.712,-0.576 3.517,-1.446 0.062,-0.019 0.123,-0.023 0.188,-0.045 0.577,-0.192 1.159,-0.432 1.667,-0.776 4.066,-2.35 8.007,-5.604 9.539,-10.199 0.007,0.003 0.013,0.009 0.02,0.012 0.179,0.069 0.355,0.137 0.529,0.208 -0.052,0.16 -0.029,0.339 0.125,0.476 0.206,0.183 0.417,0.352 0.63,0.514 -0.001,0.196 0.1,0.397 0.341,0.49 0.223,0.085 0.445,0.133 0.669,0.183 0.632,0.374 1.294,0.67 1.982,0.912 -0.087,0.247 -0.014,0.566 0.307,0.677 0.802,0.275 1.636,0.359 2.475,0.434 0.085,0.01 0.17,0.027 0.257,0.026 0.006,0 0.013,-0.002 0.019,-0.002 0.095,0.009 0.19,0.017 0.285,0.025 0.779,0.073 1.467,0.179 2.189,-0.078 0.396,-0.033 0.756,-0.081 1.146,-0.239 0.425,-0.175 0.521,-0.831 -0.002,-0.966 z M 73.804,49.769 c -0.058,0.181 -0.061,0.36 -0.039,0.537 -0.367,0.393 -0.479,0.987 -0.341,1.509 -0.256,0.691 -0.473,1.39 -0.587,2.146 -0.208,0.063 -0.42,0.111 -0.626,0.183 -0.383,0.134 -0.418,0.567 -0.238,0.815 -0.021,0.024 -0.047,0.044 -0.061,0.071 -0.179,0.372 -0.159,0.72 -0.013,1.007 0.014,0.843 0.128,1.655 -0.118,2.469 0.009,-1.502 -0.059,-3.003 -0.084,-4.507 0.201,-0.043 0.372,-0.196 0.365,-0.467 -0.054,-1.983 -0.304,-4.174 -1.325,-5.719 0.242,-0.281 0.121,-0.844 -0.362,-0.844 -0.106,0 -0.188,0.033 -0.26,0.079 -0.688,-0.671 -1.613,-1.125 -2.865,-1.235 -0.155,-0.014 -0.27,0.036 -0.35,0.117 -1.135,-0.691 -2.785,-0.958 -4.018,-1.256 -1.361,-0.329 -3.213,-0.316 -4.592,-0.041 -0.185,0.037 -0.31,0.12 -0.411,0.22 -0.208,0.04 -0.412,0.091 -0.606,0.165 -0.373,0.144 -0.466,0.527 -0.221,0.836 0.281,0.354 0.463,0.835 0.651,1.318 -0.019,0.161 0.038,0.315 0.17,0.419 0.271,0.634 0.612,1.203 1.286,1.403 1.328,0.393 2.604,0.84 3.963,1.12 1.092,0.226 3.315,0.603 4.397,-0.274 -0.018,0.615 0.003,1.229 0.157,1.833 0.151,0.593 0.559,1.127 0.736,1.725 0.008,0.025 0.019,0.047 0.026,0.072 -0.237,0.155 -0.376,0.507 -0.138,0.79 1.337,1.595 1.45,4.277 1.632,6.329 -1.959,0.385 -4.302,1.225 -5.458,-0.349 -0.246,-0.335 -0.546,-0.553 -0.866,-0.689 -0.564,-1.596 -1.18,-2.96 -1.446,-3.561 -0.099,-0.224 -0.23,-0.404 -0.384,-0.549 0.649,-1.155 0.135,-2.981 -1.551,-3.058 -0.216,-0.081 -0.455,-0.134 -0.729,-0.134 -0.477,0 -0.863,0.138 -1.164,0.36 -0.029,-0.003 -0.056,-0.017 -0.086,-0.017 -0.413,0 -0.753,0.063 -1.033,0.236 -0.328,-0.176 -0.731,-0.307 -1.217,-0.307 -0.455,0 -0.802,0.201 -1.05,0.522 -0.1,0.03 -0.189,0.065 -0.278,0.109 -0.207,0.05 -0.406,0.122 -0.619,0.246 -0.939,0.548 -1.268,1.794 -0.717,2.735 0.498,0.85 1.557,1.181 2.451,0.834 0.526,0.854 0.963,1.642 1.332,2.48 -0.345,0.32 -0.587,0.77 -0.619,1.361 -0.158,2.923 -5.495,4.259 -8.318,5.23 -0.149,-0.25 -0.349,-0.474 -0.609,-0.645 -0.396,-0.26 -0.795,-0.482 -1.192,-0.696 0.032,-0.259 -0.03,-0.535 -0.235,-0.784 -1.199,-1.457 -2.505,-3.086 -2.645,-5.043 -0.023,-0.328 -0.041,-1.229 0.089,-1.909 0.115,-0.026 0.234,-0.077 0.354,-0.165 1.378,-1.007 2.997,-1.646 4.327,-2.719 1.532,-1.237 3.103,-2.55 4.735,-3.656 1.035,-0.701 1.93,-0.626 2.18,-2.061 0.16,-0.926 -0.303,-1.742 -0.996,-2.285 0.037,-0.529 -0.267,-1.042 -0.938,-0.955 -6.693,0.87 -15.59,5.245 -16.661,12.687 -1.492,-1.298 -3.298,-2.133 -4.783,-3.442 -1.195,-1.053 -2.116,-1.909 -3.559,-2.479 -0.09,-0.061 -0.184,-0.114 -0.276,-0.169 -0.532,-2.696 -1.021,-5.39 -1.221,-8.097 -0.049,-0.653 -0.348,-1.139 -0.761,-1.46 0.042,-2.384 -0.075,-4.84 -0.981,-6.675 -0.019,-0.037 -0.054,-0.067 -0.076,-0.104 0.168,-1.002 0.393,-1.989 0.807,-2.944 0.13,-0.3 0.194,-0.618 0.19,-0.925 0.644,-0.543 1.014,-1.313 1.514,-2.022 0.294,-0.277 0.558,-0.582 0.796,-0.959 0.098,-0.154 0.133,-0.304 0.139,-0.449 0.572,-0.106 0.822,-0.632 0.751,-1.125 0.948,-0.917 1.972,-1.772 2.798,-2.786 0.156,-0.192 0.221,-0.422 0.224,-0.65 1.053,-0.999 2.183,-1.928 3.324,-2.787 0.277,-0.209 0.401,-0.491 0.419,-0.774 1.257,-0.623 2.428,-1.637 3.55,-2.288 0.414,-0.24 0.533,-0.63 0.465,-0.991 0.892,-0.517 1.722,-1.179 2.702,-1.502 0.546,-0.18 0.729,-0.665 0.669,-1.11 0.597,-0.317 1.214,-0.593 1.82,-0.896 0.94,-0.471 1.696,-1.271 2.667,-1.681 0.295,-0.124 0.482,-0.339 0.579,-0.584 l 0.015,-0.006 c 0.805,-0.336 1.522,-0.768 2.239,-1.261 1.179,-0.812 2.287,-0.718 3.62,-0.551 0.007,10e-4 0.012,-0.002 0.019,-0.002 1.167,0.537 2.393,0.936 3.516,1.62 0.789,0.481 1.47,1.216 2.211,1.776 0.691,0.523 1.417,0.942 2.052,1.525 0.037,0.15 0.104,0.292 0.215,0.412 0.748,0.806 1.645,1.449 2.458,2.186 0.431,0.39 0.785,0.812 1.184,1.196 0.027,0.115 0.082,0.234 0.171,0.354 0.831,1.118 1.759,2.167 2.553,3.305 -0.084,0.143 -0.142,0.299 -0.127,0.472 0.019,0.225 0.043,0.433 0.13,0.641 0.15,0.361 0.426,0.638 0.779,0.71 0.003,0.024 -0.003,0.046 0.002,0.071 0.135,0.777 -0.018,1.437 -0.067,2.203 -0.066,1.021 0.457,2.147 0.807,3.073 0.38,1.004 0.59,2.318 1.386,3.104 -0.003,0.114 0.014,0.236 0.062,0.369 0.252,0.685 0.36,1.429 0.692,2.083 0.37,0.729 0.812,1.405 1.252,2.094 0.199,0.312 0.484,0.446 0.773,0.46 0.2,0.664 0.531,1.27 0.738,1.958 0.226,0.748 0.079,1.49 0.36,2.204 -0.119,0.202 -0.214,0.422 -0.271,0.659 -0.256,1.08 -0.087,2.557 0.315,3.581 0.007,0.019 0.02,0.031 0.026,0.05 -1.585,0.689 -1.234,3.266 -1.652,4.575 z"
       id="path6079"
       inkscape:connector-curvature="0" /></g></svg>