<?xml version="1.0" encoding="UTF-8" standalone="no"?>
<svg
   xmlns:dc="http://purl.org/dc/elements/1.1/"
   xmlns:cc="http://creativecommons.org/ns#"
   xmlns:rdf="http://www.w3.org/1999/02/22-rdf-syntax-ns#"
   xmlns:svg="http://www.w3.org/2000/svg"
   xmlns="http://www.w3.org/2000/svg"
   xmlns:sodipodi="http://sodipodi.sourceforge.net/DTD/sodipodi-0.dtd"
   xmlns:inkscape="http://www.inkscape.org/namespaces/inkscape"
   xml:space="preserve"
   width="100px"
   height="100px"
   style="shape-rendering:geometricPrecision; text-rendering:geometricPrecision; image-rendering:optimizeQuality; fill-rule:evenodd; clip-rule:evenodd"
   viewBox="0 0 100 100"
   id="svg7650"
   version="1.1"
   inkscape:version="0.48.4 r9939"
   sodipodi:docname="icon_19107.svg"><metadata
     id="metadata7676"><rdf:RDF><cc:Work
         rdf:about=""><dc:format>image/svg+xml</dc:format><dc:type
           rdf:resource="http://purl.org/dc/dcmitype/StillImage" /></cc:Work></rdf:RDF></metadata><sodipodi:namedview
     pagecolor="#ffffff"
     bordercolor="#666666"
     borderopacity="1"
     objecttolerance="10"
     gridtolerance="10"
     guidetolerance="10"
     inkscape:pageopacity="0"
     inkscape:pageshadow="2"
     inkscape:window-width="1920"
     inkscape:window-height="1056"
     id="namedview7674"
     showgrid="false"
     inkscape:zoom="2.36"
     inkscape:cx="-0.42372881"
     inkscape:cy="50"
     inkscape:window-x="0"
     inkscape:window-y="24"
     inkscape:window-maximized="1"
     inkscape:current-layer="svg7650" /><defs
     id="defs7652"><style
       type="text/css"
       id="style7654">
   
    .fil0 {fill:none}
    .fil1 {fill:black}
   
  </style></defs><g
     id="g7686"
     transform="matrix(0.95745009,0,0,0.95745009,-162.58637,40.263206)"><path
       class="fil1"
       d="m 246.6991,28.814492 0,0 z m -53.4713,-3.69924 c 0,-0.165356 0.10276,-0.0094 0.039,0 0,0 -0.005,0.0012 -0.005,0.0012 -0.039,0.0024 -0.0342,0.146458 -0.0342,-0.0012 z m 0.065,-0.193702 c -0.0236,-0.122836 0.0815,-0.231498 0.0413,-0.04134 -0.001,0.0047 0.001,0.266931 -0.0413,0.04134 z m 3.11459,-0.454728 c 0,-0.644887 1.20473,-3.26223 1.6193,-4.09019 0.34606,-0.688588 2.20041,-1.05709 3.00002,-1.15395 3.15711,-0.380318 6.2658,-0.26575 9.12999,0.904732 0.20315,0.08386 0.35315,0.167718 0.58229,0.261026 0.83859,0.34016 2.09411,1.13977 2.61852,1.85907 0.35669,0.48898 0.23622,2.98939 0.17834,3.70869 -0.0531,0.664966 -0.2126,1.28505 -0.37795,1.82836 -0.55394,1.81301 -2.25356,4.07011 -3.88822,5.06579 -1.97836,1.2071 -4.95358,0.210238 -6.85399,-0.959063 -0.94253,-0.579926 -1.79411,-1.12442 -2.68939,-1.7882 -0.52087,-0.385042 -1.20355,-1.19529 -1.5945,-1.71497 -1.17048,-1.55316 -0.52442,-0.640163 -1.24725,-2.126 -0.2126,-0.434649 -0.47717,-1.25434 -0.47717,-1.79529 z m -3.04963,0.194883 c 0,-0.165356 0.10276,-0.01063 0.039,0 0,0 -0.005,0.0012 -0.006,0.0012 -0.0378,0.0012 -0.0331,0.145277 -0.0331,-0.0012 z m 0.065,-0.194883 c 0,-0.165356 0.10276,-0.01063 0.039,0 0,0 -0.005,0.0012 -0.006,0.0012 -0.0378,0.0012 -0.0331,0.146458 -0.0331,-0.0012 z m 54.6394,-0.06496 0,0 z m -54.5095,-0.258663 c 0,0.330711 0.001,0.107481 -0.065,0.193702 0,-0.342522 0,-0.09685 0.065,-0.193702 z m 0.065,-0.194883 c 0,0.30827 0.001,0.122836 -0.065,0.194883 0,-0.30827 -0.002,-0.124017 0.065,-0.194883 z m 57.5591,-2.85593 0,0 z m -4.47759,7.72211 c 0,0.814967 -0.39922,1.89332 -0.62599,2.68349 -0.41693,1.45395 -0.9319,2.84175 -1.60277,4.17169 l -1.40789,2.7449 -1.2567,2.05277 c -0.45709,0.685045 -0.86694,1.30513 -1.35474,1.95474 -0.24803,0.32953 -0.45355,0.603548 -0.70512,0.917724 -0.49017,0.614178 -0.96379,1.28387 -1.5319,1.84253 l -0.81143,0.875204 c -0.49016,0.491342 -1.15276,1.24371 -1.66064,1.64883 -1.45513,1.15985 -1.97364,1.77403 -3.77011,2.84884 -2.04096,1.22127 -7.13982,3.37089 -9.32251,3.91539 -0.47244,0.11693 -0.88701,0.222049 -1.37127,0.315357 -0.36496,0.07087 -1.06064,0.174805 -1.5071,0.179529 -1.20001,0.01535 -2.05986,-0.06142 -2.97994,-0.334255 -2.5701,-0.762998 -6.63194,-2.0445 -8.59023,-3.80436 l -1.32993,-1.13505 c -0.29882,-0.27638 -0.52559,-0.591737 -0.80906,-0.877566 l -1.16458,-1.30159 c -0.13819,-0.173623 -0.20433,-0.298821 -0.35788,-0.485437 -1.11733,-1.36064 -2.37522,-3.49845 -3.22207,-5.08469 -0.19842,-0.37205 -0.40039,-0.718116 -0.61536,-1.07127 -0.71102,-1.16812 -2.23703,-4.12562 -2.88782,-5.41776 -0.32953,-0.654336 -0.83977,-1.56143 -1.11969,-2.1886 -0.51968,-1.16221 -1.04056,-2.23821 -1.62993,-3.36735 -0.23386,-0.447641 -0.0579,-0.868117 0.0579,-1.32993 0.0921,-0.364964 0.27757,-0.968512 0.31182,-1.376 0.17362,0.128741 0.23858,0.344885 0.34606,0.56339 1.41733,2.87601 4.8024,5.51225 7.88628,6.45359 2.01261,0.612997 4.49767,0.917724 6.45478,-0.05197 1.05119,-0.52087 1.81183,-1.35119 2.51813,-2.21813 l 0.62245,-0.805518 c 0.091,-0.126379 0.12047,-0.197246 0.20315,-0.316538 0.16418,-0.237403 0.22441,-0.3189 0.37796,-0.594099 1.29686,-2.32561 1.30395,-3.49845 1.3193,-6.27525 0.0142,-2.55711 -0.66379,-3.50908 -2.98585,-4.6713 -0.86694,-0.433468 -1.74096,-0.757093 -2.76616,-1.06182 -1.06064,-0.315357 -2.10238,-0.526776 -3.20908,-0.618903 -1.41852,-0.118111 -3.06026,-0.2126 -4.49177,-0.0248 -0.75001,0.09803 -1.77049,0.14882 -2.44608,0.473626 0.0272,-0.32953 0.44409,-0.843314 0.62126,-1.1315 0.44764,-0.725203 1.7197,-2.74254 2.0386,-3.34609 0.50079,0 1.39489,0.224411 1.86852,0.337798 1.54371,0.366145 3.96854,0.787801 5.63272,1.11615 0.54804,0.108662 1.28505,0.183072 1.70434,0.500791 0.45237,0.343703 1.17402,0.814967 1.676,1.11497 0.58229,0.347247 1.13859,0.778353 1.71143,1.1445 l 0.70985,0.45709 c 0,-0.453547 -0.001,-0.908275 0,-1.363 0.004,-0.524414 -0.0685,-0.771266 -0.065,-1.29686 0.005,-0.973236 -0.065,-1.73151 -0.065,-2.66104 -0.2374,-0.113387 -0.97914,-0.309451 -1.24962,-0.37205 -2.82404,-0.656698 -5.64808,-1.54844 -8.45794,-2.24884 -0.24803,-0.06142 -0.44882,-0.150001 -0.67442,-0.168899 0.0638,-0.2409475 0.18071,-0.2563015 0.33308,-0.4440985 l 1.14213,-1.25907 c 0.28819,-0.284648 0.52559,-0.524414 0.81142,-0.810243 l 1.2319,-1.1693 c 0.1689,-0.168899 0.25748,-0.200789 0.42402,-0.355515 0.83623,-0.773628 1.72324,-1.54017 2.63742,-2.22876 0.92009,-0.693313 1.85907,-1.34411 2.81577,-1.98663 l 2.00435,-1.24016997 c 0.66733,-0.400397 1.37481,-0.831503 2.08939,-1.15513 l 3.23034,-1.57206003 c 1.22127,-0.589375 3.3201,-1.43505 4.57208,-1.8508 l 4.83429,-1.59096 c 1.91458,-0.643706 4.5272,-1.14332 6.50084,-1.60867 0.30827,-0.07323 1.02048,-0.246852 1.376,-0.246852 0.0496,0.211419 1.84608,4.39019 2.18151,5.40949 l 1.16812,3.50318 c 0.13347,0.395672 0.21851,0.791345 0.34016,1.15276 0.5126,1.526 0.98505,3.1205 1.42915,4.67012 0.2374,0.825597 0.40512,1.66773 0.60355,2.51104 0.49961,2.1212805 0.88347,4.3547605 1.1445,6.5126505 0.21496,1.77994 0.40158,3.94373 0.16063,5.78272 -0.065,0.496067 -0.085,0.856306 -0.16654,1.32521 -0.14055,0.809061 -0.36142,1.66182 -0.64134,2.40947 -0.2752,0.734651 -0.56812,1.4256 -0.92009,2.12836 -0.31063,0.620084 -1.43623,2.77916 -1.47167,3.20081 l 2.07285,-1.17048 c 0.16536,-0.100394 0.31063,-0.171261 0.49725,-0.283467 0.2126,-0.12756 0.28937,-0.193702 0.52323,-0.3189 0.21496,-0.115749 0.31182,-0.199608 0.52087,-0.323625 0.19016,-0.113387 0.34016,-0.250396 0.53977,-0.303546 z m -59.182,-32.6377005 -0.0354,0.139371 0.0354,-0.139371 z m 60.545,28.2250005 c 0,-0.77599 0.32362,-2.45317 0.32362,-4.15279 0,-4.02759 -0.58347,-8.15439 -1.54489,-12.0154005 -0.0756,-0.303546 -0.12165,-0.633076 -0.19842,-0.904732 l -0.70867,-2.66577 c -0.26339,-0.957882 -0.70158,-2.58663 -1.01103,-3.53152 l -1.12914,-3.34727 c -0.18071,-0.579926 -1.24607,-3.28467 -1.24844,-3.29412 1.53545,0 2.65396,-0.259845 3.50436,-0.259845 0.0673,0.13819 0.0945,0.251577 0.17244,0.412208 0.33071,0.679139 1.26497,2.95278 1.55316,3.70279 0.12284,0.322443 0.18662,0.537406 0.31418,0.85276303 0.99567,2.44017997 1.98191,7.06894997 2.33624,9.47369997 0.64134,4.3512205 0.46299,7.5059605 -0.53268,11.6576005 -0.0803,0.336617 -0.18662,0.572839 -0.27402,0.894102 -0.16181,0.591737 -0.3815,1.17048 -0.59292,1.74214 -0.23032,0.621265 -0.37796,1.0441 -0.96379,1.43623 z m 3.11459,-3.30947 c 0.0473,-0.565752 1.1693,-3.56223 1.16812,-7.07132 -10e-4,-0.693313 -0.002,-1.38544 0.001,-2.07876 0.007,-1.74686 -0.57875,-5.5594905 -0.99095,-7.3146205 -0.44056,-1.87442 -0.94962,-3.84097997 -1.63348,-5.6339 l -1.6134,-3.57641 c -0.21733,-0.506697 -0.45001,-0.918905 -0.69568,-1.3819 0.43701,0 3.75948,-0.388586 4.08783,-0.388586 0.62599,1.18229 0.82796,1.30513 1.51064,2.90199 0.43819,1.02402 0.90473,2.1071 1.20237,3.21026003 0.1689,0.624808 0.30473,1.0878 0.44056,1.76575997 0.12519,0.629533 0.28346,1.21773 0.35079,1.85435 0.10393,0.960244 0.38386,4.15397 0.22204,5.21815 l -0.14645,2.0586805 c -0.0413,0.394491 -0.0437,0.629533 -0.0933,1.00985 -0.29528,2.21458 -0.68741,3.40396 -1.1882,5.43075 -0.24567,0.989772 -0.96852,2.05041 -1.59923,2.81341 -0.2752,0.334255 -0.70631,0.970874 -1.02284,1.18229 z m 1.88151,-27.5105005 c 0.71811,0 2.42718,-0.278742 2.85711,-0.0024 0.17362,0.112206 0.16654,0.296459 0.23504,0.543311 0.41221,1.46812 0.79607,3.59294 1.0252,5.13902003 0.0732,0.494886 0.0661,0.922448 0.13819,1.4197 0.052,0.36023897 0.15709,2.53347997 0.15709,2.95749997 0,1.86261 -0.32599,5.07996 -0.81969,6.9662005 l -0.15355,0.429925 c 0,-0.874023 0.12992,-1.6488305 0.12992,-2.5949005 0,-2.67286 -0.0236,-4.7339 -0.75118,-7.29455 -0.085,-0.29763997 -0.13465,-0.56929597 -0.21378,-0.82559697 -0.0909,-0.296459 -0.18662,-0.465358 -0.2693,-0.768904 -0.14173,-0.524414 -0.3437,-1.06536003 -0.50906,-1.56615003 -0.49961,-1.51064 -1.17993,-2.95868 -1.826,-4.40318 z m -59.4406,30.3664005 c 0.0106,-0.512602 0.47835,-1.86616 0.67559,-2.37403 0.29174,-0.7441 0.48544,-1.52009 0.79725,-2.25238 0.61182,-1.43269 1.16103,-2.84884 1.85789,-4.24137 0.42402,-0.849219 0.81733,-1.65474 1.30513,-2.45907 1.05709,-1.74686 2.23466,-3.4358505 3.47483,-5.0244505 0.10749,-0.137009 0.20197,-0.253939 0.31654,-0.398035 l 0.70631,-0.8504 c 0.1559,-0.175986 0.21024,-0.206695 0.36732,-0.411027 0.41457,-0.536225 2.07758,-2.26183 2.62325,-2.69766 l 1.19765,-1.07363 c 0.30237,-0.256301 0.54331,-0.459452 0.8445,-0.713391 0.27402,-0.232679 0.55158,-0.450004 0.83268,-0.66024097 0.16063,-0.120473 0.28111,-0.222049 0.43583,-0.342522 0.16418,-0.129922 0.27756,-0.187797 0.44764,-0.330711 0.55749,-0.464177 1.18584,-0.851582 1.79411,-1.25670003 0.16654,-0.111024 0.27993,-0.186616 0.42875,-0.284648 0.15709,-0.105119 0.30827,-0.226773 0.45709,-0.321262 l 3.83861,-2.32679 c 0.64488,-0.388586 1.29922,-0.73347 1.976,-1.07245 0.19606,-0.09803 0.32835,-0.155907 0.51969,-0.258663 1.15985,-0.625989 2.39411,-1.16694 3.61302,-1.70907 1.8071,-0.803156 3.67798,-1.47993 5.55122,-2.10592 0.3685,-0.122836 0.71693,-0.250396 1.11851,-0.373231 l 2.36813,-0.7464625 c 0.43583,-0.128741 0.78898,-0.213781 1.22009,-0.336617 0.41693,-0.119292 0.77008,-0.190159 1.18229,-0.310632 2.05513,-0.601186 4.21303,-0.921267 6.31304,-1.34529 0.84095,-0.168899 1.81655,-0.29764 2.67404,-0.439374 0.85985,-0.142915 6.88234,-1.01812 8.10243,-1.04883 1.00276,-0.0248 1.86852,-0.193702 2.91971,-0.193702 l 0.28701,0.947252 c 0.0909,0.362601 0.22323,0.662604 0.23268,1.06418 -0.5067,0 -1.65001,0.03425 -2.10356,0.102757 -0.26575,0.04016 -0.48308,0.0083 -0.74174,0.03661 -1.75513,0.188978 -3.62483,0.321262 -5.40004,0.570477 -3.46066,0.486618 -6.93194,0.930716 -10.3135,1.7563095 -0.39449,0.09685 -0.84095,0.173623 -1.23899,0.252758 -1.0193,0.205513 -2.65986,0.601186 -3.63664,0.907094 -0.39449,0.122836 -0.75237,0.225592 -1.15985,0.331892 -1.52718,0.395672 -5.25831,1.69608 -6.72643,2.35868 -0.20433,0.09213 -0.29882,0.113387 -0.51497,0.198427 -0.21142,0.08386 -0.32008,0.162993 -0.52677,0.252758 -0.73111,0.315357 -1.41852,0.581107 -2.11655,0.931897 l -1.99017,0.994496 c -1.32166,0.661423 -2.61144,1.39607 -3.87405,2.16143 l -0.91537,0.57638203 c -0.3248,0.209057 -0.55394,0.394491 -0.8941,0.598824 -0.61536,0.373231 -1.15395,0.822054 -1.74214,1.24370997 -1.04056,0.746463 -2.40829,1.77049 -3.32955,2.70475 -0.4878,0.494886 -1.07481,0.942527 -1.59096,1.45867 l -2.56892,2.68703 c -0.12756,0.158269 -0.24803,0.239766 -0.38032,0.398035 -0.47126,0.56339 -0.89646,1.04883 -1.35355,1.6311205 -0.23976,0.304727 -0.41575,0.5315 -0.64961,0.843314 -1.09843,1.46458 -2.09884,2.99294 -3.00947,4.58153 -0.68386,1.19174 -1.47993,2.74727 -2.00553,4.02995 l -0.87048,2.11301 c -0.18189,0.416932 -0.59882,1.89805 -0.82559,2.22521 z m -2.92089,6.81265 c -0.10748,-0.465358 -0.29528,-0.784258 -0.41575,-1.27088 -0.20788,-0.83977 -0.2563,-1.38308 -0.13111,-2.26065 l 0.28701,-2.30907 c 0.0756,-0.454728 0.15945,-1.00749 0.24213,-1.4445 0.0933,-0.490161 0.23032,-0.975598 0.32599,-1.4256 0.10748,-0.501972 0.21142,-0.941346 0.34843,-1.40434 0.70985,-2.38821 1.17048,-4.09137 2.18033,-6.44887 0.17835,-0.413389 0.33543,-0.758274 0.51024,-1.17757 0.66142,-1.58978 1.54608,-3.0496305 2.42482,-4.5177505 0.22677,-0.379137 0.44055,-0.696856 0.67205,-1.07954 0.85276,-1.41143 1.87442,-2.70002 2.85475,-4.02405 0.14646,-0.198427 0.2374,-0.288191 0.38032,-0.462996 0.77126,-0.944889 1.53663,-1.92285 2.40711,-2.78387997 0.58465,-0.576382 1.09843,-1.23662003 1.72088,-1.78348003 l 1.81655,-1.62285 c 0.4441,-0.441736 0.96969,-0.801975 1.45749,-1.20237 l 1.95946,-1.47993 c 1.51064,-1.09135 3.09806,-2.05986 4.69728,-3.02483 2.4827,-1.4976495 6.32249,-3.1606495 8.9918,-4.0500295 3.78783,-1.26261 7.12683,-2.04687 11.1095,-2.71301 1.84844,-0.30827 3.60239,-0.389767 5.44138,-0.65906 l 4.06066,-0.28701 c 0.27047,-0.01417 0.57166,0.0071 0.84686,0.0035 0.36732,-0.0047 0.44764,-0.06968 0.83858,-0.06968 0.78426,-0.0012 2.70475,-0.07677 3.32129,-0.0071 0.926,0.103938 2.49805,0.0094 3.49373,0.0094 0.29764,0.562209 0.37442,0.804337 0.51969,1.42678 -0.38858,0.09094 -5.08823,0.477169 -6.12761,0.621265 -3.43231,0.474807 -6.84218,0.896464 -10.2308,1.57915 -2.72719,0.549217 -5.45555,1.25552 -8.08235,2.10592 l -2.51459,0.859849 c -1.88624,0.6236265 -4.24964,1.5767795 -6.05202,2.4484395 l -1.14804,0.539768 c -1.67009,0.837408 -3.35199,1.67718 -4.94768,2.64333 l -1.0441,0.643706 c -0.19488,0.115749 -0.3437,0.197246 -0.52795,0.315357 l -1.06418,0.688588 c -1.01812,0.683864 -2.01261,1.33702 -2.98939,2.07049003 l -1.43033,1.10198 c -0.17835,0.144096 -0.28583,0.24449 -0.46064,0.381499 -0.4689,0.36732597 -0.94134,0.76299797 -1.35119,1.17992997 -0.18425,0.186616 -0.2563,0.235041 -0.44882,0.395672 -0.31299,0.261026 -0.5941,0.581107 -0.88229,0.869298 -0.15473,0.154726 -0.27047,0.262207 -0.42284,0.420476 -0.17008,0.175986 -0.21142,0.278742 -0.38622,0.45709 -0.56812,0.57402 -1.05828,1.18229 -1.59332,1.78112 -1.34529,1.51064 -2.47561,3.22798 -3.57168,4.9287805 -0.12402,0.192521 -0.17717,0.333073 -0.30945,0.533862 l -0.63308,1.05473 c -0.10866,0.214962 -0.19252,0.348428 -0.30591,0.536225 -0.72874,1.2071 -1.43623,2.60908 -1.96183,3.94373 l -0.49134,1.19647 c -0.0862,0.214962 -0.15472,0.374412 -0.24213,0.601186 -1.08426,2.83231 -2.52167,7.71148 -2.90081,10.6595 -0.0224,0.174805 -0.0496,0.523232 -0.0827,0.761817 l -0.078,0.570477 c -0.0531,0.172442 -0.013,0.07441 -0.0803,0.179529 z m 1.23308,-48.2106 0,0 z m -2.91971,42.6299 -0.0425,-0.0874 c -0.0118,-0.03189 -0.0425,-0.115749 -0.0508,-0.144096 -0.0283,-0.09567 -0.0531,-0.217325 -0.0756,-0.312995 -0.0591,-0.242128 -0.10394,-0.405121 -0.15709,-0.622446 -0.14291,-0.588194 -0.20551,-1.27206 -0.37914,-1.826 -0.27992,-0.891739 -0.17362,-0.89292 -0.0626,-1.92639 0.13937,-1.29214 0.36615,-2.61971 0.60001,-3.87759 0.0874,-0.465358 0.14409,-0.813786 0.24567,-1.24725 0.37323,-1.58978 0.78662,-3.18428 1.21891,-4.74925 0.20788,-0.7488255 0.47835,-1.5236305 0.72284,-2.2630105 0.48071,-1.44922 1.09135,-2.88782 1.67009,-4.29925 0.24685,-0.602367 0.84331,-1.94411 1.17993,-2.51813 l 1.33938,-2.42482 c 0.20197,-0.338979 0.36024,-0.587012 0.56693,-0.925992 0.74647,-1.22481 1.62639,-2.3386 2.50278,-3.46538 l 2.73309,-2.97758 c 0.009,-0.0094 0.0224,-0.02362 0.0319,-0.03307 1.04646,-1.05709 2.17206,-1.9712795 3.36262,-2.8665595 1.37718,-1.03465 3.42759,-2.36222 5.01146,-3.1642 0.19725,-0.100394 0.32717,-0.152363 0.51497,-0.264569 0.97442,-0.583469 1.96301,-1.00749 2.99057,-1.48702 1.0382,-0.485437 2.11419,-0.959063 3.19254,-1.35001 0.72166,-0.261026 1.47048,-0.51024 2.20632,-0.778353 0.35433,-0.128741 0.75591,-0.209057 1.15276,-0.338979 0.77126,-0.253939 1.52482,-0.477169 2.3327,-0.653155 l 2.42364,-0.561028 c 0.41575,-0.08504 0.75945,-0.187797 1.22836,-0.264569 4.99728,-0.81851 7.27683,-1.09371 12.469,-1.09371 1.80474,0 3.3579,0.150001 5.12721,0.193702 1.01103,0.0248 3.90003,0.395672 4.85437,0.5315 l 2.72364,0.45709 c 0.42756,0.08386 0.77599,0.887015 0.93308,1.27324 0.0791,0.196065 0.26693,0.590556 0.31299,0.788983 -1.16458,0 -2.11183,-0.06496 -3.24451,-0.06496 -1.12206,0 -2.01852,0.06496 -3.11459,0.06496 -1.07245,0 -2.09884,0.140552 -3.11459,0.131103 -2.38703,-0.02244 -9.07212,0.857487 -11.471,1.37718 -2.19687,0.474807 -4.18468,1.01576 -6.33312,1.64765 -0.84804,0.249215 -1.58033,0.551579 -2.41183,0.832684 -0.77835,0.264569 -1.52718,0.598824 -2.28427,0.896464 l -1.13977,0.481894 c -0.20433,0.0874 -0.32126,0.164175 -0.52205,0.257482 -0.54922,0.253939 -1.16812,0.480712 -1.67718,0.787801 -0.21024,0.126379 -0.31536,0.134647 -0.52914,0.249215 -0.19252,0.102757 -0.3,0.184253 -0.49725,0.282286 -0.70866,0.35079 -1.40907,0.746463 -2.08939,1.1551295 l -1.01339,0.608273 c -1.00749,0.60591 -1.98191,1.25907 -2.9327,1.93348 l -3.15829,2.42246 c -0.17834,0.142915 -0.29291,0.236222 -0.46063,0.38268 -0.57166,0.498429 -1.15513,0.957882 -1.68545,1.49411 l -0.84331,0.778353 c -0.39922,0.400397 -0.82796,0.778353 -1.20119,1.20119 -0.49017,0.55748503 -1.0441,1.08308003 -1.50356,1.67600003 l -1.84608,2.24174997 c -0.96615,1.20828 -1.83072,2.46734 -2.70829,3.78074 -0.97088,1.45159 -1.88269,2.97168 -2.66459,4.5366505 -1.49293,2.98585 -2.31852,5.5902 -3.25869,8.81109 -0.12638,0.433468 -0.22087,0.848038 -0.3319,1.28977 -0.17008,0.677958 -0.82914,3.3768 -0.84331,4.02287 z m -1.62285,-8.04573 -0.065,0 c 0,-0.805518 -0.54804,-4.13625 -0.58583,-5.51225 -0.0366,-1.33229 -0.26693,-4.9724805 -0.1004,-6.0744605 l 0.17126,-2.94333 c 0.0461,-0.497248 0.5693,-1.88504997 0.75001,-2.42836997 0.39331,-1.17993003 0.84331,-2.26301003 1.34529,-3.39333003 0.55512,-1.24962 1.11969,-2.45435 1.84608,-3.60357 l 0.62363,-0.998039 c 0.12756,-0.194883 0.17598,-0.294097 0.30709,-0.472445 1.38544,-1.8732395 1.90513,-2.6693095 3.47955,-4.3712895 l 0.74528,-0.812605 c 0.39921,-0.399216 0.77835,-0.826778 1.20119,-1.20001 1.88742,-1.66064 3.61302,-3.10042 5.76382,-4.42326 0.34488,-0.2126 0.68386,-0.411027 1.0004,-0.621265 0.96024,-0.640163 2.06222,-1.1256 3.09333,-1.64411 6.22564,-3.13821 15.4194,-4.65004 22.2155,-4.65004 l 1.47167,-0.04961 c 0.44764,0.05551 0.96969,0.04961 1.513,0.04961 2.70947,0 6.0095,0.342522 8.6859,0.787801 2.26655,0.376775 4.42444,0.703943 6.60241,1.24962 0.22205,0.05551 0.45709,0.101576 0.62835,0.151182 0.29173,0.08386 0.0638,-0.05669 0.25394,0.134647 0.0307,0.03071 0.14646,0.193702 0.19724,0.257482 l 1.04174,1.29332 c 0.12874,0.174805 0.2693,0.321262 0.37087,0.473626 -0.34488,0 -0.93544,-0.129922 -1.25316,-0.175986 -1.6949,-0.24449 -3.44766,-0.505516 -5.17327,-0.601186 -1.39017,-0.07677 -2.68821,-0.197246 -4.15161,-0.197246 -3.15121,0 -6.35792,-0.04843 -9.4548,0.343703 -4.65476,0.589375 -6.96502,1.12442 -11.3103,2.31616 l -1.02993,0.333073 c -1.3134,0.415751 -2.71183,0.911818 -3.94491,1.50592 l -1.88151,0.844495 -2.70356,1.38426 c -0.60945,0.301183 -1.14095,0.679139 -1.73151,0.994496 -1.39135,0.741738 -3.65318,2.36931 -4.87563,3.36499 -0.25984,0.211419 -0.46654,0.406302 -0.74292,0.620084 -0.50669,0.394491 -0.9437,0.865755 -1.40434,1.3204795 l -2.32088,2.41537 -1.82718,2.26183 c -0.8563,1.09017 -2.04923,2.89727 -2.69412,4.11854003 l -0.97205,1.81772997 c -0.54568,1.07481 -1.07127,2.15789 -1.526,3.27758 -0.12402,0.305908 -0.25158,0.663785 -0.37914,0.981504 -0.1311,0.32953 -0.21378,0.657879 -0.35079,1.01221 -0.14409,0.370869 -0.20787,0.636619 -0.3378,1.0252 l -0.94725,3.1417605 c -0.0425,0.153545 -0.10039,0.304727 -0.15472,0.493705 -0.30237,1.05591 -1.38899,5.35516 -1.38899,6.20202 z m 58.5973,-42.9535 0,0 z m -58.4674,21.9957995 c 0,-0.323625 0.12402,-0.908275 0.17717,-1.18465 0.20551,-1.06772 0.78898,-3.45003 1.11379,-4.46815 l 0.51378,-1.6275695 c 0.0933,-0.338979 0.43583,-1.36418 0.55158,-1.58978 0.1311,-0.258663 1.59568,-2.15671 1.7823,-2.36931 0.23386,-0.266931 0.43347,-0.500791 0.65433,-0.773628 l 3.07443,-3.21971 1.49765,-1.29214 c 1.63702,-1.32521 3.13349,-2.41183 4.99728,-3.43822 0.17599,-0.09685 0.28347,-0.19134 0.43583,-0.278742 0.70631,-0.411027 2.03387,-1.08544 2.76616,-1.45159 0.68151,-0.341341 2.19923,-1.00631 2.92325,-1.2945 1.76694,-0.70158 3.33192,-1.25552 5.22288,-1.78466 1.20592,-0.337798 3.37089,-0.849219 4.59334,-1.05237 1.30985,-0.218507 3.6768,-0.5941 4.9335,-0.64725 l 2.59845,-0.192521 c 1.4197,-0.11693 6.66738,0.06969 8.14495,0.283467 0.39686,0.05788 0.86458,0.08268 1.25907,0.103938 0.64962,0.03543 3.10042,0.415752 3.75712,0.526777 l 2.34687,0.442917 c 0.36261,0.100394 0.95198,0.506697 1.36064,0.715754 0.18308,0.09331 0.26575,0.162993 0.44056,0.272837 0.7004,0.439374 2.91735,1.71734 3.32247,2.32325 l -3.2894,-0.603548 c -1.09607,-0.178348 -4.74216,-0.647249 -5.85949,-0.694494 -1.01457,-0.0437 -2.56656,-0.259845 -3.63192,-0.262207 -0.41221,0 -0.88111,0.04016 -1.28269,-0.01535 -1.13977,-0.155907 -3.96027,-0.08386 -5.14728,0.01417 -0.41811,0.03543 -0.85276,-0.03189 -1.26733,0.03189 -0.33307,0.04961 -0.89056,0.07913 -1.19765,0.09921 -2.55002,0.172442 -5.41776,0.728746 -7.9099,1.24017 -2.11891,0.434649 -4.98547,1.35237 -7.06895,2.1449 -1.71379,0.651974 -2.85593,1.27206 -4.44925,2.04096 -1.10316,0.5315 -3.02837,1.67482 -4.13862,2.41419 l -1.54371,1.05119 c -0.51733,0.34016 -0.99922,0.725203 -1.48348,1.11261 l -0.72284,0.57402 c -1.05709,0.817329 -3.20081,3.00357 -3.92247,3.93074 -0.64489,0.82914 -1.70316,2.11537 -2.25592,3.0000195 -0.10394,0.166537 -0.14882,0.239766 -0.25512,0.39331 -0.0945,0.135828 -0.16536,0.270475 -0.2504,0.399216 -0.085,0.12756 -0.18189,0.259845 -0.25748,0.390948 -0.8067,1.40552 -1.33466,2.31144 -2.07994,3.82444 -0.0756,0.153545 -0.1252,0.295278 -0.19488,0.454728 l -0.17599,0.343703 c -0.0768,0.118111 -0.026,0.04606 -0.0827,0.111024 z m 4.41263,-13.6264995 c 0.0685,-0.826778 0.35079,-0.948433 0.56339,-1.38308 0.51024,-1.04174 1.56379,-2.77443 2.29136,-3.74176 l 0.88229,-1.13032 c 2.06576,-2.62915 4.90043,-4.715 7.8792,-6.202021 1.11615,-0.557485 2.26301,-1.12442 3.44648,-1.54962 1.50828,-0.543311 2.11773,-0.831503 3.8079,-1.25316 3.0638,-0.76536 3.76066,-0.809061 6.84454,-1.20237 0.62363,-0.08032 1.30395,-0.01772 1.91104,-0.100394 0.68622,-0.09449 3.18664,-0.124017 3.93901,-0.0095 0.59055,0.08858 1.28859,0.03189 1.90159,0.109843 0.55748,0.07087 1.24725,0.142915 1.78938,0.222049 0.60709,0.0874 1.16694,0.140552 1.75986,0.251577 0.59055,0.111024 1.0878,0.217325 1.68781,0.324806 0.60945,0.107481 1.07481,0.230317 1.64529,0.364964 0.25276,0.05906 0.52087,0.111024 0.78544,0.188978 0.25039,0.07323 0.56339,0.174805 0.79843,0.238585 0.58111,0.157088 0.99804,0.29764 1.53663,0.475988 0.19016,0.0626 1.26733,0.428744 1.43623,0.575201 -0.70749,0 -3.14766,-0.399216 -4.21657,-0.390948 l -1.81891,-0.0626 c -2.98585,-0.160631 -6.11343,-0.09331 -9.08039,0.134647 -0.20906,0.01535 -0.55867,0.06142 -0.81143,0.09567 -1.52009,0.211419 -3.40633,0.433468 -4.88862,0.758274 -2.16498,0.473626 -4.47523,1.046461 -6.56226,1.808281 -0.21732,0.07913 -0.44409,0.171261 -0.66378,0.24449 l -1.37481,0.506697 c -1.64765,0.699218 -4.96421,2.26419 -6.23627,3.1075 l -1.16221,0.720478 c -0.2315,0.135828 -0.32363,0.227955 -0.54213,0.364964 l -1.63348,1.15749 c -0.18662,0.139371 -0.33189,0.24449 -0.51378,0.394491 -2.06813,1.70907 -2.47207,2.04096 -4.47641,4.02405 -0.32835,0.323625 -0.54804,0.705124 -0.92481,0.9567 z m -8.11187,23.2300995 c 0,2.03387 -0.0331,4.4728705 0.18543,6.4973005 0.052,0.479531 0.0366,0.852763 0.10158,1.32639 0.24567,1.7823 0.36496,3.10869 0.66851,4.91224 0.40276,2.39293 0.87048,4.56854 1.51064,6.85872 0.60709,2.16852 1.23662,4.25555 2.02088,6.34966 l 1.34411,3.52326 c 0.0839,0.206695 0.13701,0.292916 0.2126,0.500791 l 1.01103,2.42837 c 0.0839,0.193702 0.14882,0.28701 0.23268,0.480712 0.15354,0.357877 0.27165,0.670871 0.43583,0.992134 0.15472,0.304727 0.26811,0.60591 0.43228,0.930716 0.29292,0.577564 1.13623,2.60435 1.44922,2.83349 0,-0.475988 0.0673,-0.716935 0.0638,-1.23426 -0.0106,-1.2697 0.17953,-2.56774 0.19253,-3.89531 0.006,-0.577564 0.16299,-1.86616 0.1996,-2.52522 0.0295,-0.526776 0.11575,-1.55198 0.2256,-2.11065 l 0.0968,-0.292916 c 0.0992,0.424019 0.29764,0.62717 0.47244,1.02048 0.0992,0.22323 0.14292,0.284648 0.24213,0.471264 0.0968,0.184253 0.14409,0.336617 0.24095,0.538587 0.085,0.174805 0.16063,0.262207 0.25748,0.455909 l 0.63662,1.30985 c 0.72284,1.44332 1.42915,2.87128 2.19569,4.29334 l 1.03702,1.94765 c 0.17953,0.359058 0.36496,0.590556 0.54213,0.950795 0.58347,1.17993 2.23821,3.61184 3.11932,4.53665 0.6,0.629533 1.11497,1.34883 1.7882,1.91104 l 0.83977,0.718116 c 1.82127,1.62285 3.93546,2.82049 6.16777,3.75948 1.04292,0.438192 2.23584,0.897645 3.35554,1.18702 1.74332,0.452366 2.71065,0.713391 4.67248,0.713391 1.34647,0 2.50986,-0.278742 3.72641,-0.621265 l 1.69608,-0.51024 c 1.25198,-0.362601 2.49215,-0.936622 3.68979,-1.43623 1.16694,-0.485437 2.33506,-1.0193 3.43231,-1.62875 l 2.2512,-1.44804 c 0.27874,-0.211419 0.52323,-0.38268 0.81496,-0.611816 0.41694,-0.328349 0.83505,-0.635438 1.21182,-0.994496 0.163,-0.154726 0.23268,-0.186616 0.38977,-0.324806 0.13701,-0.121655 0.22087,-0.227955 0.35552,-0.357877 0.16889,-0.161812 0.2563,-0.192521 0.4252,-0.354333 0.73701,-0.709848 1.46694,-1.4445 2.13899,-2.2075 0.14173,-0.160631 0.16299,-0.226773 0.3248,-0.389767 0.17126,-0.171261 0.20906,-0.246852 0.35906,-0.419295 1.61104,-1.84962 2.96813,-3.85161 4.23665,-5.95162 0.0968,-0.15945 0.16299,-0.281105 0.25512,-0.458271 l 1.29804,-2.46498 c 0.31772,-0.635438 0.63071,-1.35592 0.89883,-2.02206 0.27992,-0.696856 0.56693,-1.37245 0.79606,-2.12246 0.10985,-0.359058 0.22442,-0.700399 0.34016,-1.0878 0.12048,-0.40394 0.20197,-0.799613 0.30119,-1.19174 0.18898,-0.751187 0.33898,-1.62403 0.47362,-2.44608 0.31654,-1.93112 -0.21378,-0.70158 1.71616,-2.63034 l 1.42796,-1.49293 c 0.12284,-0.13819 0.23386,-0.218506 0.3567,-0.357877 l 1.32048,-1.59923 c 0.1311,-0.167718 0.20788,-0.278742 0.33307,-0.445279 0.42875,-0.575201 0.79725,-1.12442 1.19883,-1.72088 1.21064,-1.79883 2.16734,-3.82562 2.89845,-5.86186 0.72993,-2.02797 1.50474,-4.8153905 1.6323,-7.1268305 0.052,-0.94607 0.19252,-1.79529 0.19252,-2.79215 l 0,-1.68663 c 0,-1.28505 -0.17008,-2.93387997 -0.36142,-4.17995 -0.25275,-1.65001 -0.55394,-3.11932 -0.98622,-4.6583 -0.29292,-1.0382 -0.49135,-1.47757 -1.5071,-1.9323 -1.49765,-0.672053 -3.34373,-0.649611 -4.9961,-0.649611 -1.32166,0 -2.38348,0.194883 -3.69924,0.194883 l 0,-0.06496 c 0.93544,0 3.02955,-0.268112 4.15279,-0.324806 3.25751,-0.161812 4.83783,0.141733 3.36144,-5.3067295 -0.30355,-1.11733 -1.00631,-2.96931 -1.56497,-4.08074 l -0.62836,-1.25316 c -0.62244,-1.25316 -1.24725,-2.50514 -2.08584,-3.62483 -0.14527,-0.193702 -0.24921,-0.307089 -0.39803,-0.509059 -0.94135,-1.27206 -2.10002,-2.3634 -3.27522,-3.40869 l -1.03583,-0.846857 c -0.73347,-0.54213 -1.4693,-1.09961 -2.22521,-1.602771 l -4.68429,-2.9079 c -1.22363,-0.745281 -2.5701,-1.25907 -3.92247,-1.72324 -2.50632,-0.859849 -5.10713,-1.43741 -7.73392,-1.80474 -4.97366,-0.693313 -9.66622,-0.766541 -14.6588,-0.03425 -3.02246,0.442917 -5.95753,1.36537 -8.78747,2.43781 -2.00907,0.761817 -3.89413,1.83309 -5.67642,3.0201 -2.6575,1.769311 -5.86304,4.678381 -7.53313,7.455181 -0.17008,0.282286 -0.31418,0.483075 -0.47717,0.755911 l -0.463,0.770085 c -0.85276,1.40789 -2.29136,4.34649 -2.83467,5.85949 l -1.05709,2.70711 c -0.69331,1.85553 -1.23781,3.7701095 -1.72915,5.7331195 -0.3437,1.37363 -0.57992,2.67758 -0.82914,4.16696 -0.36496,2.18506 -0.55039,4.46342 -0.73819,6.72407 -0.0342,0.422838 0,0.816148 -0.0496,1.18229 -0.0531,0.386224 -0.0189,0.878747 -0.0189,1.28033 z"
       id="path7660"
       inkscape:connector-curvature="0"
       style="fill:#333333" /><path
       class="fil1"
       d="m 207.0503,32.642492 c 1.95592,0 3.05672,-1.10788 4.05003,-2.56774 0.85512,-1.2567 1.72442,-3.53625 1.72442,-4.95949 0,-0.688588 0.008,-2.39293 -0.58347,-2.78979 l -3.26341,4.71854 c -0.24095,0.322443 -0.98269,1.45395 -1.14922,1.5756 l -3.21617,-2.23466 c -0.20551,-0.154726 -0.34134,-0.224411 -0.53859,-0.369688 -0.19842,-0.146458 -0.37559,-0.26575 -0.59292,-0.380318 0.0461,-0.174805 0.10749,-0.236222 0.21142,-0.37205 0.70867,-0.92481 2.61144,-3.62365 3.24097,-4.5461 0.16772,-0.246852 0.41339,-0.458271 0.44056,-0.791345 -0.34252,-0.0083 -1.26025,-0.259845 -2.5949,-0.259845 -1.92285,0 -5.40595,0.298821 -6.60123,1.76931 -0.71221,0.875204 -0.81379,2.71538 -0.57638,3.78428 0.12992,0.583469 0.32953,0.918905 0.48543,1.39726 0.25276,0.774809 0.70395,1.38072 1.18584,1.99372 1.06064,1.35001 1.2567,1.31103 2.55711,2.17915 0.12284,0.08268 0.12638,0.101576 0.26103,0.193702 0.18898,0.128741 0.42284,0.26575 0.61063,0.362601 1.3819,0.718116 2.60317,1.29686 4.34885,1.29686 z"
       id="path7662"
       inkscape:connector-curvature="0"
       style="fill:#333333" /><path
       class="fil1"
       d="m 226.1926,24.466892 c 0,1.98781 0.613,3.94728 1.67482,5.52878 1.02284,1.52482 2.10828,2.64687 4.10082,2.64687 1.85671,0 3.84334,-0.781896 5.13665,-1.74214 2.38939,-1.77403 1.85198,-1.00276 3.55987,-3.3827 0.18543,-0.259845 0.25394,-0.366145 0.41103,-0.692131 0.13346,-0.279923 0.22441,-0.529138 0.32716,-0.840952 0.41103,-1.24135 0.59528,-3.652 -0.67441,-4.5024 -0.19252,0.140552 -1.8697,2.67758 -2.16852,3.08743 -0.27166,0.37205 -2.69293,3.78783 -2.7638,4.05003 -0.3378,-0.02835 -0.82442,-0.504335 -1.11497,-0.70158 l -3.29648,-2.28309 c 0.0626,-0.274018 0.27402,-0.486618 0.45709,-0.774809 0.66496,-1.0441 2.01025,-2.84057 2.81341,-4.00043 0.21378,-0.30827 0.69331,-0.942527 0.75237,-1.1941 -1.19529,0 -2.28427,0 -3.339,0.165356 -1.66773,0.262207 -2.48388,0.670871 -3.79609,1.45985 -0.51142,0.307089 -1.64765,1.08072 -1.85789,1.64647 -0.12284,0.32953 -0.22205,1.09607 -0.22205,1.52954 z"
       id="path7664"
       inkscape:connector-curvature="0"
       style="fill:#333333" /><path
       class="fil1"
       d="m 231.4485,33.225992 c -1.17284,0 -2.03033,-0.309451 -2.83939,-1.05237 -0.38386,-0.353152 -1.39253,-1.5945 -1.67718,-2.02206 -0.72048,-1.08308 -1.47993,-2.6386 -1.52009,-4.05948 -0.008,-0.289372 0.0248,-0.620084 -0.007,-0.902369 -0.0744,-0.664966 -0.0437,-1.93702 0.10157,-2.576 0.13465,-0.589375 0.38032,-0.792526 0.73466,-1.14804 0.37441,-0.377956 1.16694,-0.819691 1.68545,-1.04056 2.84766,-1.21536 4.98193,-1.40907 8.32447,-1.40907 1.96419,0 4.41854,0.602367 5.628,2.22403 1.27324,1.70671 0.65551,3.5953 -0.0555,5.48981 -0.16772,0.447641 -1.08898,1.85553 -1.53308,2.35986 -0.77363,0.877566 -2.66931,2.22403 -3.73704,2.75199 -0.55985,0.278742 -1.20592,0.621265 -1.80828,0.787801 -0.37914,0.105119 -0.6071,0.200789 -0.99804,0.300002 -0.66615,0.167718 -1.50119,0.296459 -2.29844,0.296459 z m -7.72211,-9.47252 c 0,2.36459 0.13819,4.59452 1.43978,6.60596 0.085,0.131103 0.15118,0.217325 0.23504,0.349609 0.21851,0.34016 0.42638,0.69095 0.6815,1.00631 0.18544,0.229136 0.32953,0.4252 0.51851,0.64843 0.74646,0.877566 1.49174,1.61812 2.61262,2.05986 2.20868,0.87166 5.52996,0.07795 7.36069,-0.7441 1.22836,-0.550398 3.08388,-1.75749 4.00987,-2.67404 0.81615,-0.80788 1.74568,-1.87915 2.30789,-2.88309 0.18307,-0.32953 0.28819,-0.683864 0.45355,-1.0382 0.18779,-0.405121 0.31181,-0.587012 0.43346,-1.05946 0.3189,-1.23308 0.45355,-1.47993 0.45355,-2.92089 0,-1.87324 -1.45041,-3.46656 -2.5949,-4.21775 -3.47601,-2.28309 -9.48905,-1.64293 -13.2296,-0.315357 -1.47521,0.524414 -3.83743,1.60631 -4.46224,3.19491 -0.15591,0.395672 -0.21969,1.44214 -0.21969,1.98781 z"
       id="path7666"
       inkscape:connector-curvature="0"
       style="fill:#333333" /><path
       class="fil1"
       d="m 224.1812,12.787992 c 0,1.79647 -0.25985,3.45475 -0.25985,5.25595 0.75355,-0.175986 3.76893,-2.75553 4.81775,-2.9705 l 14.3257,-2.8701 c -0.0992,-0.4252 -2.30907,-3.0933305 -2.4012,-3.4382205 -0.27992,0.0059 -5.66697,1.3523705 -6.17721,1.4799305 l -8.25479,1.99726 c -0.4311,0.108662 -1.76931,0.396854 -2.05041,0.545674 z"
       id="path7668"
       inkscape:connector-curvature="0"
       style="fill:#333333" /><path
       class="fil1"
       d="m 212.3063,46.398892 c 0.36969,-0.0083 0.53859,-0.129922 0.97323,-0.129922 1.54962,0 1.04765,-0.07205 2.50986,0.799613 0.51733,0.30827 1.16694,0.601186 1.82246,0.548036 1.22481,-0.100394 2.44963,-1.41261 3.32483,-1.41261 0.313,0 1.55552,0.507878 1.88151,0.583469 -0.0874,0.374412 -0.56575,0.725203 -0.82677,0.989772 -1.16458,1.17875 -2.42837,1.73623 -4.23429,1.73623 -1.21064,0 -2.70711,-0.36142 -3.45239,-0.830321 -0.57875,-0.363782 -1.15513,-1.03465 -1.58269,-1.59686 -0.17363,-0.229136 -0.26221,-0.458271 -0.41575,-0.687407 z m 5.38587,0.258663 c -0.73229,0 -1.06418,-0.461815 -1.71497,-0.751187 -1.43151,-0.6378 -1.83663,-0.615359 -3.34136,-0.475988 -0.34607,0.03307 -0.65788,0.125198 -1.0441,0.125198 0.091,-0.135828 0.13937,-0.14882 0.26929,-0.251577 0.27048,-0.216143 0.62363,-0.644887 0.85158,-0.900007 0.89174,-0.99922 0.71576,-1.83427 1.80946,-0.93544 0.55158,0.453547 1.5071,1.50237 2.19687,1.50237 0.88466,0 1.16221,-0.411027 1.73505,-0.989772 1.59332,-1.61104 1.65001,-1.06891 2.52876,-0.419295 l 1.88387,1.6193 c 0.19016,0.18071 0.81143,0.657879 0.92481,0.827959 -1.07954,0 -2.26301,-0.713391 -2.65986,-0.713391 -1.05001,0 -3.26814,1.36182 -3.4394,1.36182 z m -8.56542,0 c 0,0.900007 1.78702,-0.02362 2.27128,-0.06496 0.17835,0.767723 1.32757,2.14962 2.04687,2.69057 1.71497,1.29096 5.42012,1.61104 7.48943,0.421657 0.71693,-0.412208 1.8697,-1.4008 2.3386,-2.00789 0.16181,-0.210238 0.37559,-0.357877 0.45355,-0.649611 0.59764,0 2.46616,0.321262 2.46616,-0.324806 0,-0.527957 -0.64962,-0.597643 -1.15631,-0.920086 -1.45277,-0.923629 -1.78112,-1.42206 -3.01183,-2.56774 -0.40867,-0.381499 -1.60395,-1.3134 -2.25592,-1.3134 -0.30473,0 -0.67324,0.165356 -0.85631,0.311813 -0.20788,0.168899 -0.42048,0.413389 -0.62008,0.612997 -0.30709,0.307089 -1.27796,1.31694 -1.74214,1.06772 -0.0839,-0.04488 -0.27638,-0.187797 -0.35079,-0.240947 l -1.35237,-1.04765 c -1.98072,-1.6193 -1.76931,0.548036 -3.84806,2.20632 -0.313,0.249215 -0.75946,0.734651 -1.31576,1.14922 -0.31182,0.232679 -0.55631,0.317719 -0.55631,0.676777 z"
       id="path7670"
       inkscape:connector-curvature="0"
       style="fill:#333333" /><path
       class="fil1"
       d="m 217.3024,38.288192 3.11459,0 0,-2.07639 c 0,-0.150001 -0.0449,-0.194883 -0.1937,-0.194883 l -2.92089,0 0,2.27128 z"
       id="path7672"
       inkscape:connector-curvature="0"
       style="fill:#333333" /></g></svg>