<?xml version="1.0" encoding="UTF-8" standalone="no"?>
<svg
   xmlns:dc="http://purl.org/dc/elements/1.1/"
   xmlns:cc="http://creativecommons.org/ns#"
   xmlns:rdf="http://www.w3.org/1999/02/22-rdf-syntax-ns#"
   xmlns:svg="http://www.w3.org/2000/svg"
   xmlns="http://www.w3.org/2000/svg"
   xmlns:sodipodi="http://sodipodi.sourceforge.net/DTD/sodipodi-0.dtd"
   xmlns:inkscape="http://www.inkscape.org/namespaces/inkscape"
   version="1.1"
   id="Layer_1"
   x="0px"
   y="0px"
   width="100px"
   height="100px"
   viewBox="0 0 100 100"
   enable-background="new 0 0 100 100"
   xml:space="preserve"
   inkscape:version="0.48.4 r9939"
   sodipodi:docname="icon_10756.svg"><metadata
     id="metadata3118"><rdf:RDF><cc:Work
         rdf:about=""><dc:format>image/svg+xml</dc:format><dc:type
           rdf:resource="http://purl.org/dc/dcmitype/StillImage" /></cc:Work></rdf:RDF></metadata><defs
     id="defs3116" /><sodipodi:namedview
     pagecolor="#ffffff"
     bordercolor="#666666"
     borderopacity="1"
     objecttolerance="10"
     gridtolerance="10"
     guidetolerance="10"
     inkscape:pageopacity="0"
     inkscape:pageshadow="2"
     inkscape:window-width="1920"
     inkscape:window-height="1056"
     id="namedview3114"
     showgrid="false"
     inkscape:zoom="2.36"
     inkscape:cx="-0.42372881"
     inkscape:cy="50"
     inkscape:window-x="0"
     inkscape:window-y="24"
     inkscape:window-maximized="1"
     inkscape:current-layer="Layer_1" /><g
     id="g3110"
     style="fill:#333333"
     transform="matrix(0.91504197,0,0,0.91504197,4.9428358,4.5305836)"><path
       d="m 49.241,79.293 c 3.301,-0.012 4.079,0.98 5.372,-0.137 1.291,-1.119 2.46,-2.232 3.521,-3.33 -1.345,-1.744 0.773,-3.578 -0.056,-6.381 -2.617,-0.656 -5.678,-1.029 -8.947,-1.029 -3.169,0 -6.143,0.352 -8.711,0.969 -0.875,2.84 1.282,4.686 -0.073,6.441 1.062,1.098 2.232,2.211 3.523,3.33 1.292,1.117 2.072,0.125 5.371,0.137 l 0,0 z M 66.568,36.951 c -0.411,-3.495 -7.979,-4.357 -17.312,-4.357 -9.353,0 -16.957,0.865 -17.346,4.38 -0.065,2.01 -0.683,4.488 -2.395,8.205 -1.107,2.405 -1.505,6.41 -0.772,6.844 3.337,3.047 5.919,6.015 5.222,5.858 -0.943,-0.209 -2.717,-0.504 -3.895,-1.178 0,0 0.375,7.396 7.825,16.385 -0.321,-1.641 -2.183,-3.424 -0.494,-6.424 1.109,-1.965 2.367,-2.955 5.632,-4.297 1.323,-0.423 2.569,-0.522 2.971,0.725 0.363,1.144 -0.765,1.712 -0.765,1.712 -1.931,0.793 -3.142,1.629 -4.064,3.026 -0.228,0.349 -0.409,0.683 -0.546,1.004 0.864,-0.711 2.548,-1.551 4.31,-1.812 2.595,-0.385 3.779,0.129 4.257,0.707 0.474,-0.578 1.658,-1.092 4.253,-0.707 1.874,0.274 3.654,1.203 4.463,1.938 -0.145,-0.36 -0.342,-0.737 -0.604,-1.133 -0.92,-1.397 -2.138,-2.233 -4.065,-3.026 0,0 -1.13,-0.568 -0.765,-1.712 0.397,-1.247 1.646,-1.146 2.972,-0.725 3.266,1.342 4.524,2.332 5.63,4.297 1.689,3 -0.172,4.782 -0.492,6.424 7.45,-8.989 7.826,-16.385 7.826,-16.385 -1.178,0.674 -2.952,0.969 -3.896,1.178 -0.693,0.154 1.885,-2.812 5.224,-5.858 0.731,-0.437 0.334,-4.439 -0.773,-6.845 -1.718,-3.726 -2.337,-6.211 -2.401,-8.224 l 0,0 z M 28.191,38.115 14.674,13.694 c 6.434,-3.737 18.094,-8.167 35.018,-8.167 16.337,0 27.771,4.131 34.332,7.777 L 70.29,38.115 c 0.039,0.359 0.069,0.559 0.104,0.53 3.312,-3.242 3.812,-1.219 5.076,1.153 1.029,1.927 0.01,3.689 -1.41,6.831 -2.576,5.714 1.438,5.062 -3.06,8.6 0,0 -4.226,12.461 -9.812,19.858 1.404,2.541 -1.721,3.722 -0.006,6.533 1.987,3.248 -1.302,4.685 0.278,9.573 0.875,2.729 0.751,7.492 -0.149,7.666 0,0 -0.476,0.104 -0.459,-0.354 0.013,-0.241 -0.017,-0.948 -0.017,-0.948 -0.022,-1.636 -0.364,-3.736 -0.955,-5.207 -1.911,-4.771 1.271,-6.429 -0.942,-9.531 -1.521,-2.144 0.108,-3.465 0.021,-5.153 -3.197,3.168 -5.676,3.803 -5.676,3.803 h -4.046 -4.045 c 0,0 -2.476,-0.631 -5.677,-3.803 -0.089,1.688 1.543,3.012 0.018,5.153 -2.208,3.104 0.976,4.763 -0.94,9.531 -0.589,1.471 -0.93,3.573 -0.953,5.207 0,0 -0.025,0.707 -0.018,0.948 0.018,0.457 -0.457,0.354 -0.457,0.354 -0.9,-0.174 -1.027,-4.937 -0.147,-7.666 1.577,-4.892 -1.715,-6.325 0.272,-9.573 1.719,-2.812 -1.406,-3.992 -0.002,-6.533 -5.586,-7.397 -9.81,-19.858 -9.81,-19.858 -4.501,-3.537 -0.479,-2.886 -3.06,-8.6 -1.419,-3.142 -2.44,-4.904 -1.409,-6.831 1.261,-2.372 1.764,-4.396 5.076,-1.153 0.036,0.029 0.068,-0.171 0.106,-0.53 l 0,0 z m 21.05,34.805 c -3.447,-0.029 -3.725,-0.938 -3.727,-1.309 -0.002,-0.574 2.271,-0.705 3.727,-0.707 1.454,0.002 3.729,0.133 3.727,0.707 -0.003,0.371 -0.279,1.28 -3.727,1.309 l 0,0 z m -1.46,-26.787 c 0,0 -1.476,2.275 -5.431,-0.663 -4.271,-3.17 -4.88,-4.549 -7.74,-5.037 -1.543,-0.264 -2.456,0.516 -2.456,0.516 0,0 1.013,-5.785 4.856,-2.562 3.437,2.886 3.715,3.406 6.811,5.963 2.365,1.947 3.96,1.783 3.96,1.783 l 0,0 z M 37.91,47.929 C 34.689,46.023 34.4,44.588 34.4,44.588 l 10.771,3.566 c -1.962,0.701 -0.467,-0.225 -7.261,-0.225 l 0,0 z m 12.793,-1.796 c 0,0 1.595,0.164 3.955,-1.783 3.099,-2.557 3.376,-3.076 6.812,-5.963 3.844,-3.224 4.854,2.562 4.854,2.562 0,0 -0.914,-0.78 -2.455,-0.516 -2.856,0.488 -3.472,1.867 -7.74,5.037 -3.952,2.939 -5.426,0.663 -5.426,0.663 l 0,0 z m 9.867,1.796 c -6.793,0 -5.297,0.926 -7.26,0.226 l 10.771,-3.566 c 10e-4,-10e-4 -0.29,1.434 -3.511,3.34 l 0,0 z M 13.865,12.236 12.594,9.935 C 11.756,8.302 25.346,0.513 49.241,0.513 c 23.896,0 37.485,7.789 36.646,9.422 l -1.06,1.916 C 77.498,7.818 65.157,3.883 49.69,3.883 33.731,3.882 21.101,8.071 13.865,12.236 l 0,0 z"
       id="path3112"
       style="fill:#333333"
       inkscape:connector-curvature="0" /></g></svg>