<?xml version="1.0" encoding="UTF-8" standalone="no"?>
<svg
   xmlns:dc="http://purl.org/dc/elements/1.1/"
   xmlns:cc="http://creativecommons.org/ns#"
   xmlns:rdf="http://www.w3.org/1999/02/22-rdf-syntax-ns#"
   xmlns:svg="http://www.w3.org/2000/svg"
   xmlns="http://www.w3.org/2000/svg"
   xmlns:sodipodi="http://sodipodi.sourceforge.net/DTD/sodipodi-0.dtd"
   xmlns:inkscape="http://www.inkscape.org/namespaces/inkscape"
   version="1.1"
   id="Layer_1"
   x="0px"
   y="0px"
   width="100px"
   height="100px"
   viewBox="0 0 100 100"
   enable-background="new 0 0 100 100"
   xml:space="preserve"
   inkscape:version="0.48.4 r9939"
   sodipodi:docname="icon_4923.svg"><metadata
     id="metadata11"><rdf:RDF><cc:Work
         rdf:about=""><dc:format>image/svg+xml</dc:format><dc:type
           rdf:resource="http://purl.org/dc/dcmitype/StillImage" /></cc:Work></rdf:RDF></metadata><defs
     id="defs9" /><sodipodi:namedview
     pagecolor="#ffffff"
     bordercolor="#666666"
     borderopacity="1"
     objecttolerance="10"
     gridtolerance="10"
     guidetolerance="10"
     inkscape:pageopacity="0"
     inkscape:pageshadow="2"
     inkscape:window-width="1920"
     inkscape:window-height="1056"
     id="namedview7"
     showgrid="false"
     inkscape:zoom="2.36"
     inkscape:cx="-0.42372881"
     inkscape:cy="50"
     inkscape:window-x="0"
     inkscape:window-y="24"
     inkscape:window-maximized="1"
     inkscape:current-layer="Layer_1" /><g
     id="g3"
     style="fill:#333333"
     transform="matrix(0.9094308,0,0,0.9094308,4.8699626,4.6580539)"><path
       d="m 43.293,66.01 c -1.177,0.322 -1.862,0.816 -1.929,1.36 -0.171,1.416 1.099,1.622 2.722,1.688 h 11 c 1.623,-0.065 2.895,-0.271 2.723,-1.688 -0.064,-0.544 -0.75,-1.038 -1.929,-1.36 -0.571,-1.404 -3.147,-2.465 -6.323,-2.476 -3.106,0.007 -5.692,1.07 -6.264,2.476 l 0,0 z m -6.971,11.822 c -4.418,1.422 -2.508,8.818 1.91,7.395 1.346,-0.433 2.859,-0.724 4.495,-0.916 -0.801,-0.539 -1.428,-1.176 -1.828,-1.875 2.198,0.795 5.257,1.287 8.638,1.287 3.451,0 6.568,-0.514 8.775,-1.337 -0.392,0.704 -1.013,1.345 -1.808,1.892 1.722,0.19 3.312,0.492 4.737,0.949 4.419,1.424 6.328,-5.973 1.91,-7.395 -3.842,-1.236 -8.479,-1.938 -13.416,-1.938 -4.937,0 -9.57,0.702 -13.413,1.938 l 0,0 z M 31.048,44.628 C 18.545,44.463 17.854,39.575 17.854,44 c 0,4.42 0.767,16.627 13.193,16.648 5.538,0 10.101,-3.097 10.719,-7.084 -1.571,-0.789 -3.347,-1.526 -5.268,-2.174 0.508,0.65 0.749,1.502 0.594,2.379 -0.096,0.547 -0.334,1.029 -0.669,1.424 1.39,0.047 2.632,-0.037 3.628,-0.236 -0.896,1.271 -3.303,1.955 -6.113,1.589 -2.831,-0.366 -5.213,-1.688 -6.035,-3.196 0.952,0.452 2.151,0.858 3.502,1.176 -0.255,-0.543 -0.351,-1.166 -0.239,-1.801 0.196,-1.113 0.98,-1.975 1.977,-2.32 -4.012,-1.02 -7.755,-1.401 -10.632,-1.176 2.422,-2.417 7.528,-3.196 12.845,-1.671 2.357,0.676 4.439,1.714 6.094,2.951 -1.256,-3.392 -5.438,-5.881 -10.402,-5.881 l 0,0 z m 37.057,0 c -4.942,0 -9.108,2.467 -10.388,5.834 1.646,-1.217 3.705,-2.238 6.033,-2.906 5.315,-1.524 10.424,-0.746 12.845,1.671 -2.875,-0.225 -6.619,0.156 -10.632,1.176 0.997,0.346 1.781,1.207 1.979,2.32 0.109,0.635 0.016,1.258 -0.239,1.801 1.351,-0.316 2.549,-0.724 3.502,-1.176 -0.822,1.508 -3.205,2.829 -6.034,3.196 -2.811,0.366 -5.218,-0.317 -6.113,-1.589 0.996,0.199 2.237,0.283 3.627,0.236 -0.334,-0.395 -0.571,-0.877 -0.67,-1.424 -0.152,-0.877 0.088,-1.729 0.594,-2.379 -1.901,0.641 -3.664,1.372 -5.226,2.154 0.604,3.997 5.175,7.104 10.724,7.104 C 80.533,60.627 81.3,48.419 81.3,44 c 0,-4.425 -0.693,0.463 -13.195,0.628 l 0,0 z M 6.887,51.475 C 4.819,20.673 18.242,0.376 49.488,0.376 h 0.136 0.136 c 31.245,0 44.67,20.296 42.602,51.099 -1.67,24.858 -19.209,47.864 -42.737,47.864 -23.529,0 -41.07,-23.005 -42.738,-47.864 l 0,0 z m 24.292,-10.2 c 6.63,0.057 13.467,4.008 13.984,10.632 0.019,0.241 0.029,0.487 0.029,0.733 0,1.908 -0.496,3.551 -1.326,4.953 l -2.386,4.031 4.565,-1.044 c 1.306,-0.3 2.553,-0.399 3.508,-0.399 0.962,0.002 2.233,0.104 3.56,0.409 l 4.576,1.048 -2.396,-4.037 c -0.834,-1.404 -1.331,-3.051 -1.331,-4.961 0,-0.246 0.01,-0.492 0.027,-0.733 0.517,-6.607 7.32,-10.555 13.935,-10.631 9.343,-0.559 13.925,-10.34 12.3,-18.745 C 76.221,1.794 51.677,9.298 54.309,22.828 c 2.727,14.005 17.379,8.692 16.129,1.787 -1.312,-7.246 -7.541,-4.655 -6.101,-2.064 0,0 1.34,2.265 -0.42,3.266 -2.251,1.28 -3.503,-0.893 -3.503,-0.893 C 55.404,15.922 72.242,9.088 74.894,23.738 77.267,36.85 53.749,43.747 49.862,23.769 48.1,14.708 54.195,7.875 61.807,5.715 59.973,5.286 58.04,4.96 56.009,4.739 55.238,5.01 54.593,5.258 54.078,5.484 53.307,5.821 52.708,6.152 52.283,6.478 51.857,6.81 51.428,7.278 50.996,7.884 50.568,8.479 50.089,9.281 49.555,10.293 49.021,9.281 48.541,8.479 48.113,7.884 47.68,7.278 47.252,6.809 46.827,6.478 46.402,6.152 45.804,5.821 45.032,5.484 44.508,5.256 43.854,5.004 43.068,4.728 c -2.042,0.218 -3.981,0.542 -5.82,0.971 7.638,2.142 13.768,8.987 12,18.07 -3.888,19.979 -27.404,13.082 -25.03,-0.031 2.652,-14.65 19.49,-7.816 14.479,1.186 0,0 -1.252,2.172 -3.503,0.893 -1.76,-1.001 -0.42,-3.266 -0.42,-3.266 1.442,-2.59 -4.788,-5.181 -6.1,2.064 -1.25,6.905 13.402,12.219 16.128,-1.787 2.633,-13.53 -21.913,-21.034 -25.916,-0.297 -1.621,8.403 2.957,18.18 12.293,18.744 l 0,0 z M 26.217,63.402 C 18.017,61.221 14.501,53.335 14.501,44 c 0,-4.172 2.087,-5.61 5.044,-4.974 -3.529,-3.521 -5.584,-8.321 -5.497,-13.71 -2.817,7.124 -3.82,15.86 -3.147,25.888 0.491,7.313 2.412,14.526 5.442,21.002 0.386,-2.633 1.772,-5.115 4.025,-6.754 2.073,-1.511 4.061,-2.102 5.849,-2.05 l 0,0 z m 6.157,13.592 c 1.367,-1.258 3.479,-2.135 6.131,-2.762 l 3.739,-0.89 -2.859,-2.567 C 37.94,69.48 37.58,67.622 38.251,66.01 l 1.62,-3.883 -4.039,1.177 c -1.599,0.463 -3.239,0.697 -4.788,0.697 -0.891,-0.002 -1.742,-0.059 -2.554,-0.159 5.021,1.849 7.529,9.015 3.884,13.152 l 0,0 z M 72.945,63.4 c 1.764,-0.031 3.718,0.567 5.755,2.051 2.338,1.699 3.743,4.309 4.063,7.053 3.112,-6.551 5.084,-13.873 5.584,-21.301 0.676,-10.098 -0.381,-18.887 -3.289,-26.037 0.129,5.456 -1.937,10.316 -5.506,13.871 2.986,-0.665 5.1,0.766 5.1,4.962 0,9.334 -3.511,17.218 -11.707,19.401 l 0,0 z m -6.33,13.504 c -3.518,-4.141 -1.033,-11.189 3.922,-13.045 -0.773,0.092 -1.583,0.142 -2.428,0.144 -1.541,0 -3.17,-0.229 -4.758,-0.69 l -4.023,-1.162 1.605,3.867 c 0.666,1.604 0.293,3.465 -1.168,4.767 l -2.875,2.562 3.744,0.898 c 2.565,0.61 4.62,1.456 5.981,2.659 l 0,0 z m 5.131,-2.111 c -4.37,-1.327 -1.074,-9.27 4.367,-5.209 4.867,3.63 -0.653,13.979 -8.232,8.486 -0.214,-0.155 -0.415,-0.318 -0.604,-0.49 1.179,1.422 1.531,3.275 0.828,5.71 -1.06,3.673 -3.349,4.573 -6.701,4.554 -3.896,-0.025 -8.325,-1.261 -11.857,-1.261 -3.532,0 -7.961,1.235 -11.858,1.261 -3.353,0.021 -5.643,-0.881 -6.702,-4.554 -0.717,-2.487 -0.334,-4.366 0.908,-5.802 -0.218,0.203 -0.453,0.396 -0.707,0.582 -7.578,5.492 -13.099,-4.856 -8.232,-8.486 5.441,-4.061 8.737,3.882 4.367,5.209 0,0 -0.944,0.121 -1.257,-0.654 -0.313,-0.774 0.767,-1.285 0.767,-1.285 0.96,-0.293 0.603,-1.266 0.155,-1.896 -1.131,-1.593 -5.853,0.771 -3.066,5.125 2.707,4.229 11.516,-0.845 6.986,-8.008 -4.242,-6.704 -15.711,0.61 -12.197,8.651 7.056,12.107 18.204,20.681 30.915,20.681 12.278,0 23.101,-7.998 30.183,-19.458 5.199,-8.52 -7.195,-16.906 -11.645,-9.874 -4.53,7.163 4.279,12.237 6.986,8.008 2.787,-4.354 -1.937,-6.718 -3.065,-5.125 -0.45,0.631 -0.808,1.604 0.154,1.896 0,0 1.079,0.511 0.767,1.285 -0.317,0.775 -1.26,0.654 -1.26,0.654 l 0,0 z m -34.193,5.635 c 0.428,-1.023 3.333,-2.926 6.417,-3.408 3.412,-0.535 4.974,0.176 5.598,0.983 0.623,-0.808 2.186,-1.521 5.597,-0.983 3.134,0.49 6.083,2.446 6.437,3.457 -3.521,-0.966 -7.67,-1.524 -12.114,-1.524 -4.369,-0.002 -8.454,0.538 -11.935,1.475 l 0,0 z M 48.12,36.392 c 0.426,-0.761 0.906,-1.788 1.438,-3.083 0.532,1.295 1.012,2.322 1.438,3.083 0.43,0.775 0.857,1.375 1.281,1.799 0.425,0.416 1.021,0.84 1.789,1.271 0.769,0.431 1.82,0.926 3.156,1.486 -1.336,0.56 -2.389,1.056 -3.156,1.487 -0.77,0.432 -1.364,0.854 -1.789,1.271 -0.424,0.425 -0.853,1.024 -1.281,1.799 -0.426,0.761 -0.905,1.788 -1.438,3.083 -0.532,-1.295 -1.011,-2.322 -1.438,-3.083 -0.431,-0.775 -0.858,-1.375 -1.282,-1.799 -0.424,-0.417 -1.02,-0.839 -1.789,-1.271 -0.769,-0.431 -1.82,-0.927 -3.157,-1.487 1.337,-0.561 2.389,-1.056 3.157,-1.486 0.769,-0.432 1.365,-0.855 1.789,-1.271 0.424,-0.424 0.851,-1.024 1.282,-1.799 l 0,0 z"
       id="path5"
       style="fill:#333333"
       inkscape:connector-curvature="0" /></g></svg>