<?xml version="1.0" encoding="UTF-8" standalone="no"?>
<svg
   xmlns:dc="http://purl.org/dc/elements/1.1/"
   xmlns:cc="http://creativecommons.org/ns#"
   xmlns:rdf="http://www.w3.org/1999/02/22-rdf-syntax-ns#"
   xmlns:svg="http://www.w3.org/2000/svg"
   xmlns="http://www.w3.org/2000/svg"
   xmlns:sodipodi="http://sodipodi.sourceforge.net/DTD/sodipodi-0.dtd"
   xmlns:inkscape="http://www.inkscape.org/namespaces/inkscape"
   version="1.1"
   id="Your_Icon"
   x="0px"
   y="0px"
   width="100px"
   height="100px"
   viewBox="0 0 100 100"
   enable-background="new 0 0 100 100"
   xml:space="preserve"
   inkscape:version="0.48.4 r9939"
   sodipodi:docname="icon_21659.svg"><metadata
     id="metadata6296"><rdf:RDF><cc:Work
         rdf:about=""><dc:format>image/svg+xml</dc:format><dc:type
           rdf:resource="http://purl.org/dc/dcmitype/StillImage" /></cc:Work></rdf:RDF></metadata><defs
     id="defs6294" /><sodipodi:namedview
     pagecolor="#ffffff"
     bordercolor="#666666"
     borderopacity="1"
     objecttolerance="10"
     gridtolerance="10"
     guidetolerance="10"
     inkscape:pageopacity="0"
     inkscape:pageshadow="2"
     inkscape:window-width="1920"
     inkscape:window-height="1056"
     id="namedview6292"
     showgrid="false"
     inkscape:zoom="2.36"
     inkscape:cx="-0.42372881"
     inkscape:cy="50"
     inkscape:window-x="0"
     inkscape:window-y="24"
     inkscape:window-maximized="1"
     inkscape:current-layer="Your_Icon" /><g
     id="g6298"
     style="fill:#333333"
     transform="matrix(0.90868705,0,0,0.90868705,4.5651932,4.1312951)"><path
       style="fill:#333333"
       id="path6284"
       d="M 84.98,81.232 V 81.106 H 84.973 C 84.641,73.996 80.161,69.965 79.698,64.191 79.217,58.195 84.687,55.919 83.812,48.74 82.937,41.561 80.092,43.312 79.172,37.272 78.253,31.232 80.034,27.905 77.678,21.427 75.321,14.948 69.65,13.281 67.179,12.409 66.04,6.281 60.56,2.299 51.482,2.714 50.71,2.749 49.955,2.809 49.221,2.893 48.559,2.341 47.75,2.013 46.889,1.951 46.155,1.325 45.208,0.956 44.209,0.956 c -1,0 -1.947,0.368 -2.68,0.995 -0.987,0.072 -1.905,0.49 -2.611,1.197 C 38.21,3.856 37.8,4.789 37.726,5.753 37.276,6.279 36.959,6.915 36.815,7.601 36.482,7.514 36.136,7.468 35.782,7.468 35.577,7.468 35.376,7.483 35.177,7.513 34.423,6.5 33.217,5.869 31.92,5.869 c -1.296,0 -2.502,0.632 -3.256,1.645 -0.199,-0.03 -0.401,-0.045 -0.605,-0.045 -1.082,0 -2.099,0.421 -2.864,1.186 -0.917,0.917 -1.324,2.218 -1.14,3.467 -1.014,0.753 -1.646,1.96 -1.646,3.258 0,1.298 0.632,2.504 1.646,3.258 -0.184,1.249 0.222,2.55 1.14,3.467 0.019,0.02 0.04,0.038 0.06,0.057 -0.615,0.16 -1.18,0.479 -1.642,0.939 -0.567,0.566 -0.915,1.296 -1.021,2.062 -0.466,0.616 -0.736,1.379 -0.736,2.179 0,0.801 0.27,1.563 0.736,2.18 0.107,0.765 0.455,1.495 1.021,2.062 0.315,0.314 0.678,0.561 1.071,0.738 0.1,5.715 1.214,11.266 1.849,14.109 0.052,0.386 0.138,0.764 0.256,1.125 10e-4,0.006 0.003,0.014 0.005,0.021 0.801,3.469 3.131,7.294 6.14,8.071 1.121,2.446 2.539,4.583 4.215,6.33 0.407,0.425 0.828,0.823 1.263,1.2 h -0.055 c 0,5.14 -1.519,9.248 -4.514,12.21 -4.903,4.848 -12.753,5.785 -18.469,5.724 -0.148,-0.002 -0.271,-0.004 -0.368,-0.004 v 2.364 c 0.089,0 0.205,0.001 0.342,0.003 0.21,0.002 0.477,0.006 0.794,0.006 1.613,0 4.513,-0.078 7.722,-0.72 1.525,-0.306 2.956,-0.701 4.288,-1.187 C 24.231,89.55 22.364,100 22.364,100 h 6.979 c 0,0 0.612,-14.467 3.845,-21.007 0.839,-0.587 1.611,-1.229 2.316,-1.926 3.123,-3.088 4.856,-7.195 5.165,-12.226 2.757,1.71 5.921,2.599 9.338,2.599 3.407,0 6.563,-0.884 9.315,-2.585 0.348,5.162 2.318,9.498 5.751,12.611 0.608,0.552 1.263,1.063 1.959,1.54 2.524,2.579 5.125,9.296 5.125,20.993 2.417,0 0.133,0 5.521,0 0,-8.387 -3.544,-15.262 -5.508,-18.429 3.581,1.263 7.862,1.899 12.81,1.899 v -1.525 c 0.006,0 0.01,-0.001 0.015,-0.002 0,-0.239 -0.005,-0.477 -0.015,-0.71 z M 40.228,6.79 C 39.936,6.141 40.057,5.352 40.59,4.819 c 0.344,-0.344 0.796,-0.516 1.247,-0.516 0.248,0 0.495,0.052 0.724,0.154 0.252,-0.665 0.896,-1.138 1.649,-1.138 0.753,0 1.396,0.473 1.648,1.138 0.23,-0.103 0.477,-0.154 0.724,-0.154 0.452,0 0.902,0.172 1.247,0.516 0.533,0.534 0.653,1.322 0.362,1.971 0.665,0.252 1.138,0.895 1.138,1.649 0,0.754 -0.473,1.396 -1.138,1.649 0.292,0.648 0.171,1.438 -0.362,1.97 -0.344,0.344 -0.795,0.517 -1.247,0.517 -0.247,0 -0.494,-0.052 -0.724,-0.155 -0.252,0.665 -0.896,1.138 -1.648,1.138 -0.754,0 -1.397,-0.473 -1.649,-1.138 -0.229,0.104 -0.477,0.155 -0.724,0.155 -0.451,0 -0.902,-0.172 -1.247,-0.517 -0.533,-0.533 -0.653,-1.322 -0.362,-1.97 C 39.563,9.835 39.09,9.192 39.09,8.439 c 0,-0.753 0.473,-1.397 1.138,-1.649 z m -15.455,8.589 c 0,-0.697 0.438,-1.331 1.089,-1.578 l 1.173,-0.445 -0.515,-1.144 c -0.286,-0.636 -0.147,-1.394 0.346,-1.886 0.319,-0.318 0.743,-0.494 1.193,-0.494 0.238,0 0.479,0.051 0.693,0.148 l 1.144,0.514 0.445,-1.172 c 0.248,-0.652 0.882,-1.089 1.578,-1.089 0.697,0 1.331,0.437 1.579,1.089 l 0.445,1.172 1.144,-0.514 c 0.219,-0.098 0.452,-0.148 0.694,-0.148 0.45,0 0.874,0.175 1.192,0.494 0.493,0.493 0.631,1.25 0.346,1.886 l -0.514,1.144 1.173,0.445 c 0.651,0.248 1.089,0.881 1.089,1.578 0,0.696 -0.438,1.331 -1.089,1.578 l -1.173,0.446 0.514,1.144 c 0.286,0.635 0.147,1.393 -0.346,1.885 -0.319,0.318 -0.742,0.494 -1.192,0.494 -0.238,0 -0.479,-0.051 -0.694,-0.148 l -1.144,-0.514 -0.445,1.172 c -0.248,0.651 -0.882,1.089 -1.579,1.089 -0.696,0 -1.331,-0.438 -1.578,-1.089 l -0.445,-1.172 -1.144,0.514 c -0.218,0.098 -0.451,0.148 -0.693,0.148 -0.45,0 -0.874,-0.176 -1.193,-0.494 -0.492,-0.492 -0.631,-1.25 -0.346,-1.886 l 0.515,-1.144 -1.173,-0.446 C 25.211,16.71 24.773,16.076 24.773,15.379 z M 24.22,27.341 c 0,-0.535 0.335,-0.991 0.807,-1.17 -0.207,-0.46 -0.122,-1.02 0.257,-1.398 0.244,-0.245 0.565,-0.367 0.885,-0.367 0.175,0 0.351,0.037 0.514,0.11 0.179,-0.472 0.635,-0.808 1.17,-0.808 0.536,0 0.992,0.335 1.171,0.808 0.163,-0.073 0.338,-0.11 0.515,-0.11 0.32,0 0.64,0.122 0.884,0.367 0.378,0.378 0.464,0.938 0.257,1.398 0.272,0.104 0.499,0.3 0.642,0.55 0.055,0.43 0.05,0.862 -0.018,1.273 -0.144,0.235 -0.363,0.419 -0.624,0.519 0.149,0.333 0.144,0.716 -0.012,1.047 -0.111,0.161 -0.233,0.313 -0.365,0.456 -0.225,0.174 -0.494,0.262 -0.764,0.262 -0.176,0 -0.352,-0.037 -0.515,-0.11 -0.179,0.472 -0.635,0.808 -1.171,0.808 -0.535,0 -0.991,-0.336 -1.17,-0.808 -0.163,0.073 -0.338,0.11 -0.514,0.11 -0.32,0 -0.641,-0.122 -0.885,-0.367 C 24.906,29.533 24.82,28.973 25.027,28.512 24.555,28.333 24.22,27.877 24.22,27.341 z m 25.787,37.718 c -9.089,0 -14.974,-7.029 -16.934,-16.757 l -2.12,0.21 c -0.041,0.004 -0.082,0.005 -0.123,0.005 -0.952,0 -1.815,-1.104 -1.958,-2.545 l -0.519,-5.214 c -0.15,-1.502 0.54,-2.801 1.54,-2.901 l 0.454,-0.044 c 0.131,-0.006 0.276,-0.02 0.44,-0.044 0.002,0 0.003,0 0.004,0 l 0.224,-0.022 c 1.915,-0.117 2.17,2.02 2.131,4.122 5.931,-7.397 2.254,-11.074 3.217,-14.959 0.927,-3.738 3.474,-3.576 3.899,-7.956 0.803,0.539 1.947,0.922 3.579,0.974 6.307,0.2 13.891,2.021 15.992,6.399 2.882,5.693 0.348,9.781 1.317,15.637 0.499,3.009 3.155,5.464 5.622,7.127 -2.115,9.316 -7.922,15.968 -16.765,15.968 z"
       inkscape:connector-curvature="0" /><circle
       style="fill:#333333"
       id="circle6286"
       r="3.3499999"
       cy="15.379"
       cx="31.92"
       sodipodi:cx="31.92"
       sodipodi:cy="15.379"
       sodipodi:rx="3.3499999"
       sodipodi:ry="3.3499999"
       d="m 35.27,15.379 c 0,1.850154 -1.499846,3.35 -3.35,3.35 -1.850154,0 -3.35,-1.499846 -3.35,-3.35 0,-1.850154 1.499846,-3.35 3.35,-3.35 1.850154,0 3.35,1.499846 3.35,3.35 z" /><circle
       style="fill:#333333"
       id="circle6288"
       r="2.059"
       cy="8.4390001"
       cx="44.209"
       sodipodi:cx="44.209"
       sodipodi:cy="8.4390001"
       sodipodi:rx="2.059"
       sodipodi:ry="2.059"
       d="m 46.268,8.4390001 c 0,1.1371543 -0.921846,2.0589999 -2.059,2.0589999 -1.137155,0 -2.059,-0.9218456 -2.059,-2.0589999 0,-1.1371543 0.921845,-2.059 2.059,-2.059 1.137154,0 2.059,0.9218457 2.059,2.059 z" /><circle
       style="fill:#333333"
       id="circle6290"
       r="1.462"
       cy="27.341999"
       cx="27.853001"
       sodipodi:cx="27.853001"
       sodipodi:cy="27.341999"
       sodipodi:rx="1.462"
       sodipodi:ry="1.462"
       d="m 29.315001,27.341999 c 0,0.80744 -0.65456,1.462 -1.462,1.462 -0.807441,0 -1.462,-0.65456 -1.462,-1.462 0,-0.80744 0.654559,-1.462 1.462,-1.462 0.80744,0 1.462,0.65456 1.462,1.462 z" /></g></svg>