<?xml version="1.0" encoding="UTF-8" standalone="no"?>
<svg
   xmlns:dc="http://purl.org/dc/elements/1.1/"
   xmlns:cc="http://creativecommons.org/ns#"
   xmlns:rdf="http://www.w3.org/1999/02/22-rdf-syntax-ns#"
   xmlns:svg="http://www.w3.org/2000/svg"
   xmlns="http://www.w3.org/2000/svg"
   xmlns:sodipodi="http://sodipodi.sourceforge.net/DTD/sodipodi-0.dtd"
   xmlns:inkscape="http://www.inkscape.org/namespaces/inkscape"
   version="1.1"
   id="Layer_1"
   x="0px"
   y="0px"
   viewBox="0 0 100 100"
   enable-background="new 0 0 100 100"
   xml:space="preserve"
   height="100px"
   width="100px"
   inkscape:version="0.48.4 r9939"
   sodipodi:docname="icon_57613.svg"><metadata
     id="metadata25"><rdf:RDF><cc:Work
         rdf:about=""><dc:format>image/svg+xml</dc:format><dc:type
           rdf:resource="http://purl.org/dc/dcmitype/StillImage" /></cc:Work></rdf:RDF></metadata><defs
     id="defs23" /><sodipodi:namedview
     pagecolor="#ffffff"
     bordercolor="#666666"
     borderopacity="1"
     objecttolerance="10"
     gridtolerance="10"
     guidetolerance="10"
     inkscape:pageopacity="0"
     inkscape:pageshadow="2"
     inkscape:window-width="1920"
     inkscape:window-height="1056"
     id="namedview21"
     showgrid="false"
     inkscape:zoom="2.36"
     inkscape:cx="-0.42372881"
     inkscape:cy="50"
     inkscape:window-x="0"
     inkscape:window-y="24"
     inkscape:window-maximized="1"
     inkscape:current-layer="Layer_1" /><g
     id="g3002"
     style="fill:#333333"
     transform="matrix(1.0458096,0,0,1.0458096,-2.2457208,-5.0116766)"><path
       id="path3"
       d="m 42.166,80.057 c -0.129,-0.266 -0.252,-0.432 -0.379,-0.64 -0.127,-0.198 -0.273,-0.368 -0.41,-0.553 -0.263,-0.378 -0.601,-0.673 -0.9,-1.01 -0.309,-0.326 -0.668,-0.59 -1,-0.886 C 39.152,76.66 38.76,76.449 38.4,76.194 L 37.85,75.827 C 37.672,75.695 37.464,75.619 37.272,75.513 L 36.099,74.921 C 35.71,74.719 35.286,74.61 34.881,74.451 l -1.227,-0.439 c -0.301,-0.107 -0.636,0.042 -0.755,0.341 -0.122,0.306 0.028,0.653 0.334,0.775 l 0.066,0.026 1.136,0.452 c 0.373,0.162 0.77,0.274 1.121,0.474 l 1.063,0.582 c 0.172,0.104 0.365,0.177 0.521,0.305 l 0.488,0.351 c 0.317,0.243 0.671,0.443 0.949,0.729 0.285,0.275 0.603,0.521 0.863,0.816 0.115,0.141 0.24,0.274 0.363,0.41 0,0 -0.94,-0.062 -1.29,-0.064 -0.349,10e-4 -0.7,-0.013 -1.043,0.016 -1.385,0.054 -2.736,0.228 -4.091,0.463 -0.316,0.055 -0.534,0.351 -0.49,0.671 0.045,0.327 0.347,0.556 0.674,0.511 l 0.007,-0.001 c 0.658,-0.091 1.304,-0.153 1.965,-0.204 0.658,-0.048 1.314,-0.076 1.966,-0.076 0.328,-0.015 0.649,0.014 0.972,0.026 0.322,0.016 0.648,0.02 0.954,0.077 l 0.465,0.065 c 0.151,0.028 0.32,0.027 0.455,0.079 l 0.838,0.249 10e-4,0 0.135,0.032 c 0.162,0.038 0.338,0.023 0.5,-0.055 0.371,-0.184 0.526,-0.633 0.345,-1.005 z"
       style="fill:#333333"
       inkscape:connector-curvature="0" /><path
       id="path5"
       d="m 67.1,79.686 c -1.354,-0.235 -2.706,-0.409 -4.091,-0.463 -0.343,-0.029 -0.694,-0.014 -1.043,-0.016 -0.35,0.003 -1.29,0.064 -1.29,0.064 0.122,-0.136 0.248,-0.269 0.363,-0.41 0.26,-0.295 0.577,-0.541 0.863,-0.816 0.277,-0.286 0.631,-0.486 0.949,-0.729 l 0.488,-0.351 c 0.156,-0.127 0.348,-0.201 0.521,-0.305 l 1.063,-0.582 c 0.352,-0.2 0.749,-0.313 1.121,-0.474 l 1.136,-0.452 0.067,-0.027 c 0.297,-0.118 0.449,-0.452 0.34,-0.755 -0.111,-0.31 -0.452,-0.471 -0.763,-0.36 l -1.227,0.439 c -0.405,0.159 -0.829,0.268 -1.218,0.47 l -1.173,0.592 c -0.192,0.106 -0.4,0.182 -0.578,0.314 l -0.55,0.367 c -0.36,0.255 -0.752,0.466 -1.077,0.774 -0.332,0.296 -0.691,0.561 -1,0.886 -0.299,0.337 -0.636,0.632 -0.9,1.01 -0.136,0.185 -0.282,0.355 -0.409,0.553 -0.127,0.208 -0.25,0.375 -0.379,0.64 -0.073,0.15 -0.097,0.326 -0.055,0.5 0.095,0.403 0.499,0.652 0.902,0.557 l 0.134,-0.032 0.001,0 0.839,-0.249 c 0.135,-0.052 0.304,-0.051 0.455,-0.079 l 0.466,-0.065 c 0.306,-0.057 0.632,-0.061 0.954,-0.077 0.323,-0.012 0.643,-0.041 0.972,-0.026 0.653,0 1.309,0.028 1.966,0.076 0.661,0.051 1.307,0.114 1.965,0.204 l 0.008,10e-4 c 0.318,0.043 0.615,-0.172 0.67,-0.491 0.053,-0.322 -0.165,-0.632 -0.49,-0.688 z"
       style="fill:#333333"
       inkscape:connector-curvature="0" /><path
       id="path7"
       d="m 50.478,86.849 c -1.332,0 -2.336,-1.945 -2.336,-4.524 0,-0.212 0.007,-0.42 0.021,-0.624 0.011,-0.154 0.091,-0.296 0.219,-0.385 0.128,-0.089 0.288,-0.113 0.438,-0.07 1.021,0.307 2.288,0.33 3.344,0.064 0.148,-0.037 0.304,-0.007 0.427,0.083 0.122,0.09 0.199,0.23 0.208,0.382 0.011,0.18 0.017,0.364 0.017,0.55 0,2.579 -1.005,4.524 -2.338,4.524 z m -1.315,-4.467 c 0.014,2.106 0.784,3.446 1.315,3.446 0.528,0 1.292,-1.322 1.316,-3.402 -0.859,0.136 -1.792,0.121 -2.631,-0.044 z"
       style="fill:#333333"
       inkscape:connector-curvature="0" /><path
       id="path9"
       d="m 54.007,40.663 c -0.151,-0.211 -0.445,-0.259 -0.659,-0.108 -0.946,0.679 -2.259,1.395 -3.14,0.941 -0.317,-0.163 -0.547,-0.468 -0.722,-0.821 1.004,-0.336 1.668,-1.161 1.541,-2.013 -0.149,-0.988 -1.306,-1.633 -2.584,-1.441 -1.278,0.192 -2.194,1.149 -2.046,2.137 0.111,0.744 0.795,1.292 1.671,1.437 -0.125,0.363 -0.309,0.688 -0.595,0.89 -0.811,0.572 -2.21,0.044 -3.241,-0.499 -0.233,-0.124 -0.517,-0.033 -0.637,0.197 -0.121,0.231 -0.033,0.516 0.197,0.637 1.082,0.569 2.02,0.855 2.804,0.855 0.549,0 1.024,-0.14 1.421,-0.42 0.371,-0.262 0.63,-0.621 0.813,-1.017 0.235,0.367 0.541,0.688 0.945,0.896 0.322,0.166 0.676,0.249 1.061,0.249 0.868,0 1.894,-0.421 3.064,-1.261 0.211,-0.152 0.259,-0.447 0.107,-0.659 z"
       style="fill:#333333"
       inkscape:connector-curvature="0" /><path
       id="path11"
       d="M 91.65,16.247 C 95.028,23.905 91.286,34.251 88.312,40.461 85.533,35.001 81.369,30.274 76.194,26.613 77.228,20.524 88.53,17.085 91.65,16.247 z"
       style="fill:#333333"
       inkscape:connector-curvature="0" /><path
       id="path13"
       d="m 77.731,14.325 c 1.453,-0.252 2.922,-0.382 4.407,-0.382 2.8,0 5.142,0.474 6.815,0.962 -4.573,1.451 -12.839,4.803 -14.56,10.464 -2.009,-1.271 -6.037,-3.633 -9.996,-4.851 2.344,-1.789 7.238,-5.01 13.334,-6.193 z"
       style="fill:#333333"
       inkscape:connector-curvature="0" /><path
       id="path15"
       d="m 17.777,13.943 c 1.458,0 2.901,0.124 4.329,0.367 6.122,1.172 11.052,4.413 13.409,6.209 -1.906,0.587 -3.808,1.439 -5.512,2.307 -1.348,0.658 -2.644,1.386 -3.889,2.176 0,0 -0.416,0.256 -0.593,0.368 -1.721,-5.66 -9.983,-9.012 -14.557,-10.463 1.669,-0.489 3.994,-0.964 6.813,-0.964 z"
       style="fill:#333333"
       inkscape:connector-curvature="0" /><path
       id="path17"
       d="m 8.268,16.24 c 4.707,1.222 14.518,4.896 15.435,10.423 -5.112,3.812 -9.145,8.785 -11.721,14.578 C 8.963,35.146 4.738,24.23 8.268,16.24 z"
       style="fill:#333333"
       inkscape:connector-curvature="0" /><path
       id="path19"
       d="m 49.573,20.493 c -22.092,0 -38.751,15.511 -38.751,36.08 0,20.423 15.935,34.688 38.751,34.688 23.123,0 40.561,-14.912 40.561,-34.688 0,-20.231 -17.816,-36.08 -40.561,-36.08 z m 15.722,9.473 c 0.692,-0.123 1.365,0.012 1.94,0.32 1.82,0.058 3.229,-0.518 3.229,-0.518 -0.679,1.069 -1.288,1.726 -1.831,2.097 0.065,0.172 0.119,0.35 0.152,0.537 0.291,1.636 -0.799,3.199 -2.436,3.49 -1.636,0.291 -3.199,-0.799 -3.49,-2.436 -0.291,-1.636 0.8,-3.198 2.436,-3.49 z m -16.171,5.16 c 6.769,0 12.275,4.034 12.275,8.992 0,0.174 -0.015,0.35 -0.03,0.527 -2.527,-0.748 -5.239,-1.267 -8.111,-1.52 -1.139,-0.132 -2.223,-0.107 -3.359,-0.169 -1.21,0.007 -2.342,0.07 -3.535,0.137 -2.353,0.258 -4.765,0.587 -7.126,1.328 -0.78,0.19 -1.537,0.471 -2.296,0.761 -0.058,-0.354 -0.094,-0.71 -0.094,-1.064 0,-4.958 5.507,-8.992 12.276,-8.992 z M 28.483,32.784 c 0.573,-0.312 1.245,-0.451 1.938,-0.333 1.638,0.281 2.739,1.836 2.458,3.475 -0.281,1.638 -1.836,2.739 -3.474,2.458 -1.638,-0.281 -2.739,-1.836 -2.458,-3.474 0.032,-0.188 0.085,-0.366 0.149,-0.538 -0.545,-0.368 -1.159,-1.021 -1.844,-2.085 -10e-4,0 1.411,0.567 3.231,0.497 z m -4.798,26.688 c 0.867,-2.281 2.283,-4.313 3.919,-6.078 1.642,-1.768 3.561,-3.269 5.653,-4.414 l 0.771,-0.448 c 0.264,-0.136 0.538,-0.254 0.805,-0.381 0.54,-0.246 1.069,-0.51 1.611,-0.74 1.115,-0.387 2.192,-0.856 3.33,-1.119 2.229,-0.679 4.519,-0.966 6.75,-1.193 1.11,-0.054 2.262,-0.097 3.305,-0.103 1.116,0.054 2.267,0.026 3.313,0.147 4.224,0.349 8.242,1.343 11.648,2.813 3.418,1.47 6.269,3.417 8.365,5.546 2.112,2.126 3.422,4.412 4.231,6.378 0.334,1.012 0.699,1.898 0.81,2.726 0.131,0.658 0.263,1.23 0.311,1.732 -2.868,2.959 -5.645,3.305 -6.942,3.268 0.196,-6.62 -3.511,-10.169 -3.674,-10.323 -0.25,-0.236 -0.628,-0.274 -0.921,-0.095 -0.294,0.179 -0.432,0.531 -0.339,0.861 1.387,4.932 1.209,9.16 0.586,9.575 -2.042,1.206 -4.786,1.818 -8.156,1.818 -2.53,0 -4.61,-0.363 -5.145,-0.465 -0.86,-0.707 -1.902,-5.715 -2.357,-11.387 -0.024,-0.302 -0.224,-0.561 -0.51,-0.662 -0.287,-0.099 -0.604,-0.022 -0.811,0.199 -1.665,1.776 -0.579,9.084 -0.03,12.167 -1.071,0.312 -2.267,0.47 -3.566,0.47 -4.23,0 -8.411,-1.673 -9.591,-2.184 -0.493,-2.537 0.601,-7.693 1.088,-9.546 0.095,-0.361 -0.084,-0.737 -0.424,-0.891 -0.341,-0.155 -0.742,-0.042 -0.95,0.267 -3.26,4.804 -3.349,7.513 -3.351,9.672 -0.059,0.009 -0.144,0.017 -0.26,0.017 -2.952,0 -9.784,-3.557 -10.337,-4.73 0.22,-0.981 0.496,-1.948 0.868,-2.897 z m 54.861,8.753 c -0.101,1.182 -0.416,2.732 -1.158,4.782 -0.84,1.974 -2.177,4.268 -4.263,6.466 -2.07,2.202 -4.87,4.286 -8.268,5.891 -3.39,1.612 -7.367,2.76 -11.669,3.175 -1.074,0.113 -2.172,0.115 -3.279,0.166 -1.072,-0.047 -2.266,-0.062 -3.384,-0.163 -1.116,-0.154 -2.249,-0.207 -3.381,-0.471 -0.567,-0.11 -1.137,-0.221 -1.709,-0.333 -0.561,-0.156 -3.371,-1.013 -3.371,-1.013 -0.554,-0.206 -1.11,-0.413 -1.667,-0.62 -1.065,-0.526 -2.185,-0.966 -3.196,-1.62 -1.063,-0.568 -2.019,-1.305 -3.003,-2.012 -0.906,-0.798 -1.86,-1.561 -2.643,-2.494 -1.626,-1.796 -3.023,-3.856 -3.871,-6.157 -0.869,-2.284 -1.347,-4.725 -1.363,-7.19 0.009,-0.834 0.08,-1.646 0.182,-2.448 2.581,2.205 8.455,4.45 10.651,4.45 0,0 0,0 0,0 0.465,0 0.833,-0.079 1.123,-0.239 0.425,-0.236 0.668,-0.647 0.668,-1.13 0,-1.28 0,-2.666 0.718,-4.599 -0.282,2.026 -0.415,4.222 -0.006,5.67 0.06,0.211 0.208,0.387 0.407,0.482 0.212,0.101 5.254,2.481 10.578,2.481 1.731,0 3.313,-0.257 4.702,-0.763 0.352,-0.128 0.56,-0.493 0.49,-0.861 -0.195,-1.033 -0.369,-2.11 -0.512,-3.174 0.481,1.898 1.113,3.427 1.935,3.874 0.065,0.035 0.134,0.06 0.206,0.076 0.101,0.021 2.498,0.525 5.597,0.525 3.648,0 6.654,-0.684 8.934,-2.031 1.424,-0.841 1.389,-4.197 0.946,-7.271 0.699,1.622 1.256,3.826 1.059,6.566 -0.027,0.378 0.226,0.719 0.596,0.802 0.143,0.033 3.938,0.832 8.049,-2.727 0.005,0.076 0.008,0.113 0.009,0.12 -0.009,0.155 -0.045,0.766 -0.107,1.79 z"
       style="fill:#333333"
       inkscape:connector-curvature="0" /></g></svg>