<?xml version="1.0" encoding="UTF-8" standalone="no"?>
<!-- Generator: Adobe Illustrator 15.1.0, SVG Export Plug-In . SVG Version: 6.00 Build 0)  -->

<svg
   xmlns:dc="http://purl.org/dc/elements/1.1/"
   xmlns:cc="http://creativecommons.org/ns#"
   xmlns:rdf="http://www.w3.org/1999/02/22-rdf-syntax-ns#"
   xmlns:svg="http://www.w3.org/2000/svg"
   xmlns="http://www.w3.org/2000/svg"
   xmlns:sodipodi="http://sodipodi.sourceforge.net/DTD/sodipodi-0.dtd"
   xmlns:inkscape="http://www.inkscape.org/namespaces/inkscape"
   version="1.1"
   id="Layer_1"
   x="0px"
   y="0px"
   width="100px"
   height="99.864px"
   viewBox="0 0 100 99.864"
   enable-background="new 0 0 100 99.864"
   xml:space="preserve"
   inkscape:version="0.48.4 r9939"
   sodipodi:docname="icon_12487.svg"><metadata
     id="metadata3793"><rdf:RDF><cc:Work
         rdf:about=""><dc:format>image/svg+xml</dc:format><dc:type
           rdf:resource="http://purl.org/dc/dcmitype/StillImage" /></cc:Work></rdf:RDF></metadata><defs
     id="defs3791" /><sodipodi:namedview
     pagecolor="#ffffff"
     bordercolor="#666666"
     borderopacity="1"
     objecttolerance="10"
     gridtolerance="10"
     guidetolerance="10"
     inkscape:pageopacity="0"
     inkscape:pageshadow="2"
     inkscape:window-width="1920"
     inkscape:window-height="1056"
     id="namedview3789"
     showgrid="false"
     inkscape:zoom="2.363214"
     inkscape:cx="-0.35515174"
     inkscape:cy="49.931999"
     inkscape:window-x="0"
     inkscape:window-y="24"
     inkscape:window-maximized="1"
     inkscape:current-layer="Layer_1" /><g
     id="g3795"
     style="fill:#333333"
     transform="matrix(1.0369739,0,0,1.0369739,-0.77061563,-8.691764)"><path
       id="path3775"
       d="m 36.64,65.674 c 2.178,5.562 7.25,9.508 13.582,9.508 6.333,0 11.408,-3.945 13.583,-9.508 H 36.64 z"
       style="fill:#333333"
       inkscape:connector-curvature="0" /><path
       id="path3777"
       d="m 43.432,47.339 c 0,2.625 -2.128,4.753 -4.754,4.753 -2.626,0 -4.754,-2.128 -4.754,-4.753 0,-2.627 2.128,-4.755 4.754,-4.755 2.626,0 4.754,2.127 4.754,4.755"
       style="fill:#333333"
       inkscape:connector-curvature="0" /><path
       id="path3779"
       d="m 66.521,47.339 c 0,2.625 -2.127,4.753 -4.754,4.753 -2.625,0 -4.754,-2.128 -4.754,-4.753 0,-2.627 2.129,-4.755 4.754,-4.755 2.628,0 4.754,2.127 4.754,4.755"
       style="fill:#333333"
       inkscape:connector-curvature="0" /><path
       id="path3781"
       d="m 86.676,66.817 c 1.694,-1.695 4.326,-8.859 0,-13.188 -1.986,-1.988 -1.17,-4.045 -0.304,-6.227 0.162,-0.409 0.324,-0.815 0.465,-1.217 0.711,-2.024 1.841,-7.083 -2.982,-10.297 -4.225,-2.817 -4.478,-4.319 -4.77,-6.057 -0.09,-0.549 -0.184,-1.114 -0.396,-1.742 -1.625,-4.882 -4.947,-7.255 -10.151,-7.255 h -0.141 c -2.2,0 -5.417,-0.363 -7.929,-3.506 -2.163,-2.701 -5.841,-4.19 -10.36,-4.19 -4.974,0 -10.915,1.994 -13.596,5.81 l 2.186,4.007 1.747,3.202 c 0.309,0.563 0.448,1.182 0.475,1.803 0.038,0.814 -0.138,1.633 -0.574,2.35 -0.38,0.621 -0.916,1.13 -1.553,1.479 -0.636,0.346 -1.357,0.521 -2.087,0.506 l -3.374,-0.079 -5.127,-0.123 c -0.463,0.525 -1.003,0.993 -1.65,1.347 -0.62,0.339 -1.298,0.561 -1.992,0.669 l -4.406,7.227 c -0.105,0.169 -0.246,0.308 -0.373,0.461 -0.337,0.404 -0.718,0.765 -1.181,1.016 -0.637,0.348 -1.354,0.522 -2.09,0.508 -1.475,-0.037 -2.834,-0.862 -3.542,-2.162 l -0.52,-0.956 c -0.854,2.492 -0.238,5.014 0.216,6.304 0.141,0.4 0.299,0.805 0.465,1.216 0.866,2.182 1.685,4.24 -0.306,6.228 -4.324,4.326 -1.693,11.492 0,13.186 0.857,0.855 2.61,3.256 0.379,7.002 -2.751,4.619 -2.271,9.422 -0.576,12.131 2.884,4.605 0.083,11.293 0.055,11.359 -0.093,0.217 -0.067,0.467 0.069,0.66 0.138,0.193 0.363,0.305 0.6,0.285 2.409,-0.154 4.167,-1.754 5.056,-2.779 1.958,2.869 5.619,4.053 5.789,4.105 0.064,0.02 0.127,0.029 0.19,0.029 0.196,0 0.385,-0.09 0.521,-0.244 0.176,-0.203 0.209,-0.508 0.093,-0.752 -0.205,-0.422 -0.051,-2.477 0.238,-4.49 0.727,0.955 1.056,2.65 1.118,3.32 0.025,0.234 0.169,0.441 0.383,0.543 0.212,0.105 0.467,0.09 0.66,-0.037 0.181,-0.117 4.362,-2.902 1.505,-10.344 -1.73,-4.508 -1.195,-5.66 -0.094,-7.311 0.402,-0.6 0.711,-1.197 0.954,-1.791 5.594,4.52 12.709,7.23 20.461,7.23 7.483,0 14.373,-2.525 19.876,-6.768 0.173,0.338 0.366,0.676 0.592,1.014 1.101,1.65 1.639,2.805 -0.092,7.311 -2.859,7.439 1.321,10.229 1.502,10.344 0.202,0.129 0.452,0.145 0.663,0.037 0.213,-0.102 0.358,-0.309 0.378,-0.545 0.065,-0.666 0.394,-2.365 1.123,-3.32 0.289,2.014 0.44,4.07 0.238,4.492 -0.13,0.242 -0.101,0.541 0.077,0.752 0.175,0.211 0.46,0.301 0.727,0.215 0.171,-0.055 3.832,-1.236 5.788,-4.105 0.89,1.025 2.648,2.627 5.058,2.777 0.241,0.025 0.461,-0.092 0.595,-0.283 0.139,-0.193 0.166,-0.441 0.074,-0.66 -0.03,-0.066 -2.83,-6.754 0.049,-11.359 1.695,-2.711 2.176,-7.51 -0.571,-12.131 -2.237,-3.753 -0.486,-6.15 0.372,-7.007 m -17.027,5.584 c -4.935,5.059 -11.816,8.215 -19.428,8.215 -11.014,0 -20.501,-6.602 -24.758,-16.047 -0.051,-1.195 0.215,-2.283 0.646,-3.004 3.95,-6.58 2.673,-10.395 1.646,-13.457 L 27.53,47.423 c -1.385,-4.285 1.056,-8.398 1.733,-9.418 20.481,-1.892 26.598,-8.198 27.96,-10.031 7.349,2.655 12.802,9.423 12.846,9.478 0.034,0.048 3.487,4.74 1.896,9.658 l -0.228,0.684 c -1.023,3.064 -2.299,6.875 1.649,13.458 0.945,1.572 1.178,4.887 -1.257,7.32 -1.032,1.04 -1.936,2.35 -2.48,3.829"
       style="fill:#333333"
       inkscape:connector-curvature="0" /><path
       id="path3783"
       d="m 20.489,29.585 c 0.918,1.635 2.987,2.216 4.625,1.3 1.637,-0.919 2.218,-2.987 1.299,-4.623 -0.918,-1.637 -2.987,-2.219 -4.624,-1.3 -1.636,0.917 -2.215,2.986 -1.3,4.623"
       style="fill:#333333"
       inkscape:connector-curvature="0" /><path
       id="path3785"
       d="M 17.497,26.487 10.34,26.4 C 9.83,26.393 9.353,26.661 9.09,27.1 8.826,27.54 8.821,28.087 9.073,28.535 l 6.273,11.187 c 0.254,0.445 0.722,0.725 1.235,0.732 0.254,0.003 0.503,-0.062 0.716,-0.186 0.22,-0.121 0.399,-0.297 0.533,-0.517 l 3.631,-6.113 c -1.378,-0.468 -2.6,-1.405 -3.367,-2.771 -0.776,-1.385 -0.938,-2.943 -0.597,-4.38"
       style="fill:#333333"
       inkscape:connector-curvature="0" /><path
       id="path3787"
       d="m 30.402,15.143 c -0.513,-0.004 -0.99,0.265 -1.25,0.703 l -3.732,6.282 c 1.363,0.471 2.575,1.401 3.334,2.757 0.749,1.336 0.919,2.83 0.629,4.223 l 7.259,0.089 c 0.254,0.004 0.503,-0.06 0.718,-0.182 0.218,-0.121 0.403,-0.3 0.533,-0.519 0.26,-0.44 0.267,-0.987 0.017,-1.434 L 31.633,15.876 C 31.384,15.428 30.915,15.15 30.402,15.143"
       style="fill:#333333"
       inkscape:connector-curvature="0" /></g></svg>