<?xml version="1.0" encoding="UTF-8" standalone="no"?>
<svg
   xmlns:dc="http://purl.org/dc/elements/1.1/"
   xmlns:cc="http://creativecommons.org/ns#"
   xmlns:rdf="http://www.w3.org/1999/02/22-rdf-syntax-ns#"
   xmlns:svg="http://www.w3.org/2000/svg"
   xmlns="http://www.w3.org/2000/svg"
   xmlns:sodipodi="http://sodipodi.sourceforge.net/DTD/sodipodi-0.dtd"
   xmlns:inkscape="http://www.inkscape.org/namespaces/inkscape"
   version="1.1"
   id="Calque_1"
   width="100"
   height="100"
   viewBox="0 0 99.999997 100"
   overflow="visible"
   enable-background="new 0 0 45.032 38.184"
   xml:space="preserve"
   inkscape:version="0.48.4 r9939"
   sodipodi:docname="icon_37112.svg"
   style="overflow:visible"><metadata
     id="metadata7024"><rdf:RDF><cc:Work
         rdf:about=""><dc:format>image/svg+xml</dc:format><dc:type
           rdf:resource="http://purl.org/dc/dcmitype/StillImage" /></cc:Work></rdf:RDF></metadata><defs
     id="defs7022" /><sodipodi:namedview
     pagecolor="#ffffff"
     bordercolor="#666666"
     borderopacity="1"
     objecttolerance="10"
     gridtolerance="10"
     guidetolerance="10"
     inkscape:pageopacity="0"
     inkscape:pageshadow="2"
     inkscape:window-width="1920"
     inkscape:window-height="1056"
     id="namedview7020"
     showgrid="false"
     inkscape:zoom="6.1805995"
     inkscape:cx="3.2622051"
     inkscape:cy="19.091999"
     inkscape:window-x="0"
     inkscape:window-y="24"
     inkscape:window-maximized="1"
     inkscape:current-layer="Calque_1" /><g
     id="g7000"
     transform="matrix(1.998619,0,0,1.998619,5.0000924,11.843476)"
     style="fill:#333333"><path
       d="m 19.67,27.693 c 0,0 3.13,3.563 6.366,-0.027 10e-4,0 -2.828,8.434 -6.366,0.027 z"
       id="path7002"
       inkscape:connector-curvature="0"
       style="fill:#333333" /><rect
       x="5.6479998"
       y="6.0700002"
       width="33.768002"
       height="5.9419999"
       id="rect7004"
       style="fill:#333333" /><path
       d="m 6.646,5.671 h 32.021 c 0,0 -16.446,-12.76 -32.021,0 z"
       id="path7006"
       inkscape:connector-curvature="0"
       style="fill:#333333" /><circle
       cx="16.547001"
       cy="23.902"
       r="2.395"
       id="circle7008"
       sodipodi:cx="16.547001"
       sodipodi:cy="23.902"
       sodipodi:rx="2.395"
       sodipodi:ry="2.395"
       d="m 18.942001,23.902 c 0,1.322722 -1.072278,2.395 -2.395,2.395 -1.322722,0 -2.395,-1.072278 -2.395,-2.395 0,-1.322722 1.072278,-2.395 2.395,-2.395 1.322722,0 2.395,1.072278 2.395,2.395 z"
       style="fill:#333333" /><circle
       cx="28.989"
       cy="23.902"
       r="2.3959999"
       id="circle7010"
       sodipodi:cx="28.989"
       sodipodi:cy="23.902"
       sodipodi:rx="2.3959999"
       sodipodi:ry="2.3959999"
       d="m 31.385,23.902 c 0,1.323275 -1.072725,2.396 -2.396,2.396 -1.323274,0 -2.396,-1.072725 -2.396,-2.396 0,-1.323274 1.072726,-2.395999 2.396,-2.395999 1.323275,0 2.396,1.072725 2.396,2.395999 z"
       style="fill:#333333" /><g
       id="g7012"
       style="fill:#333333"><g
         id="g7014"
         style="fill:#333333"><path
           d="m 39.597,18.441 h -0.98 l 0.133,0.344 c 0.507,1.457 0.767,1.822 0.767,3.431 0,8.464 -7.558,15.323 -16.879,15.323 -9.319,0 -16.878,-6.859 -16.878,-15.323 0,-1.376 0.203,-2.161 0.576,-3.431 l 0.112,-0.344 h -0.97 c -0.393,1.337 -0.606,2.164 -0.606,3.611 0,8.91 7.955,16.131 17.766,16.131 9.812,0 17.767,-7.221 17.767,-16.131 -10e-4,-1.693 -0.275,-2.075 -0.808,-3.611 z"
           id="path7016"
           inkscape:connector-curvature="0"
           style="fill:#333333" /></g></g><path
       d="m 22.516,20.047 -3.315,-4.461 -3.029,4.299 -3.439,-3.889 -3.07,3.889 -1.924,-3.48 c -1.188,-1.433 -2.744,0 -2.744,0 -4.338,6.1 -4.134,11.831 -4.134,11.831 h 1.884 c 0.164,-7.083 3.479,-11.954 3.684,-11.954 0.205,0 0.738,0.246 0.738,0.246 l -0.656,1.76 C 4.3,24.675 7.997,30.325 7.997,30.325 L 5.232,32.57 2.87,28.943 0,29.058 c 0,0 -0.041,-3.729 2.292,-13.963 0,0 0.574,-2.375 1.638,-2.621 h 21.82 4.366 10.985 c 1.065,0.246 1.638,2.621 1.638,2.621 2.333,10.233 2.292,13.963 2.292,13.963 l -2.869,-0.114 -2.361,3.627 -2.764,-2.246 c 0,0 3.696,-5.65 1.486,-12.037 l -0.657,-1.76 c 0,0 0.534,-0.246 0.739,-0.246 0.204,0 3.52,4.871 3.684,11.954 h 1.884 c 0,0 0.205,-5.731 -4.135,-11.831 0,0 -1.556,-1.433 -2.743,0 l -1.925,3.48 -3.068,-3.889 -3.44,3.889 -3.03,-4.299 -3.316,4.461 z"
       id="path7018"
       inkscape:connector-curvature="0"
       style="fill:#333333" /></g></svg>