<?xml version="1.0" encoding="UTF-8" standalone="no"?>
<!-- Generator: Adobe Illustrator 16.0.0, SVG Export Plug-In . SVG Version: 6.00 Build 0)  -->

<svg
   xmlns:dc="http://purl.org/dc/elements/1.1/"
   xmlns:cc="http://creativecommons.org/ns#"
   xmlns:rdf="http://www.w3.org/1999/02/22-rdf-syntax-ns#"
   xmlns:svg="http://www.w3.org/2000/svg"
   xmlns="http://www.w3.org/2000/svg"
   xmlns:sodipodi="http://sodipodi.sourceforge.net/DTD/sodipodi-0.dtd"
   xmlns:inkscape="http://www.inkscape.org/namespaces/inkscape"
   version="1.1"
   id="Layer_1"
   x="0px"
   y="0px"
   width="93.73px"
   height="100px"
   viewBox="4.085 -0.177 93.73 100"
   enable-background="new 4.085 -0.177 93.73 100"
   xml:space="preserve"
   inkscape:version="0.48.4 r9939"
   sodipodi:docname="icon_16919.svg"><metadata
     id="metadata6222"><rdf:RDF><cc:Work
         rdf:about=""><dc:format>image/svg+xml</dc:format><dc:type
           rdf:resource="http://purl.org/dc/dcmitype/StillImage" /></cc:Work></rdf:RDF></metadata><defs
     id="defs6220" /><sodipodi:namedview
     pagecolor="#ffffff"
     bordercolor="#666666"
     borderopacity="1"
     objecttolerance="10"
     gridtolerance="10"
     guidetolerance="10"
     inkscape:pageopacity="0"
     inkscape:pageshadow="2"
     inkscape:window-width="1920"
     inkscape:window-height="1056"
     id="namedview6218"
     showgrid="false"
     inkscape:zoom="2.36"
     inkscape:cx="-3.5587271"
     inkscape:cy="50"
     inkscape:window-x="0"
     inkscape:window-y="24"
     inkscape:window-maximized="1"
     inkscape:current-layer="Layer_1" /><g
     id="Your_Icon"
     transform="matrix(0.9,0,0,0.9,5.095,4.9823)"
     style="fill:#333333"><g
       id="g6190"
       style="fill:#333333"><path
         d="M 74.584,90.419 H 27.312 C 14.506,90.419 4.085,81.618 4.085,70.803 V 31.979 c 0,-10.815 10.42,-19.617 23.227,-19.617 h 47.272 c 12.808,0 23.231,8.8 23.231,19.617 v 38.823 c 0,10.816 -10.423,19.617 -23.231,19.617 z m -47.272,-72.1 c -9.525,0 -17.269,6.129 -17.269,13.66 v 38.823 c 0,7.53 7.745,13.659 17.269,13.659 h 47.272 c 9.524,0 17.272,-6.128 17.272,-13.659 V 31.979 c 0,-7.53 -7.748,-13.66 -17.272,-13.66 H 27.312 z"
         id="path6192"
         inkscape:connector-curvature="0"
         style="fill:#333333" /></g><g
       id="g6194"
       style="fill:#333333"><path
         d="M 74.461,99.823 H 27.439 c -1.645,0 -2.978,-1.336 -2.978,-2.979 V 86.657 h 5.958 v 7.207 h 41.064 v -7.731 h 5.957 v 10.711 c -0.001,1.644 -1.335,2.979 -2.979,2.979 z"
         id="path6196"
         inkscape:connector-curvature="0"
         style="fill:#333333" /></g><g
       id="g6198"
       style="fill:#333333"><path
         d="M 69.604,15.145 H 63.646 V 5.781 H 38.254 v 9.168 H 32.296 V 2.802 c 0,-1.645 1.335,-2.979 2.979,-2.979 h 31.349 c 1.643,0 2.978,1.336 2.978,2.979 v 12.343 h 0.002 z"
         id="path6200"
         inkscape:connector-curvature="0"
         style="fill:#333333" /></g><g
       id="g6202"
       style="fill:#333333"><path
         d="m 50.957,73.334 c -6.568,0 -12.749,-3.499 -16.13,-9.129 -0.447,-0.743 -0.205,-1.705 0.535,-2.152 0.744,-0.435 1.705,-0.208 2.153,0.535 2.82,4.697 7.972,7.611 13.442,7.611 5.549,0 10.58,-2.846 13.446,-7.62 0.451,-0.743 1.413,-0.97 2.153,-0.535 0.74,0.448 0.979,1.411 0.536,2.153 -3.444,5.721 -9.475,9.137 -16.135,9.137 z"
         id="path6204"
         inkscape:connector-curvature="0"
         style="fill:#333333" /></g><g
       id="g6206"
       style="fill:#333333"><path
         d="m 65.057,39.402 c -2.603,0 -4.703,2.103 -4.703,4.702 0,2.6 2.101,4.703 4.703,4.703 2.597,0 4.702,-2.103 4.702,-4.703 0,-2.599 -2.106,-4.702 -4.702,-4.702 z"
         id="path6208"
         inkscape:connector-curvature="0"
         style="fill:#333333" /></g><g
       id="g6210"
       style="fill:#333333"><path
         d="m 36.844,39.402 c -2.603,0 -4.703,2.103 -4.703,4.702 0,2.6 2.101,4.703 4.703,4.703 2.596,0 4.703,-2.103 4.703,-4.703 -10e-4,-2.599 -2.108,-4.702 -4.703,-4.702 z"
         id="path6212"
         inkscape:connector-curvature="0"
         style="fill:#333333" /></g><g
       id="g6214"
       style="fill:#333333"><path
         d="m 13.334,35.714 h -0.003 c -0.866,0 -1.565,-0.702 -1.565,-1.564 0,-4.881 2.949,-14.106 14.106,-14.106 0.867,0 1.568,0.7 1.568,1.566 0,0.868 -0.701,1.568 -1.568,1.568 -10.788,0 -10.968,10.527 -10.971,10.976 -0.006,0.862 -0.704,1.56 -1.567,1.56 z"
         id="path6216"
         inkscape:connector-curvature="0"
         style="fill:#333333" /></g></g></svg>