<?xml version="1.0" encoding="UTF-8" standalone="no"?>
<!-- Generator: Adobe Illustrator 16.0.0, SVG Export Plug-In . SVG Version: 6.00 Build 0)  -->

<svg
   xmlns:dc="http://purl.org/dc/elements/1.1/"
   xmlns:cc="http://creativecommons.org/ns#"
   xmlns:rdf="http://www.w3.org/1999/02/22-rdf-syntax-ns#"
   xmlns:svg="http://www.w3.org/2000/svg"
   xmlns="http://www.w3.org/2000/svg"
   xmlns:sodipodi="http://sodipodi.sourceforge.net/DTD/sodipodi-0.dtd"
   xmlns:inkscape="http://www.inkscape.org/namespaces/inkscape"
   version="1.1"
   id="Layer_1"
   x="0px"
   y="0px"
   width="100"
   height="100"
   viewBox="0 0 100 99.999999"
   enable-background="new 0 0 100 93.957"
   xml:space="preserve"
   inkscape:version="0.48.4 r9939"
   sodipodi:docname="icon_9514.svg"><metadata
     id="metadata9"><rdf:RDF><cc:Work
         rdf:about=""><dc:format>image/svg+xml</dc:format><dc:type
           rdf:resource="http://purl.org/dc/dcmitype/StillImage" /></cc:Work></rdf:RDF></metadata><defs
     id="defs7" /><sodipodi:namedview
     pagecolor="#ffffff"
     bordercolor="#666666"
     borderopacity="1"
     objecttolerance="10"
     gridtolerance="10"
     guidetolerance="10"
     inkscape:pageopacity="0"
     inkscape:pageshadow="2"
     inkscape:window-width="1920"
     inkscape:window-height="1056"
     id="namedview5"
     showgrid="false"
     inkscape:zoom="2.5117873"
     inkscape:cx="2.6233767"
     inkscape:cy="46.9785"
     inkscape:window-x="0"
     inkscape:window-y="24"
     inkscape:window-maximized="1"
     inkscape:current-layer="Layer_1" /><path
     d="m 57.9934,70.024299 c -2.00175,2.8475 -3.8148,6.45575 -4.4438,10.6862 0.0765,0.06715 0.1258,0.1666 0.1258,0.278801 0,0.145348 -0.0867,0.270298 -0.2091,0.3315 0.09775,0.07565 0.1632,0.188699 0.1632,0.31705 0,0.10795 -0.0459,0.205699 -0.12155,0.27285 0.19125,0.2312 0.31195,0.72335 0.2924,1.28605 -0.01955,0.5967 -0.1938,1.1033 -0.41735,1.300499 0.0969,0.06545 0.1615,0.17935 0.1615,0.30345 0,0.12495 -0.0595,0.23205 -0.1564,0.3009 0.04845,0.22865 0.119,0.410551 0.2142,0.54145 0.0578,0.08245 0.1972,0.21335 0.2499,0.292401 1.22145,1.36935 0.38505,3.11695 -0.31875,3.99585 0.24395,-0.67745 0.37995,-1.6388 0.0595,-2.87895 -0.03655,-0.1462 -0.07735,-0.334901 -0.1054,-0.48025 0.01275,0.1496 0.02805,0.29835 0.051,0.4471 0.12495,0.84405 0.02125,1.5453 -0.18275,2.11395 -0.02635,-0.177651 -0.26265,-1.8921 -0.28815,-2.0417 l 0.1479,2.3783 c -0.52445,-0.88995 -0.44285,-3.0753 -0.44285,-3.0753 -0.1734,0.57545 -0.3179,1.4127 -0.06205,2.3001 -1.26225,-2.1777 -0.21675,-2.1998 0.18785,-3.3031 0.03145,-0.08585 0.05355,-0.17935 0.07565,-0.28305 -0.1003,-0.0629 -0.1666,-0.17935 -0.1666,-0.3077 0,-0.1241 0.0646,-0.2397 0.1632,-0.30345 -0.22015,-0.20315 -0.36465,-0.730151 -0.34085,-1.3413 0.01785,-0.55675 0.17085,-1.034451 0.37315,-1.2563 -0.06715,-0.068 -0.1088,-0.1598 -0.1088,-0.26435 0,-0.1479 0.08755,-0.2737 0.2125,-0.33405 -0.102,-0.07055 -0.16915,-0.18445 -0.16915,-0.31535 0,-0.12835 0.06545,-0.24225 0.16575,-0.3077 -0.03145,-3.0345 -0.43265,-5.88285 -3.07785,-5.88285 -2.64605,0 -3.0464,2.8475 -3.0787,5.88285 0.09945,0.06545 0.1666,0.17935 0.1666,0.3077 0,0.1292 -0.06715,0.2431 -0.1683,0.30855 0.12495,0.06545 0.2125,0.19465 0.2125,0.34 0,0.10455 -0.0408,0.19465 -0.1088,0.2635 0.204,0.22185 0.35445,0.69785 0.374,1.2563 0.0204,0.611149 -0.1224,1.1373 -0.3417,1.34045 0.0986,0.0646 0.1632,0.17935 0.1632,0.3043 0,0.1309 -0.06715,0.2448 -0.1683,0.31025 0.01955,0.102 0.04505,0.195499 0.07565,0.28135 0.4063,1.10075 1.44925,1.1237 0.18785,3.30225 0.25415,-0.8874 0.10965,-1.7238 -0.0646,-2.29925 0,0 0.08585,2.18535 -0.44115,3.0753 l 0.1479,-2.37915 c -0.0272,0.15045 -0.26265,1.86405 -0.28815,2.0417 -0.20485,-0.568651 -0.30855,-1.269051 -0.18275,-2.113951 0.02125,-0.1496 0.03825,-0.2975 0.051,-0.44625 -0.02805,0.1462 -0.06885,0.33405 -0.10625,0.4794 -0.3196,1.2393 -0.18275,2.20065 0.0612,2.8781 -0.70465,-0.87805 -1.5385,-2.626499 -0.31875,-3.99585 0.05185,-0.07905 0.19125,-0.2091 0.2499,-0.2924 0.09605,-0.1292 0.1649,-0.3128 0.2125,-0.54145 -0.09265,-0.06715 -0.153,-0.17595 -0.153,-0.3009 0,-0.12495 0.0646,-0.238 0.1615,-0.3043 -0.2261,-0.19635 -0.3978,-0.7021 -0.41905,-1.29965 -0.0187,-0.56355 0.1003,-1.05315 0.2907,-1.28605 -0.07395,-0.06715 -0.1207,-0.16575 -0.1207,-0.2737 0,-0.1258 0.0663,-0.2414 0.16405,-0.30515 -0.1241,-0.07055 -0.2074,-0.1972 -0.2074,-0.34085 0,-0.1122 0.04845,-0.20995 0.12495,-0.2771 -0.629,-4.2347 -2.44375,-7.84635 -4.4455,-10.693 0.3502,-0.58395 0.71485,-1.28435 0.98005,-2.0213 0.4709,0.2669 0.97665,0.47345 1.5164,0.6103 4.5169,1.1424 4.89175,-1.95755 3.87855,-4.09445 -0.80835,-1.7017 -2.68685,-2.44885 -2.68685,-2.44885 0,0 1.12965,0.330651 2.1862,0.330651 h 4.18625 c 1.0557,0 2.18705,-0.330651 2.18705,-0.330651 0,0 -1.87935,0.7463 -2.68515,2.44885 -1.0149,2.13605 -0.64005,5.23685 3.8777,4.09445 0.53805,-0.13685 1.04125,-0.34085 1.51215,-0.60605 0.2669,0.73695 0.63325,1.43905 0.98515,2.023 l 0,0 z m -15.0331,-24.9135 c 0.3655,-0.0527 0.6953,-0.07565 0.9928,-0.0782 -1.8632,-0.5814 -2.4225,-1.0132 -4.0647,-0.482801 -1.05655,0.34 -1.683,1.1866 -1.683,1.1866 0,0 1.8003,-3.77655 4.4336,-2.8696 2.3545,0.81175 1.4382,0.54655 3.5615,1.24695 1.61925,0.53465 2.71065,-0.118999 2.71065,-0.118999 0,0 -0.81515,1.6609 -2.94695,1.51045 0.42075,0.260949 0.612,0.550799 0.7021,0.65365 l -6.0656,-0.11815 c 8.5e-4,0 0.34255,-0.5967 2.3596,-0.929901 l 0,0 z m 8.31385,-7.5939 0.1632,0.10285 c 2.12415,0.779449 4.624,1.252049 7.2403,1.280949 0.56185,0.0051 1.1118,-0.0085 1.6456,-0.04165 -1.15515,0.38675 -2.4973,0.595002 -3.9542,0.578001 -0.48535,-0.0051 -0.969,-0.0357 -1.4433,-0.08925 2.20065,0.864449 4.61465,1.4348 7.07965,1.67875 -0.05185,-0.5848 -0.03145,-1.1101 0.03145,-1.6082 -2.6452,-1.0693 -6.4617,-1.7816 -10.7627,-1.90145 l 0,0 z m 10.79415,4.0579 c -5.4009,0.2244 -10.57485,-1.22825 -13.3858,-4.05705 -1.50535,0.04335 -2.95205,0.1581 -4.3095,0.3366 3.76805,2.48795 9.6526,5.2173 18.7799,7.3134 -0.60945,-1.462 -0.93925,-2.6146 -1.0846,-3.59295 l 0,0 z m -10.846,-9.667051 c 0,-0.691049 -0.22865,-1.252049 -0.5117,-1.252049 -0.28305,0 -0.51,0.625599 -0.51,1.3158 0,0.06545 0.04505,0.14705 0.32215,0.14705 0.69105,8.5e-4 0.69955,-0.17255 0.69955,-0.210799 l 0,0 z m -3.12715,-0.58905 c 0,0.02805 0.0068,0.146201 0.36635,0.287301 0.1819,0.07225 0.1717,-0.051 0.1717,-0.09945 0,-0.5185 -0.0731,-0.9401 -0.22185,-0.99195 -0.14875,-0.051 -0.3162,0.28645 -0.3162,0.804099 l 0,0 z m 0.7259,0.58905 c 0,0.0374 0.0085,0.21165 0.6987,0.21165 0.2788,0 0.32385,-0.0833 0.32385,-0.14705 0,-0.69105 -0.22865,-1.3158 -0.51085,-1.3158 -0.28305,-8.5e-4 -0.5117,0.56015 -0.5117,1.2512 l 0,0 z m 3.12715,-0.58905 c 0,-0.5185 -0.16745,-0.8568 -0.3145,-0.804099 -0.1496,0.0527 -0.22185,0.47345 -0.22185,0.99195 0,0.0493 -0.01105,0.1717 0.1683,0.09945 0.36125,-0.1411 0.36805,-0.258401 0.36805,-0.287301 l 0,0 z m -1.94395,-0.6103 c 0.1445,-0.30685 0.36295,-0.544 0.69445,-0.544 0.1972,0 0.35105,0.08585 0.4675,0.1989 0.18615,-0.35275 0.52275,-0.44795 0.78795,-0.248199 0.01785,-0.136851 -0.0119,-0.288151 -0.02805,-0.4522 1.7306,0.0697 2.55085,0.317051 2.0995,-2.136049 0.0119,-0.53635 0.63155,-0.99875 0.36975,-2.4497 -0.493,-2.73275 -1.4705,-3.2436 -4.39025,-3.2436 -2.9121,0 -3.88875,0.51085 -4.38345,3.2436 -0.2618,1.450949 0.35785,1.912499 0.36975,2.4497 -0.44965,2.45225 0.37145,2.20575 2.09865,2.136049 -0.017,0.16405 -0.0442,0.316201 -0.0272,0.4522 0.26435,-0.199751 0.6018,-0.104551 0.78795,0.248199 0.11645,-0.11305 0.26945,-0.1989 0.46665,-0.1989 0.3315,8.5e-4 0.5491,0.23715 0.6868,0.544 l 0,0 z m 4.62145,-1.95245 c -0.02295,0.68425 -0.2686,1.0982 -0.8483,1.28945 l 2.22275,1.08375 c 1.01235,0.54485 0.5049,1.5351 1.2937,1.9159 0.6834,0.3298 1.85385,0.12495 1.83685,-0.631549 -0.0059,-0.198901 -0.1037,-0.3604 -0.01275,-0.5865 l 0.02125,-0.0459 c 0.12325,-0.2125 0.3094,-0.23375 0.4692,-0.35275 0.6086,-0.45305 0.05015,-1.50195 -0.6307,-1.836 -0.7871,-0.3876 -1.2546,0.62135 -2.3069,0.1615 l -2.0451,-0.9979 0,0 z m -11.36195,-3.83775 1.80455,0.8806 c 8.5e-4,-0.21505 0.0255,-0.476 0.085,-0.80495 0.05015,-0.2788 0.10625,-0.53635 0.16915,-0.7752 l -1.3855,-0.6766 c -1.0132,-0.54485 -0.5049,-1.53425 -1.29455,-1.9159 -0.68255,-0.3298 -1.85385,-0.12495 -1.836,0.63155 0.0043,0.1989 0.10285,0.3604 0.01105,0.58735 l -0.0221,0.04505 c -0.12155,0.21165 -0.3094,0.23375 -0.4692,0.35275 -0.60775,0.4539 -0.0476,1.50195 0.6324,1.836 0.78625,0.38675 1.2529,-0.62135 2.3052,-0.16065 l 0,0 z m 26.91015,30.89495 c -0.0952,-2.09015 -1.29965,-3.60655 -2.6911,-3.39065 -0.1462,0.02295 -0.2873,0.06205 -0.425,0.119 -0.1207,0.58055 -0.38165,0.9792 -1.23335,1.139 -0.4726,0.76925 -0.7412,1.81305 -0.6919,2.91635 0.0935,2.087601 1.2988,3.604 2.69025,3.388101 1.3906,-0.2176 2.4429,-2.084201 2.3511,-4.1718 l 0,0 z m -35.82665,-2.1131 c -0.96985,-0.14535 -1.24015,-0.5712 -1.3634,-1.20105 -0.1003,-0.03315 -0.20315,-0.0578 -0.306,-0.07565 -1.39315,-0.2159 -2.5976,1.30135 -2.6911,3.3898 -0.0935,2.08845 0.95795,3.95505 2.35025,4.1718 1.39145,0.2159 2.5959,-1.30135 2.69025,-3.38895 0.0493,-1.0948 -0.2159,-2.12755 -0.68,-2.89595 l 0,0 z m -4.8926,4.86625 c -0.56865,0.1139 -1.12285,0.17765 -1.66175,0.19805 -2.29075,-0.96645 -4.7328,-1.75525 -7.2913,-2.34005 -2.1029,-1.4841 -3.3116,-3.1246 -3.3116,-3.1246 0,0 9.22505,2.26695 11.5175,-3.29375 -1.63115,2.3868 -4.75745,3.40425 -7.54715,2.27715 -0.78285,-0.3162 -1.4688,-0.77095 -2.0366,-1.3277 0.374,0.2584 0.782,0.4777 1.21805,0.65365 3.3473,1.35235 7.79705,-0.9197 8.8349,-4.8246 -10.3802,0.65875 -19.47605,1.6456 -19.47605,1.6456 L 7.5,40.778349 C 24.2807,36.98395 23.4052,14.5686 42.9892,10.0687 43.5366,15.6447 46.464,18.028099 50,18.0485 53.53515,18.0281 56.46425,15.6447 57.01165,10.0687 76.5948,14.56775 75.7193,36.9831 92.5,40.778349 l -2.19895,7.6534 c 0,0 -9.06865,-0.9843 -19.431,-1.6439 1.0387,3.9032 5.48675,6.1744 8.83405,4.8212 0.43605,-0.17595 0.84235,-0.39525 1.21975,-0.65365 -0.57035,0.555049 -1.2546,1.011499 -2.03745,1.3277 -2.7897,1.127099 -5.91685,0.10965 -7.54715,-2.276301 2.2933,5.5607 11.51835,3.29375 11.51835,3.29375 0,0 -1.20955,1.63965 -3.3116,3.1263 -2.5585,0.58395 -5.00055,1.3736 -7.29045,2.3392 -0.5049,-0.01785 -1.02255,-0.07735 -1.55465,-0.17765 -0.55505,1.52745 -1.5861,2.64095 -2.81095,2.83135 -1.1543,0.17935 -2.21765,-0.50915 -2.907,-1.71445 l -0.0221,3.10675 c 0,0 -1.4603,1.02 -3.3473,2.9138 -0.05695,-0.47345 -0.0663,-1.00895 0.006,-1.60395 0.1241,-1.03275 0.12835,-1.8989 0.0884,-2.5857 1.53595,-4.1344 1.853,-8.5 1.853,-8.5 -0.8058,0.46155 -1.7578,0.84915 -2.77355,1.10075 -0.4896,0.1207 5.37115,-2.2661 2.873,-7.8285 -0.45815,-0.1037 -0.92055,-0.21165 -1.3906,-0.32385 0.06205,0.5389 0.05525,1.2563 -0.06545,1.8122 -0.6154,2.8322 -3.3388,3.99075 -6.1438,2.7761 -1.5028,-0.65025 -3.4799,-1.4399 -4.4744,-6.2101 -0.1003,-0.48025 -0.27285,-1.2529 -0.28475,-1.8105 -3.04895,-1.2325 -5.95935,-2.70895 -8.42945,-4.46675 -1.8581,0.3247 -3.5054,0.77265 -4.8535,1.31155 0.20825,1.6116 -0.04335,3.49435 -1.58185,6.8357 -2.5857,5.6151 3.3303,8.024 2.839,7.9033 -1.01745,-0.2516 -1.96775,-0.63835 -2.77525,-1.0999 0,0 0.3179,4.3571 1.84875,8.4881 -0.04165,0.6902 -0.0357,1.55975 0.08925,2.5976 0.07055,0.59245 0.0629,1.12625 0.0042,1.59885 -1.88445,-1.8887 -3.34305,-2.9087 -3.34305,-2.9087 l -0.01785,-2.93165 c -0.69105,1.09565 -1.7051,1.70935 -2.80415,1.5385 -1.2342,-0.18955 -2.27035,-1.31325 -2.82285,-2.8526 l 0,0 z m 27.2187,-33.6481 c 1.05145,-0.4607 1.51895,0.54825 2.30605,0.16065 0.68085,-0.3349 1.241,-1.3821 0.63155,-1.836 -0.1598,-0.119 -0.3485,-0.14195 -0.4675,-0.35275 l -0.0238,-0.04505 c -0.0918,-0.22695 0.0068,-0.38845 0.0119,-0.58735 0.01785,-0.75735 -1.1526,-0.9622 -1.836,-0.63155 -0.78965,0.38165 -0.28135,1.3719 -1.2937,1.9159 l -1.31665,0.6409 c 0.06715,0.24905 0.1275,0.5185 0.17935,0.81005 0.05695,0.3077 0.08075,0.55845 0.08415,0.76585 l 1.72465,-0.84065 0,0 z m -10.4771,5.10935 c -0.544,-0.187 -0.7922,-0.5848 -0.8075,-1.3107 l -2.1233,1.037 c -1.0523,0.4607 -1.51895,-0.5491 -2.30605,-0.1615 -0.68,0.3349 -1.2393,1.38295 -0.6324,1.836 0.1598,0.119 0.34765,0.1411 0.4692,0.35275 l 0.0221,0.0459 c 0.0918,0.2261 -0.0068,0.387599 -0.01105,0.5865 -0.01785,0.75735 1.1526,0.9622 1.83685,0.632399 0.78965,-0.38165 0.28135,-1.371899 1.29455,-1.9159 l 2.2576,-1.102449 0,0 z m 0.4233,-2.96055 c 0.017,-0.79135 0.53295,-1.1696 1.2563,-1.27415 0.87465,-0.1241 1.5997,0.0697 1.6524,0.83385 0.05865,0.88145 -0.78625,1.9193 -1.6694,1.9193 -0.884,0 -1.25885,-0.5967 -1.2393,-1.479 l 0,0 z m 6.7388,0 c 0.0204,0.88315 -0.3553,1.47985 -1.2393,1.47985 -0.88145,0 -1.7272,-1.037 -1.6677,-1.9193 0.0527,-0.76585 0.7769,-0.9588 1.6524,-0.83385 0.72165,0.102 1.2376,0.48025 1.2546,1.2733 l 0,0 z m -7.361,32.5057 c -1.97795,0 -2.47605,0.63155 -2.47605,2.6928 0,2.3426 -0.54145,5.33205 -1.7544,7.4035 -0.1309,0.2227 -0.272,0.43095 -0.4233,0.626451 0.30175,-1.162801 0.54655,-2.775251 0.52275,-4.9215 l -0.0017,-0.06885 c -0.0076,0 -0.13175,5.294651 -3.83775,7.208851 0,0 -1.071,0.553349 -2.27375,0.72335 1.1509,-0.84405 1.8581,-1.8615 2.28905,-3.00135 0.3451,-0.85595 0.85,-2.6367 0.8449,-5.73665 -0.0034,-2.0451 1.55295,-4.84925 1.55295,-4.84925 0,0 -1.17045,1.2954 -1.77735,2.8866 0.05015,-2.128401 0.47005,-4.1242 2.68345,-5.5352 2.24485,-1.30305 4.17775,-1.3906 5.63805,-1.16025 0.74715,0.119 2.56105,0.82705 3.0447,0.8381 0.48365,-0.0119 2.2967,-0.71995 3.0447,-0.8381 1.462,-0.23035 3.39405,-0.1428 5.6389,1.16025 2.2134,1.41185 2.63245,3.407649 2.68345,5.5352 -0.60775,-1.59205 -1.7782,-2.8866 -1.7782,-2.8866 0,0 1.55635,2.805 1.55295,4.84925 -0.0034,3.09995 0.5032,4.8807 0.8466,5.73665 0.43095,1.13985 1.139,2.1573 2.28905,3.00135 -1.20445,-0.16915 -2.2746,-0.72335 -2.2746,-0.72335 -3.7043,-1.91505 -3.8301,-7.208851 -3.8386,-7.208851 l -0.0017,0.06885 c -0.02125,2.146249 0.22355,3.75955 0.5253,4.9215 -0.1513,-0.19635 -0.2924,-0.40545 -0.425,-0.626451 -1.2104,-2.07145 -1.75355,-5.0609 -1.75355,-7.4035 0,-2.06125 -0.4964,-2.6928 -2.47605,-2.6928 h -8.0648 l 0,0 z"
     id="path3"
     inkscape:connector-curvature="0"
     style="fill:#333333" /></svg>