<?xml version="1.0" encoding="UTF-8" standalone="no"?>
<svg
   xmlns:dc="http://purl.org/dc/elements/1.1/"
   xmlns:cc="http://creativecommons.org/ns#"
   xmlns:rdf="http://www.w3.org/1999/02/22-rdf-syntax-ns#"
   xmlns:svg="http://www.w3.org/2000/svg"
   xmlns="http://www.w3.org/2000/svg"
   xmlns:sodipodi="http://sodipodi.sourceforge.net/DTD/sodipodi-0.dtd"
   xmlns:inkscape="http://www.inkscape.org/namespaces/inkscape"
   version="1.1"
   id="Your_Icon"
   x="0px"
   y="0px"
   width="100px"
   height="100px"
   viewBox="0 0 100 100"
   enable-background="new 0 0 100 100"
   xml:space="preserve"
   inkscape:version="0.48.4 r9939"
   sodipodi:docname="icon_63297.svg"><metadata
     id="metadata19"><rdf:RDF><cc:Work
         rdf:about=""><dc:format>image/svg+xml</dc:format><dc:type
           rdf:resource="http://purl.org/dc/dcmitype/StillImage" /></cc:Work></rdf:RDF></metadata><defs
     id="defs17" /><sodipodi:namedview
     pagecolor="#ffffff"
     bordercolor="#666666"
     borderopacity="1"
     objecttolerance="10"
     gridtolerance="10"
     guidetolerance="10"
     inkscape:pageopacity="0"
     inkscape:pageshadow="2"
     inkscape:window-width="1920"
     inkscape:window-height="1056"
     id="namedview15"
     showgrid="false"
     inkscape:zoom="2.36"
     inkscape:cx="-0.42372881"
     inkscape:cy="50"
     inkscape:window-x="0"
     inkscape:window-y="24"
     inkscape:window-maximized="1"
     inkscape:current-layer="Your_Icon" /><g
     id="g3"
     style="fill:#333333"
     transform="matrix(1.0843243,0,0,1.0843243,-1.928918,-7.6946754)"><g
       id="g5"
       style="fill:#333333"><g
         id="g7"
         style="fill:#333333"><g
           id="g9"
           style="fill:#333333" /></g><g
         id="g11"
         style="fill:#333333" /></g></g><path
     d="M 50.000002,5 C 33.756824,5 20.587706,18.169118 20.587706,34.412296 c 0,0 0,47.260274 0,51.099867 0,5.239454 4.248383,9.487837 9.487837,9.487837 3.49044,0 6.528717,-1.891062 8.173637,-4.699461 h 0.01084 c 0.39361,-0.545416 1.031193,-0.904327 1.755521,-0.904327 0.724329,0 1.361912,0.358911 1.755521,0.904327 h 0.01084 C 43.427907,93.108938 46.465099,95 49.955539,95 c 3.489355,0 6.528716,-1.891062 8.172552,-4.699461 h 0.01084 c 0.39361,-0.545416 1.031193,-0.904327 1.755521,-0.904327 0.724329,0 1.361912,0.358911 1.755521,0.904327 h 0.01193 C 63.306823,93.108938 66.3451,95 69.834455,95 c 5.239455,0 9.487838,-4.248383 9.487838,-9.487837 0,-3.820075 0.09,-51.099867 0.09,-51.099867 C 79.412298,18.169118 66.24318,5 50.000002,5 z M 29.036761,33.102433 c 0,-2.869123 1.355405,-5.415116 3.455741,-7.052446 l 3.011169,2.767196 c -1.483356,0.859869 -2.491777,2.44732 -2.491777,4.28525 0,2.745509 2.225033,4.970542 4.970542,4.970542 1.986482,0 3.687787,-1.173239 4.483681,-2.857194 l 3.009,2.765026 c -1.595041,2.44732 -4.352478,4.067301 -7.492681,4.067301 -4.941266,0 -8.945675,-4.005494 -8.945675,-8.945675 z m 20.963241,28.440741 c -7.727979,0 -14.116818,-5.714389 -15.18054,-13.147432 h 4.374164 l 4.300431,6.212094 3.105504,-6.211009 h 6.257636 l 3.106589,6.211009 4.30043,-6.211009 h 4.916326 C 64.11682,55.82987 57.727981,61.543174 50.000002,61.543174 z M 62.018653,42.048108 c -3.205263,0 -6.008241,-1.691546 -7.588102,-4.223443 l 2.974302,-2.89623 c 0.728666,1.839014 2.514548,3.14454 4.6138,3.14454 2.744424,0 4.970542,-2.225033 4.970542,-4.970542 0,-2.050458 -1.242635,-3.809232 -3.015506,-4.569343 l 2.972133,-2.894062 c 2.419128,1.601547 4.017422,4.343804 4.017422,7.463405 0,4.940181 -4.003326,8.945675 -8.944591,8.945675 z"
     id="path13"
     style="fill:#333333"
     inkscape:connector-curvature="0" /></svg>