<?xml version="1.0" encoding="UTF-8" standalone="no"?>
<svg
   xmlns:dc="http://purl.org/dc/elements/1.1/"
   xmlns:cc="http://creativecommons.org/ns#"
   xmlns:rdf="http://www.w3.org/1999/02/22-rdf-syntax-ns#"
   xmlns:svg="http://www.w3.org/2000/svg"
   xmlns="http://www.w3.org/2000/svg"
   xmlns:sodipodi="http://sodipodi.sourceforge.net/DTD/sodipodi-0.dtd"
   xmlns:inkscape="http://www.inkscape.org/namespaces/inkscape"
   version="1.1"
   id="Layer_1"
   x="0px"
   y="0px"
   width="100px"
   height="100px"
   viewBox="0 0 100 100"
   enable-background="new 0 0 100 100"
   xml:space="preserve"
   inkscape:version="0.48.4 r9939"
   sodipodi:docname="icon_51811.svg"><metadata
     id="metadata7204"><rdf:RDF><cc:Work
         rdf:about=""><dc:format>image/svg+xml</dc:format><dc:type
           rdf:resource="http://purl.org/dc/dcmitype/StillImage" /></cc:Work></rdf:RDF></metadata><defs
     id="defs7202" /><sodipodi:namedview
     pagecolor="#ffffff"
     bordercolor="#666666"
     borderopacity="1"
     objecttolerance="10"
     gridtolerance="10"
     guidetolerance="10"
     inkscape:pageopacity="0"
     inkscape:pageshadow="2"
     inkscape:window-width="1920"
     inkscape:window-height="1056"
     id="namedview7200"
     showgrid="false"
     inkscape:zoom="2.36"
     inkscape:cx="-0.42372881"
     inkscape:cy="50"
     inkscape:window-x="0"
     inkscape:window-y="24"
     inkscape:window-maximized="1"
     inkscape:current-layer="Layer_1" /><g
     id="g7186"
     style="fill:#333333"
     transform="matrix(1.0180765,0,0,1.0180765,-0.90382365,-0.903825)"><path
       d="m 49.918,13.18 c -21.813,0 -39.496,17.684 -39.496,39.496 0,21.812 17.683,39.494 39.496,39.494 21.812,0 39.496,-17.682 39.496,-39.494 C 89.414,30.864 71.73,13.18 49.918,13.18 z m 0,73.043 C 32.953,86.223 19.078,73.035 17.965,56.352 30.207,56.334 54.882,53.135 70.802,29.911 77.626,35.786 81.95,44.479 81.95,54.19 81.951,71.881 67.609,86.223 49.918,86.223 z"
       id="path7188"
       style="fill:#333333"
       inkscape:connector-curvature="0" /><circle
       cx="67.982002"
       cy="63.222"
       r="4.3759999"
       id="circle7190"
       style="fill:#333333"
       sodipodi:cx="67.982002"
       sodipodi:cy="63.222"
       sodipodi:rx="4.3759999"
       sodipodi:ry="4.3759999"
       d="m 72.358002,63.222 c 0,2.416798 -1.959202,4.376 -4.376,4.376 -2.416798,0 -4.376,-1.959202 -4.376,-4.376 0,-2.416798 1.959202,-4.376 4.376,-4.376 2.416798,0 4.376,1.959202 4.376,4.376 z" /><circle
       cx="31.965"
       cy="63.222"
       r="4.3759999"
       id="circle7192"
       style="fill:#333333"
       sodipodi:cx="31.965"
       sodipodi:cy="63.222"
       sodipodi:rx="4.3759999"
       sodipodi:ry="4.3759999"
       d="m 36.341,63.222 c 0,2.416798 -1.959202,4.376 -4.376,4.376 -2.416798,0 -4.376,-1.959202 -4.376,-4.376 0,-2.416798 1.959202,-4.376 4.376,-4.376 2.416798,0 4.376,1.959202 4.376,4.376 z" /><path
       d="m 49.918,72.646 c 2.789,0 5.048,-2.26 5.048,-5.049 H 44.869 c 0,2.79 2.26,5.049 5.049,5.049 z"
       id="path7194"
       style="fill:#333333"
       inkscape:connector-curvature="0" /><circle
       cx="85.448997"
       cy="16.582001"
       r="8.7519999"
       id="circle7196"
       style="fill:#333333"
       sodipodi:cx="85.448997"
       sodipodi:cy="16.582001"
       sodipodi:rx="8.7519999"
       sodipodi:ry="8.7519999"
       d="m 94.200997,16.582001 c 0,4.833596 -3.918403,8.752 -8.752,8.752 -4.833596,0 -8.751999,-3.918404 -8.751999,-8.752 0,-4.833596 3.918403,-8.7520001 8.751999,-8.7520001 4.833597,0 8.752,3.9184041 8.752,8.7520001 z" /><path
       d="m 23.303,16.58 c 0,-4.832 -3.918,-8.75 -8.753,-8.75 -4.832,0 -8.751,3.918 -8.751,8.75 0,4.836 3.919,8.754 8.751,8.754 4.835,0 8.753,-3.918 8.753,-8.754 z"
       id="path7198"
       style="fill:#333333"
       inkscape:connector-curvature="0" /></g></svg>