<?xml version="1.0" encoding="UTF-8" standalone="no"?>
<svg
   xmlns:dc="http://purl.org/dc/elements/1.1/"
   xmlns:cc="http://creativecommons.org/ns#"
   xmlns:rdf="http://www.w3.org/1999/02/22-rdf-syntax-ns#"
   xmlns:svg="http://www.w3.org/2000/svg"
   xmlns="http://www.w3.org/2000/svg"
   xmlns:sodipodi="http://sodipodi.sourceforge.net/DTD/sodipodi-0.dtd"
   xmlns:inkscape="http://www.inkscape.org/namespaces/inkscape"
   version="1.1"
   id="Layer_1"
   x="0px"
   y="0px"
   width="100px"
   height="100px"
   viewBox="0 0 100 100"
   enable-background="new 0 0 100 100"
   xml:space="preserve"
   inkscape:version="0.48.4 r9939"
   sodipodi:docname="icon_5238.svg"><metadata
     id="metadata11"><rdf:RDF><cc:Work
         rdf:about=""><dc:format>image/svg+xml</dc:format><dc:type
           rdf:resource="http://purl.org/dc/dcmitype/StillImage" /></cc:Work></rdf:RDF></metadata><defs
     id="defs9" /><sodipodi:namedview
     pagecolor="#ffffff"
     bordercolor="#666666"
     borderopacity="1"
     objecttolerance="10"
     gridtolerance="10"
     guidetolerance="10"
     inkscape:pageopacity="0"
     inkscape:pageshadow="2"
     inkscape:window-width="1920"
     inkscape:window-height="1056"
     id="namedview7"
     showgrid="false"
     inkscape:zoom="2.36"
     inkscape:cx="-0.42372881"
     inkscape:cy="50"
     inkscape:window-x="0"
     inkscape:window-y="24"
     inkscape:window-maximized="1"
     inkscape:current-layer="Layer_1" /><g
     id="g3"
     style="fill:#333333"
     transform="matrix(0.91179867,0,0,0.91179867,4.2787675,4.8117138)"><path
       d="M 85.446,61.732 C 79.682,80.693 66.198,98.134 50.152,98.134 34.092,98.134 20.606,80.693 14.842,61.732 L 0.791,27.085 c 0,0 20.033,-14.689 38.346,-15.832 C 39.385,5.884 39.89,0.99 50.137,0.985 60.4,0.99 60.903,5.884 61.152,11.253 79.465,12.396 99.497,27.085 99.497,27.085 l -14.051,34.647 0,0 z m -66.008,3.645 c 4.398,15.322 16.354,26.775 30.685,26.775 14.326,0 26.279,-11.447 30.681,-26.76 -3.195,0.926 -7.065,1.857 -7.065,1.857 4.781,-9.225 11.393,-26.419 -1.233,-36.671 -11.624,-9.436 -22.352,4.979 -22.352,4.979 -0.016,0 -10.743,-14.415 -22.366,-4.979 -12.63,10.253 -6.018,27.447 -1.236,36.672 0,0 -3.908,-0.943 -7.114,-1.873 l 0,0 z m 20.503,14.996 c 0.363,-0.865 2.82,-2.477 5.429,-2.883 2.885,-0.455 4.207,0.148 4.734,0.832 0.526,-0.684 1.85,-1.287 4.734,-0.832 2.648,0.414 5.145,2.07 5.442,2.924 -2.977,-0.818 -6.487,-1.291 -10.247,-1.291 -3.692,0 -7.147,0.457 -10.092,1.25 l 0,0 z M 57.5,82.027 c -1.03,1.859 -3.942,3.195 -7.377,3.195 -3.405,0 -6.3,-1.316 -7.353,-3.15 1.86,0.67 4.447,1.088 7.308,1.088 2.92,0 5.555,-0.435 7.422,-1.133 l 0,0 z M 28.282,49.666 c 1.153,-2.261 4.573,-4.027 8.672,-4.122 4.36,-0.101 7.276,2.776 7.42,3.054 -2.048,-0.461 -4.565,-0.687 -7.279,-0.592 -3.486,0.12 -6.614,0.748 -8.813,1.66 l 0,0 z m 11.664,5.799 c 3.706,1.758 2.005,3.723 -1.13,2.195 -2.44,-1.191 -4.833,-2.01 -6.89,-2.42 0.243,-0.195 4.079,-1.638 8.02,0.225 l 0,0 z m 32.048,-5.799 c -2.2,-0.911 -5.328,-1.539 -8.814,-1.66 -2.713,-0.095 -5.23,0.131 -7.278,0.592 0.143,-0.277 3.06,-3.154 7.419,-3.054 4.1,0.094 7.519,1.861 8.673,4.122 l 0,0 z M 60.33,55.465 c 3.941,-1.863 7.775,-0.42 8.02,-0.225 -2.059,0.41 -4.45,1.229 -6.891,2.42 -3.134,1.528 -4.835,-0.437 -1.129,-2.195 l 0,0 z"
       id="path5"
       style="fill:#333333"
       inkscape:connector-curvature="0" /></g></svg>