<?xml version="1.0" encoding="UTF-8" standalone="no"?>
<svg
   xmlns:dc="http://purl.org/dc/elements/1.1/"
   xmlns:cc="http://creativecommons.org/ns#"
   xmlns:rdf="http://www.w3.org/1999/02/22-rdf-syntax-ns#"
   xmlns:svg="http://www.w3.org/2000/svg"
   xmlns="http://www.w3.org/2000/svg"
   xmlns:sodipodi="http://sodipodi.sourceforge.net/DTD/sodipodi-0.dtd"
   xmlns:inkscape="http://www.inkscape.org/namespaces/inkscape"
   version="1.1"
   id="Layer_1"
   x="0px"
   y="0px"
   width="100px"
   height="100px"
   viewBox="0 0 100 100"
   enable-background="new 0 0 100 100"
   xml:space="preserve"
   inkscape:version="0.48.4 r9939"
   sodipodi:docname="icon_5474.svg"><metadata
     id="metadata3052"><rdf:RDF><cc:Work
         rdf:about=""><dc:format>image/svg+xml</dc:format><dc:type
           rdf:resource="http://purl.org/dc/dcmitype/StillImage" /></cc:Work></rdf:RDF></metadata><defs
     id="defs3050" /><sodipodi:namedview
     pagecolor="#ffffff"
     bordercolor="#666666"
     borderopacity="1"
     objecttolerance="10"
     gridtolerance="10"
     guidetolerance="10"
     inkscape:pageopacity="0"
     inkscape:pageshadow="2"
     inkscape:window-width="1920"
     inkscape:window-height="1056"
     id="namedview3048"
     showgrid="false"
     inkscape:zoom="2.36"
     inkscape:cx="-0.42372881"
     inkscape:cy="50"
     inkscape:window-x="0"
     inkscape:window-y="24"
     inkscape:window-maximized="1"
     inkscape:current-layer="Layer_1" /><g
     id="g3044"
     style="fill:#333333"
     transform="matrix(0.91468992,0,0,0.91468992,3.2609703,4.4813708)"><path
       d="m 73.941,39.435 c -1.904,-0.146 -4.256,0.017 -6.812,0.507 0.258,0.321 0.438,0.71 0.514,1.142 0.246,1.383 -0.677,2.703 -2.061,2.946 -1.383,0.245 -2.702,-0.68 -2.947,-2.062 -0.05,-0.297 -0.05,-0.591 -0.002,-0.874 -2.062,0.661 -3.938,1.45 -5.533,2.297 l -1.352,-1.485 c 1.498,-1.34 4.92,-3.192 7.329,-3.884 4.495,-1.29 8.816,-0.63 10.864,1.413 l 0,0 z m -12.703,6.703 c 1.435,0.737 3.473,1.194 5.736,1.194 1.141,0 2.226,-0.116 3.205,-0.327 -0.889,0.793 -2.414,1.313 -4.142,1.313 -2.299,0.001 -4.238,-0.925 -4.799,-2.18 l 0,0 z m -20.279,0 c -0.557,1.255 -2.494,2.181 -4.795,2.181 -1.733,0 -3.255,-0.52 -4.143,-1.313 0.98,0.21 2.064,0.327 3.208,0.327 2.261,0 4.302,-0.458 5.73,-1.195 l 0,0 z M 28.26,39.435 c 2.049,-2.043 6.367,-2.703 10.861,-1.413 2.408,0.691 5.833,2.543 7.333,3.884 l -1.352,1.485 c -1.595,-0.847 -3.471,-1.636 -5.531,-2.297 0.048,0.283 0.05,0.577 -0.005,0.874 -0.244,1.382 -1.558,2.307 -2.943,2.062 -1.385,-0.243 -2.309,-1.563 -2.061,-2.946 0.074,-0.431 0.253,-0.82 0.51,-1.142 -2.556,-0.491 -4.908,-0.654 -6.812,-0.507 l 0,0 z m 33.178,30.29 c -1.205,2.164 -4.328,3.799 -8.155,4.17 0.364,5.891 6.084,13.186 16.188,10.584 l 0.883,-0.213 C 80.749,80.942 82.141,73.96 81.134,67.94 c 2.05,-0.871 3.823,-1.881 5.341,-2.912 1.17,19.248 -1.298,33.759 -35.373,33.933 -34.08,-0.174 -36.545,-14.685 -35.375,-33.933 1.517,1.031 3.293,2.041 5.341,2.912 -1.006,6.009 0.382,12.97 10.708,16.297 0.334,0.078 0.663,0.156 0.99,0.24 10.174,2.619 15.904,-4.801 16.195,-10.711 -3.335,-0.531 -6.006,-2.041 -7.121,-3.986 2.474,0.894 5.915,1.449 9.722,1.449 3.883,0 7.391,-0.577 9.876,-1.504 l 0,0 z M 51.102,66.214 c 0,0 -11.885,5.894 -25.65,2.027 C 14.018,65.027 9.475,57.171 9.475,57.171 c 0,0 11.77,7.611 22.613,3.022 16.371,-6.926 19.015,0.894 19.015,0.894 0,0 2.642,-7.817 19.012,-0.894 10.843,4.589 22.613,-3.022 22.613,-3.022 0,0 -4.543,7.856 -15.978,11.07 -13.764,3.864 -25.648,-2.027 -25.648,-2.027 l 0,0 z m 27.507,-6.075 c -0.539,-1.173 -0.979,-2.046 -1.157,-2.48 -1.597,-3.971 5.511,-1.879 4.95,-7.943 -0.123,-1.332 -0.256,-2.626 -0.396,-3.876 1.918,-0.137 4.246,-1.874 5.979,-4.695 2.437,-3.954 2.791,-8.54 0.796,-10.248 -1.996,-1.706 -5.584,0.112 -8.019,4.064 L 80.51,35.382 C 78.414,23.911 75.358,17.304 71.428,13.474 c 1.362,2.929 2.122,6.209 2.122,9.668 0,2.823 -0.506,5.526 -1.434,8.018 -2.119,-4.956 -5.413,-9.397 -9.586,-13.061 0.014,0.269 0.022,0.54 0.022,0.812 0,1.815 -0.326,3.555 -0.923,5.157 C 58.137,15.889 49.668,9.884 39.497,8.953 c -8.311,1.835 -14.369,7.538 -17.825,26.5 l -0.293,-0.495 c -2.434,-3.952 -6.019,-5.771 -8.015,-4.064 -1.994,1.708 -1.642,6.294 0.795,10.248 1.749,2.849 4.104,4.589 6.033,4.699 -0.138,1.247 -0.271,2.541 -0.392,3.872 -0.559,6.064 6.544,3.973 4.948,7.943 -0.175,0.436 -0.62,1.303 -1.155,2.477 -2.403,0.021 -4.887,-0.273 -7.429,-1.07 0.248,-3.082 0.516,-6.258 0.702,-9.483 l 0.022,-0.217 c -3.454,-4.08 -6.207,-9.436 -7.157,-13.848 -1.438,-6.689 2.206,-11.744 9.171,-6.901 0.359,0.25 0.711,0.515 1.067,0.799 0.23,-1.013 0.467,-1.986 0.709,-2.918 C 19.674,19.878 14.813,15.67 14.9,15.486 17.475,10.05 29.118,6.142 35.255,6.2 35.968,5.982 36.699,5.806 37.446,5.663 41.262,2.479 46.132,0.567 51.44,0.567 c 5.422,0 10.381,1.987 14.229,5.291 0.431,0.101 0.858,0.214 1.276,0.342 6.131,-0.063 17.787,3.846 20.361,9.286 0.092,0.184 -4.785,4.409 -5.777,11.043 0.238,0.922 0.473,1.884 0.699,2.884 0.354,-0.284 0.707,-0.549 1.064,-0.799 6.964,-4.843 10.609,0.211 9.175,6.901 -0.952,4.412 -3.702,9.768 -7.159,13.848 l 0.021,0.217 c 0.188,3.227 0.455,6.402 0.702,9.484 -2.54,0.795 -5.021,1.095 -7.422,1.075 l 0,0 z"
       id="path3046"
       style="fill:#333333"
       inkscape:connector-curvature="0" /></g></svg>