<?xml version="1.0" encoding="UTF-8" standalone="no"?>
<svg
   xmlns:dc="http://purl.org/dc/elements/1.1/"
   xmlns:cc="http://creativecommons.org/ns#"
   xmlns:rdf="http://www.w3.org/1999/02/22-rdf-syntax-ns#"
   xmlns:svg="http://www.w3.org/2000/svg"
   xmlns="http://www.w3.org/2000/svg"
   xmlns:sodipodi="http://sodipodi.sourceforge.net/DTD/sodipodi-0.dtd"
   xmlns:inkscape="http://www.inkscape.org/namespaces/inkscape"
   version="1.1"
   id="Layer_1"
   x="0px"
   y="0px"
   viewBox="0 0 100 100"
   enable-background="new 0 0 100 100"
   xml:space="preserve"
   height="100px"
   width="100px"
   inkscape:version="0.48.4 r9939"
   sodipodi:docname="icon_55244.svg"><metadata
     id="metadata9"><rdf:RDF><cc:Work
         rdf:about=""><dc:format>image/svg+xml</dc:format><dc:type
           rdf:resource="http://purl.org/dc/dcmitype/StillImage" /></cc:Work></rdf:RDF></metadata><defs
     id="defs7" /><sodipodi:namedview
     pagecolor="#ffffff"
     bordercolor="#666666"
     borderopacity="1"
     objecttolerance="10"
     gridtolerance="10"
     guidetolerance="10"
     inkscape:pageopacity="0"
     inkscape:pageshadow="2"
     inkscape:window-width="1920"
     inkscape:window-height="1056"
     id="namedview5"
     showgrid="false"
     inkscape:zoom="2.36"
     inkscape:cx="-0.42372881"
     inkscape:cy="50"
     inkscape:window-x="0"
     inkscape:window-y="24"
     inkscape:window-maximized="1"
     inkscape:current-layer="Layer_1" /><path
     d="m 87.537688,36.884422 h -0.22613 C 84.937186,19.246231 72.386935,8.7311558 57.349246,6.3567839 V 6.2437186 C 57.349246,5.5653266 56.78392,5 56.105528,5 H 44.007538 C 43.329146,5 42.763819,5.5653266 42.763819,6.2437186 V 6.3567839 C 27.726131,8.6180905 15.062814,19.246231 12.688442,36.884422 h -0.22613 c -0.678392,0 -1.243719,0.565327 -1.243719,1.243719 v 11.193467 c 0,0.678392 0.565327,1.243719 1.243719,1.243719 h 0.22613 C 15.741206,72.839196 31.231156,95 50,95 68.768844,95 84.258794,72.839196 87.198492,50.452261 h 0.339196 c 0.678392,0 1.243719,-0.565326 1.243719,-1.243718 V 38.015075 C 88.668342,37.449749 88.21608,36.884422 87.537688,36.884422 z M 49.660804,17.663317 c -1.243719,-0.113066 -2.148241,-1.130654 -2.261306,-2.261307 -0.226131,-1.809045 1.243718,-3.278894 3.052763,-3.052764 1.243719,0.113066 2.148242,1.130654 2.261307,2.261307 0.226131,1.69598 -1.243719,3.278894 -3.052764,3.052764 z M 70.577889,77.927136 C 64.472362,85.728643 57.123116,89.91206 50,89.91206 42.876884,89.91206 35.527638,85.615578 29.422111,77.927136 23.542714,70.464824 19.359297,60.515075 17.889447,50.452261 h 5.879397 c 0.678392,0 1.243719,-0.565326 1.243719,-1.243718 V 38.015075 c 0,-0.678392 -0.565327,-1.243718 -1.243719,-1.243718 h -5.879397 c 1.017588,-6.896985 4.070352,-12.889447 8.592965,-17.412061 4.296483,-4.183417 9.949749,-6.896984 16.281407,-8.027638 v 6.78392 c 0,0.678392 0.565327,1.243718 1.243719,1.243718 h 11.984924 c 0.678392,0 1.243719,-0.565326 1.243719,-1.243718 v -6.78392 c 6.331658,1.130654 11.871859,3.844221 16.168342,8.027638 4.635678,4.409548 7.575377,10.402011 8.592964,17.412061 H 76.11809 c -0.678391,0 -1.243718,0.565326 -1.243718,1.243718 v 11.193468 c 0,0.678392 0.565327,1.243718 1.243718,1.243718 h 5.766332 C 80.640704,60.515075 76.457286,70.464824 70.577889,77.927136 z M 18.115578,43.329146 c 0.113065,-1.130654 1.017588,-2.035176 2.148241,-2.148241 1.69598,-0.226131 3.052764,1.130653 2.826633,2.826633 -0.113065,1.130653 -1.017588,2.035176 -2.148241,2.148241 -1.582914,0.226131 -3.052764,-1.130653 -2.826633,-2.826633 z m 63.768844,0.678392 c -0.113065,1.130653 -1.017588,2.035176 -2.148241,2.148241 -1.69598,0.226131 -3.052764,-1.130653 -2.826633,-2.826633 0.113065,-1.130654 1.017588,-2.035176 2.148241,-2.148241 1.582915,-0.226131 3.052764,1.130653 2.826633,2.826633 z M 54.974874,68.655779 c 1.69598,-0.226131 3.16583,1.243718 2.939699,2.939698 -0.113065,1.243719 -1.130653,2.148242 -2.261307,2.261307 -1.69598,0.226131 -3.165829,-1.243719 -2.939698,-2.939699 0.113065,-1.130653 1.130653,-2.035175 2.261306,-2.261306 z m -10.62814,0 c 1.69598,-0.226131 3.165829,1.243718 2.939698,2.939698 -0.113065,1.243719 -1.130653,2.148242 -2.261306,2.261307 -1.69598,0.226131 -3.165829,-1.243719 -2.939699,-2.939699 0.113065,-1.130653 1.017588,-2.035175 2.261307,-2.261306 z m 10.62814,9.158291 c 1.69598,-0.22613 3.16583,1.243719 2.939699,2.939699 -0.113065,1.243718 -1.130653,2.148241 -2.261307,2.261306 -1.69598,0.226131 -3.165829,-1.243718 -2.939698,-2.939698 0.113065,-1.130653 1.130653,-2.148241 2.261306,-2.261307 z m -10.62814,0 c 1.69598,-0.22613 3.165829,1.243719 2.939698,2.939699 -0.113065,1.243718 -1.130653,2.148241 -2.261306,2.261306 -1.69598,0.226131 -3.165829,-1.243718 -2.939699,-2.939698 0.113065,-1.130653 1.017588,-2.148241 2.261307,-2.261307 z m 7.688442,-16.620603 c -0.791457,0 -1.469849,-0.678392 -1.469849,-1.469849 0,-0.791457 0.678392,-1.469849 1.469849,-1.469849 0.791457,0 1.469849,0.678392 1.469849,1.469849 -0.113065,0.791457 -0.678392,1.469849 -1.469849,1.469849 z m -4.070352,0 c -0.791457,0 -1.469849,-0.678392 -1.469849,-1.469849 0,-0.791457 0.678392,-1.469849 1.469849,-1.469849 0.791457,0 1.469849,0.678392 1.469849,1.469849 0,0.791457 -0.678392,1.469849 -1.469849,1.469849 z M 38.580402,50 c -3.505025,0 -6.331658,-2.826633 -6.331658,-6.331658 0,-3.505025 2.826633,-6.331659 6.331658,-6.331659 3.505025,0 6.331658,2.826634 6.331658,6.331659 C 44.91206,47.173367 42.085427,50 38.580402,50 z m 22.839196,0 c -3.505025,0 -6.331658,-2.826633 -6.331658,-6.331658 0,-3.505025 2.826633,-6.331659 6.331658,-6.331659 3.505025,0 6.331658,2.826634 6.331658,6.331659 C 67.751256,47.173367 64.924623,50 61.419598,50 z"
     id="path3"
     style="fill:#333333"
     inkscape:connector-curvature="0" /></svg>