<?xml version="1.0" encoding="UTF-8" standalone="no"?>
<svg
   xmlns:dc="http://purl.org/dc/elements/1.1/"
   xmlns:cc="http://creativecommons.org/ns#"
   xmlns:rdf="http://www.w3.org/1999/02/22-rdf-syntax-ns#"
   xmlns:svg="http://www.w3.org/2000/svg"
   xmlns="http://www.w3.org/2000/svg"
   xmlns:sodipodi="http://sodipodi.sourceforge.net/DTD/sodipodi-0.dtd"
   xmlns:inkscape="http://www.inkscape.org/namespaces/inkscape"
   version="1.1"
   id="Layer_1"
   x="0px"
   y="0px"
   width="100px"
   height="100px"
   viewBox="0 0 100 100"
   enable-background="new 0 0 100 100"
   xml:space="preserve"
   inkscape:version="0.48.4 r9939"
   sodipodi:docname="icon_14814.svg"><metadata
     id="metadata5247"><rdf:RDF><cc:Work
         rdf:about=""><dc:format>image/svg+xml</dc:format><dc:type
           rdf:resource="http://purl.org/dc/dcmitype/StillImage" /></cc:Work></rdf:RDF></metadata><defs
     id="defs5245" /><sodipodi:namedview
     pagecolor="#ffffff"
     bordercolor="#666666"
     borderopacity="1"
     objecttolerance="10"
     gridtolerance="10"
     guidetolerance="10"
     inkscape:pageopacity="0"
     inkscape:pageshadow="2"
     inkscape:window-width="1920"
     inkscape:window-height="1056"
     id="namedview5243"
     showgrid="false"
     inkscape:zoom="2.36"
     inkscape:cx="-0.42372881"
     inkscape:cy="50"
     inkscape:window-x="0"
     inkscape:window-y="24"
     inkscape:window-maximized="1"
     inkscape:current-layer="Layer_1" /><path
     d="M 50.000451,95 C 44.689211,94.90598 41.339739,93.230792 39.424075,91.749972 35.174178,88.465591 32.304752,80.336454 30.747993,74.686197 20.865016,72.428807 12.210631,68.828011 5.5044545,64.286109 6.8252585,48.14536 15.212951,34.738431 27.054081,27.131829 c 5.46312,-3.511295 11.66213,-5.786767 18.243548,-6.526272 v -5.714444 l 9.06e-4,-0.215161 C 44.365563,13.648057 43.797826,12.283859 43.797826,10.788575 43.797826,7.591886 46.387903,5 49.585497,5 c 3.198498,0 5.788575,2.591886 5.788575,5.788575 0,1.347021 -0.463773,2.587365 -1.234016,3.571866 0.0054,0.17448 0.01085,0.351672 0.01085,0.530672 v 5.658393 c 6.783924,0.671703 13.17911,2.974295 18.795917,6.582323 11.842938,7.606602 20.227919,21.012627 21.548723,37.15428 C 87.78937,68.827107 79.136793,72.426095 69.25472,74.686197 67.698864,80.336454 64.830342,88.465591 60.579542,91.749972 58.658454,93.230792 55.312598,94.905076 50.000453,95 l 0,0 z M 67.194408,72.094312 c -2.113648,0.396874 -3.994956,0.08227 -5.219932,-1.056824 -2.373108,-2.203149 -2.052174,-6.672728 1.156269,-10.659549 -1.021567,0.354384 -2.302593,0.572258 -3.907266,0.586723 -5.54358,0.05153 -6.439484,2.593694 -6.439484,2.593694 0,0 0.464677,-2.68229 2.378532,-4.663044 0.508975,0.128374 1.304531,0.133798 2.376724,0.257652 0.329975,0.03707 0.646389,0.05786 0.951051,0.06328 -0.682551,-0.159112 -1.190622,-0.772051 -1.190622,-1.502517 0,-0.122045 0.01266,-0.238666 0.03978,-0.349864 0.697016,-0.293813 1.582976,-0.544232 2.679578,-0.659045 0.231435,0.270308 0.371561,0.62198 0.371561,1.008005 0,0.68888 -0.4475,1.269274 -1.068576,1.470875 1.536869,-0.157303 2.761845,-0.872399 3.936194,-2.417406 l -0.07413,-0.01085 c 3.522144,-0.329975 3.861159,-1.66886 3.845791,-2.221229 0.07775,0.718713 0.144646,2.9083 -1.61733,4.53467 -2.982431,3.326871 -3.354896,6.434964 -1.337077,8.307233 1.851477,1.719486 2.987856,2.608159 4.571736,0.231435 0.407723,-0.907657 0.886864,-1.742991 1.465451,-2.46984 3.717417,-4.696494 0.309182,-7.135597 0.510783,-16.851326 0.152783,-7.376975 -2.082911,-13.761313 -6.322863,-18.022962 -7.111187,-6.565147 -9.304391,3.58633 -14.30193,3.58633 -5.181059,0 -7.347142,-10.913583 -15.109238,-2.788062 -3.754483,4.239952 -5.71806,10.295219 -5.57703,17.225598 0.20341,9.716634 -3.206633,12.154832 0.510784,16.85223 0.501742,0.629212 0.92845,1.340693 1.300011,2.108223 1.705021,2.8188 2.858578,1.92832 4.79865,0.130182 2.010587,-1.867748 1.647162,-4.953241 -1.298203,-8.266551 -1.808082,-1.631794 -1.742992,-3.850311 -1.66434,-4.575352 -0.01627,0.550561 0.321839,1.89035 3.846695,2.221229 l -0.07413,0.01085 c 1.173446,1.540486 2.397517,2.255583 3.936195,2.419214 -0.621076,-0.201601 -1.071288,-0.785611 -1.071288,-1.472683 0,-0.387833 0.140126,-0.737697 0.373369,-1.008005 1.095697,0.114813 1.979849,0.364328 2.678673,0.659046 0.02622,0.110293 0.03978,0.227818 0.03978,0.349863 0,0.734082 -0.508071,1.343405 -1.190622,1.502517 0.304662,-0.0036 0.621076,-0.02622 0.950147,-0.06328 1.074001,-0.125662 1.868653,-0.13199 2.376724,-0.25946 1.916567,1.982562 2.379436,4.664852 2.379436,4.664852 0,0 -0.897713,-2.542164 -6.440388,-2.595502 -1.600153,-0.01627 -2.876659,-0.235051 -3.895513,-0.581298 3.205729,3.982301 3.524856,8.450975 1.151748,10.652315 -1.237632,1.149037 -3.145159,1.462739 -5.28412,1.045072 1.578456,6.483782 2.180547,14.410415 8.05591,18.498488 4.268882,1.992507 8.945486,-1.526021 9.203138,-3.522144 0.254035,1.969002 4.808594,5.41611 9.03137,3.598084 5.978424,-4.056433 6.581419,-12.038211 8.168011,-18.560867 l 0,0 z M 41.552188,29.768917 c 0,0 -5.372717,5.577029 -0.613844,15.390395 1.329844,2.741053 2.935422,3.821382 5.827449,7.144637 0.857934,0.967324 1.076713,2.364067 1.076713,2.364067 l 0.836238,4.26617 c -0.009,-0.03887 -0.03074,-0.13199 -0.07684,-0.277541 0.215161,1.396744 0.04882,2.902876 -0.07594,4.045584 -0.58401,5.304009 -0.320031,7.312788 -0.244996,8.601951 0.01718,0.292005 0.128374,1.457314 -0.225105,1.457314 -0.355288,0 -0.800981,-0.516208 -1.686037,-0.70244 -1.638122,-0.34896 -1.784577,1.24396 -2.149809,1.24396 -0.385122,-0.03254 -0.09312,-1.91295 2.001546,-1.995218 2.424639,0.122949 -0.508071,-2.474361 1.166213,-6.45847 0.904946,-2.154329 1.192431,-5.304008 0.643678,-6.330095 -0.03978,-0.07956 -0.136511,-0.251323 -0.136511,-0.251323 C 46.614821,55.869487 43.417228,55.490693 40.498079,55.036865 26.748518,52.897904 35.30798,38.209044 35.30798,38.209044 c 0,0 -4.578968,10.061977 3.853927,12.39802 3.037578,0.837142 5.134049,1.934647 6.57509,3.146967 -1.321708,-1.755648 -3.22833,-3.965125 -5.976615,-6.659167 -10.44077,-10.242785 1.791809,-17.325947 1.791809,-17.325947 l 0,0 z m 16.892008,0 c 0,0 12.228962,7.084066 1.788193,17.322331 -2.711219,2.659689 -4.605185,4.848372 -5.924181,6.590459 1.437425,-1.185198 3.511295,-2.254678 6.491015,-3.077356 8.433799,-2.335138 3.855735,-12.397115 3.855735,-12.397115 0,0 8.562173,14.689764 -5.189196,16.826917 -2.919149,0.453828 -6.11855,0.833526 -7.396864,3.231042 0,0 -0.09583,0.171768 -0.135606,0.253132 -0.546945,1.026991 -0.260365,4.175766 0.642772,6.330095 1.674284,3.981397 -1.25752,6.578707 1.166213,6.457566 2.092855,0.08227 2.384861,1.962673 2.002451,1.995218 -0.365233,0 -0.512591,-1.591112 -2.14981,-1.24396 -0.885959,0.188944 -1.33346,0.701536 -1.68694,0.701536 -0.35348,0 -0.243187,-1.165309 -0.226011,-1.45641 0.07684,-1.289163 0.339016,-3.296134 -0.244995,-8.602855 -0.118429,-1.085753 -0.275732,-2.493345 -0.104868,-3.828614 l -0.01537,0.06419 0.01899,-0.09854 c 0.03526,-0.26398 0.08408,-0.525247 0.14555,-0.778379 l 0.02983,-0.119333 0.639157,-3.270821 c 0,0 0.220586,-1.396743 1.077617,-2.364067 2.892027,-3.321447 4.500316,-4.401776 5.828352,-7.143733 4.759777,-9.816078 -0.612035,-15.391299 -0.612035,-15.391299 l 0,0 z M 41.602814,83.28182 c 0.300142,-0.676223 2.328809,-1.933744 4.485852,-2.253775 2.383957,-0.352576 3.476942,0.119334 3.910882,0.65091 0.434844,-0.531576 1.528734,-1.001678 3.910882,-0.65091 2.191395,0.324551 4.250801,1.616426 4.497604,2.285416 -2.458088,-0.640965 -5.359155,-1.008006 -8.463632,-1.008006 -3.053851,0.0018 -5.907005,0.356193 -8.341587,0.976365 l 0,0 z m 8.441032,3.169568 c -3.169568,-0.02622 -3.424507,-0.86336 -3.42722,-1.206895 -0.0027,-0.524344 2.090143,-0.645485 3.42722,-0.650006 1.337077,0.0045 3.428123,0.125662 3.425412,0.650006 -9.04e-4,0.343535 -0.256748,1.180678 -3.425412,1.206895 l 0,0 z M 47.939237,75.01798 c 0.38693,0.760299 1.03784,0.700632 2.053078,0.700632 1.015238,0 1.667051,0.05786 2.053077,-0.700632 2.722972,-0.951955 2.734724,-0.589434 2.782638,-0.365232 0.141031,0.681647 -2.548491,0.891384 -3.282573,1.780961 -0.431227,0.523439 -0.344439,1.260233 -1.553142,1.267465 -1.209607,-0.0081 -1.121915,-0.74493 -1.554047,-1.267465 -0.733176,-0.886865 -3.422699,-1.099314 -3.281669,-1.780961 0.04791,-0.225106 0.05967,-0.585819 2.782638,0.365232 l 0,0 z m -3.62882,1.036935 c 6.799292,2.355027 5.786767,5.555333 -2.731108,2.982432 -5.208181,-1.57484 -6.97558,0.224202 -6.97558,0.224202 0,0 3.668598,-5.299489 9.706688,-3.206634 l 0,0 z m 11.39363,0 c 6.037186,-2.091951 9.705784,3.206634 9.705784,3.206634 0,0 -1.765591,-1.799042 -6.974676,-0.224202 -8.51878,2.571997 -9.528593,-0.627405 -2.731108,-2.982432 l 0,0 z"
     id="path5241"
     style="fill:#333333"
     inkscape:connector-curvature="0" /></svg>