<?xml version="1.0" encoding="UTF-8" standalone="no"?>
<svg
   xmlns:dc="http://purl.org/dc/elements/1.1/"
   xmlns:cc="http://creativecommons.org/ns#"
   xmlns:rdf="http://www.w3.org/1999/02/22-rdf-syntax-ns#"
   xmlns:svg="http://www.w3.org/2000/svg"
   xmlns="http://www.w3.org/2000/svg"
   xmlns:sodipodi="http://sodipodi.sourceforge.net/DTD/sodipodi-0.dtd"
   xmlns:inkscape="http://www.inkscape.org/namespaces/inkscape"
   version="1.0"
   id="Layer_1"
   x="0px"
   y="0px"
   width="100"
   height="100"
   viewBox="0 0 100 100"
   xml:space="preserve"
   inkscape:version="0.48.4 r9939"
   sodipodi:docname="icon_50348_white.svg"><metadata
     id="metadata9"><rdf:RDF><cc:Work
         rdf:about=""><dc:format>image/svg+xml</dc:format><dc:type
           rdf:resource="http://purl.org/dc/dcmitype/StillImage" /><dc:title></dc:title></cc:Work></rdf:RDF></metadata><defs
     id="defs7" /><sodipodi:namedview
     pagecolor="#ffffff"
     bordercolor="#666666"
     borderopacity="1"
     objecttolerance="10"
     gridtolerance="10"
     guidetolerance="10"
     inkscape:pageopacity="0"
     inkscape:pageshadow="2"
     inkscape:window-width="1920"
     inkscape:window-height="1056"
     id="namedview5"
     showgrid="false"
     inkscape:zoom="3.2091769"
     inkscape:cx="-111.83864"
     inkscape:cy="74.645522"
     inkscape:window-x="0"
     inkscape:window-y="24"
     inkscape:window-maximized="1"
     inkscape:current-layer="Layer_1" /><path
     d="M 83.324231,48.712308 C 87.793077,17.998077 70.000769,5 50,5 30.016539,5 11.646154,17.883846 16.61,48.629231 13.754231,50.948462 11.923077,54.995 11.923077,59.830769 c 0,6.476539 6.206538,12.035769 11.011154,13.801154 C 27.437692,88.613462 43.845385,95 50,95 c 6.137308,0 22.472308,-6.348462 27.031154,-21.236538 5.344615,-1.696154 11.045769,-7.757308 11.045769,-13.932693 0,-4.666154 -1.903846,-8.747307 -4.752692,-11.118461 z M 50,68.415385 c -2.523461,0 -4.569231,-2.049231 -4.569231,-4.569231 0,-2.52 2.04577,-4.569231 4.569231,-4.569231 2.523462,0 4.569231,2.049231 4.569231,4.569231 0,2.52 -2.045769,4.569231 -4.569231,4.569231 z m 3.513462,-14.791154 h -7.245 c 0,-9.896539 8.643461,-10.71 8.643461,-15.84 0,-3.253846 -2.153077,-5.04 -4.763077,-5.04 -3.447692,0 -5.763461,1.322307 -5.763461,6.978461 h -8.231539 c 0,-9.356538 6.867693,-14.06423 13.953462,-14.06423 8.328461,0 13.901538,4.43423 13.901538,11.34 0,9.865384 -10.495384,8.508461 -10.495384,16.625769 z"
     id="path3"
     style="fill:#333333"
     inkscape:connector-curvature="0" /></svg>