<?xml version="1.0" encoding="UTF-8" standalone="no"?>
<svg
   xmlns:dc="http://purl.org/dc/elements/1.1/"
   xmlns:cc="http://creativecommons.org/ns#"
   xmlns:rdf="http://www.w3.org/1999/02/22-rdf-syntax-ns#"
   xmlns:svg="http://www.w3.org/2000/svg"
   xmlns="http://www.w3.org/2000/svg"
   xmlns:sodipodi="http://sodipodi.sourceforge.net/DTD/sodipodi-0.dtd"
   xmlns:inkscape="http://www.inkscape.org/namespaces/inkscape"
   version="1.1"
   id="Layer_1"
   x="0px"
   y="0px"
   width="100px"
   height="100px"
   viewBox="0 0 100 100"
   enable-background="new 0 0 100 100"
   xml:space="preserve"
   inkscape:version="0.48.4 r9939"
   sodipodi:docname="icon_12809.svg"><metadata
     id="metadata3896"><rdf:RDF><cc:Work
         rdf:about=""><dc:format>image/svg+xml</dc:format><dc:type
           rdf:resource="http://purl.org/dc/dcmitype/StillImage" /></cc:Work></rdf:RDF></metadata><defs
     id="defs3894" /><sodipodi:namedview
     pagecolor="#ffffff"
     bordercolor="#666666"
     borderopacity="1"
     objecttolerance="10"
     gridtolerance="10"
     guidetolerance="10"
     inkscape:pageopacity="0"
     inkscape:pageshadow="2"
     inkscape:window-width="1920"
     inkscape:window-height="1056"
     id="namedview3892"
     showgrid="false"
     inkscape:zoom="2.36"
     inkscape:cx="-0.42372881"
     inkscape:cy="50"
     inkscape:window-x="0"
     inkscape:window-y="24"
     inkscape:window-maximized="1"
     inkscape:current-layer="Layer_1" /><g
     id="g3898"
     transform="matrix(0.91198945,0,0,0.91198945,4.4018949,3.3412518)"
     style="fill:#333333"><g
       id="g3874"
       style="fill:#333333"><path
         id="path3876"
         d="M 31.979,69.361 C 26.817,67.436 7.332,61.122 1.556,43.79 c 0,0 -3.833,-10.876 5.686,-13.765 11.186,-3.396 17.961,2.885 26.179,3.317 11.618,0.611 27.817,-3.967 31.469,-5.218 3.652,-1.249 8.684,-1.78 13.072,-1.345 14.324,1.421 34.527,20.315 9.082,37.746 -7.061,4.835 -11.967,4.253 -11.967,4.253 0,0 -1.875,0.392 -1.297,-2.003 0.576,-2.395 1.057,0.863 2.09,0.345 2.289,-1.148 3.066,-5.715 3.01,-7.658 -0.047,-1.708 -1.855,-5.172 -1.855,-1.856 0,2.217 -0.127,5.251 -0.645,5.449 -2.561,0.978 0.818,-17.026 -5.195,-20.226 -1.295,-0.689 -4.082,-1.009 -5.236,0.192 -1.154,1.202 -1.346,1.346 0.145,1.875 1.488,0.528 3.074,1.49 3.268,1.682 0.193,0.193 0.672,0.721 0.816,0.985 0.145,0.265 0.359,0.842 -0.193,1.178 -0.552,0.336 -0.744,-0.096 -1.057,-0.769 -0.313,-0.672 -0.936,-0.889 -0.936,-0.889 0,0 -0.963,-0.648 -0.77,0.024 0.191,0.673 0.396,1.457 -0.404,1.83 -1.375,0.643 -2.73,-0.402 -2.859,0.265 -0.145,0.745 3.102,1.49 0.844,1.404 -1.801,-0.068 -6.621,-1.008 -6.615,-4.124 0.01,-4.139 1.033,-6.94 4.547,-6.844 2.279,0.063 7.256,1.009 8.813,1.871 2.453,1.358 -1.609,-4.685 -3.965,-6.271 -2.354,-1.586 -14.416,1.489 -14.416,1.489 0,0 0.004,18.303 0.402,19.802 0.236,0.89 1.32,4.307 3.543,5.972 2.643,1.98 4.092,4.821 4.729,5.134 2.016,0.996 3.459,1.358 4.436,1.979 0.881,0.563 1.713,2.484 1.451,3.634 -0.15,0.665 -1.256,0.857 -2.266,0.604 -1.211,-0.304 -6.24,-1.875 -8.402,-1.806 -1.469,0.047 -1.869,0.819 -1.105,1.44 1.244,1.014 3.268,2.96 3.416,3.969 0.174,1.179 -8.332,4.87 -7.383,7.169 0.752,1.817 8.047,0.016 8.082,1.721 0.023,1.251 -11.258,1.274 -12.231,0.751 C 44.412,85.25 33.223,77.51 32.7,75.583 32.072,73.264 33.325,69.864 31.979,69.361 z"
         inkscape:connector-curvature="0"
         style="fill:#333333" /><path
         id="path3878"
         d="m 52.33,87.563 c -1.813,0 -4.095,-0.089 -4.562,-0.34 C 44.604,85.517 33.118,77.676 32.561,75.619 32.285,74.603 32.363,73.384 32.432,72.306 32.52,70.933 32.597,69.745 31.929,69.496 31.671,69.4 31.378,69.293 31.052,69.174 25.086,66.996 6.929,60.366 1.419,43.837 1.4,43.785 -0.447,38.422 1.675,34.232 2.734,32.14 4.592,30.679 7.2,29.887 c 2.236,-0.678 4.394,-1.009 6.595,-1.009 4.112,0 7.629,1.166 11.03,2.293 2.903,0.962 5.645,1.871 8.603,2.027 0.702,0.037 1.444,0.056 2.204,0.056 11.475,0 25.961,-4.153 29.213,-5.266 2.791,-0.955 6.432,-1.503 9.982,-1.503 1.08,0 2.141,0.051 3.148,0.15 4.199,0.417 8.832,2.304 12.715,5.177 4.225,3.128 7.131,7.119 8.189,11.238 1.346,5.256 0.4,13.268 -11.756,21.593 -5.664,3.882 -9.938,4.302 -11.512,4.302 -0.289,0 -0.469,-0.015 -0.529,-0.021 -0.043,0.008 -0.148,0.022 -0.281,0.022 -0.305,0 -0.727,-0.074 -1.006,-0.43 -0.297,-0.375 -0.348,-0.975 -0.156,-1.774 0.17,-0.71 0.348,-1 0.607,-1 0.24,0 0.424,0.272 0.641,0.585 0.217,0.315 0.486,0.706 0.758,0.706 0.053,0 0.105,-0.014 0.162,-0.042 2.164,-1.087 2.986,-5.51 2.928,-7.525 -0.035,-1.266 -0.949,-3.1 -1.314,-3.1 -0.004,0 -0.254,0.014 -0.254,1.239 0,3.519 -0.246,5.397 -0.736,5.583 -0.084,0.032 -0.164,0.048 -0.242,0.048 l 0,0 c -0.98,0.001 -1.051,-2.348 -1.154,-5.905 -0.158,-5.271 -0.371,-12.488 -3.916,-14.375 -0.682,-0.362 -1.742,-0.597 -2.705,-0.597 -1.053,0 -1.891,0.271 -2.361,0.762 l -0.088,0.092 c -0.48,0.5 -0.828,0.861 -0.787,1.033 0.037,0.165 0.484,0.344 0.963,0.514 1.512,0.536 3.105,1.501 3.322,1.716 0.168,0.168 0.68,0.721 0.842,1.018 0.313,0.574 0.221,1.086 -0.244,1.37 -0.154,0.092 -0.289,0.138 -0.416,0.138 -0.398,0 -0.59,-0.417 -0.836,-0.945 -0.293,-0.63 -0.859,-0.836 -0.865,-0.837 l -0.033,-0.017 c -0.158,-0.107 -0.438,-0.256 -0.566,-0.256 0,-0.022 -0.012,0.025 0.016,0.121 0.18,0.624 0.449,1.566 -0.479,2 -0.336,0.157 -0.695,0.232 -1.098,0.232 -0.369,0 -0.713,-0.065 -0.992,-0.117 -0.197,-0.038 -0.369,-0.069 -0.494,-0.069 -0.16,0 -0.182,0.045 -0.195,0.115 -0.047,0.241 0.65,0.604 1.025,0.799 0.441,0.229 0.662,0.345 0.615,0.534 -0.041,0.164 -0.244,0.195 -0.629,0.195 l 0,0 c -0.09,0 -0.195,-0.002 -0.316,-0.007 -1.754,-0.066 -6.76,-0.993 -6.754,-4.268 0.008,-3.001 0.482,-6.991 4.518,-6.991 0.059,0 0.117,10e-4 0.178,0.003 2.404,0.066 7.326,1.029 8.879,1.889 0.461,0.255 0.523,0.192 0.537,0.146 0.201,-0.661 -2.652,-4.825 -4.652,-6.172 -0.424,-0.285 -1.232,-0.43 -2.402,-0.43 -3.965,0 -10.842,1.677 -11.789,1.912 0.002,1.542 0.023,18.25 0.396,19.654 0.111,0.418 1.156,4.143 3.492,5.893 1.68,1.261 2.893,2.877 3.695,3.946 0.449,0.6 0.803,1.073 1.008,1.175 0.955,0.47 1.771,0.796 2.49,1.081 0.805,0.319 1.436,0.571 1.961,0.905 0.887,0.565 1.797,2.542 1.514,3.788 -0.115,0.508 -0.711,0.822 -1.555,0.822 -0.289,0 -0.596,-0.038 -0.887,-0.11 -0.23,-0.058 -0.6,-0.162 -1.061,-0.293 -1.932,-0.541 -5.568,-1.563 -7.303,-1.509 -0.85,0.026 -1.242,0.298 -1.326,0.543 -0.064,0.195 0.047,0.431 0.309,0.643 1.127,0.918 3.305,2.948 3.469,4.059 0.078,0.535 -0.979,1.263 -2.852,2.505 -2.258,1.496 -5.068,3.357 -4.543,4.629 0.313,0.752 2.049,0.815 3.652,0.815 0.207,0 0.412,0 0.619,-0.003 1.998,-0.011 3.801,-0.03 3.82,0.961 0.002,0.105 -0.039,0.203 -0.127,0.291 -0.887,0.903 -7.055,0.929 -7.754,0.929 z M 13.796,29.167 c -2.173,0 -4.303,0.326 -6.512,0.997 -2.529,0.768 -4.33,2.18 -5.351,4.199 -2.067,4.083 -0.26,9.329 -0.241,9.382 5.466,16.4 23.524,22.994 29.458,25.161 0.326,0.119 0.621,0.227 0.878,0.323 0.87,0.323 0.787,1.609 0.691,3.098 -0.067,1.055 -0.144,2.248 0.119,3.22 0.503,1.857 11.558,9.533 15.066,11.425 0.282,0.151 1.892,0.306 4.424,0.306 3.957,0 7.061,-0.348 7.547,-0.845 0.031,-0.029 0.047,-0.058 0.045,-0.082 -0.012,-0.627 -1.516,-0.679 -2.926,-0.679 -0.199,0 -0.4,0.001 -0.604,0.002 -1.973,0.009 -4.115,0.031 -4.539,-0.992 -0.617,-1.491 2.182,-3.345 4.648,-4.979 1.305,-0.864 2.783,-1.843 2.727,-2.223 -0.141,-0.941 -2.139,-2.877 -3.367,-3.877 -0.359,-0.292 -0.504,-0.643 -0.398,-0.959 0.15,-0.441 0.73,-0.711 1.592,-0.738 1.766,-0.055 5.441,0.974 7.389,1.521 0.457,0.129 0.824,0.232 1.053,0.288 0.268,0.069 0.551,0.104 0.816,0.104 0.549,0 1.174,-0.157 1.273,-0.601 0.256,-1.122 -0.592,-2.972 -1.389,-3.48 -0.5,-0.316 -1.121,-0.565 -1.91,-0.878 -0.725,-0.29 -1.547,-0.615 -2.512,-1.094 -0.266,-0.131 -0.604,-0.579 -1.111,-1.258 -0.793,-1.059 -1.992,-2.655 -3.639,-3.89 -2.412,-1.809 -3.482,-5.62 -3.598,-6.049 -0.398,-1.501 -0.406,-19.092 -0.406,-19.84 v -0.112 l 0.109,-0.027 c 0.076,-0.02 7.689,-1.949 11.969,-1.949 1.246,0 2.084,0.157 2.564,0.479 1.883,1.269 5.047,5.58 4.766,6.496 -0.045,0.15 -0.168,0.237 -0.336,0.237 -0.154,0 -0.355,-0.071 -0.617,-0.215 -1.48,-0.82 -6.4,-1.789 -8.746,-1.853 -3.043,-0.088 -4.389,1.975 -4.398,6.7 -0.008,3.048 4.793,3.916 6.477,3.979 0.115,0.004 0.217,0.006 0.305,0.006 l 0,0 c 0.09,0 0.158,-0.002 0.213,-0.005 -0.098,-0.058 -0.227,-0.124 -0.332,-0.179 -0.563,-0.293 -1.264,-0.659 -1.176,-1.11 0.045,-0.232 0.205,-0.349 0.479,-0.349 0.152,0 0.336,0.034 0.549,0.075 0.279,0.052 0.596,0.112 0.938,0.112 0.359,0 0.68,-0.067 0.975,-0.206 0.654,-0.305 0.541,-0.905 0.326,-1.658 -0.049,-0.17 -0.041,-0.296 0.025,-0.384 0.037,-0.049 0.107,-0.106 0.234,-0.106 0.246,0 0.611,0.229 0.713,0.296 0.115,0.044 0.695,0.296 1.004,0.958 0.219,0.475 0.371,0.802 0.584,0.802 0.072,0 0.162,-0.032 0.266,-0.095 0.443,-0.27 0.279,-0.733 0.141,-0.986 -0.127,-0.235 -0.576,-0.737 -0.793,-0.952 -0.162,-0.163 -1.697,-1.11 -3.213,-1.648 -0.725,-0.256 -1.08,-0.429 -1.148,-0.718 -0.076,-0.324 0.236,-0.65 0.859,-1.298 l 0.09,-0.092 c 0.525,-0.548 1.438,-0.851 2.568,-0.851 1.006,0 2.119,0.248 2.84,0.631 3.691,1.964 3.91,9.279 4.068,14.62 0.086,2.893 0.168,5.627 0.867,5.627 l 0,0 c 0.043,0 0.09,-0.01 0.141,-0.028 0.264,-0.103 0.551,-1.809 0.551,-5.315 0,-0.656 0.057,-1.528 0.541,-1.528 0.693,0 1.572,2.235 1.604,3.381 0.063,2.145 -0.783,6.632 -3.088,7.792 -0.098,0.047 -0.193,0.071 -0.291,0.071 -0.424,0 -0.729,-0.441 -0.994,-0.83 -0.127,-0.183 -0.316,-0.46 -0.404,-0.46 0,0 -0.141,0.009 -0.326,0.778 -0.172,0.711 -0.137,1.226 0.102,1.529 0.207,0.264 0.539,0.319 0.779,0.319 0.143,0 0.246,-0.021 0.246,-0.021 l 0.023,-0.004 0.023,0.003 c 0.002,0 0.184,0.02 0.518,0.02 1.547,0 5.752,-0.414 11.35,-4.249 C 98.98,56.175 99.926,48.29 98.602,43.124 96.373,34.438 86.125,27.735 77.948,26.924 c -0.998,-0.1 -2.049,-0.149 -3.119,-0.149 -3.521,0 -7.127,0.542 -9.891,1.487 -3.26,1.116 -17.79,5.281 -29.305,5.281 -0.766,0 -1.513,-0.019 -2.219,-0.056 -2.996,-0.158 -5.756,-1.073 -8.679,-2.041 -3.379,-1.121 -6.875,-2.279 -10.939,-2.279 z"
         inkscape:connector-curvature="0"
         style="fill:#333333" /></g><g
       id="g3880"
       style="fill:#333333"><path
         id="path3882"
         d="m 58.193,60.489 c 0,0 -1.043,0.403 0,1.389 1.105,1.043 2.023,1.721 2.396,0.684 0.464,-1.276 -0.401,-2.596 -2.396,-2.073 z"
         inkscape:connector-curvature="0"
         style="fill:#333333" /><path
         id="path3884"
         d="m 60.012,63.222 0,0 c -0.5,0 -1.129,-0.495 -1.916,-1.24 -0.393,-0.369 -0.559,-0.716 -0.498,-1.031 0.082,-0.413 0.525,-0.587 0.545,-0.595 0.324,-0.087 0.619,-0.128 0.893,-0.128 0.668,0 1.211,0.25 1.529,0.703 0.322,0.46 0.381,1.072 0.162,1.681 -0.147,0.405 -0.387,0.61 -0.715,0.61 z M 58.23,60.63 c 0.004,0 -0.301,0.125 -0.35,0.378 -0.041,0.209 0.104,0.473 0.412,0.766 0.609,0.573 1.287,1.16 1.719,1.16 0.125,0 0.307,-0.043 0.443,-0.421 0.188,-0.518 0.141,-1.035 -0.125,-1.416 C 59.953,60.56 59.172,60.381 58.23,60.63 l 0,0 z"
         inkscape:connector-curvature="0"
         style="fill:#333333" /></g><g
       id="g3886"
       style="fill:#333333"><path
         id="path3888"
         d="m 29.956,24.954 c 8.217,-3.244 14.704,-4.397 21.913,-4.541 7.207,-0.144 15.641,2.268 16.795,2.684 1.152,0.416 7.029,2.035 2.955,-1.818 C 66.338,16.284 50.96,14.299 40.27,15.065 29.664,15.824 21.739,28.198 29.956,24.954 z"
         inkscape:connector-curvature="0"
         style="fill:#333333" /><path
         id="path3890"
         d="m 27.734,25.639 0,0 c -1.12,0 -1.311,-0.674 -1.326,-1.076 -0.087,-2.432 5.971,-9.078 13.852,-9.643 1.478,-0.106 3.051,-0.16 4.675,-0.16 9.956,0 22.1,1.983 26.784,6.413 1.158,1.097 1.611,1.827 1.422,2.3 -0.121,0.305 -0.498,0.459 -1.119,0.459 -1.105,0 -2.771,-0.472 -3.406,-0.7 -1.004,-0.362 -9.535,-2.824 -16.744,-2.675 -7.666,0.153 -14.205,1.508 -21.862,4.531 -0.927,0.365 -1.692,0.551 -2.276,0.551 z m 17.201,-10.59 c -1.617,0 -3.184,0.053 -4.655,0.159 -7.577,0.542 -13.666,7.057 -13.584,9.345 0.019,0.529 0.369,0.798 1.038,0.798 0.547,0 1.277,-0.178 2.169,-0.531 7.691,-3.036 14.26,-4.396 21.962,-4.55 7.271,-0.151 15.65,2.26 16.848,2.692 0.594,0.214 2.252,0.684 3.309,0.684 0.338,0 0.76,-0.048 0.852,-0.278 0.076,-0.19 0.002,-0.703 -1.354,-1.985 -4.602,-4.352 -17.006,-6.334 -26.585,-6.334 z"
         inkscape:connector-curvature="0"
         style="fill:#333333" /></g></g></svg>