<?xml version="1.0" encoding="UTF-8" standalone="no"?>
<svg
   xmlns:dc="http://purl.org/dc/elements/1.1/"
   xmlns:cc="http://creativecommons.org/ns#"
   xmlns:rdf="http://www.w3.org/1999/02/22-rdf-syntax-ns#"
   xmlns:svg="http://www.w3.org/2000/svg"
   xmlns="http://www.w3.org/2000/svg"
   xmlns:sodipodi="http://sodipodi.sourceforge.net/DTD/sodipodi-0.dtd"
   xmlns:inkscape="http://www.inkscape.org/namespaces/inkscape"
   version="1.1"
   id="Your_Icon"
   x="0px"
   y="0px"
   width="100px"
   height="100px"
   viewBox="0 0 100 100"
   enable-background="new 0 0 100 100"
   xml:space="preserve"
   inkscape:version="0.48.4 r9939"
   sodipodi:docname="icon_22083.svg"><metadata
     id="metadata6576"><rdf:RDF><cc:Work
         rdf:about=""><dc:format>image/svg+xml</dc:format><dc:type
           rdf:resource="http://purl.org/dc/dcmitype/StillImage" /></cc:Work></rdf:RDF></metadata><defs
     id="defs6574" /><sodipodi:namedview
     pagecolor="#ffffff"
     bordercolor="#666666"
     borderopacity="1"
     objecttolerance="10"
     gridtolerance="10"
     guidetolerance="10"
     inkscape:pageopacity="0"
     inkscape:pageshadow="2"
     inkscape:window-width="1920"
     inkscape:window-height="1056"
     id="namedview6572"
     showgrid="false"
     inkscape:zoom="2.36"
     inkscape:cx="-0.42372881"
     inkscape:cy="50"
     inkscape:window-x="0"
     inkscape:window-y="24"
     inkscape:window-maximized="1"
     inkscape:current-layer="Your_Icon" /><g
     id="g6526"
     style="fill:#333333"
     transform="matrix(0.95183705,0,0,0.95183705,2.545212,2.6813247)"><g
       id="g6528"
       style="fill:#333333"><path
         d="M 85.233,91.125 H 14.471 c -3.324,0 -6.03,-2.709 -6.03,-6.03 V 14.33 c 0,-3.324 2.706,-6.029 6.03,-6.029 h 70.763 c 3.327,0 6.03,2.705 6.03,6.029 v 70.765 c 0,3.321 -2.703,6.03 -6.031,6.03 z M 14.471,14.208 c -0.067,0 -0.122,0.056 -0.122,0.122 v 70.765 c 0,0.066 0.055,0.121 0.122,0.121 h 70.763 c 0.068,0 0.122,-0.055 0.122,-0.121 V 14.33 c 0,-0.066 -0.054,-0.122 -0.122,-0.122 H 14.471 z"
         id="path6530"
         style="fill:#333333"
         inkscape:connector-curvature="0" /></g><g
       id="g6532"
       style="fill:#333333"><circle
         cx="31.834999"
         cy="49.709999"
         r="6.1739998"
         id="circle6534"
         style="fill:#333333"
         sodipodi:cx="31.834999"
         sodipodi:cy="49.709999"
         sodipodi:rx="6.1739998"
         sodipodi:ry="6.1739998"
         d="m 38.008999,49.709999 c 0,3.409806 -2.764194,6.174 -6.174,6.174 -3.409806,0 -6.174,-2.764194 -6.174,-6.174 0,-3.409806 2.764194,-6.174 6.174,-6.174 3.409806,0 6.174,2.764194 6.174,6.174 z" /></g><g
       id="g6536"
       style="fill:#333333"><circle
         cx="67.863998"
         cy="49.709999"
         r="6.1729999"
         id="circle6538"
         style="fill:#333333"
         sodipodi:cx="67.863998"
         sodipodi:cy="49.709999"
         sodipodi:rx="6.1729999"
         sodipodi:ry="6.1729999"
         d="m 74.036998,49.709999 c 0,3.409254 -2.763746,6.173 -6.173,6.173 -3.409253,0 -6.172999,-2.763746 -6.172999,-6.173 0,-3.409254 2.763746,-6.173 6.172999,-6.173 3.409254,0 6.173,2.763746 6.173,6.173 z" /></g><g
       id="g6540"
       style="fill:#333333"><ellipse
         cx="31.292999"
         cy="19.528999"
         rx="20.558001"
         ry="10.761"
         id="ellipse6542"
         style="fill:#333333"
         sodipodi:cx="31.292999"
         sodipodi:cy="19.528999"
         sodipodi:rx="20.558001"
         sodipodi:ry="10.761"
         d="m 51.851,19.528999 c 0,5.943136 -9.204131,10.761 -20.558001,10.761 -11.35387,0 -20.558,-4.817864 -20.558,-10.761 0,-5.943136 9.20413,-10.7609994 20.558,-10.7609994 11.35387,0 20.558001,4.8178634 20.558001,10.7609994 z" /></g><g
       id="g6544"
       style="fill:#333333"><ellipse
         cx="49.379002"
         cy="22.851"
         rx="20.558001"
         ry="12.076"
         id="ellipse6546"
         style="fill:#333333"
         sodipodi:cx="49.379002"
         sodipodi:cy="22.851"
         sodipodi:rx="20.558001"
         sodipodi:ry="12.076"
         d="m 69.937002,22.851 c 0,6.669391 -9.20413,12.076 -20.558,12.076 -11.353871,0 -20.558001,-5.406609 -20.558001,-12.076 0,-6.669391 9.20413,-12.076 20.558001,-12.076 11.35387,0 20.558,5.406609 20.558,12.076 z" /></g><g
       id="g6548"
       style="fill:#333333"><ellipse
         cx="68.933998"
         cy="19.528999"
         rx="20.559"
         ry="10.761"
         id="ellipse6550"
         style="fill:#333333"
         sodipodi:cx="68.933998"
         sodipodi:cy="19.528999"
         sodipodi:rx="20.559"
         sodipodi:ry="10.761"
         d="m 89.492998,19.528999 c 0,5.943136 -9.204578,10.761 -20.559,10.761 -11.354422,0 -20.559,-4.817864 -20.559,-10.761 0,-5.943136 9.204578,-10.7609994 20.559,-10.7609994 11.354422,0 20.559,4.8178634 20.559,10.7609994 z" /></g><g
       id="g6552"
       style="fill:#333333"><path
         d="m 12.281,55.329 c 0,1.566 -1.26,2.835 -2.816,2.835 H 5.396 c -1.557,0 -2.817,-1.269 -2.817,-2.835 V 40.835 C 2.579,39.269 3.839,38 5.396,38 h 4.069 c 1.556,0 2.816,1.269 2.816,2.835 v 14.494 z"
         id="path6554"
         style="fill:#333333"
         inkscape:connector-curvature="0" /></g><g
       id="g6556"
       style="fill:#333333"><path
         d="m 97.133,55.329 c 0,1.566 -1.271,2.835 -2.837,2.835 h -4.097 c -1.565,0 -2.836,-1.269 -2.836,-2.835 V 40.835 C 87.363,39.269 88.634,38 90.199,38 h 4.097 c 1.566,0 2.837,1.269 2.837,2.835 v 14.494 z"
         id="path6558"
         style="fill:#333333"
         inkscape:connector-curvature="0" /></g><g
       id="g6560"
       style="fill:#333333"><path
         d="m 41.523,41.716 c 0,0.81 -0.529,1.466 -1.182,1.466 H 23.328 c -0.652,0 -1.182,-0.656 -1.182,-1.466 V 40.37 c 0,-0.81 0.529,-1.464 1.182,-1.464 h 17.014 c 0.652,0 1.182,0.655 1.182,1.464 v 1.346 z"
         id="path6562"
         style="fill:#333333"
         inkscape:connector-curvature="0" /></g><g
       id="g6564"
       style="fill:#333333"><path
         d="m 77.552,41.716 c 0,0.81 -0.527,1.466 -1.18,1.466 H 59.358 c -0.653,0 -1.181,-0.656 -1.181,-1.466 V 40.37 c 0,-0.81 0.527,-1.464 1.181,-1.464 h 17.014 c 0.652,0 1.18,0.655 1.18,1.464 v 1.346 z"
         id="path6566"
         style="fill:#333333"
         inkscape:connector-curvature="0" /></g><g
       id="g6568"
       style="fill:#333333"><path
         d="m 63.203,64.386 h -1.301 c -1.882,2.456 -5.305,5.197 -11.226,5.197 l -0.008,-0.007 -0.009,0.007 c -5.917,0 -9.345,-2.741 -11.227,-5.197 H 38.133 35.32 c 0,0 2.95,10.396 15.337,10.396 l 0.011,-0.008 0.01,0.008 c 12.387,0 15.338,-10.396 15.338,-10.396 h -2.813 z"
         id="path6570"
         style="fill:#333333"
         inkscape:connector-curvature="0" /></g></g></svg>