<?xml version="1.0" encoding="UTF-8" standalone="no"?>
<svg
   xmlns:dc="http://purl.org/dc/elements/1.1/"
   xmlns:cc="http://creativecommons.org/ns#"
   xmlns:rdf="http://www.w3.org/1999/02/22-rdf-syntax-ns#"
   xmlns:svg="http://www.w3.org/2000/svg"
   xmlns="http://www.w3.org/2000/svg"
   xmlns:sodipodi="http://sodipodi.sourceforge.net/DTD/sodipodi-0.dtd"
   xmlns:inkscape="http://www.inkscape.org/namespaces/inkscape"
   inkscape:version="1.0beta1 (32d4812, 2019-09-19)"
   height="90"
   width="90"
   sodipodi:docname="icon_126895.svg"
   id="svg16"
   xml:space="preserve"
   enable-background="new 0 0 90 90"
   viewBox="0 0 90 90"
   y="0px"
   x="0px"
   version="1.1">
  <metadata
     id="metadata22">
    <rdf:RDF>
      <cc:Work
         rdf:about="">
        <dc:format>image/svg+xml</dc:format>
        <dc:type
           rdf:resource="http://purl.org/dc/dcmitype/StillImage" />
        <dc:title></dc:title>
      </cc:Work>
    </rdf:RDF>
  </metadata>
  <defs
     id="defs20" />
  <sodipodi:namedview
     inkscape:current-layer="svg16"
     inkscape:window-maximized="0"
     inkscape:window-y="23"
     inkscape:window-x="0"
     inkscape:cy="63.844802"
     inkscape:cx="59.818587"
     inkscape:zoom="4.0698843"
     showgrid="false"
     id="namedview18"
     inkscape:window-height="907"
     inkscape:window-width="1600"
     inkscape:pageshadow="2"
     inkscape:pageopacity="0"
     guidetolerance="10"
     gridtolerance="10"
     objecttolerance="10"
     borderopacity="1"
     inkscape:document-rotation="0"
     bordercolor="#666666"
     pagecolor="#ffffff" />
  <path
     inkscape:connector-curvature="0"
     id="path10"
     d="M 76.046,9.532 C 75.203,8.559 74.031,8.035 72.565,7.976 c -2.339,-0.096 -4.79,1.611 -6.42,2.904 -3.742,2.968 -6.574,6.955 -9.313,10.811 -0.334,0.471 -0.667,0.94 -0.999,1.403 -0.143,0.198 -0.285,0.397 -0.43,0.594 -0.322,0.448 -0.655,0.912 -0.979,1.377 -2.366,-0.702 -4.823,-1.058 -7.339,-1.058 h -4.168 c -2.516,0 -4.972,0.356 -7.338,1.058 -0.324,-0.465 -0.657,-0.929 -0.98,-1.377 -0.144,-0.197 -0.286,-0.396 -0.429,-0.594 -0.332,-0.463 -0.665,-0.932 -1,-1.403 -2.739,-3.856 -5.571,-7.843 -9.313,-10.811 -1.63,-1.293 -4.079,-3.002 -6.42,-2.904 -1.467,0.06 -2.639,0.583 -3.482,1.556 -1.912,2.207 -1.52,6.055 -1.258,8.6 0.208,2.048 0.608,4.077 0.994,6.038 0.131,0.662 0.261,1.324 0.384,1.986 0.555,2.986 1.282,6.173 2.289,10.033 0.441,1.687 0.918,3.41 1.42,5.122 0.243,0.825 0.5,1.679 0.767,2.538 0.055,0.181 0.15,0.404 0.27,0.688 0.122,0.291 0.363,0.861 0.428,1.139 -0.9,2.473 -1.356,5.072 -1.356,7.727 0,5.993 2.319,11.627 6.532,15.883 l -0.633,1.82 c -0.214,0.456 -1.245,2.859 -0.443,5.3 0.502,1.527 1.594,2.736 3.245,3.593 0.37,0.273 1.582,1.064 3.296,1.064 v 0 c 1.156,0 2.286,-0.36 3.36,-1.073 l 0.203,-0.128 c 1.185,0.889 3.865,2.168 9.466,2.168 h 4.168 c 5.6,0 8.278,-1.277 9.467,-2.168 l 0.203,0.128 c 1.073,0.713 2.204,1.073 3.359,1.073 1.715,0 2.927,-0.791 3.296,-1.064 1.651,-0.856 2.743,-2.065 3.245,-3.593 0.802,-2.44 -0.229,-4.844 -0.442,-5.3 l -0.634,-1.82 c 4.212,-4.256 6.532,-9.89 6.532,-15.883 0,-2.655 -0.457,-5.254 -1.357,-7.727 0.065,-0.277 0.307,-0.848 0.429,-1.139 0.119,-0.284 0.214,-0.507 0.269,-0.688 0.268,-0.859 0.524,-1.713 0.767,-2.538 0.502,-1.711 0.979,-3.435 1.421,-5.122 1.006,-3.86 1.734,-7.047 2.288,-10.033 0.124,-0.663 0.254,-1.325 0.385,-1.986 0.386,-1.961 0.785,-3.99 0.994,-6.038 0.256,-2.546 0.649,-6.394 -1.263,-8.6 z M 34.461,35.753 C 36.53,30.875 39.297,27.16 45,27.16 c 5.702,0 8.464,3.705 10.538,8.593 0.609,1.436 0.77,3.195 0.179,4.661 -0.693,1.718 -2.748,1.886 -3.668,3.426 -0.542,0.905 -0.865,2.12 -0.865,3.249 0,0.919 0.222,1.732 0.545,2.433 -3.108,-0.631 -6.48,-0.404 -9.637,-0.386 -0.551,0.003 -1.099,0.026 -1.646,0.073 -0.302,0.026 -2.062,0.068 -2.174,0.312 0.324,-0.7 0.545,-1.514 0.545,-2.433 0,-1.129 -0.323,-2.344 -0.865,-3.249 -0.797,-1.333 -2.621,-1.474 -3.375,-2.829 -0.89,-1.598 -0.814,-3.612 -0.116,-5.257 z M 18.082,19.762 c 0,0 -2.49,-13.583 11.731,8.663 0,0 -5.43,3.987 -7.543,10.81 -0.001,-0.189 -4.125,-15.878 -4.188,-19.473 z m 2.113,31.898 c 0,-3.014 2.445,-5.459 5.46,-5.459 3.015,0 5.459,2.445 5.459,5.459 0,3.016 -2.445,5.461 -5.459,5.461 -3.015,0 -5.46,-2.445 -5.46,-5.461 z m 26.889,28.256 h -4.168 c -4.096,0 -6.333,-0.717 -7.479,-1.303 L 45,72.601 l 9.564,6.013 c -1.145,0.586 -3.381,1.302 -7.48,1.302 z m 17.562,-4.17 c -0.33,1.003 -1.098,1.815 -2.281,2.412 -0.064,0.032 -0.135,0.078 -0.19,0.123 -0.009,0.007 -0.854,0.668 -2.062,0.668 -0.735,0 -1.477,-0.245 -2.199,-0.727 C 57.906,78.216 57.897,78.21 57.89,78.206 L 46.057,70.77 V 59.445 c 0,-0.585 -0.473,-1.057 -1.057,-1.057 -0.584,0 -1.057,0.472 -1.057,1.057 V 70.77 L 32.11,78.207 c -0.008,0.004 -0.016,0.01 -0.024,0.016 -0.724,0.481 -1.464,0.727 -2.2,0.727 -1.208,0 -2.053,-0.661 -2.055,-0.662 -0.061,-0.051 -0.127,-0.094 -0.198,-0.129 -3.875,-1.956 -2.134,-5.749 -1.924,-6.172 0.021,-0.042 0.04,-0.085 0.056,-0.13 l 4.54,-13.072 c 0.007,-0.02 0.013,-0.04 0.019,-0.06 0.719,-2.547 2.453,-4.831 4.876,-5.973 3.167,-1.491 6.516,-1.479 9.945,-1.476 4.304,0.003 10.081,0.045 12.82,4.037 0.676,0.986 1.386,2.257 1.712,3.411 0.006,0.02 0.011,0.04 0.018,0.06 l 4.54,13.072 c 0.016,0.045 0.034,0.088 0.056,0.13 0.009,0.019 0.947,1.958 0.355,3.76 z M 64.345,57.121 c -3.014,0 -5.459,-2.445 -5.459,-5.461 0,-3.014 2.445,-5.459 5.459,-5.459 3.016,0 5.461,2.445 5.461,5.459 0,3.016 -2.446,5.461 -5.461,5.461 z M 71.918,19.762 C 71.855,23.357 67.731,39.046 67.731,39.235 65.617,32.413 60.187,28.425 60.187,28.425 74.409,6.18 71.918,19.762 71.918,19.762 Z M 29.355,51.66 c 0,-2.043 -1.657,-3.699 -3.7,-3.699 -2.044,0 -3.701,1.656 -3.701,3.699 0,2.045 1.656,3.701 3.701,3.701 2.043,0 3.7,-1.656 3.7,-3.701 z m -5.695,2.077 c -0.574,0 -1.038,-0.466 -1.038,-1.038 0,-0.573 0.464,-1.039 1.038,-1.039 0.573,0 1.037,0.466 1.037,1.039 0,0.572 -0.465,1.038 -1.037,1.038 z m 40.685,-5.776 c -2.043,0 -3.699,1.656 -3.699,3.699 0,2.045 1.656,3.701 3.699,3.701 2.045,0 3.701,-1.656 3.701,-3.701 0,-2.043 -1.656,-3.699 -3.701,-3.699 z m -1.994,5.776 c -0.573,0 -1.038,-0.466 -1.038,-1.038 0,-0.573 0.465,-1.039 1.038,-1.039 0.573,0 1.037,0.466 1.037,1.039 0,0.572 -0.464,1.038 -1.037,1.038 z m -11.772,0.052 c -1.438,-1.013 -2.84,-1.101 -4.27,-1.105 l -0.524,-0.002 c -0.523,-0.004 -1.047,-0.004 -1.57,0 l -0.526,0.002 c -1.428,0.005 -2.831,0.093 -4.268,1.105 -2.096,1.476 -2.683,4.416 -1.285,6.419 0.913,1.308 2.68,1.737 4.021,0.98 0.849,-0.479 2.166,-1.663 1.451,-4.204 -0.158,-0.562 -0.74,-0.89 -1.303,-0.731 -0.563,0.159 -0.89,0.741 -0.731,1.304 0.344,1.222 -0.056,1.565 -0.456,1.791 -0.397,0.225 -0.958,0.068 -1.248,-0.349 -0.812,-1.162 -0.247,-2.769 0.768,-3.482 0.855,-0.603 1.702,-0.715 3.059,-0.72 l 0.531,-0.002 c 0.516,-0.003 1.031,-0.003 1.547,0 l 0.529,0.002 c 1.357,0.005 2.204,0.117 3.061,0.72 1.014,0.714 1.578,2.32 0.768,3.482 -0.291,0.417 -0.852,0.573 -1.248,0.349 -0.4,-0.226 -0.8,-0.569 -0.457,-1.791 0.159,-0.562 -0.169,-1.146 -0.731,-1.304 -0.562,-0.159 -1.144,0.17 -1.303,0.731 -0.714,2.541 0.603,3.725 1.451,4.204 0.447,0.253 0.942,0.374 1.437,0.374 0.988,0 1.977,-0.482 2.584,-1.354 1.397,-2.003 0.809,-4.943 -1.287,-6.419 z" />
</svg>
