<?xml version="1.0" encoding="UTF-8" standalone="no"?>
<svg
   xmlns:dc="http://purl.org/dc/elements/1.1/"
   xmlns:cc="http://creativecommons.org/ns#"
   xmlns:rdf="http://www.w3.org/1999/02/22-rdf-syntax-ns#"
   xmlns:svg="http://www.w3.org/2000/svg"
   xmlns="http://www.w3.org/2000/svg"
   xmlns:sodipodi="http://sodipodi.sourceforge.net/DTD/sodipodi-0.dtd"
   xmlns:inkscape="http://www.inkscape.org/namespaces/inkscape"
   version="1.1"
   id="Layer_1"
   x="0px"
   y="0px"
   width="100px"
   height="100px"
   viewBox="0 0 100 100"
   enable-background="new 0 0 100 100"
   xml:space="preserve"
   inkscape:version="0.48.4 r9939"
   sodipodi:docname="icon_29515.svg"><metadata
     id="metadata6678"><rdf:RDF><cc:Work
         rdf:about=""><dc:format>image/svg+xml</dc:format><dc:type
           rdf:resource="http://purl.org/dc/dcmitype/StillImage" /></cc:Work></rdf:RDF></metadata><defs
     id="defs6676" /><sodipodi:namedview
     pagecolor="#ffffff"
     bordercolor="#666666"
     borderopacity="1"
     objecttolerance="10"
     gridtolerance="10"
     guidetolerance="10"
     inkscape:pageopacity="0"
     inkscape:pageshadow="2"
     inkscape:window-width="1920"
     inkscape:window-height="1056"
     id="namedview6674"
     showgrid="false"
     inkscape:zoom="2.36"
     inkscape:cx="-0.42372881"
     inkscape:cy="50"
     inkscape:window-x="0"
     inkscape:window-y="24"
     inkscape:window-maximized="1"
     inkscape:current-layer="Layer_1" /><g
     id="g6652"
     style="fill:#333333"
     transform="matrix(0.96417263,0,0,0.96417263,1.8437511,1.7307606)"><path
       d="m 46.826,63.125 c 0.232,-0.168 0.463,-0.078 0.688,0.09 0.82,0.617 1.379,0.906 2.494,0.906 0.666,0 1.18,-0.127 1.602,-0.32 0.392,-0.18 1.207,-0.961 1.603,-0.676 0.654,0.715 1.728,-0.268 1.072,-0.982 0,0 -0.08,-0.09 -0.229,-0.199 -1.553,-1.135 -2.504,0.726 -4.047,0.726 -1.533,0 -2.461,-1.867 -4.025,-0.726 -0.148,0.109 -0.227,0.199 -0.227,0.199 -0.655,0.714 0.415,1.697 1.069,0.982 z"
       id="path6654"
       style="fill:#333333"
       inkscape:connector-curvature="0" /><path
       d="m 39.674,47.363 c -1.738,-0.121 -3.375,0.29 -4.596,1.105 l -1.166,-0.52 c -0.885,-0.393 -1.475,0.936 -0.59,1.328 l 0.578,0.258 c -0.061,0.076 -0.117,0.154 -0.174,0.236 l -1.311,-0.377 c -0.93,-0.27 -1.33,1.128 -0.4,1.397 l 1.914,0.549 c 0.41,0.117 0.717,-0.088 0.877,-0.416 0.568,-1.057 1.953,-1.911 3.777,-2.04 -0.648,0.329 -1.113,0.984 -1.166,1.762 -0.082,1.181 0.807,2.203 1.988,2.289 1.182,0.082 2.205,-0.811 2.287,-1.99 0.053,-0.744 -0.281,-1.425 -0.83,-1.847 1.65,0.432 2.83,1.421 3.221,2.474 0.354,0.953 1.783,0.423 1.43,-0.532 -0.759,-2.049 -3.14,-3.487 -5.839,-3.676 z"
       id="path6656"
       style="fill:#333333"
       inkscape:connector-curvature="0" /><path
       d="m 83.266,73.33 c -0.07,-0.24 -0.146,-0.479 -0.229,-0.711 -1.584,-4.455 -5.1,-6.648 -5.1,-11.451 0,-1.396 0.699,-3.688 1.434,-5.205 l 0.029,-0.061 0.029,-0.06 0.026,-0.059 c 1.33,-2.662 3.248,-8.659 -0.44,-10.257 V 45.4 c 0,-9.345 -1.121,-18.353 -3.058,-25.683 l -0.056,-0.003 c -1.375,-5.04 -3.676,-8.346 -6.282,-8.346 -0.293,0 -0.513,0.047 -0.806,0.128 0.021,0.208 0.037,0.421 0.052,0.638 0.432,7.375 -1.541,13.629 -5.188,18.265 2.872,-0.445 4.368,1.239 4.731,3.534 0.385,2.428 0.87,4.194 1.36,5.608 0.232,0.676 0.461,1.268 0.674,1.802 1.271,-0.082 2.55,-0.124 3.834,-0.127 2.033,-0.005 1.781,2.262 1.843,3.532 0.03,0.598 -0.259,1.176 -0.74,1.517 0,0 -0.746,0.62 -3.246,5.146 -0.11,0.198 -0.227,0.396 -0.346,0.59 0.334,0.146 0.771,0.047 0.965,-0.396 l 0.05,-0.135 0.079,-0.248 0.066,-0.188 0.032,-0.05 c 0.066,-0.178 0.134,-0.342 0.201,-0.529 0.09,-0.203 0.187,-0.404 0.287,-0.6 l 0.139,-0.259 c 0.183,-0.331 0.379,-0.653 0.586,-0.952 1.943,-2.795 5.584,-2.93 5.517,1.061 -0.063,3.762 -2.646,8.327 -5.887,10.232 -0.41,0.244 -2.644,0.984 -2.787,1.394 -2.019,5.707 -3.66,9.071 -5.334,11.287 -0.531,0.703 -1.062,1.291 -1.611,1.803 -2.536,2.361 -6.188,3.647 -9.223,5.234 -2.152,1.129 -1.935,1.223 -4.916,1.245 -1.314,-0.012 -2.768,0.029 -3.936,-0.68 -2.73,-1.66 -5.957,-2.721 -8.609,-4.545 -0.092,-0.117 -0.205,-0.193 -0.328,-0.229 -0.436,-0.318 -0.857,-0.658 -1.256,-1.027 -0.547,-0.512 -1.078,-1.098 -1.609,-1.801 -1.674,-2.218 -3.314,-5.58 -5.336,-11.291 -0.053,-0.147 -0.41,-0.447 -0.564,-0.474 -2.723,-0.487 -5.266,-3.254 -6.455,-5.514 -0.881,-1.68 -3.258,-7.715 -0.014,-8.61 2.492,-0.689 4.133,1.982 4.938,3.868 0.146,0.344 0.248,0.621 0.299,0.775 l 0.053,0.152 c 0.156,0.475 0.57,0.608 0.91,0.504 -0.125,-0.203 -0.246,-0.41 -0.363,-0.619 -2.5,-4.526 -3.225,-5.133 -3.225,-5.133 -0.883,-0.584 -1.742,-5.067 1.08,-5.062 l 0.182,0.003 c -0.115,-1.188 -0.025,-2.391 0.342,-3.55 0.293,-0.922 1.68,-0.484 1.385,0.439 -0.34,1.067 -0.379,2.144 -0.258,3.151 0.816,0.034 1.896,0.091 3.141,0.193 1.287,-3.473 4.455,-5.49 8.832,-5.702 1.877,-0.091 4.701,-0.059 7.848,-0.316 C 52.295,35 56.984,33.803 60.605,31.47 65.129,27.104 67.917,20.762 67.417,12.217 67.389,11.707 67.327,11.223 67.234,10.763 65.021,5.449 57.773,3.835 52.597,3.474 51.017,3.363 49.972,3.395 49.972,3.395 c -9.834,0.309 -16.639,3.62 -20.887,7.427 -3.496,3.267 -5.174,7.758 -5.838,12.494 -1.404,6.588 -2.201,14.215 -2.201,22.096 -1.352,0.535 -2.336,1.946 -2.295,4.314 0.033,2.001 0.664,4.171 1.727,6.145 0.748,1.517 1.473,3.867 1.473,5.293 0,4.803 -3.512,6.996 -5.094,11.451 -0.086,0.231 -0.16,0.471 -0.232,0.711 -3.098,10.646 8.686,13.938 21.771,14.496 0.006,0.312 0.008,0.633 0.008,0.959 0,0 0.023,0.539 0.254,1.315 1.463,4.98 6.537,6.639 11.357,6.639 4.82,0 9.895,-1.657 11.359,-6.639 0.229,-0.776 0.252,-1.315 0.252,-1.315 0,-0.33 0.002,-0.65 0.008,-0.966 13.032,-0.569 24.72,-3.879 21.632,-14.485 z M 60.174,88.74 c -0.402,4.854 -6.041,6.547 -10.158,6.547 -4.117,0 -9.756,-1.693 -10.16,-6.547 -0.002,-3.973 -0.344,-7.279 -1.547,-10.807 1.975,1.104 4.107,1.983 6.066,3.008 2.361,1.235 2.385,1.387 5.586,1.414 1.645,-0.015 3.258,-0.019 4.691,-0.892 1.99,-1.209 4.158,-2.1 6.229,-3.164 0.303,-0.153 0.596,-0.313 0.879,-0.479 -1.235,3.571 -1.584,6.909 -1.586,10.92 z"
       id="path6658"
       style="fill:#333333"
       inkscape:connector-curvature="0" /><path
       d="m 59.047,68.775 c 0.148,-0.041 0.281,-0.084 0.393,-0.131 0.865,-0.357 0.357,-1.688 -0.541,-1.354 l -0.053,0.021 -0.141,0.045 c -2.285,0.69 -5.902,-0.83 -8.684,0.477 -2.779,-1.307 -6.389,0.213 -8.672,-0.477 L 41.204,67.311 41.151,67.29 c -0.896,-0.334 -1.406,0.996 -0.541,1.354 0.115,0.047 0.248,0.092 0.4,0.133 0.605,0.227 1.158,0.562 1.621,1.021 0.711,0.707 1.334,1.304 1.939,1.791 0.402,0.365 0.814,0.716 1.244,1.029 l 0.003,0.001 c 1.182,0.867 2.502,1.486 4.133,1.516 h 0.156 c 1.63,-0.029 2.949,-0.648 4.132,-1.516 l -0.002,-0.003 c 0.225,-0.161 0.439,-0.333 0.652,-0.509 1.618,-1.115 2.342,-2.652 4.159,-3.332 z m -9.869,4.651 C 48.719,73.358 48.459,73.346 48,73.172 47.734,73.07 47.678,72.817 47.756,72.619 l -0.003,-0.005 c 0.078,-0.197 0.287,-0.345 0.551,-0.242 0.363,0.142 0.621,0.151 0.996,0.205 0.049,0.008 0.096,0.021 0.133,0.041 l 0.003,0.001 c 0.404,0.188 0.253,0.883 -0.258,0.807 z m 4.98,-2.594 c -0.926,0.637 -2.143,1.096 -4.121,1.104 -1.99,-0.008 -3.215,-0.465 -4.139,-1.1 -0.594,-0.51 -1.15,-1.07 -1.693,-1.604 2.166,0.174 4.619,0.219 5.764,0.225 h 0.125 c 1.134,-0.006 3.589,-0.051 5.751,-0.225 -0.538,0.534 -1.097,1.092 -1.687,1.6 z"
       id="path6660"
       style="fill:#333333"
       inkscape:connector-curvature="0" /><path
       d="m 24.771,54.398 c 0.52,1.883 2.191,2.742 1.742,0.084 -0.158,-0.945 -0.326,-1.537 -0.443,-1.902 -0.52,-1.805 -1.334,-3.307 -2.371,-4.071 -0.811,-0.598 -1.613,0.545 -0.803,1.143 0.678,0.5 1.381,1.735 1.842,3.461 -0.103,0.399 -0.129,0.692 0.033,1.285 z"
       id="path6662"
       style="fill:#333333"
       inkscape:connector-curvature="0" /><path
       d="m 53.348,45.308 c 3.004,-1.276 6.092,-2.231 9.228,-2.896 -3.218,-0.127 -6.281,0.864 -8.908,2.627 -0.125,0.082 -0.23,0.173 -0.32,0.269 z"
       id="path6664"
       style="fill:#333333"
       inkscape:connector-curvature="0" /><path
       d="m 77.09,49.652 c 0.811,-0.598 0.008,-1.74 -0.803,-1.143 -1.037,0.764 -1.852,2.267 -2.371,4.071 -0.115,0.365 -0.283,0.957 -0.441,1.902 -0.447,2.658 1.221,1.799 1.74,-0.084 0.162,-0.594 0.139,-0.888 0.033,-1.285 0.463,-1.726 1.164,-2.961 1.842,-3.461 z"
       id="path6666"
       style="fill:#333333"
       inkscape:connector-curvature="0" /><path
       d="m 67.57,49.394 -1.312,0.377 c -0.055,-0.082 -0.114,-0.16 -0.176,-0.236 l 0.58,-0.258 c 0.887,-0.393 0.295,-1.721 -0.59,-1.328 l -1.166,0.52 c -1.224,-0.815 -2.859,-1.227 -4.597,-1.104 -2.699,0.188 -5.078,1.627 -5.84,3.676 -0.354,0.955 1.076,1.485 1.432,0.533 0.39,-1.054 1.568,-2.043 3.22,-2.475 -0.549,0.422 -0.884,1.104 -0.83,1.847 0.082,1.181 1.104,2.072 2.287,1.99 1.183,-0.086 2.069,-1.108 1.987,-2.289 -0.055,-0.777 -0.518,-1.433 -1.168,-1.762 1.826,0.129 3.211,0.982 3.804,2.081 0.137,0.287 0.442,0.492 0.854,0.375 l 1.911,-0.549 C 68.902,50.523 68.5,49.125 67.57,49.394 z"
       id="path6668"
       style="fill:#333333"
       inkscape:connector-curvature="0" /><path
       d="m 71.387,51 c 2.646,-4.792 3.48,-5.418 3.48,-5.418 0.258,-0.17 0.416,-0.479 0.4,-0.791 -0.025,-0.555 0.282,-2.722 -0.986,-2.718 -7.67,0.016 -15.139,1.445 -22.094,4.688 -0.676,0.298 -1.437,0.508 -2.292,0.517 -0.85,-0.009 -1.578,-0.216 -2.25,-0.509 -5.336,-2.488 -10.67,-3.836 -16.553,-4.389 -3.225,-0.303 -5.557,-0.307 -5.557,-0.307 -1.268,-0.004 -1.387,2.979 -0.59,3.509 0,0 0.838,0.627 3.482,5.418 2.229,4.031 6.477,6.688 12.455,6.785 7.244,0.115 7.387,-6.277 9.045,-6.277 0.718,0 1.767,2.262 2.101,2.775 1.16,1.773 3.005,3.566 6.9,3.502 C 64.912,57.688 69.16,55.031 71.387,51 z m -27.262,4.092 c -2.137,1.033 -5.494,0.674 -7.125,0.246 -2.848,-0.752 -6.848,-4.262 -7.438,-7.349 -1.248,-6.535 15.4,-0.12 16.545,1.271 1.516,1.935 -0.035,4.902 -1.982,5.832 z m 18.691,0.246 c -1.629,0.428 -4.984,0.787 -7.119,-0.244 -1.938,-0.92 -3.512,-3.887 -1.988,-5.831 1.051,-1.276 15.639,-6.755 16.229,-2.838 0.48,3.183 -2.559,7.71 -7.122,8.913 z"
       id="path6670"
       style="fill:#333333"
       inkscape:connector-curvature="0" /><path
       d="m 37.412,42.412 -0.195,0.008 c 3.254,0.67 6.391,1.647 9.516,3.001 -0.107,-0.139 -0.242,-0.27 -0.414,-0.383 -2.628,-1.762 -5.69,-2.754 -8.907,-2.626 z"
       id="path6672"
       style="fill:#333333"
       inkscape:connector-curvature="0" /></g></svg>