<?xml version="1.0" encoding="UTF-8" standalone="no"?>
<svg
   xmlns:dc="http://purl.org/dc/elements/1.1/"
   xmlns:cc="http://creativecommons.org/ns#"
   xmlns:rdf="http://www.w3.org/1999/02/22-rdf-syntax-ns#"
   xmlns:svg="http://www.w3.org/2000/svg"
   xmlns="http://www.w3.org/2000/svg"
   xmlns:sodipodi="http://sodipodi.sourceforge.net/DTD/sodipodi-0.dtd"
   xmlns:inkscape="http://www.inkscape.org/namespaces/inkscape"
   version="1.0"
   id="Layer_1"
   x="0px"
   y="0px"
   width="100px"
   height="100px"
   viewBox="0 0 100 100"
   enable-background="new 0 0 100 100"
   xml:space="preserve"
   inkscape:version="0.48.4 r9939"
   sodipodi:docname="icon_4877.svg"><metadata
     id="metadata3321"><rdf:RDF><cc:Work
         rdf:about=""><dc:format>image/svg+xml</dc:format><dc:type
           rdf:resource="http://purl.org/dc/dcmitype/StillImage" /></cc:Work></rdf:RDF></metadata><defs
     id="defs3319" /><sodipodi:namedview
     pagecolor="#ffffff"
     bordercolor="#666666"
     borderopacity="1"
     objecttolerance="10"
     gridtolerance="10"
     guidetolerance="10"
     inkscape:pageopacity="0"
     inkscape:pageshadow="2"
     inkscape:window-width="1920"
     inkscape:window-height="1056"
     id="namedview3317"
     showgrid="false"
     inkscape:zoom="2.36"
     inkscape:cx="-0.42372881"
     inkscape:cy="50"
     inkscape:window-x="0"
     inkscape:window-y="24"
     inkscape:window-maximized="1"
     inkscape:current-layer="Layer_1" /><g
     id="g3313"
     style="fill:#333333"
     transform="matrix(0.91915519,0,0,0.91915519,4.0266632,4.0863599)"><path
       d="m 52.535,49.779 c -0.023,0.301 -0.036,0.61 -0.036,0.917 0,9.041 9.112,13.812 16.687,13.812 13.734,-0.028 19.153,-10.866 19.153,-22.73 0,-6.729 -4.635,-8.555 -9.555,-6.601 -3.154,1.254 -6.281,1.666 -9.679,1.711 -7.369,0.028 -15.912,4.452 -16.57,12.891 l 0,0 z m -2.518,20.037 c -7.35,0 -24.679,0.888 -21.158,13.101 2.883,10.001 13.872,4.901 21.158,4.901 7.285,0 18.274,5.1 21.156,-4.901 C 74.695,70.704 57.366,69.816 50.017,69.816 l 0,0 z M 43.561,64.5 c -1.215,0.332 -1.923,0.843 -1.991,1.404 -0.177,1.46 1.134,1.676 2.811,1.742 h 11.357 c 1.676,-0.066 2.986,-0.282 2.811,-1.742 -0.068,-0.562 -0.775,-1.072 -1.992,-1.404 -0.588,-1.45 -3.25,-2.548 -6.525,-2.557 -3.211,0.005 -5.881,1.103 -6.471,2.557 l 0,0 z M 47.562,49.779 C 46.904,41.341 38.361,36.916 30.992,36.887 27.594,36.842 24.468,36.43 21.313,35.176 c -4.92,-1.954 -9.555,-0.128 -9.555,6.601 0,11.864 5.419,22.702 19.155,22.729 7.572,0 16.685,-4.771 16.685,-13.812 0,-0.305 -0.013,-0.614 -0.036,-0.915 l 0,0 z M 5.893,49.492 C 4.109,22.921 13.493,6.892 35.448,2.341 v 19.701 c 0,5.736 4.65,10.386 10.386,10.386 h 8.445 c 5.736,0 10.386,-4.649 10.386,-10.385 L 64.68,2.36 C 86.567,6.938 95.922,22.959 94.141,49.492 92.417,75.158 74.309,98.91 50.017,98.91 25.725,98.91 7.615,75.158 5.893,49.492 l 0,0 z M 69.18,42.426 c 12.907,-0.171 13.62,-5.217 13.62,-0.649 0,4.563 -0.792,17.165 -13.62,17.189 -6.154,0 -11.142,-3.702 -11.142,-8.271 0,-0.162 0.007,-0.323 0.019,-0.486 0.339,-4.341 5.189,-7.783 11.123,-7.783 l 0,0 z M 36.549,77.098 c 3.857,-1.111 8.511,-1.742 13.468,-1.742 4.956,0 9.609,0.631 13.467,1.742 4.437,1.278 2.518,7.932 -1.918,6.652 -3.146,-0.907 -7.144,-1.469 -11.549,-1.469 -4.407,0 -8.404,0.562 -11.55,1.469 -4.435,1.279 -6.353,-5.374 -1.918,-6.652 l 0,0 z M 30.918,42.426 c 5.934,0 10.783,3.442 11.122,7.782 0.013,0.163 0.019,0.324 0.019,0.485 0,4.568 -4.988,8.271 -11.141,8.271 -12.828,-0.025 -13.62,-12.625 -13.62,-17.188 0,-4.567 0.712,0.479 13.62,0.65 l 0,0 z M 40.987,1.466 c 2.79,-0.314 5.752,-0.472 8.888,-0.472 h 0.141 0.141 c 3.172,0 6.166,0.161 8.983,0.482 L 59.126,22.04 c 0,2.677 -2.17,4.848 -4.849,4.848 h -8.444 c -2.677,0 -4.847,-2.17 -4.847,-4.847 l 0.001,-20.575 0,0 z"
       id="path3315"
       style="fill:#333333"
       inkscape:connector-curvature="0" /></g></svg>