<?xml version="1.0" encoding="UTF-8" standalone="no"?>
<svg
   xmlns:dc="http://purl.org/dc/elements/1.1/"
   xmlns:cc="http://creativecommons.org/ns#"
   xmlns:rdf="http://www.w3.org/1999/02/22-rdf-syntax-ns#"
   xmlns:svg="http://www.w3.org/2000/svg"
   xmlns="http://www.w3.org/2000/svg"
   xmlns:sodipodi="http://sodipodi.sourceforge.net/DTD/sodipodi-0.dtd"
   xmlns:inkscape="http://www.inkscape.org/namespaces/inkscape"
   version="1.1"
   id="Your_Icon"
   x="0px"
   y="0px"
   width="100px"
   height="100px"
   viewBox="0 0 100 100"
   enable-background="new 0 0 100 100"
   xml:space="preserve"
   inkscape:version="0.48.4 r9939"
   sodipodi:docname="icon_21660.svg"><metadata
     id="metadata6364"><rdf:RDF><cc:Work
         rdf:about=""><dc:format>image/svg+xml</dc:format><dc:type
           rdf:resource="http://purl.org/dc/dcmitype/StillImage" /></cc:Work></rdf:RDF></metadata><defs
     id="defs6362" /><sodipodi:namedview
     pagecolor="#ffffff"
     bordercolor="#666666"
     borderopacity="1"
     objecttolerance="10"
     gridtolerance="10"
     guidetolerance="10"
     inkscape:pageopacity="0"
     inkscape:pageshadow="2"
     inkscape:window-width="1920"
     inkscape:window-height="1056"
     id="namedview6360"
     showgrid="false"
     inkscape:zoom="2.36"
     inkscape:cx="-0.42372881"
     inkscape:cy="50"
     inkscape:window-x="0"
     inkscape:window-y="24"
     inkscape:window-maximized="1"
     inkscape:current-layer="Your_Icon" /><path
     d="m 79.433074,76.921753 v -0.421119 c -11.77323,-3.69136 -15.53523,-5.311538 -20.536134,-11.617461 0.270783,-0.204673 0.363159,-0.420213 0.623981,-0.647527 1.096721,1.193624 3.329107,3.277486 5.982612,3.039304 -1.883717,-1.883717 -2.149069,-3.547364 -1.529616,-4.617823 0.913784,0.738091 2.869046,1.533237 5.231843,1.201775 -2.399022,-1.772323 -3.713095,-5.989857 -3.838072,-9.612389 -0.0018,0 0.480891,0 0.480891,0 0,0 0,-0.340518 0,-0.342329 l -0.13494,0.01 c 0.09871,0.0091 0.07879,0.0163 0.180222,0.0163 1.008875,0 1.919942,-0.508965 2.604599,-1.39558 0.534324,-0.693715 0.849485,-1.600254 0.945481,-2.552074 l 0.422026,-4.387792 c 0.09962,-0.999819 -0.08785,-1.99511 -0.516211,-2.799312 -0.559681,-1.056874 -1.505162,-1.725231 -2.584676,-1.833001 l -0.175693,-0.0163 0.312443,-10.002717 c 0.0969,-0.12045 0.15758,-0.562398 0.15758,-1.488861 0,-4.212099 1.919942,-5.673791 1.457164,-10.217352 -0.681943,-6.647347 -4.653143,-7.459699 -6.775947,-8.365332 -2.124615,-0.904728 -4.37783,-3.49031 -4.875928,-4.210288 -0.387611,1.01612 -0.278029,2.530338 0,3.323673 C 53.706757,9.967397 50.708205,5 50.708205,5 c 0,0 -5.208296,4.967397 -8.365333,4.98551 0.276218,-0.793335 1.494295,-1.492483 1.717081,-3.432349 -2.21699,1.828473 -4.469299,3.414236 -6.593009,4.318058 -2.125521,0.905633 -6.094005,1.717986 -6.778663,8.365332 -0.461873,4.544467 1.458975,6.005253 1.458975,10.217352 0,0.926463 0.06158,1.368412 0.158485,1.488861 l 0.314255,10.002717 -0.174787,0.0163 c -1.08042,0.107771 -2.021373,0.776128 -2.58196,1.833002 -0.428364,0.806013 -0.60768,1.799492 -0.508966,2.799311 l 0.436515,4.386887 c 0.09509,0.953631 0.442855,1.86017 0.978084,2.552979 0.685564,0.886615 1.657309,1.395581 2.664373,1.395581 0.09962,0 0.201956,-0.0072 0.301575,-0.0163 l 0.03532,-0.0036 c -0.125883,3.132584 -1.419127,8.008513 -3.81996,9.781742 2.364608,0.331462 4.340699,-0.295236 5.254483,-1.034233 0.619453,1.070459 0.396667,2.734106 -1.48705,4.617823 2.653505,0.238182 4.972831,-1.844774 6.069553,-3.037493 0.272595,0.238181 0.704582,0.463684 0.990762,0.679225 -5.018111,6.278731 -10.249048,7.898908 -20.211012,11.583929 v 2.130049 c 0,0.0082 0,0.0163 0,0.02355 v 0.261728 c 0,5.085126 0,16.084039 0,16.084039 h 58.866148 c 0,0 0,-10.999819 0,-16.084043 l 0,0 v -1.992392 -0.0018 z M 35.317878,51.742438 33.535592,51.919942 c -0.03532,0.0027 -0.06973,0.0045 -0.103243,0.0045 -0.801484,0 -1.526896,-0.929179 -1.649158,-2.142728 l -0.436515,-4.386858 c -0.125883,-1.263358 0.453722,-2.357363 1.296867,-2.43887 l 1.818511,-0.181126 c 0.03351,-0.0036 0.06702,-0.0063 0.09962,-0.0063 0.07607,0 0.153957,0.01 0.22822,0.02536 0.166635,-2.558413 0.259011,-5.113204 0.542473,-7.502264 l 0.01902,-0.0969 c 0,0 0.0063,-0.08513 0.02083,-0.23637 0.10958,-0.852201 0.244521,-1.682666 0.419308,-2.48234 0.434704,-1.820323 1.270603,-3.967579 2.837348,-4.42764 2.315703,-0.681036 4.705669,0.08875 8.36171,0.388516 l -10.339612,19.945662 8.809998,-2.82648 -5.929181,13.629777 16.300489,-19.723782 -9.26372,2.826481 c 0,0 8.240355,-10.558776 11.380185,-14.49828 0.924651,-0.04438 1.78138,0.01 2.626336,0.259011 1.084042,0.318783 1.819416,1.446296 2.312986,2.715994 1.109401,3.495743 1.178229,7.76852 1.455354,12.050353 0.09781,-0.02808 0.200145,-0.04438 0.302481,-0.04438 0.0317,0 0.06339,9.06e-4 0.09509,0.0045 l 1.820321,0.181127 c 0.841334,0.08241 1.420034,1.175512 1.295961,2.43887 l -0.436514,4.386886 c -0.12045,1.212643 -0.847674,2.142728 -1.648253,2.142728 -0.03351,0 -0.06883,-0.0018 -0.101431,-0.0045 l -1.820323,-0.181127 c -0.01177,-0.0018 -0.02264,-0.0045 -0.03351,-0.0063 -1.647346,8.190545 -6.599348,14.108857 -14.250135,14.108857 -7.648978,0 -12.599168,-5.913784 -14.249231,-14.099801 z m 14.22206,40.924651 c -11.434523,0 -16.947111,-4.067198 -19.010143,-11.008875 4.364246,1.20902 8.308278,2.261366 8.678681,2.429814 0.978084,0.447382 1.271509,2.521282 1.260642,3.45499 l 1.931715,0.02988 c 9.06e-4,-0.03985 0.01268,-0.999818 -0.231842,-2.079333 -0.358631,-1.58848 -1.104872,-2.682485 -2.157218,-3.163376 -0.617642,-0.282558 -5.375838,-1.454447 -9.970114,-2.680674 -0.269879,-1.394675 -0.426553,-2.887158 -0.487231,-4.467488 5.331462,-2.191632 9.075349,-4.50009 12.76037,-9.166817 2.172613,1.206303 4.624162,1.83119 7.253215,1.83119 2.648976,0 5.116826,-0.634849 7.301213,-1.860171 3.694983,4.710198 7.378193,7.022279 12.711466,9.228401 -0.05887,1.56584 -0.209202,3.037493 -0.465496,4.410433 -4.562579,1.234378 -9.29904,2.419851 -9.920304,2.703315 -1.052346,0.480891 -1.798587,1.574895 -2.158124,3.163376 -0.244521,1.078609 -0.232747,2.039485 -0.231842,2.079333 l 1.931716,-0.02989 c -0.01087,-0.933707 0.282557,-3.007607 1.262452,-3.45499 0.370404,-0.168447 4.302663,-1.232566 8.645173,-2.450643 -2.042202,7.08839 -7.579243,11.031516 -19.104329,11.031516 z"
     id="path6358"
     style="fill:#333333"
     inkscape:connector-curvature="0" /></svg>